<?xml version="1.0" encoding="UTF-8" standalone="no"?><svg xmlns="http://www.w3.org/2000/svg" xmlns:xlink="http://www.w3.org/1999/xlink" contentScriptType="application/ecmascript" contentStyleType="text/css" height="398px" preserveAspectRatio="none" style="width:370px;height:398px;" version="1.1" viewBox="0 0 370 398" width="370px" zoomAndPan="magnify"><defs><filter height="300%" id="fdxu63edihdqi" width="300%" x="-1" y="-1"><feGaussianBlur result="blurOut" stdDeviation="2.0"/><feColorMatrix in="blurOut" result="blurOut2" type="matrix" values="0 0 0 0 0 0 0 0 0 0 0 0 0 0 0 0 0 0 .4 0"/><feOffset dx="4.0" dy="4.0" in="blurOut2" result="blurOut3"/><feBlend in="SourceGraphic" in2="blurOut3" mode="normal"/></filter></defs><g><rect fill="#FFFFFF" filter="url(#fdxu63edihdqi)" height="175.9297" style="stroke: #A80036; stroke-width: 1.0;" width="10" x="95" y="117.4297"/><rect fill="#FFFFFF" filter="url(#fdxu63edihdqi)" height="102.5313" style="stroke: #A80036; stroke-width: 1.0;" width="10" x="205" y="161.6953"/><rect fill="#FFFFFF" filter="url(#fdxu63edihdqi)" height="29.1328" style="stroke: #A80036; stroke-width: 1.0;" width="10" x="314.5" y="190.8281"/><line style="stroke: #A80036; stroke-width: 1.0; stroke-dasharray: 5.0,5.0;" x1="27" x2="27" y1="86.2969" y2="311.3594"/><line style="stroke: #A80036; stroke-width: 1.0; stroke-dasharray: 5.0,5.0;" x1="100" x2="100" y1="86.2969" y2="311.3594"/><line style="stroke: #A80036; stroke-width: 1.0; stroke-dasharray: 5.0,5.0;" x1="210" x2="210" y1="86.2969" y2="311.3594"/><line style="stroke: #A80036; stroke-width: 1.0; stroke-dasharray: 5.0,5.0;" x1="319" x2="319" y1="86.2969" y2="311.3594"/><text fill="#000000" font-family="sans-serif" font-size="14" lengthAdjust="spacingAndGlyphs" text-decoration="underline" textLength="32" x="8" y="82.9951">User</text><ellipse cx="27" cy="13" fill="#FEFECE" filter="url(#fdxu63edihdqi)" rx="8" ry="8" style="stroke: #A80036; stroke-width: 2.0;"/><path d="M27,21 L27,48 M14,29 L40,29 M27,48 L14,63 M27,48 L40,63 " fill="none" filter="url(#fdxu63edihdqi)" style="stroke: #A80036; stroke-width: 2.0;"/><text fill="#000000" font-family="sans-serif" font-size="14" lengthAdjust="spacingAndGlyphs" text-decoration="underline" textLength="32" x="8" y="323.3545">User</text><ellipse cx="27" cy="336.6563" fill="#FEFECE" filter="url(#fdxu63edihdqi)" rx="8" ry="8" style="stroke: #A80036; stroke-width: 2.0;"/><path d="M27,344.6563 L27,371.6563 M14,352.6563 L40,352.6563 M27,371.6563 L14,386.6563 M27,371.6563 L40,386.6563 " fill="none" filter="url(#fdxu63edihdqi)" style="stroke: #A80036; stroke-width: 2.0;"/><rect fill="#FEFECE" filter="url(#fdxu63edihdqi)" height="30.2969" rx="10" ry="10" style="stroke: #A80036; stroke-width: 1.5;" width="84" x="56" y="51"/><text fill="#000000" font-family="sans-serif" font-size="14" lengthAdjust="spacingAndGlyphs" text-decoration="underline" textLength="70" x="63" y="70.9951">First Class</text><rect fill="#FEFECE" filter="url(#fdxu63edihdqi)" height="30.2969" rx="10" ry="10" style="stroke: #A80036; stroke-width: 1.5;" width="84" x="56" y="310.3594"/><text fill="#000000" font-family="sans-serif" font-size="14" lengthAdjust="spacingAndGlyphs" text-decoration="underline" textLength="70" x="63" y="330.3545">First Class</text><rect fill="#FEFECE" filter="url(#fdxu63edihdqi)" height="30.2969" rx="10" ry="10" style="stroke: #A80036; stroke-width: 1.5;" width="108" x="154" y="51"/><text fill="#000000" font-family="sans-serif" font-size="14" lengthAdjust="spacingAndGlyphs" text-decoration="underline" textLength="94" x="161" y="70.9951">Second Class</text><rect fill="#FEFECE" filter="url(#fdxu63edihdqi)" height="30.2969" rx="10" ry="10" style="stroke: #A80036; stroke-width: 1.5;" width="108" x="154" y="310.3594"/><text fill="#000000" font-family="sans-serif" font-size="14" lengthAdjust="spacingAndGlyphs" text-decoration="underline" textLength="94" x="161" y="330.3545">Second Class</text><rect fill="#FEFECE" filter="url(#fdxu63edihdqi)" height="30.2969" rx="10" ry="10" style="stroke: #A80036; stroke-width: 1.5;" width="83" x="276" y="51"/><text fill="#000000" font-family="sans-serif" font-size="14" lengthAdjust="spacingAndGlyphs" text-decoration="underline" textLength="69" x="283" y="70.9951">Last Class</text><rect fill="#FEFECE" filter="url(#fdxu63edihdqi)" height="30.2969" rx="10" ry="10" style="stroke: #A80036; stroke-width: 1.5;" width="83" x="276" y="310.3594"/><text fill="#000000" font-family="sans-serif" font-size="14" lengthAdjust="spacingAndGlyphs" text-decoration="underline" textLength="69" x="283" y="330.3545">Last Class</text><rect fill="#FFFFFF" filter="url(#fdxu63edihdqi)" height="175.9297" style="stroke: #A80036; stroke-width: 1.0;" width="10" x="95" y="117.4297"/><rect fill="#FFFFFF" filter="url(#fdxu63edihdqi)" height="102.5313" style="stroke: #A80036; stroke-width: 1.0;" width="10" x="205" y="161.6953"/><rect fill="#FFFFFF" filter="url(#fdxu63edihdqi)" height="29.1328" style="stroke: #A80036; stroke-width: 1.0;" width="10" x="314.5" y="190.8281"/><polygon fill="#A80036" points="83,113.4297,93,117.4297,83,121.4297,87,117.4297" style="stroke: #A80036; stroke-width: 1.0;"/><line style="stroke: #A80036; stroke-width: 2.0;" x1="27" x2="89" y1="117.4297" y2="117.4297"/><text fill="#000000" font-family="sans-serif" font-size="13" lengthAdjust="spacingAndGlyphs" textLength="49" x="34" y="112.3638">DoWork</text><polygon fill="#A80036" points="193,157.6953,203,161.6953,193,165.6953,197,161.6953" style="stroke: #A80036; stroke-width: 1.0;"/><line style="stroke: #A80036; stroke-width: 2.0;" x1="105" x2="199" y1="161.6953" y2="161.6953"/><text fill="#000000" font-family="sans-serif" font-size="13" lengthAdjust="spacingAndGlyphs" textLength="43" x="112" y="141.4966">Create</text><text fill="#000000" font-family="sans-serif" font-size="13" lengthAdjust="spacingAndGlyphs" textLength="52" x="112" y="156.6294">Request</text><polygon fill="#A80036" points="302.5,186.8281,312.5,190.8281,302.5,194.8281,306.5,190.8281" style="stroke: #A80036; stroke-width: 1.0;"/><line style="stroke: #A80036; stroke-width: 2.0;" x1="215" x2="308.5" y1="190.8281" y2="190.8281"/><text fill="#000000" font-family="sans-serif" font-size="13" lengthAdjust="spacingAndGlyphs" textLength="49" x="222" y="185.7622">DoWork</text><polygon fill="#A80036" points="226,215.9609,216,219.9609,226,223.9609,222,219.9609" style="stroke: #A80036; stroke-width: 1.0;"/><line style="stroke: #A80036; stroke-width: 2.0; stroke-dasharray: 2.0,2.0;" x1="220" x2="318.5" y1="219.9609" y2="219.9609"/><text fill="#000000" font-family="sans-serif" font-size="13" lengthAdjust="spacingAndGlyphs" textLength="65" x="232" y="214.895">WorkDone</text><line style="stroke: #A80036; stroke-width: 2.0;" x1="310.5" x2="328.5" y1="210.9609" y2="228.9609"/><line style="stroke: #A80036; stroke-width: 2.0;" x1="310.5" x2="328.5" y1="228.9609" y2="210.9609"/><polygon fill="#A80036" points="116,260.2266,106,264.2266,116,268.2266,112,264.2266" style="stroke: #A80036; stroke-width: 1.0;"/><line style="stroke: #A80036; stroke-width: 2.0; stroke-dasharray: 2.0,2.0;" x1="110" x2="209" y1="264.2266" y2="264.2266"/><text fill="#000000" font-family="sans-serif" font-size="13" lengthAdjust="spacingAndGlyphs" textLength="52" x="122" y="244.0278">Request</text><text fill="#000000" font-family="sans-serif" font-size="13" lengthAdjust="spacingAndGlyphs" textLength="51" x="122" y="259.1606">Created</text><polygon fill="#A80036" points="38,289.3594,28,293.3594,38,297.3594,34,293.3594" style="stroke: #A80036; stroke-width: 1.0;"/><line style="stroke: #A80036; stroke-width: 2.0; stroke-dasharray: 2.0,2.0;" x1="32" x2="99" y1="293.3594" y2="293.3594"/><text fill="#000000" font-family="sans-serif" font-size="13" lengthAdjust="spacingAndGlyphs" textLength="34" x="44" y="288.2935">Done</text><!--
@startuml
skinparam sequenceArrowThickness 2
skinparam roundcorner 20
skinparam maxmessagesize 60
skinparam sequenceParticipant underline

actor User
participant "First Class" as A
participant "Second Class" as B
participant "Last Class" as C

User -> A: DoWork
activate A

A -> B: Create Request
activate B

B -> C: DoWork
activate C
C - -> B: WorkDone
destroy C

B - -> A: Request Created
deactivate B

A - -> User: Done
deactivate A

@enduml

PlantUML version 1.2019.05(Sat Apr 20 16:45:36 UTC 2019)
(GPL source distribution)
Java Runtime: OpenJDK Runtime Environment
JVM: OpenJDK 64-Bit Server VM
Java Version: 11.0.9+11-post-Debian-1deb10u1
Operating System: Linux
OS Version: 5.4.0-1047-azure
Default Encoding: UTF-8
Language: en
Country: null
--></g></svg>