<?xml version="1.0" encoding="UTF-8" standalone="no"?><svg xmlns="http://www.w3.org/2000/svg" xmlns:xlink="http://www.w3.org/1999/xlink" contentScriptType="application/ecmascript" contentStyleType="text/css" height="356px" preserveAspectRatio="none" style="width:377px;height:356px;" version="1.1" viewBox="0 0 377 356" width="377px" zoomAndPan="magnify"><defs><filter height="300%" id="f13e7gu0h35jq4" width="300%" x="-1" y="-1"><feGaussianBlur result="blurOut" stdDeviation="2.0"/><feColorMatrix in="blurOut" result="blurOut2" type="matrix" values="0 0 0 0 0 0 0 0 0 0 0 0 0 0 0 0 0 0 .4 0"/><feOffset dx="4.0" dy="4.0" in="blurOut2" result="blurOut3"/><feBlend in="SourceGraphic" in2="blurOut3" mode="normal"/></filter></defs><g><line style="stroke: #A80036; stroke-width: 1.0; stroke-dasharray: 5.0,5.0;" x1="143" x2="143" y1="38.4883" y2="316.2832"/><line style="stroke: #A80036; stroke-width: 1.0; stroke-dasharray: 5.0,5.0;" x1="201" x2="201" y1="38.4883" y2="316.2832"/><rect fill="#FEFECE" filter="url(#f13e7gu0h35jq4)" height="30.4883" style="stroke: #A80036; stroke-width: 1.5;" width="47" x="118" y="3"/><text fill="#000000" font-family="sans-serif" font-size="14" lengthAdjust="spacingAndGlyphs" textLength="33" x="125" y="23.5352">Alice</text><rect fill="#FEFECE" filter="url(#f13e7gu0h35jq4)" height="30.4883" style="stroke: #A80036; stroke-width: 1.5;" width="47" x="118" y="315.2832"/><text fill="#000000" font-family="sans-serif" font-size="14" lengthAdjust="spacingAndGlyphs" textLength="33" x="125" y="335.8184">Alice</text><rect fill="#FEFECE" filter="url(#f13e7gu0h35jq4)" height="30.4883" style="stroke: #A80036; stroke-width: 1.5;" width="40" x="179" y="3"/><text fill="#000000" font-family="sans-serif" font-size="14" lengthAdjust="spacingAndGlyphs" textLength="26" x="186" y="23.5352">Bob</text><rect fill="#FEFECE" filter="url(#f13e7gu0h35jq4)" height="30.4883" style="stroke: #A80036; stroke-width: 1.5;" width="40" x="179" y="315.2832"/><text fill="#000000" font-family="sans-serif" font-size="14" lengthAdjust="spacingAndGlyphs" textLength="26" x="186" y="335.8184">Bob</text><path d="M8,53.4883 L8,93.4883 L135,93.4883 L135,63.4883 L125,53.4883 L8,53.4883 " fill="#00FFFF" filter="url(#f13e7gu0h35jq4)" style="stroke: #A80036; stroke-width: 1.0;"/><path d="M125,53.4883 L125,63.4883 L135,63.4883 L125,53.4883 " fill="#00FFFF" style="stroke: #A80036; stroke-width: 1.0;"/><text fill="#000000" font-family="sans-serif" font-size="13" lengthAdjust="spacingAndGlyphs" textLength="106" x="14" y="71.0566">This is displayed</text><text fill="#000000" font-family="sans-serif" font-size="13" lengthAdjust="spacingAndGlyphs" textLength="77" x="14" y="86.3672">left of Alice.</text><path d="M148,108.1094 L148,133.1094 L365,133.1094 L365,118.1094 L355,108.1094 L148,108.1094 " fill="#FBFB77" filter="url(#f13e7gu0h35jq4)" style="stroke: #A80036; stroke-width: 1.0;"/><path d="M355,108.1094 L355,118.1094 L365,118.1094 L355,108.1094 " fill="#FBFB77" style="stroke: #A80036; stroke-width: 1.0;"/><text fill="#000000" font-family="sans-serif" font-size="13" lengthAdjust="spacingAndGlyphs" textLength="196" x="154" y="125.6777">This is displayed right of Alice.</text><path d="M43,147.4199 L43,172.4199 L240,172.4199 L240,157.4199 L230,147.4199 L43,147.4199 " fill="#FBFB77" filter="url(#f13e7gu0h35jq4)" style="stroke: #A80036; stroke-width: 1.0;"/><path d="M230,147.4199 L230,157.4199 L240,157.4199 L230,147.4199 " fill="#FBFB77" style="stroke: #A80036; stroke-width: 1.0;"/><text fill="#000000" font-family="sans-serif" font-size="13" lengthAdjust="spacingAndGlyphs" textLength="176" x="49" y="164.9883">This is displayed over Alice.</text><path d="M97,186.7305 L97,226.7305 L242,226.7305 L242,196.7305 L232,186.7305 L97,186.7305 " fill="#FFAAAA" filter="url(#f13e7gu0h35jq4)" style="stroke: #A80036; stroke-width: 1.0;"/><path d="M232,186.7305 L232,196.7305 L242,196.7305 L232,186.7305 " fill="#FFAAAA" style="stroke: #A80036; stroke-width: 1.0;"/><text fill="#000000" font-family="sans-serif" font-size="13" lengthAdjust="spacingAndGlyphs" textLength="106" x="103" y="204.2988">This is displayed</text><text fill="#000000" font-family="sans-serif" font-size="13" lengthAdjust="spacingAndGlyphs" textLength="120" x="107" y="219.6094">over Bob and Alice.</text><path d="M101,241.3516 L101,296.3516 L239,296.3516 L239,251.3516 L229,241.3516 L101,241.3516 " fill="#FBFB77" filter="url(#f13e7gu0h35jq4)" style="stroke: #A80036; stroke-width: 1.0;"/><path d="M229,241.3516 L229,251.3516 L239,251.3516 L229,241.3516 " fill="#FBFB77" style="stroke: #A80036; stroke-width: 1.0;"/><text fill="#000000" font-family="sans-serif" font-size="13" lengthAdjust="spacingAndGlyphs" textLength="117" x="107" y="258.9199">This is yet another</text><text fill="#000000" font-family="sans-serif" font-size="13" lengthAdjust="spacingAndGlyphs" textLength="70" x="107" y="274.2305">example of</text><text fill="#000000" font-family="sans-serif" font-size="13" lengthAdjust="spacingAndGlyphs" textLength="75" x="107" y="289.541">a long note.</text><!--
@startuml
participant Alice
participant Bob
note left of Alice #aqua
This is displayed
left of Alice.
end note

note right of Alice: This is displayed right of Alice.

note over Alice: This is displayed over Alice.

note over Alice, Bob #FFAAAA: This is displayed\n over Bob and Alice.

note over Bob, Alice
This is yet another
example of
a long note.
end note
@enduml

PlantUML version 1.2019.05(Sun Apr 21 00:45:36 CST 2019)
(GPL source distribution)
Java Runtime: Java(TM) SE Runtime Environment
JVM: Java HotSpot(TM) 64-Bit Server VM
Java Version: 1.8.0_191-b12
Operating System: Mac OS X
OS Version: 10.16
Default Encoding: UTF-8
Language: en
Country: CN
--></g></svg>