<?xml version="1.0" encoding="UTF-8" standalone="no"?><svg xmlns="http://www.w3.org/2000/svg" xmlns:xlink="http://www.w3.org/1999/xlink" contentScriptType="application/ecmascript" contentStyleType="text/css" height="354px" preserveAspectRatio="none" style="width:369px;height:354px;" version="1.1" viewBox="0 0 369 354" width="369px" zoomAndPan="magnify"><defs><filter height="300%" id="f13e7gu0h35jq4" width="300%" x="-1" y="-1"><feGaussianBlur result="blurOut" stdDeviation="2.0"/><feColorMatrix in="blurOut" result="blurOut2" type="matrix" values="0 0 0 0 0 0 0 0 0 0 0 0 0 0 0 0 0 0 .4 0"/><feOffset dx="4.0" dy="4.0" in="blurOut2" result="blurOut3"/><feBlend in="SourceGraphic" in2="blurOut3" mode="normal"/></filter></defs><g><line style="stroke: #A80036; stroke-width: 1.0; stroke-dasharray: 5.0,5.0;" x1="141" x2="141" y1="38.2969" y2="314.4922"/><line style="stroke: #A80036; stroke-width: 1.0; stroke-dasharray: 5.0,5.0;" x1="199" x2="199" y1="38.2969" y2="314.4922"/><rect fill="#FEFECE" filter="url(#f13e7gu0h35jq4)" height="30.2969" style="stroke: #A80036; stroke-width: 1.5;" width="46" x="116" y="3"/><text fill="#000000" font-family="sans-serif" font-size="14" lengthAdjust="spacingAndGlyphs" textLength="32" x="123" y="22.9951">Alice</text><rect fill="#FEFECE" filter="url(#f13e7gu0h35jq4)" height="30.2969" style="stroke: #A80036; stroke-width: 1.5;" width="46" x="116" y="313.4922"/><text fill="#000000" font-family="sans-serif" font-size="14" lengthAdjust="spacingAndGlyphs" textLength="32" x="123" y="333.4873">Alice</text><rect fill="#FEFECE" filter="url(#f13e7gu0h35jq4)" height="30.2969" style="stroke: #A80036; stroke-width: 1.5;" width="42" x="176" y="3"/><text fill="#000000" font-family="sans-serif" font-size="14" lengthAdjust="spacingAndGlyphs" textLength="28" x="183" y="22.9951">Bob</text><rect fill="#FEFECE" filter="url(#f13e7gu0h35jq4)" height="30.2969" style="stroke: #A80036; stroke-width: 1.5;" width="42" x="176" y="313.4922"/><text fill="#000000" font-family="sans-serif" font-size="14" lengthAdjust="spacingAndGlyphs" textLength="28" x="183" y="333.4873">Bob</text><path d="M8,53.2969 L8,93.2969 L132,93.2969 L132,63.2969 L122,53.2969 L8,53.2969 " fill="#00FFFF" filter="url(#f13e7gu0h35jq4)" style="stroke: #A80036; stroke-width: 1.0;"/><path d="M122,53.2969 L122,63.2969 L132,63.2969 L122,53.2969 " fill="#00FFFF" style="stroke: #A80036; stroke-width: 1.0;"/><text fill="#000000" font-family="sans-serif" font-size="13" lengthAdjust="spacingAndGlyphs" textLength="103" x="14" y="70.3638">This is displayed</text><text fill="#000000" font-family="sans-serif" font-size="13" lengthAdjust="spacingAndGlyphs" textLength="74" x="14" y="85.4966">left of Alice.</text><path d="M146,107.5625 L146,132.5625 L357,132.5625 L357,117.5625 L347,107.5625 L146,107.5625 " fill="#FBFB77" filter="url(#f13e7gu0h35jq4)" style="stroke: #A80036; stroke-width: 1.0;"/><path d="M347,107.5625 L347,117.5625 L357,117.5625 L347,107.5625 " fill="#FBFB77" style="stroke: #A80036; stroke-width: 1.0;"/><text fill="#000000" font-family="sans-serif" font-size="13" lengthAdjust="spacingAndGlyphs" textLength="190" x="152" y="124.6294">This is displayed right of Alice.</text><path d="M42,146.6953 L42,171.6953 L236,171.6953 L236,156.6953 L226,146.6953 L42,146.6953 " fill="#FBFB77" filter="url(#f13e7gu0h35jq4)" style="stroke: #A80036; stroke-width: 1.0;"/><path d="M226,146.6953 L226,156.6953 L236,156.6953 L226,146.6953 " fill="#FBFB77" style="stroke: #A80036; stroke-width: 1.0;"/><text fill="#000000" font-family="sans-serif" font-size="13" lengthAdjust="spacingAndGlyphs" textLength="173" x="48" y="163.7622">This is displayed over Alice.</text><path d="M94,185.8281 L94,225.8281 L242,225.8281 L242,195.8281 L232,185.8281 L94,185.8281 " fill="#FFAAAA" filter="url(#f13e7gu0h35jq4)" style="stroke: #A80036; stroke-width: 1.0;"/><path d="M232,185.8281 L232,195.8281 L242,195.8281 L232,185.8281 " fill="#FFAAAA" style="stroke: #A80036; stroke-width: 1.0;"/><text fill="#000000" font-family="sans-serif" font-size="13" lengthAdjust="spacingAndGlyphs" textLength="103" x="100" y="202.895">This is displayed</text><text fill="#000000" font-family="sans-serif" font-size="13" lengthAdjust="spacingAndGlyphs" textLength="123" x="104" y="218.0278">over Bob and Alice.</text><path d="M99,240.0938 L99,295.0938 L237,295.0938 L237,250.0938 L227,240.0938 L99,240.0938 " fill="#FBFB77" filter="url(#f13e7gu0h35jq4)" style="stroke: #A80036; stroke-width: 1.0;"/><path d="M227,240.0938 L227,250.0938 L237,250.0938 L227,240.0938 " fill="#FBFB77" style="stroke: #A80036; stroke-width: 1.0;"/><text fill="#000000" font-family="sans-serif" font-size="13" lengthAdjust="spacingAndGlyphs" textLength="117" x="105" y="257.1606">This is yet another</text><text fill="#000000" font-family="sans-serif" font-size="13" lengthAdjust="spacingAndGlyphs" textLength="71" x="105" y="272.2935">example of</text><text fill="#000000" font-family="sans-serif" font-size="13" lengthAdjust="spacingAndGlyphs" textLength="76" x="105" y="287.4263">a long note.</text><!--
@startuml
participant Alice
participant Bob
note left of Alice #aqua
This is displayed
left of Alice.
end note

note right of Alice: This is displayed right of Alice.

note over Alice: This is displayed over Alice.

note over Alice, Bob #FFAAAA: This is displayed\n over Bob and Alice.

note over Bob, Alice
This is yet another
example of
a long note.
end note
@enduml

PlantUML version 1.2019.05(Sat Apr 20 16:45:36 UTC 2019)
(GPL source distribution)
Java Runtime: OpenJDK Runtime Environment
JVM: OpenJDK 64-Bit Server VM
Java Version: 11.0.9+11-post-Debian-1deb10u1
Operating System: Linux
OS Version: 5.4.0-1047-azure
Default Encoding: UTF-8
Language: en
Country: null
--></g></svg>