<?xml version="1.0" encoding="UTF-8" standalone="no"?><svg xmlns="http://www.w3.org/2000/svg" xmlns:xlink="http://www.w3.org/1999/xlink" contentScriptType="application/ecmascript" contentStyleType="text/css" height="118px" preserveAspectRatio="none" style="width:94px;height:118px;" version="1.1" viewBox="0 0 94 118" width="94px" zoomAndPan="magnify"><defs><filter height="300%" id="f1ecchuq1p59jw" width="300%" x="-1" y="-1"><feGaussianBlur result="blurOut" stdDeviation="2.0"/><feColorMatrix in="blurOut" result="blurOut2" type="matrix" values="0 0 0 0 0 0 0 0 0 0 0 0 0 0 0 0 0 0 .4 0"/><feOffset dx="4.0" dy="4.0" in="blurOut2" result="blurOut3"/><feBlend in="SourceGraphic" in2="blurOut3" mode="normal"/></filter></defs><g><!--class Dummy--><rect fill="#FEFECE" filter="url(#f1ecchuq1p59jw)" height="99.8203" id="Dummy" style="stroke: #A80036; stroke-width: 1.5;" width="77" x="6" y="8"/><ellipse cx="21.45" cy="24" fill="#ADD1B2" rx="11" ry="11" style="stroke: #A80036; stroke-width: 1.0;"/><path d="M23.9231,30.1431 Q23.3421,30.4419 22.7029,30.5913 Q22.0638,30.7407 21.3582,30.7407 Q18.8514,30.7407 17.5315,29.0889 Q16.2117,27.437 16.2117,24.3159 Q16.2117,21.1865 17.5315,19.5347 Q18.8514,17.8828 21.3582,17.8828 Q22.0638,17.8828 22.7112,18.0322 Q23.3587,18.1816 23.9231,18.4805 L23.9231,21.2031 Q23.2923,20.6221 22.6988,20.3523 Q22.1053,20.0825 21.4744,20.0825 Q20.1297,20.0825 19.4449,21.1492 Q18.7601,22.2158 18.7601,24.3159 Q18.7601,26.4077 19.4449,27.4744 Q20.1297,28.541 21.4744,28.541 Q22.1053,28.541 22.6988,28.2712 Q23.2923,28.0015 23.9231,27.4204 Z "/><text fill="#000000" font-family="sans-serif" font-size="12" lengthAdjust="spacingAndGlyphs" textLength="44" x="35.55" y="28.5352">Dummy</text><line style="stroke: #A80036; stroke-width: 1.5;" x1="7" x2="82" y1="40" y2="40"/><text fill="#000000" font-family="sans-serif" font-size="11" lengthAdjust="spacingAndGlyphs" textLength="36" x="12" y="54.6348">-field1</text><text fill="#000000" font-family="sans-serif" font-size="11" lengthAdjust="spacingAndGlyphs" textLength="37" x="12" y="67.5898">#field2</text><line style="stroke: #A80036; stroke-width: 1.5;" x1="7" x2="82" y1="73.9102" y2="73.9102"/><text fill="#000000" font-family="sans-serif" font-size="11" lengthAdjust="spacingAndGlyphs" textLength="63" x="12" y="88.5449">~method1()</text><text fill="#000000" font-family="sans-serif" font-size="11" lengthAdjust="spacingAndGlyphs" textLength="65" x="12" y="101.5">+method2()</text><!--
@startuml
skinparam classAttributeIconSize 0
class Dummy {
 -field1
 #field2
 ~method1()
 +method2()
}
@enduml

PlantUML version 1.2019.05(Sun Apr 21 00:45:36 CST 2019)
(GPL source distribution)
Java Runtime: Java(TM) SE Runtime Environment
JVM: Java HotSpot(TM) 64-Bit Server VM
Java Version: 1.8.0_191-b12
Operating System: Mac OS X
OS Version: 10.16
Default Encoding: UTF-8
Language: en
Country: CN
--></g></svg>