<?xml version="1.0" encoding="UTF-8" standalone="no"?><svg xmlns="http://www.w3.org/2000/svg" xmlns:xlink="http://www.w3.org/1999/xlink" contentScriptType="application/ecmascript" contentStyleType="text/css" height="188px" preserveAspectRatio="none" style="width:192px;height:188px;" version="1.1" viewBox="0 0 192 188" width="192px" zoomAndPan="magnify"><defs><filter height="300%" id="fmrfos47plmcr" width="300%" x="-1" y="-1"><feGaussianBlur result="blurOut" stdDeviation="2.0"/><feColorMatrix in="blurOut" result="blurOut2" type="matrix" values="0 0 0 0 0 0 0 0 0 0 0 0 0 0 0 0 0 0 .4 0"/><feOffset dx="4.0" dy="4.0" in="blurOut2" result="blurOut3"/><feBlend in="SourceGraphic" in2="blurOut3" mode="normal"/></filter></defs><g><rect fill="#FEFECE" filter="url(#fmrfos47plmcr)" height="33.9688" rx="12.5" ry="12.5" style="stroke: #A80036; stroke-width: 1.5;" width="71" x="64" y="67.6094"/><text fill="#000000" font-family="sans-serif" font-size="12" lengthAdjust="spacingAndGlyphs" textLength="51" x="74" y="88.748">read file</text><polygon fill="#FEFECE" filter="url(#fmrfos47plmcr)" points="57,11.8989,142,11.8989,154,23.8989,142,35.8989,57,35.8989,45,23.8989,57,11.8989" style="stroke: #A80036; stroke-width: 1.5;"/><text fill="#000000" font-family="sans-serif" font-size="11" lengthAdjust="spacingAndGlyphs" textLength="57" x="103.5" y="46.1094">not empty</text><text fill="#000000" font-family="sans-serif" font-size="11" lengthAdjust="spacingAndGlyphs" textLength="85" x="57" y="27.707">check filesize ?</text><text fill="#000000" font-family="sans-serif" font-size="11" lengthAdjust="spacingAndGlyphs" textLength="35" x="10" y="21.3047">empty</text><rect fill="#FEFECE" filter="url(#fmrfos47plmcr)" height="33.9688" rx="12.5" ry="12.5" style="stroke: #A80036; stroke-width: 1.5;" width="75" x="62" y="143.5781"/><text fill="#000000" font-family="sans-serif" font-size="12" lengthAdjust="spacingAndGlyphs" textLength="55" x="72" y="164.7168">close file</text><line style="stroke: #A80036; stroke-width: 1.5;" x1="99.5" x2="99.5" y1="35.8989" y2="67.6094"/><polygon fill="#A80036" points="95.5,57.6094,99.5,67.6094,103.5,57.6094,99.5,61.6094" style="stroke: #A80036; stroke-width: 1.0;"/><line style="stroke: #A80036; stroke-width: 1.5;" x1="99.5" x2="99.5" y1="101.5781" y2="111.5781"/><line style="stroke: #A80036; stroke-width: 1.5;" x1="99.5" x2="166" y1="111.5781" y2="111.5781"/><polygon fill="#A80036" points="162,76.1914,166,66.1914,170,76.1914,166,72.1914" style="stroke: #A80036; stroke-width: 1.5;"/><line style="stroke: #A80036; stroke-width: 1.5;" x1="166" x2="166" y1="23.8989" y2="111.5781"/><line style="stroke: #A80036; stroke-width: 1.5;" x1="166" x2="154" y1="23.8989" y2="23.8989"/><polygon fill="#A80036" points="164,19.8989,154,23.8989,164,27.8989,160,23.8989" style="stroke: #A80036; stroke-width: 1.0;"/><line style="stroke: #A80036; stroke-width: 1.5;" x1="45" x2="33" y1="23.8989" y2="23.8989"/><polygon fill="#A80036" points="29,62.1914,33,72.1914,37,62.1914,33,66.1914" style="stroke: #A80036; stroke-width: 1.5;"/><line style="stroke: #A80036; stroke-width: 1.5;" x1="33" x2="33" y1="23.8989" y2="123.5781"/><line style="stroke: #A80036; stroke-width: 1.5;" x1="33" x2="99.5" y1="123.5781" y2="123.5781"/><line style="stroke: #A80036; stroke-width: 1.5;" x1="99.5" x2="99.5" y1="123.5781" y2="143.5781"/><polygon fill="#A80036" points="95.5,133.5781,99.5,143.5781,103.5,133.5781,99.5,137.5781" style="stroke: #A80036; stroke-width: 1.0;"/><!--
@startuml
while (check filesize ?) is (not empty)
  :read file;
endwhile (empty)
:close file;
@enduml

PlantUML version 1.2019.05(Sat Apr 20 16:45:36 UTC 2019)
(GPL source distribution)
Java Runtime: OpenJDK Runtime Environment
JVM: OpenJDK 64-Bit Server VM
Java Version: 11.0.9+11-post-Debian-1deb10u1
Operating System: Linux
OS Version: 5.4.0-1047-azure
Default Encoding: UTF-8
Language: en
Country: null
--></g></svg>