<?xml version="1.0" encoding="UTF-8" standalone="no"?><svg xmlns="http://www.w3.org/2000/svg" xmlns:xlink="http://www.w3.org/1999/xlink" contentScriptType="application/ecmascript" contentStyleType="text/css" height="302px" preserveAspectRatio="none" style="width:607px;height:302px;" version="1.1" viewBox="0 0 607 302" width="607px" zoomAndPan="magnify"><defs><filter height="300%" id="f1oj5zwjq4wcrj" width="300%" x="-1" y="-1"><feGaussianBlur result="blurOut" stdDeviation="2.0"/><feColorMatrix in="blurOut" result="blurOut2" type="matrix" values="0 0 0 0 0 0 0 0 0 0 0 0 0 0 0 0 0 0 .4 0"/><feOffset dx="4.0" dy="4.0" in="blurOut2" result="blurOut3"/><feBlend in="SourceGraphic" in2="blurOut3" mode="normal"/></filter></defs><g><line style="stroke: #A80036; stroke-width: 1.0; stroke-dasharray: 5.0,5.0;" x1="31" x2="31" y1="38.2969" y2="262.2266"/><line style="stroke: #A80036; stroke-width: 1.0; stroke-dasharray: 5.0,5.0;" x1="221" x2="221" y1="38.2969" y2="262.2266"/><line style="stroke: #A80036; stroke-width: 1.0; stroke-dasharray: 5.0,5.0;" x1="493" x2="493" y1="38.2969" y2="262.2266"/><line style="stroke: #A80036; stroke-width: 1.0; stroke-dasharray: 5.0,5.0;" x1="563" x2="563" y1="38.2969" y2="262.2266"/><rect fill="#FEFECE" filter="url(#f1oj5zwjq4wcrj)" height="30.2969" style="stroke: #A80036; stroke-width: 1.5;" width="42" x="8" y="3"/><text fill="#000000" font-family="sans-serif" font-size="14" lengthAdjust="spacingAndGlyphs" textLength="28" x="15" y="22.9951">用户</text><rect fill="#FEFECE" filter="url(#f1oj5zwjq4wcrj)" height="30.2969" style="stroke: #A80036; stroke-width: 1.5;" width="42" x="8" y="261.2266"/><text fill="#000000" font-family="sans-serif" font-size="14" lengthAdjust="spacingAndGlyphs" textLength="28" x="15" y="281.2217">用户</text><rect fill="#FEFECE" filter="url(#f1oj5zwjq4wcrj)" height="30.2969" style="stroke: #A80036; stroke-width: 1.5;" width="70" x="184" y="3"/><text fill="#000000" font-family="sans-serif" font-size="14" lengthAdjust="spacingAndGlyphs" textLength="56" x="191" y="22.9951">认证中心</text><rect fill="#FEFECE" filter="url(#f1oj5zwjq4wcrj)" height="30.2969" style="stroke: #A80036; stroke-width: 1.5;" width="70" x="184" y="261.2266"/><text fill="#000000" font-family="sans-serif" font-size="14" lengthAdjust="spacingAndGlyphs" textLength="56" x="191" y="281.2217">认证中心</text><rect fill="#FEFECE" filter="url(#f1oj5zwjq4wcrj)" height="30.2969" style="stroke: #A80036; stroke-width: 1.5;" width="42" x="470" y="3"/><text fill="#000000" font-family="sans-serif" font-size="14" lengthAdjust="spacingAndGlyphs" textLength="28" x="477" y="22.9951">缓存</text><rect fill="#FEFECE" filter="url(#f1oj5zwjq4wcrj)" height="30.2969" style="stroke: #A80036; stroke-width: 1.5;" width="42" x="470" y="261.2266"/><text fill="#000000" font-family="sans-serif" font-size="14" lengthAdjust="spacingAndGlyphs" textLength="28" x="477" y="281.2217">缓存</text><rect fill="#FEFECE" filter="url(#f1oj5zwjq4wcrj)" height="30.2969" style="stroke: #A80036; stroke-width: 1.5;" width="70" x="526" y="3"/><text fill="#000000" font-family="sans-serif" font-size="14" lengthAdjust="spacingAndGlyphs" textLength="56" x="533" y="22.9951">其他服务</text><rect fill="#FEFECE" filter="url(#f1oj5zwjq4wcrj)" height="30.2969" style="stroke: #A80036; stroke-width: 1.5;" width="70" x="526" y="261.2266"/><text fill="#000000" font-family="sans-serif" font-size="14" lengthAdjust="spacingAndGlyphs" textLength="56" x="533" y="281.2217">其他服务</text><polygon fill="#A80036" points="209,65.4297,219,69.4297,209,73.4297,213,69.4297" style="stroke: #A80036; stroke-width: 1.0;"/><line style="stroke: #A80036; stroke-width: 1.0;" x1="31" x2="215" y1="69.4297" y2="69.4297"/><text fill="#000000" font-family="sans-serif" font-size="13" lengthAdjust="spacingAndGlyphs" textLength="52" x="38" y="64.3638">登录操作</text><polygon fill="#A80036" points="481,94.5625,491,98.5625,481,102.5625,485,98.5625" style="stroke: #A80036; stroke-width: 1.0;"/><line style="stroke: #A80036; stroke-width: 1.0;" x1="221" x2="487" y1="98.5625" y2="98.5625"/><text fill="#000000" font-family="sans-serif" font-size="13" lengthAdjust="spacingAndGlyphs" textLength="248" x="228" y="93.4966">存放(key=token+ip,value=token)token</text><polygon fill="#A80036" points="42,123.6953,32,127.6953,42,131.6953,38,127.6953" style="stroke: #A80036; stroke-width: 1.0;"/><line style="stroke: #A80036; stroke-width: 1.0;" x1="36" x2="220" y1="127.6953" y2="127.6953"/><text fill="#000000" font-family="sans-serif" font-size="13" lengthAdjust="spacingAndGlyphs" textLength="114" x="48" y="122.6294">认证成功返回token</text><polygon fill="#A80036" points="209,152.8281,219,156.8281,209,160.8281,213,156.8281" style="stroke: #A80036; stroke-width: 1.0;"/><line style="stroke: #A80036; stroke-width: 1.0;" x1="31" x2="215" y1="156.8281" y2="156.8281"/><text fill="#000000" font-family="sans-serif" font-size="13" lengthAdjust="spacingAndGlyphs" textLength="166" x="38" y="151.7622">下次访问头部携带token认证</text><polygon fill="#A80036" points="232,181.9609,222,185.9609,232,189.9609,228,185.9609" style="stroke: #A80036; stroke-width: 1.0;"/><line style="stroke: #A80036; stroke-width: 1.0;" x1="226" x2="492" y1="185.9609" y2="185.9609"/><text fill="#000000" font-family="sans-serif" font-size="13" lengthAdjust="spacingAndGlyphs" textLength="153" x="238" y="180.895">key=token+ip获取token</text><polygon fill="#A80036" points="551,211.0938,561,215.0938,551,219.0938,555,215.0938" style="stroke: #A80036; stroke-width: 1.0;"/><line style="stroke: #A80036; stroke-width: 1.0;" x1="221" x2="557" y1="215.0938" y2="215.0938"/><text fill="#000000" font-family="sans-serif" font-size="13" lengthAdjust="spacingAndGlyphs" textLength="260" x="228" y="210.0278">存在且校验成功则跳转到用户请求的其他服务</text><polygon fill="#A80036" points="42,240.2266,32,244.2266,42,248.2266,38,244.2266" style="stroke: #A80036; stroke-width: 1.0;"/><line style="stroke: #A80036; stroke-width: 1.0;" x1="36" x2="562" y1="244.2266" y2="244.2266"/><text fill="#000000" font-family="sans-serif" font-size="13" lengthAdjust="spacingAndGlyphs" textLength="26" x="48" y="239.1606">信息</text><!--
@startuml
用户 -> 认证中心: 登录操作
认证中心 -> 缓存: 存放(key=token+ip,value=token)token

用户 <- 认证中心 : 认证成功返回token
用户 -> 认证中心: 下次访问头部携带token认证
认证中心 <- 缓存: key=token+ip获取token
其他服务 <- 认证中心: 存在且校验成功则跳转到用户请求的其他服务
其他服务 -> 用户: 信息
@enduml

PlantUML version 1.2019.05(Sat Apr 20 16:45:36 UTC 2019)
(GPL source distribution)
Java Runtime: OpenJDK Runtime Environment
JVM: OpenJDK 64-Bit Server VM
Java Version: 11.0.9+11-post-Debian-1deb10u1
Operating System: Linux
OS Version: 5.4.0-1047-azure
Default Encoding: UTF-8
Language: en
Country: null
--></g></svg>