<?xml version="1.0" encoding="UTF-8" standalone="no"?><svg xmlns="http://www.w3.org/2000/svg" xmlns:xlink="http://www.w3.org/1999/xlink" contentScriptType="application/ecmascript" contentStyleType="text/css" height="304px" preserveAspectRatio="none" style="width:602px;height:304px;" version="1.1" viewBox="0 0 602 304" width="602px" zoomAndPan="magnify"><defs><filter height="300%" id="f1oj5zwjq4wcrj" width="300%" x="-1" y="-1"><feGaussianBlur result="blurOut" stdDeviation="2.0"/><feColorMatrix in="blurOut" result="blurOut2" type="matrix" values="0 0 0 0 0 0 0 0 0 0 0 0 0 0 0 0 0 0 .4 0"/><feOffset dx="4.0" dy="4.0" in="blurOut2" result="blurOut3"/><feBlend in="SourceGraphic" in2="blurOut3" mode="normal"/></filter></defs><g><line style="stroke: #A80036; stroke-width: 1.0; stroke-dasharray: 5.0,5.0;" x1="31" x2="31" y1="38.4883" y2="263.6621"/><line style="stroke: #A80036; stroke-width: 1.0; stroke-dasharray: 5.0,5.0;" x1="221" x2="221" y1="38.4883" y2="263.6621"/><line style="stroke: #A80036; stroke-width: 1.0; stroke-dasharray: 5.0,5.0;" x1="488" x2="488" y1="38.4883" y2="263.6621"/><line style="stroke: #A80036; stroke-width: 1.0; stroke-dasharray: 5.0,5.0;" x1="558" x2="558" y1="38.4883" y2="263.6621"/><rect fill="#FEFECE" filter="url(#f1oj5zwjq4wcrj)" height="30.4883" style="stroke: #A80036; stroke-width: 1.5;" width="42" x="8" y="3"/><text fill="#000000" font-family="sans-serif" font-size="14" lengthAdjust="spacingAndGlyphs" textLength="28" x="15" y="23.5352">用户</text><rect fill="#FEFECE" filter="url(#f1oj5zwjq4wcrj)" height="30.4883" style="stroke: #A80036; stroke-width: 1.5;" width="42" x="8" y="262.6621"/><text fill="#000000" font-family="sans-serif" font-size="14" lengthAdjust="spacingAndGlyphs" textLength="28" x="15" y="283.1973">用户</text><rect fill="#FEFECE" filter="url(#f1oj5zwjq4wcrj)" height="30.4883" style="stroke: #A80036; stroke-width: 1.5;" width="70" x="184" y="3"/><text fill="#000000" font-family="sans-serif" font-size="14" lengthAdjust="spacingAndGlyphs" textLength="56" x="191" y="23.5352">认证中心</text><rect fill="#FEFECE" filter="url(#f1oj5zwjq4wcrj)" height="30.4883" style="stroke: #A80036; stroke-width: 1.5;" width="70" x="184" y="262.6621"/><text fill="#000000" font-family="sans-serif" font-size="14" lengthAdjust="spacingAndGlyphs" textLength="56" x="191" y="283.1973">认证中心</text><rect fill="#FEFECE" filter="url(#f1oj5zwjq4wcrj)" height="30.4883" style="stroke: #A80036; stroke-width: 1.5;" width="42" x="465" y="3"/><text fill="#000000" font-family="sans-serif" font-size="14" lengthAdjust="spacingAndGlyphs" textLength="28" x="472" y="23.5352">缓存</text><rect fill="#FEFECE" filter="url(#f1oj5zwjq4wcrj)" height="30.4883" style="stroke: #A80036; stroke-width: 1.5;" width="42" x="465" y="262.6621"/><text fill="#000000" font-family="sans-serif" font-size="14" lengthAdjust="spacingAndGlyphs" textLength="28" x="472" y="283.1973">缓存</text><rect fill="#FEFECE" filter="url(#f1oj5zwjq4wcrj)" height="30.4883" style="stroke: #A80036; stroke-width: 1.5;" width="70" x="521" y="3"/><text fill="#000000" font-family="sans-serif" font-size="14" lengthAdjust="spacingAndGlyphs" textLength="56" x="528" y="23.5352">其他服务</text><rect fill="#FEFECE" filter="url(#f1oj5zwjq4wcrj)" height="30.4883" style="stroke: #A80036; stroke-width: 1.5;" width="70" x="521" y="262.6621"/><text fill="#000000" font-family="sans-serif" font-size="14" lengthAdjust="spacingAndGlyphs" textLength="56" x="528" y="283.1973">其他服务</text><polygon fill="#A80036" points="209,65.7988,219,69.7988,209,73.7988,213,69.7988" style="stroke: #A80036; stroke-width: 1.0;"/><line style="stroke: #A80036; stroke-width: 1.0;" x1="31" x2="215" y1="69.7988" y2="69.7988"/><text fill="#000000" font-family="sans-serif" font-size="13" lengthAdjust="spacingAndGlyphs" textLength="52" x="38" y="65.0566">登录操作</text><polygon fill="#A80036" points="476,95.1094,486,99.1094,476,103.1094,480,99.1094" style="stroke: #A80036; stroke-width: 1.0;"/><line style="stroke: #A80036; stroke-width: 1.0;" x1="221" x2="482" y1="99.1094" y2="99.1094"/><text fill="#000000" font-family="sans-serif" font-size="13" lengthAdjust="spacingAndGlyphs" textLength="243" x="228" y="94.3672">存放(key=token+ip,value=token)token</text><polygon fill="#A80036" points="42,124.4199,32,128.4199,42,132.4199,38,128.4199" style="stroke: #A80036; stroke-width: 1.0;"/><line style="stroke: #A80036; stroke-width: 1.0;" x1="36" x2="220" y1="128.4199" y2="128.4199"/><text fill="#000000" font-family="sans-serif" font-size="13" lengthAdjust="spacingAndGlyphs" textLength="114" x="48" y="123.6777">认证成功返回token</text><polygon fill="#A80036" points="209,153.7305,219,157.7305,209,161.7305,213,157.7305" style="stroke: #A80036; stroke-width: 1.0;"/><line style="stroke: #A80036; stroke-width: 1.0;" x1="31" x2="215" y1="157.7305" y2="157.7305"/><text fill="#000000" font-family="sans-serif" font-size="13" lengthAdjust="spacingAndGlyphs" textLength="166" x="38" y="152.9883">下次访问头部携带token认证</text><polygon fill="#A80036" points="232,183.041,222,187.041,232,191.041,228,187.041" style="stroke: #A80036; stroke-width: 1.0;"/><line style="stroke: #A80036; stroke-width: 1.0;" x1="226" x2="487" y1="187.041" y2="187.041"/><text fill="#000000" font-family="sans-serif" font-size="13" lengthAdjust="spacingAndGlyphs" textLength="152" x="238" y="182.2988">key=token+ip获取token</text><polygon fill="#A80036" points="546,212.3516,556,216.3516,546,220.3516,550,216.3516" style="stroke: #A80036; stroke-width: 1.0;"/><line style="stroke: #A80036; stroke-width: 1.0;" x1="221" x2="552" y1="216.3516" y2="216.3516"/><text fill="#000000" font-family="sans-serif" font-size="13" lengthAdjust="spacingAndGlyphs" textLength="260" x="228" y="211.6094">存在且校验成功则跳转到用户请求的其他服务</text><polygon fill="#A80036" points="42,241.6621,32,245.6621,42,249.6621,38,245.6621" style="stroke: #A80036; stroke-width: 1.0;"/><line style="stroke: #A80036; stroke-width: 1.0;" x1="36" x2="557" y1="245.6621" y2="245.6621"/><text fill="#000000" font-family="sans-serif" font-size="13" lengthAdjust="spacingAndGlyphs" textLength="26" x="48" y="240.9199">信息</text><!--
@startuml
用户 -> 认证中心: 登录操作
认证中心 -> 缓存: 存放(key=token+ip,value=token)token

用户 <- 认证中心 : 认证成功返回token
用户 -> 认证中心: 下次访问头部携带token认证
认证中心 <- 缓存: key=token+ip获取token
其他服务 <- 认证中心: 存在且校验成功则跳转到用户请求的其他服务
其他服务 -> 用户: 信息
@enduml

PlantUML version 1.2019.05(Sun Apr 21 00:45:36 CST 2019)
(GPL source distribution)
Java Runtime: Java(TM) SE Runtime Environment
JVM: Java HotSpot(TM) 64-Bit Server VM
Java Version: 1.8.0_191-b12
Operating System: Mac OS X
OS Version: 10.16
Default Encoding: UTF-8
Language: en
Country: CN
--></g></svg>