<?xml version="1.0" encoding="UTF-8" standalone="no"?><svg xmlns="http://www.w3.org/2000/svg" xmlns:xlink="http://www.w3.org/1999/xlink" contentScriptType="application/ecmascript" contentStyleType="text/css" height="124px" preserveAspectRatio="none" style="width:118px;height:124px;" version="1.1" viewBox="0 0 118 124" width="118px" zoomAndPan="magnify"><defs><filter height="300%" id="f1xx7ydnjuoa75" width="300%" x="-1" y="-1"><feGaussianBlur result="blurOut" stdDeviation="2.0"/><feColorMatrix in="blurOut" result="blurOut2" type="matrix" values="0 0 0 0 0 0 0 0 0 0 0 0 0 0 0 0 0 0 .4 0"/><feOffset dx="4.0" dy="4.0" in="blurOut2" result="blurOut3"/><feBlend in="SourceGraphic" in2="blurOut3" mode="normal"/></filter></defs><g><!--cluster X1::X2--><polygon fill="#FFFFFF" filter="url(#f1xx7ydnjuoa75)" points="14,16,62,16,69,38.4883,96,38.4883,96,112,14,112,14,16" style="stroke: #000000; stroke-width: 1.5;"/><line style="stroke: #000000; stroke-width: 1.5;" x1="14" x2="69" y1="38.4883" y2="38.4883"/><text fill="#000000" font-family="sans-serif" font-size="14" font-weight="bold" lengthAdjust="spacingAndGlyphs" textLength="42" x="18" y="31.5352">X1::X2</text><!--class X1::X2::foo--><rect fill="#FEFECE" filter="url(#f1xx7ydnjuoa75)" height="60.9551" id="X1::X2::foo" style="stroke: #A80036; stroke-width: 1.5;" width="65" x="22.5" y="43"/><ellipse cx="44.25" cy="59" fill="#ADD1B2" rx="11" ry="11" style="stroke: #A80036; stroke-width: 1.0;"/><path d="M46.7231,65.1431 Q46.1421,65.4419 45.5029,65.5913 Q44.8638,65.7407 44.1582,65.7407 Q41.6514,65.7407 40.3315,64.0889 Q39.0117,62.437 39.0117,59.3159 Q39.0117,56.1865 40.3315,54.5347 Q41.6514,52.8828 44.1582,52.8828 Q44.8638,52.8828 45.5112,53.0322 Q46.1587,53.1816 46.7231,53.4805 L46.7231,56.2031 Q46.0923,55.6221 45.4988,55.3523 Q44.9053,55.0825 44.2744,55.0825 Q42.9297,55.0825 42.2449,56.1492 Q41.5601,57.2158 41.5601,59.3159 Q41.5601,61.4077 42.2449,62.4744 Q42.9297,63.541 44.2744,63.541 Q44.9053,63.541 45.4988,63.2712 Q46.0923,63.0015 46.7231,62.4204 Z "/><text fill="#000000" font-family="sans-serif" font-size="12" lengthAdjust="spacingAndGlyphs" textLength="18" x="59.75" y="63.5352">foo</text><line style="stroke: #A80036; stroke-width: 1.5;" x1="23.5" x2="86.5" y1="75" y2="75"/><text fill="#000000" font-family="sans-serif" font-size="11" lengthAdjust="spacingAndGlyphs" textLength="53" x="28.5" y="89.6348">some info</text><line style="stroke: #A80036; stroke-width: 1.5;" x1="23.5" x2="86.5" y1="95.9551" y2="95.9551"/><!--
@startuml

set namespaceSeparator ::
class X1::X2::foo {
  some info
}

@enduml

PlantUML version 1.2019.05(Sun Apr 21 00:45:36 CST 2019)
(GPL source distribution)
Java Runtime: Java(TM) SE Runtime Environment
JVM: Java HotSpot(TM) 64-Bit Server VM
Java Version: 1.8.0_191-b12
Operating System: Mac OS X
OS Version: 10.16
Default Encoding: UTF-8
Language: en
Country: CN
--></g></svg>