<?xml version="1.0" encoding="UTF-8" standalone="no"?><svg xmlns="http://www.w3.org/2000/svg" xmlns:xlink="http://www.w3.org/1999/xlink" contentScriptType="application/ecmascript" contentStyleType="text/css" height="174px" preserveAspectRatio="none" style="width:139px;height:174px;" version="1.1" viewBox="0 0 139 174" width="139px" zoomAndPan="magnify"><defs><filter height="300%" id="fflcdlhsw0c19" width="300%" x="-1" y="-1"><feGaussianBlur result="blurOut" stdDeviation="2.0"/><feColorMatrix in="blurOut" result="blurOut2" type="matrix" values="0 0 0 0 0 0 0 0 0 0 0 0 0 0 0 0 0 0 .4 0"/><feOffset dx="4.0" dy="4.0" in="blurOut2" result="blurOut3"/><feBlend in="SourceGraphic" in2="blurOut3" mode="normal"/></filter></defs><g><rect fill="#FFC0CB" filter="url(#fflcdlhsw0c19)" height="33.9688" rx="12.5" ry="12.5" style="stroke: #A80036; stroke-width: 1.5;" width="51" x="35" y="54"/><text fill="#000000" font-family="sans-serif" font-size="12" lengthAdjust="spacingAndGlyphs" textLength="31" x="45" y="75.1387">error</text><polygon fill="#FEFECE" filter="url(#fflcdlhsw0c19)" points="32,10,89,10,101,22,89,34,32,34,20,22,32,10" style="stroke: #A80036; stroke-width: 1.5;"/><text fill="#000000" font-family="sans-serif" font-size="11" lengthAdjust="spacingAndGlyphs" textLength="57" x="32" y="25.8081">condition?</text><rect fill="#98FB98" filter="url(#fflcdlhsw0c19)" height="33.9688" rx="12.5" ry="12.5" style="stroke: #A80036; stroke-width: 1.5;" width="59" x="31" y="129.9688"/><text fill="#000000" font-family="sans-serif" font-size="12" lengthAdjust="spacingAndGlyphs" textLength="39" x="41" y="151.1074">action</text><line style="stroke: #A80036; stroke-width: 1.5;" x1="60.5" x2="60.5" y1="34" y2="54"/><polygon fill="#A80036" points="56.5,44,60.5,54,64.5,44,60.5,48" style="stroke: #A80036; stroke-width: 1.0;"/><line style="stroke: #A80036; stroke-width: 1.5;" x1="101" x2="113" y1="22" y2="22"/><polygon fill="#A80036" points="109,57.9844,113,67.9844,117,57.9844,113,61.9844" style="stroke: #A80036; stroke-width: 1.5;"/><line style="stroke: #A80036; stroke-width: 1.5;" x1="113" x2="113" y1="22" y2="109.9688"/><line style="stroke: #A80036; stroke-width: 1.5;" x1="113" x2="60.5" y1="109.9688" y2="109.9688"/><line style="stroke: #A80036; stroke-width: 1.5;" x1="60.5" x2="60.5" y1="109.9688" y2="129.9688"/><polygon fill="#A80036" points="56.5,119.9688,60.5,129.9688,64.5,119.9688,60.5,123.9688" style="stroke: #A80036; stroke-width: 1.0;"/><!--
@startuml
if (condition?) then
  #pink:error;
  kill
endif
#palegreen:action;
@enduml

PlantUML version 1.2019.05(Sat Apr 20 16:45:36 UTC 2019)
(GPL source distribution)
Java Runtime: OpenJDK Runtime Environment
JVM: OpenJDK 64-Bit Server VM
Java Version: 11.0.9+11-post-Debian-1deb10u1
Operating System: Linux
OS Version: 5.4.0-1047-azure
Default Encoding: UTF-8
Language: en
Country: null
--></g></svg>