<?xml version="1.0" encoding="UTF-8" standalone="no"?><svg xmlns="http://www.w3.org/2000/svg" xmlns:xlink="http://www.w3.org/1999/xlink" contentScriptType="application/ecmascript" contentStyleType="text/css" height="175px" preserveAspectRatio="none" style="width:192px;height:175px;" version="1.1" viewBox="0 0 192 175" width="192px" zoomAndPan="magnify"><defs><filter height="300%" id="fk4nuay1ncpz6" width="300%" x="-1" y="-1"><feGaussianBlur result="blurOut" stdDeviation="2.0"/><feColorMatrix in="blurOut" result="blurOut2" type="matrix" values="0 0 0 0 0 0 0 0 0 0 0 0 0 0 0 0 0 0 .4 0"/><feOffset dx="4.0" dy="4.0" in="blurOut2" result="blurOut3"/><feBlend in="SourceGraphic" in2="blurOut3" mode="normal"/></filter></defs><g><!--class Room--><rect fill="#FEFECE" filter="url(#fk4nuay1ncpz6)" height="48" id="Room" style="stroke: #A80036; stroke-width: 1.5;" width="65" x="6" y="8"/><ellipse cx="21" cy="24" fill="#ADD1B2" rx="11" ry="11" style="stroke: #A80036; stroke-width: 1.0;"/><path d="M23.4731,30.1431 Q22.8921,30.4419 22.2529,30.5913 Q21.6138,30.7407 20.9082,30.7407 Q18.4014,30.7407 17.0815,29.0889 Q15.7617,27.437 15.7617,24.3159 Q15.7617,21.1865 17.0815,19.5347 Q18.4014,17.8828 20.9082,17.8828 Q21.6138,17.8828 22.2612,18.0322 Q22.9087,18.1816 23.4731,18.4805 L23.4731,21.2031 Q22.8423,20.6221 22.2488,20.3523 Q21.6553,20.0825 21.0244,20.0825 Q19.6797,20.0825 18.9949,21.1492 Q18.3101,22.2158 18.3101,24.3159 Q18.3101,26.4077 18.9949,27.4744 Q19.6797,28.541 21.0244,28.541 Q21.6553,28.541 22.2488,28.2712 Q22.8423,28.0015 23.4731,27.4204 Z "/><text fill="#000000" font-family="sans-serif" font-size="12" lengthAdjust="spacingAndGlyphs" textLength="33" x="35" y="28.5352">Room</text><line style="stroke: #A80036; stroke-width: 1.5;" x1="7" x2="70" y1="40" y2="40"/><line style="stroke: #A80036; stroke-width: 1.5;" x1="7" x2="70" y1="48" y2="48"/><!--class Student--><rect fill="#FEFECE" filter="url(#fk4nuay1ncpz6)" height="48" id="Student" style="stroke: #A80036; stroke-width: 1.5;" width="75" x="106" y="8"/><ellipse cx="121" cy="24" fill="#ADD1B2" rx="11" ry="11" style="stroke: #A80036; stroke-width: 1.0;"/><path d="M123.4731,30.1431 Q122.8921,30.4419 122.2529,30.5913 Q121.6138,30.7407 120.9082,30.7407 Q118.4014,30.7407 117.0815,29.0889 Q115.7617,27.437 115.7617,24.3159 Q115.7617,21.1865 117.0815,19.5347 Q118.4014,17.8828 120.9082,17.8828 Q121.6138,17.8828 122.2612,18.0322 Q122.9087,18.1816 123.4731,18.4805 L123.4731,21.2031 Q122.8423,20.6221 122.2488,20.3523 Q121.6553,20.0825 121.0244,20.0825 Q119.6797,20.0825 118.9949,21.1492 Q118.3101,22.2158 118.3101,24.3159 Q118.3101,26.4077 118.9949,27.4744 Q119.6797,28.541 121.0244,28.541 Q121.6553,28.541 122.2488,28.2712 Q122.8423,28.0015 123.4731,27.4204 Z "/><text fill="#000000" font-family="sans-serif" font-size="12" lengthAdjust="spacingAndGlyphs" textLength="43" x="135" y="28.5352">Student</text><line style="stroke: #A80036; stroke-width: 1.5;" x1="107" x2="180" y1="40" y2="40"/><line style="stroke: #A80036; stroke-width: 1.5;" x1="107" x2="180" y1="48" y2="48"/><!--class Chair--><rect fill="#FEFECE" filter="url(#fk4nuay1ncpz6)" height="48" id="Chair" style="stroke: #A80036; stroke-width: 1.5;" width="62" x="7.5" y="116"/><ellipse cx="22.5" cy="132" fill="#ADD1B2" rx="11" ry="11" style="stroke: #A80036; stroke-width: 1.0;"/><path d="M24.9731,138.1431 Q24.3921,138.4419 23.7529,138.5913 Q23.1138,138.7407 22.4082,138.7407 Q19.9014,138.7407 18.5815,137.0889 Q17.2617,135.437 17.2617,132.3159 Q17.2617,129.1865 18.5815,127.5347 Q19.9014,125.8828 22.4082,125.8828 Q23.1138,125.8828 23.7612,126.0322 Q24.4087,126.1816 24.9731,126.4805 L24.9731,129.2031 Q24.3423,128.6221 23.7488,128.3523 Q23.1553,128.0825 22.5244,128.0825 Q21.1797,128.0825 20.4949,129.1492 Q19.8101,130.2158 19.8101,132.3159 Q19.8101,134.4077 20.4949,135.4744 Q21.1797,136.541 22.5244,136.541 Q23.1553,136.541 23.7488,136.2712 Q24.3423,136.0015 24.9731,135.4204 Z "/><text fill="#000000" font-family="sans-serif" font-size="12" lengthAdjust="spacingAndGlyphs" textLength="30" x="36.5" y="136.5352">Chair</text><line style="stroke: #A80036; stroke-width: 1.5;" x1="8.5" x2="68.5" y1="148" y2="148"/><line style="stroke: #A80036; stroke-width: 1.5;" x1="8.5" x2="68.5" y1="156" y2="156"/><!--link Room to Student--><path d="M84.3189,32 C91.5447,32 98.7705,32 105.9963,32 " fill="none" id="Room-Student" style="stroke: #A80036; stroke-width: 1.0;"/><polygon fill="#FFFFFF" points="71.3125,32,77.3125,36,83.3125,32,77.3125,28,71.3125,32" style="stroke: #A80036; stroke-width: 1.0;"/><!--link Room to Chair--><path d="M38.5,69.6145 C38.5,84.9531 38.5,102.2402 38.5,115.8436 " fill="none" id="Room-Chair" style="stroke: #A80036; stroke-width: 1.0;"/><polygon fill="#A80036" points="38.5,56.2373,34.5,62.2373,38.5,68.2373,42.5,62.2373,38.5,56.2373" style="stroke: #A80036; stroke-width: 1.0;"/><!--
@startuml
Room o- Student
Room *- - Chair
@enduml

PlantUML version 1.2019.05(Sun Apr 21 00:45:36 CST 2019)
(GPL source distribution)
Java Runtime: Java(TM) SE Runtime Environment
JVM: Java HotSpot(TM) 64-Bit Server VM
Java Version: 1.8.0_191-b12
Operating System: Mac OS X
OS Version: 10.16
Default Encoding: UTF-8
Language: en
Country: CN
--></g></svg>