<?xml version="1.0" encoding="UTF-8" standalone="no"?><svg xmlns="http://www.w3.org/2000/svg" xmlns:xlink="http://www.w3.org/1999/xlink" contentScriptType="application/ecmascript" contentStyleType="text/css" height="175px" preserveAspectRatio="none" style="width:211px;height:175px;" version="1.1" viewBox="0 0 211 175" width="211px" zoomAndPan="magnify"><defs><filter height="300%" id="f56a0lg5gogsv" width="300%" x="-1" y="-1"><feGaussianBlur result="blurOut" stdDeviation="2.0"/><feColorMatrix in="blurOut" result="blurOut2" type="matrix" values="0 0 0 0 0 0 0 0 0 0 0 0 0 0 0 0 0 0 .4 0"/><feOffset dx="4.0" dy="4.0" in="blurOut2" result="blurOut3"/><feBlend in="SourceGraphic" in2="blurOut3" mode="normal"/></filter></defs><g><!--class ArrayList--><rect fill="#FEFECE" filter="url(#f56a0lg5gogsv)" height="48" id="ArrayList" style="stroke: #A80036; stroke-width: 1.5;" width="85" x="47" y="116"/><ellipse cx="62" cy="132" fill="#ADD1B2" rx="11" ry="11" style="stroke: #A80036; stroke-width: 1.0;"/><path d="M64.9688,137.6406 Q64.3906,137.9375 63.75,138.0781 Q63.1094,138.2344 62.4063,138.2344 Q59.9063,138.2344 58.5781,136.5938 Q57.2656,134.9375 57.2656,131.8125 Q57.2656,128.6875 58.5781,127.0313 Q59.9063,125.375 62.4063,125.375 Q63.1094,125.375 63.75,125.5313 Q64.4063,125.6875 64.9688,125.9844 L64.9688,128.7031 Q64.3438,128.125 63.75,127.8594 Q63.1563,127.5781 62.5313,127.5781 Q61.1875,127.5781 60.5,128.6563 Q59.8125,129.7188 59.8125,131.8125 Q59.8125,133.9063 60.5,134.9844 Q61.1875,136.0469 62.5313,136.0469 Q63.1563,136.0469 63.75,135.7813 Q64.3438,135.5 64.9688,134.9219 L64.9688,137.6406 Z "/><text fill="#000000" font-family="sans-serif" font-size="12" lengthAdjust="spacingAndGlyphs" textLength="53" x="76" y="136.1543">ArrayList</text><line style="stroke: #A80036; stroke-width: 1.5;" x1="48" x2="131" y1="148" y2="148"/><line style="stroke: #A80036; stroke-width: 1.5;" x1="48" x2="131" y1="156" y2="156"/><!--class List--><rect fill="#FEFECE" filter="url(#f56a0lg5gogsv)" height="48" id="List" style="stroke: #A80036; stroke-width: 1.5;" width="53" x="6" y="8"/><ellipse cx="21" cy="24" fill="#B4A7E5" rx="11" ry="11" style="stroke: #A80036; stroke-width: 1.0;"/><path d="M16.9219,19.7656 L16.9219,17.6094 L24.3125,17.6094 L24.3125,19.7656 L21.8438,19.7656 L21.8438,27.8438 L24.3125,27.8438 L24.3125,30 L16.9219,30 L16.9219,27.8438 L19.3906,27.8438 L19.3906,19.7656 L16.9219,19.7656 Z "/><text fill="#000000" font-family="sans-serif" font-size="12" font-style="italic" lengthAdjust="spacingAndGlyphs" textLength="21" x="35" y="28.1543">List</text><line style="stroke: #A80036; stroke-width: 1.5;" x1="7" x2="58" y1="40" y2="40"/><line style="stroke: #A80036; stroke-width: 1.5;" x1="7" x2="58" y1="48" y2="48"/><!--class AbstractList--><rect fill="#FEFECE" filter="url(#f56a0lg5gogsv)" height="48" id="AbstractList" style="stroke: #A80036; stroke-width: 1.5;" width="106" x="94.5" y="8"/><ellipse cx="109.5" cy="24" fill="#ADD1B2" rx="11" ry="11" style="stroke: #A80036; stroke-width: 1.0;"/><path d="M112.4688,29.6406 Q111.8906,29.9375 111.25,30.0781 Q110.6094,30.2344 109.9063,30.2344 Q107.4063,30.2344 106.0781,28.5938 Q104.7656,26.9375 104.7656,23.8125 Q104.7656,20.6875 106.0781,19.0313 Q107.4063,17.375 109.9063,17.375 Q110.6094,17.375 111.25,17.5313 Q111.9063,17.6875 112.4688,17.9844 L112.4688,20.7031 Q111.8438,20.125 111.25,19.8594 Q110.6563,19.5781 110.0313,19.5781 Q108.6875,19.5781 108,20.6563 Q107.3125,21.7188 107.3125,23.8125 Q107.3125,25.9063 108,26.9844 Q108.6875,28.0469 110.0313,28.0469 Q110.6563,28.0469 111.25,27.7813 Q111.8438,27.5 112.4688,26.9219 L112.4688,29.6406 Z "/><text fill="#000000" font-family="sans-serif" font-size="12" lengthAdjust="spacingAndGlyphs" textLength="74" x="123.5" y="28.1543">AbstractList</text><line style="stroke: #A80036; stroke-width: 1.5;" x1="95.5" x2="199.5" y1="40" y2="40"/><line style="stroke: #A80036; stroke-width: 1.5;" x1="95.5" x2="199.5" y1="48" y2="48"/><!--link List to ArrayList--><path d="M54.8592,74.3649 C62.2892,88.4428 70.3038,103.6283 76.7508,115.8436 " fill="none" id="List-ArrayList" style="stroke: #A80036; stroke-width: 1.0; stroke-dasharray: 7.0,7.0;"/><polygon fill="none" points="48.4364,77.1923,45.2919,56.2373,60.8178,70.6577,48.4364,77.1923" style="stroke: #A80036; stroke-width: 1.0;"/><!--link AbstractList to ArrayList--><path d="M125.006,73.8854 C117.3737,88.0972 109.1075,103.4895 102.4729,115.8436 " fill="none" id="AbstractList-ArrayList" style="stroke: #A80036; stroke-width: 1.0;"/><polygon fill="none" points="118.8541,70.5453,134.4837,56.2373,131.188,77.1691,118.8541,70.5453" style="stroke: #A80036; stroke-width: 1.0;"/><!--
@startuml
class ArrayList implements List
class ArrayList extends AbstractList
@enduml

PlantUML version 1.2019.05(Sat Apr 20 16:45:36 UTC 2019)
(GPL source distribution)
Java Runtime: OpenJDK Runtime Environment
JVM: OpenJDK 64-Bit Server VM
Java Version: 11.0.9+11-post-Debian-1deb10u1
Operating System: Linux
OS Version: 5.4.0-1047-azure
Default Encoding: UTF-8
Language: en
Country: null
--></g></svg>