<svg xmlns="http://www.w3.org/2000/svg" width="200" height="250" version="1.1"><rect width="30" height="30" x="10" y="10" fill="transparent" stroke="#000" stroke-width="5"/><rect width="30" height="30" x="60" y="10" fill="transparent" stroke="#000" stroke-width="5" rx="10" ry="10"/><circle cx="25" cy="75" r="20" fill="transparent" stroke="red" stroke-width="5"/><ellipse cx="75" cy="75" fill="transparent" stroke="red" stroke-width="5" rx="20" ry="5"/><line x1="10" x2="50" y1="110" y2="150" fill="transparent" stroke="orange" stroke-width="5"/><polyline fill="transparent" stroke="orange" stroke-width="5" points="60 110 65 120 70 115 75 130 80 125 85 140 90 135 95 150 100 145"/><polygon fill="transparent" stroke="green" stroke-width="5" points="50 160 55 180 70 180 60 190 65 205 50 195 35 205 40 190 30 180 45 180"/><path fill="none" stroke="#00f" stroke-width="5" d="M20,230 Q40,205 50,230 T90,230"/></svg>