<?xml version="1.0" encoding="UTF-8" standalone="no"?><svg xmlns="http://www.w3.org/2000/svg" xmlns:xlink="http://www.w3.org/1999/xlink" contentScriptType="application/ecmascript" contentStyleType="text/css" height="375px" preserveAspectRatio="none" style="width:434px;height:375px;background:#EEEBDC;" version="1.1" viewBox="0 0 434 375" width="434px" zoomAndPan="magnify"><defs><filter height="300%" id="fvihy1l1vghv0" width="300%" x="-1" y="-1"><feGaussianBlur result="blurOut" stdDeviation="2.0"/><feColorMatrix in="blurOut" result="blurOut2" type="matrix" values="0 0 0 0 0 0 0 0 0 0 0 0 0 0 0 0 0 0 .4 0"/><feOffset dx="4.0" dy="4.0" in="blurOut2" result="blurOut3"/><feBlend in="SourceGraphic" in2="blurOut3" mode="normal"/></filter></defs><g><polygon fill="#A9DCDF" filter="url(#fvihy1l1vghv0)" points="108.5,120.9219,108.5,120.9919,110.5,120.7838,112.5,120.9863,114.5,121.0551,116.5,120.6841,118.5,120.9219,118.4223,120.9219,118.0735,130.6328,118.1165,140.3438,118.4318,150.0547,117.8086,159.7656,119.0536,169.4766,117.8697,179.1875,118.3022,188.8984,118.9319,198.6094,118.4142,208.3203,118.5682,218.0313,118.4681,227.7422,118.6785,237.4531,118.7391,247.1641,119.0857,256.875,118.5,266.5859,118.5,266.8096,116.5,266.8124,114.5,266.6708,112.5,266.7405,110.5,266.82,108.5,266.5859,107.7788,266.5859,109.1785,256.875,108.2035,247.1641,109.0338,237.4531,108.005,227.7422,108.4315,218.0313,109.2416,208.3203,108.4513,198.6094,108.6053,188.8984,108.8386,179.1875,108.9162,169.4766,108.4961,159.7656,108.7872,150.0547,107.9276,140.3438,108.7844,130.6328,108.5,120.9219" style="stroke: #0000FF; stroke-width: 1.0;"/><polygon fill="#A9DCDF" filter="url(#fvihy1l1vghv0)" points="249.5,150.0547,249.5,150.1247,251.5,149.9166,253.5,150.1191,255.5,150.1879,257.5,149.8169,259.5,150.0547,259.4223,150.0547,259.0735,159.7656,259.1165,169.4766,259.4318,179.1875,258.8086,188.8984,260.0536,198.6094,258.8697,208.3203,259.3022,218.0313,259.9319,227.7422,259.5,237.4531,259.5,237.4245,257.5,237.4759,255.5,237.4425,253.5,237.5126,251.5,237.5328,249.5,237.4531,250.0857,237.4531,250.1711,227.7422,250.1793,218.0313,249.7546,208.3203,249.9636,198.6094,250.2022,188.8984,248.7788,179.1875,250.1785,169.4766,249.2035,159.7656,249.5,150.0547" style="stroke: #0000FF; stroke-width: 1.0;"/><polygon fill="#A9DCDF" filter="url(#fvihy1l1vghv0)" points="372.5,179.1875,372.5,179.2576,374.5,179.0494,376.5,179.2519,378.5,179.3207,380.5,178.9497,382.5,179.1875,382.4741,179.1875,382.3578,185.0141,382.3722,190.8406,382.4773,196.6672,382.2695,202.4938,382.5,208.3203,382.5,208.5049,380.5,208.1102,378.5,208.2544,376.5,208.4643,374.5,208.2917,372.5,208.3203,372.5227,208.3203,372.4894,202.4938,372.5595,196.6672,372.5797,190.8406,372.6952,185.0141,372.5,179.1875" style="stroke: #0000FF; stroke-width: 1.0;"/><path d="M30,89.7891 L30.2802,89.7891 L29.4476,100.0415 L30.2577,110.294 L30.5329,120.5465 L29.0488,130.7989 L29.8964,141.0514 L29.4313,151.3039 L29.4887,161.5563 L29.9091,171.8088 L29.0782,182.0613 L30.7382,192.3137 L29.1596,202.5662 L29.7363,212.8187 L30.5759,223.0711 L29.8856,233.3236 L30.091,243.5761 L29.9574,253.8285 L30.238,264.081 L30.3188,274.3335 L30,284.5859 " fill="none" style="stroke: #0000FF; stroke-width: 1.0; stroke-dasharray: 5.0,5.0;"/><path d="M113,89.7891 L113.2802,89.7891 L112.4476,100.0415 L113.2577,110.294 L113.5329,120.5465 L112.0488,130.7989 L112.8964,141.0514 L112.4313,151.3039 L112.4887,161.5563 L112.9091,171.8088 L112.0782,182.0613 L113.7382,192.3137 L112.1596,202.5662 L112.7363,212.8187 L113.5759,223.0711 L112.8856,233.3236 L113.091,243.5761 L112.9574,253.8285 L113.238,264.081 L113.3188,274.3335 L113,284.5859 " fill="none" style="stroke: #0000FF; stroke-width: 1.0; stroke-dasharray: 5.0,5.0;"/><path d="M254.5,89.7891 L254.7802,89.7891 L253.9476,100.0415 L254.7577,110.294 L255.0329,120.5465 L253.5488,130.7989 L254.3964,141.0514 L253.9313,151.3039 L253.9887,161.5563 L254.4091,171.8088 L253.5782,182.0613 L255.2382,192.3137 L253.6596,202.5662 L254.2363,212.8187 L255.0759,223.0711 L254.3856,233.3236 L254.591,243.5761 L254.4574,253.8285 L254.738,264.081 L254.8188,274.3335 L254.5,284.5859 " fill="none" style="stroke: #0000FF; stroke-width: 1.0; stroke-dasharray: 5.0,5.0;"/><path d="M377.5,89.7891 L377.7802,89.7891 L376.9476,100.0415 L377.7577,110.294 L378.0329,120.5465 L376.5488,130.7989 L377.3964,141.0514 L376.9313,151.3039 L376.9887,161.5563 L377.4091,171.8088 L376.5782,182.0613 L378.2382,192.3137 L376.6596,202.5662 L377.2363,212.8187 L378.0759,223.0711 L377.3856,233.3236 L377.591,243.5761 L377.4574,253.8285 L377.738,264.081 L377.8188,274.3335 L377.5,284.5859 " fill="none" style="stroke: #0000FF; stroke-width: 1.0; stroke-dasharray: 5.0,5.0;"/><text fill="#00BFFF" font-family="Aapex" font-size="17" lengthAdjust="spacingAndGlyphs" textLength="38" x="8" y="85.7798">User</text><polygon fill="#00FFFF" filter="url(#fvihy1l1vghv0)" points="38.0442,14.9459,36.8715,16.5482,35.4845,18.8951,33.5008,20.4767,31.4163,21.3415,29.7542,21.4166,27.618,20.3349,25.6023,19.6283,24.0724,18.1936,23.2699,16.5511,22.7939,15.2433,22.3277,13.5351,21.5709,12.0651,22.1525,10.6298,22.662,9.0576,24.574,7.8142,25.9192,6.2008,27.5843,5.665,29.5637,5.2037,32.1021,5.4778,33.4924,6.1335,35.1089,6.4307,37.0743,8.4443,37.7595,10.5701,38.0571,12.0206,37.72,14.4108" style="stroke: #00BFFF; stroke-width: 2.0;"/><path d="M30,21 L30.1868,21 L29.6317,26.4 L30.1718,31.8 L30.3553,37.2 L29.3659,42.6 L30,48 M17,29 L17,28.9309 L22.2,28.6209 L27.4,28.6591 L32.6,28.9394 L37.8,28.3854 L43,29 M30,48 L30.3719,48.3223 L26.9766,50.6331 L24.6672,53.8849 L22.4901,57.2515 L19.5424,59.9501 L17,63 M30,48 L30.0458,48.0397 L32.5785,50.9814 L35.3199,54.1039 L37.9606,57.1392 L40.7934,60.341 L43,63 " fill="none" filter="url(#fvihy1l1vghv0)" style="stroke: #00BFFF; stroke-width: 2.0;"/><text fill="#00BFFF" font-family="Aapex" font-size="17" lengthAdjust="spacingAndGlyphs" textLength="38" x="8" y="299.3657">User</text><polygon fill="#00FFFF" filter="url(#fvihy1l1vghv0)" points="38.0442,315.3209,36.8715,316.9232,35.4845,319.2701,33.5008,320.8517,31.4163,321.7165,29.7542,321.7916,27.618,320.7099,25.6023,320.0033,24.0724,318.5686,23.2699,316.9261,22.7939,315.6183,22.3277,313.9101,21.5709,312.4401,22.1525,311.0048,22.662,309.4326,24.574,308.1892,25.9192,306.5758,27.5843,306.04,29.5637,305.5787,32.1021,305.8528,33.4924,306.5085,35.1089,306.8057,37.0743,308.8193,37.7595,310.9451,38.0571,312.3956,37.72,314.7858" style="stroke: #00BFFF; stroke-width: 2.0;"/><path d="M30,321.375 L30.1868,321.375 L29.6317,326.775 L30.1718,332.175 L30.3553,337.575 L29.3659,342.975 L30,348.375 M17,329.375 L17,329.3059 L22.2,328.9959 L27.4,329.0341 L32.6,329.3144 L37.8,328.7604 L43,329.375 M30,348.375 L30.3719,348.6973 L26.9766,351.0081 L24.6672,354.2599 L22.4901,357.6265 L19.5424,360.3251 L17,363.375 M30,348.375 L30.0458,348.4147 L32.5785,351.3564 L35.3199,354.4789 L37.9606,357.5142 L40.7934,360.716 L43,363.375 " fill="none" filter="url(#fvihy1l1vghv0)" style="stroke: #00BFFF; stroke-width: 2.0;"/><polygon fill="#1E90FF" filter="url(#fvihy1l1vghv0)" points="62,51,62,51.2102,71.9,50.5857,81.8,51.1933,91.7,51.3997,101.6,50.2866,111.5,50.9223,121.4,50.5735,131.3,50.6165,141.2,50.9318,151.1,50.3086,161,51,161.1845,51,160.7899,57.7578,160.9341,64.5156,161.144,71.2734,160.9714,78.0313,161,84.7891,161,84.8573,151.1,84.7571,141.2,84.9676,131.3,85.0282,121.4,85.3748,111.5,85.4601,101.6,85.4683,91.7,85.0437,81.8,85.2526,71.9,85.4913,62,84.7891,61.7596,84.7891,62.2262,78.0313,61.9012,71.2734,62.1779,64.5156,61.835,57.7578,62,51" style="stroke: #00BFFF; stroke-width: 1.5;"/><text fill="#A9DCDF" font-family="Impact" font-size="17" lengthAdjust="spacingAndGlyphs" textLength="85" x="69" y="73.7798">First Class</text><polygon fill="#1E90FF" filter="url(#fvihy1l1vghv0)" points="62,283.5859,62,283.7961,71.9,283.1716,81.8,283.7792,91.7,283.9856,101.6,282.8725,111.5,283.5082,121.4,283.1594,131.3,283.2024,141.2,283.5178,151.1,282.8946,161,283.5859,161.1845,283.5859,160.7899,290.3438,160.9341,297.1016,161.144,303.8594,160.9714,310.6172,161,317.375,161,317.4432,151.1,317.3431,141.2,317.5535,131.3,317.6141,121.4,317.9607,111.5,318.0461,101.6,318.0543,91.7,317.6296,81.8,317.8386,71.9,318.0772,62,317.375,61.7596,317.375,62.2262,310.6172,61.9012,303.8594,62.1779,297.1016,61.835,290.3438,62,283.5859" style="stroke: #00BFFF; stroke-width: 1.5;"/><text fill="#A9DCDF" font-family="Impact" font-size="17" lengthAdjust="spacingAndGlyphs" textLength="85" x="69" y="306.3657">First Class</text><polygon fill="#1E90FF" filter="url(#fvihy1l1vghv0)" points="191.5,51,191.5,51.2102,201.6667,50.5857,211.8333,51.1933,222,51.3997,232.1667,50.2866,242.3333,50.9223,252.5,50.5735,262.6667,50.6165,272.8333,50.9318,283,50.3086,293.1667,51.5536,303.3333,50.3697,313.5,51,313.4341,51,313.644,57.7578,313.4714,64.5156,313.5227,71.2734,313.4894,78.0313,313.5,84.7891,313.5,84.9676,303.3333,85.0282,293.1667,85.3748,283,85.4601,272.8333,85.4683,262.6667,85.0437,252.5,85.2526,242.3333,85.4913,232.1667,84.0679,222,85.4676,211.8333,84.4926,201.6667,85.3229,191.5,84.7891,191.335,84.7891,191.4772,78.0313,191.7472,71.2734,191.4838,64.5156,191.5351,57.7578,191.5,51" style="stroke: #00BFFF; stroke-width: 1.5;"/><text fill="#A9DCDF" font-family="Impact" font-size="17" lengthAdjust="spacingAndGlyphs" textLength="108" x="198.5" y="73.7798">Second Class</text><polygon fill="#1E90FF" filter="url(#fvihy1l1vghv0)" points="191.5,283.5859,191.5,283.7961,201.6667,283.1716,211.8333,283.7792,222,283.9856,232.1667,282.8725,242.3333,283.5082,252.5,283.1594,262.6667,283.2024,272.8333,283.5178,283,282.8946,293.1667,284.1396,303.3333,282.9557,313.5,283.5859,313.4341,283.5859,313.644,290.3438,313.4714,297.1016,313.5227,303.8594,313.4894,310.6172,313.5,317.375,313.5,317.5535,303.3333,317.6141,293.1667,317.9607,283,318.0461,272.8333,318.0543,262.6667,317.6296,252.5,317.8386,242.3333,318.0772,232.1667,316.6538,222,318.0535,211.8333,317.0785,201.6667,317.9088,191.5,317.375,191.335,317.375,191.4772,310.6172,191.7472,303.8594,191.4838,297.1016,191.5351,290.3438,191.5,283.5859" style="stroke: #00BFFF; stroke-width: 1.5;"/><text fill="#A9DCDF" font-family="Impact" font-size="17" lengthAdjust="spacingAndGlyphs" textLength="108" x="198.5" y="306.3657">Second Class</text><polygon fill="#1E90FF" filter="url(#fvihy1l1vghv0)" points="327.5,51,327.5,51.2102,337.1,50.5857,346.7,51.1933,356.3,51.3997,365.9,50.2866,375.5,50.9223,385.1,50.5735,394.7,50.6165,404.3,50.9318,413.9,50.3086,423.5,51,423.6845,51,423.2899,57.7578,423.4341,64.5156,423.644,71.2734,423.4714,78.0313,423.5,84.7891,423.5,84.8573,413.9,84.7571,404.3,84.9676,394.7,85.0282,385.1,85.3748,375.5,85.4601,365.9,85.4683,356.3,85.0437,346.7,85.2526,337.1,85.4913,327.5,84.7891,327.2596,84.7891,327.7262,78.0313,327.4012,71.2734,327.6779,64.5156,327.335,57.7578,327.5,51" style="stroke: #00BFFF; stroke-width: 1.5;"/><text fill="#A9DCDF" font-family="Impact" font-size="17" lengthAdjust="spacingAndGlyphs" textLength="82" x="334.5" y="73.7798">Last Class</text><polygon fill="#1E90FF" filter="url(#fvihy1l1vghv0)" points="327.5,283.5859,327.5,283.7961,337.1,283.1716,346.7,283.7792,356.3,283.9856,365.9,282.8725,375.5,283.5082,385.1,283.1594,394.7,283.2024,404.3,283.5178,413.9,282.8946,423.5,283.5859,423.6845,283.5859,423.2899,290.3438,423.4341,297.1016,423.644,303.8594,423.4714,310.6172,423.5,317.375,423.5,317.4432,413.9,317.3431,404.3,317.5535,394.7,317.6141,385.1,317.9607,375.5,318.0461,365.9,318.0543,356.3,317.6296,346.7,317.8386,337.1,318.0772,327.5,317.375,327.2596,317.375,327.7262,310.6172,327.4012,303.8594,327.6779,297.1016,327.335,290.3438,327.5,283.5859" style="stroke: #00BFFF; stroke-width: 1.5;"/><text fill="#A9DCDF" font-family="Impact" font-size="17" lengthAdjust="spacingAndGlyphs" textLength="82" x="334.5" y="306.3657">Last Class</text><polygon fill="#A9DCDF" filter="url(#fvihy1l1vghv0)" points="108.5,120.9219,108.5,120.9919,110.5,120.7838,112.5,120.9863,114.5,121.0551,116.5,120.6841,118.5,120.9219,118.4223,120.9219,118.0735,130.6328,118.1165,140.3438,118.4318,150.0547,117.8086,159.7656,119.0536,169.4766,117.8697,179.1875,118.3022,188.8984,118.9319,198.6094,118.4142,208.3203,118.5682,218.0313,118.4681,227.7422,118.6785,237.4531,118.7391,247.1641,119.0857,256.875,118.5,266.5859,118.5,266.8096,116.5,266.8124,114.5,266.6708,112.5,266.7405,110.5,266.82,108.5,266.5859,107.7788,266.5859,109.1785,256.875,108.2035,247.1641,109.0338,237.4531,108.005,227.7422,108.4315,218.0313,109.2416,208.3203,108.4513,198.6094,108.6053,188.8984,108.8386,179.1875,108.9162,169.4766,108.4961,159.7656,108.7872,150.0547,107.9276,140.3438,108.7844,130.6328,108.5,120.9219" style="stroke: #0000FF; stroke-width: 1.0;"/><polygon fill="#A9DCDF" filter="url(#fvihy1l1vghv0)" points="249.5,150.0547,249.5,150.1247,251.5,149.9166,253.5,150.1191,255.5,150.1879,257.5,149.8169,259.5,150.0547,259.4223,150.0547,259.0735,159.7656,259.1165,169.4766,259.4318,179.1875,258.8086,188.8984,260.0536,198.6094,258.8697,208.3203,259.3022,218.0313,259.9319,227.7422,259.5,237.4531,259.5,237.4245,257.5,237.4759,255.5,237.4425,253.5,237.5126,251.5,237.5328,249.5,237.4531,250.0857,237.4531,250.1711,227.7422,250.1793,218.0313,249.7546,208.3203,249.9636,198.6094,250.2022,188.8984,248.7788,179.1875,250.1785,169.4766,249.2035,159.7656,249.5,150.0547" style="stroke: #0000FF; stroke-width: 1.0;"/><polygon fill="#A9DCDF" filter="url(#fvihy1l1vghv0)" points="372.5,179.1875,372.5,179.2576,374.5,179.0494,376.5,179.2519,378.5,179.3207,380.5,178.9497,382.5,179.1875,382.4741,179.1875,382.3578,185.0141,382.3722,190.8406,382.4773,196.6672,382.2695,202.4938,382.5,208.3203,382.5,208.5049,380.5,208.1102,378.5,208.2544,376.5,208.4643,374.5,208.2917,372.5,208.3203,372.5227,208.3203,372.4894,202.4938,372.5595,196.6672,372.5797,190.8406,372.6952,185.0141,372.5,179.1875" style="stroke: #0000FF; stroke-width: 1.0;"/><polygon fill="#00BFFF" points="96.5,116.9219,96.526,116.9869,98.4487,117.5936,100.5239,118.5817,102.5495,119.4456,104.4117,119.9011,106.5,120.9219,106.4904,120.8978,104.4472,121.5899,102.4525,122.4032,100.4916,123.3008,98.4144,123.9079,96.5,124.9219,96.6305,125.0524,97.1514,123.9733,98.0534,123.2753,99.0018,122.6237,99.6798,121.7017,100.5,120.9219,100.5161,120.938,99.6925,120.1143,98.9421,119.364,98.1564,118.5782,97.438,117.8599,96.5,116.9219" style="stroke: #00BFFF; stroke-width: 1.0;"/><path d="M30,120.9219 L30,121.2021 L40.3571,120.3694 L50.7143,121.1796 L61.0714,121.4548 L71.4286,119.9707 L81.7857,120.8183 L92.1429,120.3532 L102.5,120.9219 " fill="none" style="stroke: #00BFFF; stroke-width: 1.0;"/><text fill="#000000" font-family="sans-serif" font-size="13" lengthAdjust="spacingAndGlyphs" textLength="49" x="37" y="115.856">DoWork</text><polygon fill="#00BFFF" points="237.5,146.0547,237.526,146.1197,239.4487,146.7265,241.5239,147.7145,243.5495,148.5784,245.4117,149.0339,247.5,150.0547,247.4904,150.0306,245.4472,150.7227,243.4525,151.536,241.4916,152.4336,239.4144,153.0407,237.5,154.0547,237.6305,154.1852,238.1514,153.1061,239.0534,152.4081,240.0018,151.7565,240.6798,150.8345,241.5,150.0547,241.5161,150.0708,240.6925,149.2472,239.9421,148.4968,239.1564,147.7111,238.438,146.9927,237.5,146.0547" style="stroke: #00BFFF; stroke-width: 1.0;"/><path d="M118.5,150.0547 L118.5,150.3349 L128.1154,149.5023 L137.7308,150.3124 L147.3462,150.5876 L156.9615,149.1035 L166.5769,149.9511 L176.1923,149.486 L185.8077,149.5434 L195.4231,149.9638 L205.0385,149.1329 L214.6538,150.7929 L224.2692,149.2143 L233.8846,149.791 L243.5,150.0547 " fill="none" style="stroke: #00BFFF; stroke-width: 1.0;"/><text fill="#000000" font-family="sans-serif" font-size="13" lengthAdjust="spacingAndGlyphs" textLength="99" x="125.5" y="144.9888">Create Request</text><polygon fill="#00BFFF" points="360.5,175.1875,360.526,175.2525,362.4487,175.8593,364.5239,176.8473,366.5495,177.7112,368.4117,178.1667,370.5,179.1875,370.4904,179.1634,368.4472,179.8555,366.4525,180.6688,364.4916,181.5664,362.4144,182.1735,360.5,183.1875,360.6305,183.318,361.1514,182.2389,362.0534,181.5409,363.0018,180.8893,363.6798,179.9673,364.5,179.1875,364.5161,179.2036,363.6925,178.38,362.9421,177.6296,362.1564,176.8439,361.438,176.1255,360.5,175.1875" style="stroke: #00BFFF; stroke-width: 1.0;"/><path d="M259.5,179.1875 L259.5,179.4677 L269.2273,178.6351 L278.9545,179.4452 L288.6818,179.7204 L298.4091,178.2363 L308.1364,179.0839 L317.8636,178.6188 L327.5909,178.6762 L337.3182,179.0966 L347.0455,178.2657 L356.7727,179.9257 L366.5,179.1875 " fill="none" style="stroke: #00BFFF; stroke-width: 1.0;"/><text fill="#000000" font-family="sans-serif" font-size="13" lengthAdjust="spacingAndGlyphs" textLength="49" x="266.5" y="174.1216">DoWork</text><polygon fill="#00BFFF" points="270.5,204.3203,270.526,204.3854,268.4487,204.9921,266.5239,205.9801,264.5495,206.844,262.4117,207.2995,260.5,208.3203,260.4904,208.2963,262.4472,208.9883,264.4525,209.8016,266.4916,210.6992,268.4144,211.3063,270.5,212.3203,270.6305,212.4508,269.5514,211.3718,268.8534,210.6737,268.2018,210.0221,267.2798,209.1001,266.5,208.3203,266.5161,208.3364,267.2925,207.5128,268.1421,206.7624,268.9564,205.9767,269.838,205.2584,270.5,204.3203" style="stroke: #00BFFF; stroke-width: 1.0;"/><path d="M264.5,208.3203 L264.5,208.6006 L274.6818,207.7679 L284.8636,208.578 L295.0455,208.8532 L305.2273,207.3691 L315.4091,208.2167 L325.5909,207.7517 L335.7727,207.809 L345.9545,208.2294 L356.1364,207.3985 L366.3182,209.0585 L376.5,208.3203 " fill="none" style="stroke: #00BFFF; stroke-width: 1.0; stroke-dasharray: 2.0,2.0;"/><text fill="#000000" font-family="sans-serif" font-size="13" lengthAdjust="spacingAndGlyphs" textLength="65" x="276.5" y="203.2544">WorkDone</text><path d="M368.5,199.3203 L368.5661,199.3864 L371.9698,202.7901 L375.7607,206.5811 L379.4256,210.2459 L382.6758,213.4961 L386.5,217.3203 " fill="none" style="stroke: #0000FF; stroke-width: 2.0;"/><path d="M368.5,217.3203 L368.5661,217.3864 L371.9698,213.5901 L375.7607,210.1811 L379.4256,206.6459 L382.6758,202.6961 L386.5,199.3203 " fill="none" style="stroke: #0000FF; stroke-width: 2.0;"/><polygon fill="#00BFFF" points="129.5,233.4531,129.526,233.5182,127.4487,234.1249,125.5239,235.1129,123.5495,235.9768,121.4117,236.4323,119.5,237.4531,119.4904,237.4291,121.4472,238.1211,123.4525,238.9344,125.4916,239.832,127.4144,240.4392,129.5,241.4531,129.6305,241.5836,128.5514,240.5046,127.8534,239.8065,127.2018,239.1549,126.2798,238.2329,125.5,237.4531,125.5161,237.4692,126.2925,236.6456,127.1421,235.8952,127.9564,235.1095,128.838,234.3912,129.5,233.4531" style="stroke: #00BFFF; stroke-width: 1.0;"/><path d="M123.5,237.4531 L123.5,237.7334 L133.5,236.9007 L143.5,237.7108 L153.5,237.986 L163.5,236.5019 L173.5,237.3495 L183.5,236.8845 L193.5,236.9418 L203.5,237.3622 L213.5,236.5313 L223.5,238.1913 L233.5,236.6128 L243.5,237.1894 L253.5,237.4531 " fill="none" style="stroke: #00BFFF; stroke-width: 1.0; stroke-dasharray: 2.0,2.0;"/><text fill="#000000" font-family="sans-serif" font-size="13" lengthAdjust="spacingAndGlyphs" textLength="107" x="135.5" y="232.3872">Request Created</text><polygon fill="#00BFFF" points="41,262.5859,41.026,262.651,38.9487,263.2577,37.0239,264.2458,35.0495,265.1096,32.9117,265.5651,31,266.5859,30.9904,266.5619,32.9472,267.2539,34.9525,268.0672,36.9916,268.9648,38.9144,269.572,41,270.5859,41.1305,270.7164,40.0514,269.6374,39.3534,268.9393,38.7018,268.2877,37.7798,267.3657,37,266.5859,37.0161,266.602,37.7925,265.7784,38.6421,265.028,39.4564,264.2423,40.338,263.524,41,262.5859" style="stroke: #00BFFF; stroke-width: 1.0;"/><path d="M35,266.5859 L35,266.8662 L44.6875,266.0335 L54.375,266.8437 L64.0625,267.1188 L73.75,265.6347 L83.4375,266.4823 L93.125,266.0173 L102.8125,266.0746 L112.5,266.5859 " fill="none" style="stroke: #00BFFF; stroke-width: 1.0; stroke-dasharray: 2.0,2.0;"/><text fill="#000000" font-family="sans-serif" font-size="13" lengthAdjust="spacingAndGlyphs" textLength="34" x="47" y="261.52">Done</text><!--
@startuml
skinparam backgroundColor #EEEBDC
skinparam handwritten true

skinparam sequence {
ArrowColor DeepSkyBlue
ActorBorderColor DeepSkyBlue
LifeLineBorderColor blue
LifeLineBackgroundColor #A9DCDF

ParticipantBorderColor DeepSkyBlue
ParticipantBackgroundColor DodgerBlue
ParticipantFontName Impact
ParticipantFontSize 17
ParticipantFontColor #A9DCDF

ActorBackgroundColor aqua
ActorFontColor DeepSkyBlue
ActorFontSize 17
ActorFontName Aapex
}

actor User
participant "First Class" as A
participant "Second Class" as B
participant "Last Class" as C

User -> A: DoWork
activate A

A -> B: Create Request
activate B

B -> C: DoWork
activate C
C - -> B: WorkDone
destroy C

B - -> A: Request Created
deactivate B

A - -> User: Done
deactivate A

@enduml

PlantUML version 1.2019.05(Sat Apr 20 16:45:36 UTC 2019)
(GPL source distribution)
Java Runtime: OpenJDK Runtime Environment
JVM: OpenJDK 64-Bit Server VM
Java Version: 11.0.9+11-post-Debian-1deb10u1
Operating System: Linux
OS Version: 5.4.0-1047-azure
Default Encoding: UTF-8
Language: en
Country: null
--></g></svg>