<?xml version="1.0" encoding="UTF-8" standalone="no"?><svg xmlns="http://www.w3.org/2000/svg" xmlns:xlink="http://www.w3.org/1999/xlink" contentScriptType="application/ecmascript" contentStyleType="text/css" height="247px" preserveAspectRatio="none" style="width:368px;height:247px;" version="1.1" viewBox="0 0 368 247" width="368px" zoomAndPan="magnify"><defs><filter height="300%" id="f1qjih99q0ms9v" width="300%" x="-1" y="-1"><feGaussianBlur result="blurOut" stdDeviation="2.0"/><feColorMatrix in="blurOut" result="blurOut2" type="matrix" values="0 0 0 0 0 0 0 0 0 0 0 0 0 0 0 0 0 0 .4 0"/><feOffset dx="4.0" dy="4.0" in="blurOut2" result="blurOut3"/><feBlend in="SourceGraphic" in2="blurOut3" mode="normal"/></filter></defs><g><line style="stroke: #A80036; stroke-width: 1.0; stroke-dasharray: 5.0,5.0;" x1="149" x2="149" y1="38.4883" y2="207.041"/><line style="stroke: #A80036; stroke-width: 1.0; stroke-dasharray: 5.0,5.0;" x1="207" x2="207" y1="38.4883" y2="207.041"/><rect fill="#FEFECE" filter="url(#f1qjih99q0ms9v)" height="30.4883" style="stroke: #A80036; stroke-width: 1.5;" width="47" x="124" y="3"/><text fill="#000000" font-family="sans-serif" font-size="14" lengthAdjust="spacingAndGlyphs" textLength="33" x="131" y="23.5352">Alice</text><rect fill="#FEFECE" filter="url(#f1qjih99q0ms9v)" height="30.4883" style="stroke: #A80036; stroke-width: 1.5;" width="47" x="124" y="206.041"/><text fill="#000000" font-family="sans-serif" font-size="14" lengthAdjust="spacingAndGlyphs" textLength="33" x="131" y="226.5762">Alice</text><rect fill="#FEFECE" filter="url(#f1qjih99q0ms9v)" height="30.4883" style="stroke: #A80036; stroke-width: 1.5;" width="40" x="185" y="3"/><text fill="#000000" font-family="sans-serif" font-size="14" lengthAdjust="spacingAndGlyphs" textLength="26" x="192" y="23.5352">Bob</text><rect fill="#FEFECE" filter="url(#f1qjih99q0ms9v)" height="30.4883" style="stroke: #A80036; stroke-width: 1.5;" width="40" x="185" y="206.041"/><text fill="#000000" font-family="sans-serif" font-size="14" lengthAdjust="spacingAndGlyphs" textLength="26" x="192" y="226.5762">Bob</text><polygon fill="#A80036" points="195,70.7988,205,74.7988,195,78.7988,199,74.7988" style="stroke: #A80036; stroke-width: 1.0;"/><line style="stroke: #A80036; stroke-width: 1.0;" x1="149.5" x2="201" y1="74.7988" y2="74.7988"/><text fill="#000000" font-family="sans-serif" font-size="13" lengthAdjust="spacingAndGlyphs" textLength="31" x="156.5" y="70.0566">hello</text><path d="M8,53.4883 L8,78.4883 L141,78.4883 L141,63.4883 L131,53.4883 L8,53.4883 " fill="#FBFB77" filter="url(#f1qjih99q0ms9v)" style="stroke: #A80036; stroke-width: 1.0;"/><path d="M131,53.4883 L131,63.4883 L141,63.4883 L131,53.4883 " fill="#FBFB77" style="stroke: #A80036; stroke-width: 1.0;"/><text fill="#000000" font-family="sans-serif" font-size="13" lengthAdjust="spacingAndGlyphs" textLength="112" x="14" y="71.0566">this is a first note</text><polygon fill="#A80036" points="160.5,110.1094,150.5,114.1094,160.5,118.1094,156.5,114.1094" style="stroke: #A80036; stroke-width: 1.0;"/><line style="stroke: #A80036; stroke-width: 1.0;" x1="154.5" x2="206" y1="114.1094" y2="114.1094"/><text fill="#000000" font-family="sans-serif" font-size="13" lengthAdjust="spacingAndGlyphs" textLength="16" x="166.5" y="109.3672">ok</text><path d="M212,92.7988 L212,117.7988 L356,117.7988 L356,102.7988 L346,92.7988 L212,92.7988 " fill="#FBFB77" filter="url(#f1qjih99q0ms9v)" style="stroke: #A80036; stroke-width: 1.0;"/><path d="M346,92.7988 L346,102.7988 L356,102.7988 L346,92.7988 " fill="#FBFB77" style="stroke: #A80036; stroke-width: 1.0;"/><text fill="#000000" font-family="sans-serif" font-size="13" lengthAdjust="spacingAndGlyphs" textLength="123" x="218" y="110.3672">this is another note</text><line style="stroke: #A80036; stroke-width: 1.0;" x1="207" x2="249" y1="162.2305" y2="162.2305"/><line style="stroke: #A80036; stroke-width: 1.0;" x1="249" x2="249" y1="162.2305" y2="175.2305"/><line style="stroke: #A80036; stroke-width: 1.0;" x1="208" x2="249" y1="175.2305" y2="175.2305"/><polygon fill="#A80036" points="218,171.2305,208,175.2305,218,179.2305,214,175.2305" style="stroke: #A80036; stroke-width: 1.0;"/><text fill="#000000" font-family="sans-serif" font-size="13" lengthAdjust="spacingAndGlyphs" textLength="84" x="214" y="157.4883">I am thinking</text><path d="M55,132.1094 L55,187.1094 L198,187.1094 L198,142.1094 L188,132.1094 L55,132.1094 " fill="#FBFB77" filter="url(#f1qjih99q0ms9v)" style="stroke: #A80036; stroke-width: 1.0;"/><path d="M188,132.1094 L188,142.1094 L198,142.1094 L188,132.1094 " fill="#FBFB77" style="stroke: #A80036; stroke-width: 1.0;"/><text fill="#000000" font-family="sans-serif" font-size="13" lengthAdjust="spacingAndGlyphs" textLength="39" x="61" y="149.6777">a note</text><text fill="#000000" font-family="sans-serif" font-size="13" lengthAdjust="spacingAndGlyphs" textLength="122" x="61" y="164.9883">can also be defined</text><text fill="#000000" font-family="sans-serif" font-size="13" lengthAdjust="spacingAndGlyphs" textLength="98" x="61" y="180.2988">on several lines</text><!--
@startuml
Alice->Bob : hello
note left: this is a first note

Bob->Alice : ok
note right: this is another note

Bob->Bob : I am thinking
note left
a note
can also be defined
on several lines
end note
@enduml

PlantUML version 1.2019.05(Sun Apr 21 00:45:36 CST 2019)
(GPL source distribution)
Java Runtime: Java(TM) SE Runtime Environment
JVM: Java HotSpot(TM) 64-Bit Server VM
Java Version: 1.8.0_191-b12
Operating System: Mac OS X
OS Version: 10.16
Default Encoding: UTF-8
Language: en
Country: CN
--></g></svg>