<?xml version="1.0" encoding="UTF-8" standalone="no"?>
<!DOCTYPE svg PUBLIC "-//W3C//DTD SVG 1.1//EN"
 "http://www.w3.org/Graphics/SVG/1.1/DTD/svg11.dtd">
<!-- Generated by graphviz version 2.40.1 (20161225.0304)
 -->
<!-- Title: G Pages: 1 -->
<svg width="358pt" height="260pt"
 viewBox="0.00 0.00 357.94 260.00" xmlns="http://www.w3.org/2000/svg" xmlns:xlink="http://www.w3.org/1999/xlink">
<g id="graph0" class="graph" transform="scale(1 1) rotate(0) translate(4 256)">
<title>G</title>
<polygon fill="#ffffff" stroke="transparent" points="-4,4 -4,-256 353.9406,-256 353.9406,4 -4,4"/>
<!-- main -->
<g id="node1" class="node">
<title>main</title>
<ellipse fill="none" stroke="#000000" cx="186.8939" cy="-234" rx="33.5952" ry="18"/>
<text text-anchor="middle" x="186.8939" y="-230.3" font-family="Georgia" font-size="14.00" fill="#000000">main</text>
</g>
<!-- parse -->
<g id="node2" class="node">
<title>parse</title>
<ellipse fill="none" stroke="#000000" cx="135.8939" cy="-162" rx="36.2938" ry="18"/>
<text text-anchor="middle" x="135.8939" y="-158.3" font-family="Georgia" font-size="14.00" fill="#000000">parse</text>
</g>
<!-- main&#45;&gt;parse -->
<g id="edge1" class="edge">
<title>main&#45;&gt;parse</title>
<path fill="none" stroke="#000000" d="M174.8076,-216.937C168.6108,-208.1886 160.9366,-197.3545 154.0453,-187.6256"/>
<polygon fill="#000000" stroke="#000000" points="156.884,-185.5779 148.2477,-179.4407 151.1718,-189.624 156.884,-185.5779"/>
</g>
<!-- init -->
<g id="node4" class="node">
<title>init</title>
<ellipse fill="none" stroke="#000000" cx="69.8939" cy="-90" rx="27" ry="18"/>
<text text-anchor="middle" x="69.8939" y="-86.3" font-family="Georgia" font-size="14.00" fill="#000000">init</text>
</g>
<!-- main&#45;&gt;init -->
<g id="edge3" class="edge">
<title>main&#45;&gt;init</title>
<path fill="none" stroke="#000000" d="M157.3382,-224.6826C135.7316,-216.3568 107.4227,-202.0238 90.8939,-180 77.5479,-162.2172 72.4972,-137.3152 70.6717,-118.2119"/>
<polygon fill="#000000" stroke="#000000" points="74.1464,-117.731 69.9441,-108.0052 67.1641,-118.2288 74.1464,-117.731"/>
</g>
<!-- cleanup -->
<g id="node5" class="node">
<title>cleanup</title>
<ellipse fill="none" stroke="#000000" cx="237.8939" cy="-162" rx="47.3916" ry="18"/>
<text text-anchor="middle" x="237.8939" y="-158.3" font-family="Georgia" font-size="14.00" fill="#000000">cleanup</text>
</g>
<!-- main&#45;&gt;cleanup -->
<g id="edge4" class="edge">
<title>main&#45;&gt;cleanup</title>
<path fill="none" stroke="#000000" d="M198.9802,-216.937C205.1769,-208.1886 212.8511,-197.3545 219.7424,-187.6256"/>
<polygon fill="#000000" stroke="#000000" points="222.616,-189.624 225.5401,-179.4407 216.9038,-185.5779 222.616,-189.624"/>
</g>
<!-- printf -->
<g id="node7" class="node">
<title>printf</title>
<ellipse fill="none" stroke="#000000" cx="312.8939" cy="-18" rx="37.0935" ry="18"/>
<text text-anchor="middle" x="312.8939" y="-14.3" font-family="Georgia" font-size="14.00" fill="#000000">printf</text>
</g>
<!-- main&#45;&gt;printf -->
<g id="edge8" class="edge">
<title>main&#45;&gt;printf</title>
<path fill="none" stroke="#000000" d="M218.0364,-226.9026C242.7975,-219.5349 276.1306,-205.4108 293.8939,-180 321.7097,-140.2088 320.7902,-81.0561 317.1483,-46.3218"/>
<polygon fill="#000000" stroke="#000000" points="320.5711,-45.469 315.9032,-35.9579 313.6211,-46.304 320.5711,-45.469"/>
</g>
<!-- execute -->
<g id="node3" class="node">
<title>execute</title>
<ellipse fill="none" stroke="#000000" cx="184.8939" cy="-90" rx="47.3916" ry="18"/>
<text text-anchor="middle" x="184.8939" y="-86.3" font-family="Georgia" font-size="14.00" fill="#000000">execute</text>
</g>
<!-- parse&#45;&gt;execute -->
<g id="edge2" class="edge">
<title>parse&#45;&gt;execute</title>
<path fill="none" stroke="#000000" d="M147.5062,-144.937C153.3998,-136.277 160.6844,-125.5731 167.2534,-115.9207"/>
<polygon fill="#000000" stroke="#000000" points="170.2918,-117.677 173.0245,-107.4407 164.5048,-113.7386 170.2918,-117.677"/>
</g>
<!-- make_string -->
<g id="node6" class="node">
<title>make_string</title>
<ellipse fill="none" stroke="#000000" cx="68.8939" cy="-18" rx="68.7879" ry="18"/>
<text text-anchor="middle" x="68.8939" y="-14.3" font-family="Georgia" font-size="14.00" fill="#000000">make_string</text>
</g>
<!-- execute&#45;&gt;make_string -->
<g id="edge5" class="edge">
<title>execute&#45;&gt;make_string</title>
<path fill="none" stroke="#000000" d="M160.009,-74.5542C143.7614,-64.4695 122.2998,-51.1485 104.287,-39.9682"/>
<polygon fill="#000000" stroke="#000000" points="106.1016,-36.9751 95.7594,-34.6751 102.41,-42.9226 106.1016,-36.9751"/>
</g>
<!-- execute&#45;&gt;printf -->
<g id="edge6" class="edge">
<title>execute&#45;&gt;printf</title>
<path fill="none" stroke="#000000" d="M211.7269,-74.9064C231.3952,-63.843 258.2303,-48.7483 279.3204,-36.8851"/>
<polygon fill="#000000" stroke="#000000" points="281.2641,-39.8075 288.2639,-31.8544 277.8322,-33.7065 281.2641,-39.8075"/>
</g>
<!-- compare -->
<g id="node8" class="node">
<title>compare</title>
<ellipse fill="none" stroke="#000000" cx="206.8939" cy="-18" rx="51.1914" ry="18"/>
<text text-anchor="middle" x="206.8939" y="-14.3" font-family="Georgia" font-size="14.00" fill="#000000">compare</text>
</g>
<!-- execute&#45;&gt;compare -->
<g id="edge9" class="edge">
<title>execute&#45;&gt;compare</title>
<path fill="none" stroke="#000000" d="M190.4454,-71.8314C192.8608,-63.9266 195.745,-54.4872 198.4188,-45.7365"/>
<polygon fill="#000000" stroke="#000000" points="201.8453,-46.4997 201.4203,-35.9134 195.1509,-44.4541 201.8453,-46.4997"/>
</g>
<!-- init&#45;&gt;make_string -->
<g id="edge7" class="edge">
<title>init&#45;&gt;make_string</title>
<path fill="none" stroke="#000000" d="M69.6415,-71.8314C69.5346,-64.131 69.4074,-54.9743 69.2886,-46.4166"/>
<polygon fill="#000000" stroke="#000000" points="72.7883,-46.3637 69.1496,-36.4133 65.7889,-46.4609 72.7883,-46.3637"/>
</g>
</g>
</svg>
