<?xml version="1.0" encoding="UTF-8" standalone="no"?>
<!DOCTYPE svg PUBLIC "-//W3C//DTD SVG 1.1//EN"
 "http://www.w3.org/Graphics/SVG/1.1/DTD/svg11.dtd">
<!-- Generated by graphviz version 2.40.1 (20161225.0304)
 -->
<!-- Title: idp_modules Pages: 1 -->
<svg width="509pt" height="475pt"
 viewBox="0.00 0.00 509.00 475.00" xmlns="http://www.w3.org/2000/svg" xmlns:xlink="http://www.w3.org/1999/xlink">
<g id="graph0" class="graph" transform="scale(1 1) rotate(0) translate(4 471)">
<title>idp_modules</title>
<polygon fill="#ffffff" stroke="transparent" points="-4,4 -4,-471 505,-471 505,4 -4,4"/>
<g id="clust1" class="cluster">
<title>cluster_sl</title>
<polygon fill="#f5fffa" stroke="#000000" points="8,-8 8,-82 493,-82 493,-8 8,-8"/>
<text text-anchor="middle" x="250.5" y="-68.4" font-family="Georgia" font-size="12.00" fill="#000000"> IDP支持层</text>
</g>
<g id="clust2" class="cluster">
<title>cluster_md</title>
<polygon fill="#e0ffff" stroke="#000000" points="116,-113 116,-459 293,-459 293,-113 116,-113"/>
<text text-anchor="middle" x="204.5" y="-445.4" font-family="Georgia" font-size="12.00" fill="#000000"> 可插拔模块集</text>
</g>
<!-- network_mgr -->
<g id="node1" class="node">
<title>network_mgr</title>
<path fill="#87ceeb" stroke="#87ceeb" d="M419.5,-16.5C419.5,-16.5 472.5,-16.5 472.5,-16.5 478.5,-16.5 484.5,-22.5 484.5,-28.5 484.5,-28.5 484.5,-40.5 484.5,-40.5 484.5,-46.5 478.5,-52.5 472.5,-52.5 472.5,-52.5 419.5,-52.5 419.5,-52.5 413.5,-52.5 407.5,-46.5 407.5,-40.5 407.5,-40.5 407.5,-28.5 407.5,-28.5 407.5,-22.5 413.5,-16.5 419.5,-16.5"/>
<text text-anchor="middle" x="446" y="-31.4" font-family="Georgia" font-size="12.00" fill="#000000">网络管理器</text>
</g>
<!-- log_mgr -->
<g id="node2" class="node">
<title>log_mgr</title>
<path fill="#87ceeb" stroke="#87ceeb" d="M324.5,-16.5C324.5,-16.5 377.5,-16.5 377.5,-16.5 383.5,-16.5 389.5,-22.5 389.5,-28.5 389.5,-28.5 389.5,-40.5 389.5,-40.5 389.5,-46.5 383.5,-52.5 377.5,-52.5 377.5,-52.5 324.5,-52.5 324.5,-52.5 318.5,-52.5 312.5,-46.5 312.5,-40.5 312.5,-40.5 312.5,-28.5 312.5,-28.5 312.5,-22.5 318.5,-16.5 324.5,-16.5"/>
<text text-anchor="middle" x="351" y="-31.4" font-family="Georgia" font-size="12.00" fill="#000000">日志管理器</text>
</g>
<!-- module_mgr -->
<g id="node3" class="node">
<title>module_mgr</title>
<path fill="#87ceeb" stroke="#87ceeb" d="M229.5,-16.5C229.5,-16.5 282.5,-16.5 282.5,-16.5 288.5,-16.5 294.5,-22.5 294.5,-28.5 294.5,-28.5 294.5,-40.5 294.5,-40.5 294.5,-46.5 288.5,-52.5 282.5,-52.5 282.5,-52.5 229.5,-52.5 229.5,-52.5 223.5,-52.5 217.5,-46.5 217.5,-40.5 217.5,-40.5 217.5,-28.5 217.5,-28.5 217.5,-22.5 223.5,-16.5 229.5,-16.5"/>
<text text-anchor="middle" x="256" y="-31.4" font-family="Georgia" font-size="12.00" fill="#000000">模块管理器</text>
</g>
<!-- conf_mgr -->
<g id="node4" class="node">
<title>conf_mgr</title>
<path fill="#87ceeb" stroke="#87ceeb" d="M134.5,-16.5C134.5,-16.5 187.5,-16.5 187.5,-16.5 193.5,-16.5 199.5,-22.5 199.5,-28.5 199.5,-28.5 199.5,-40.5 199.5,-40.5 199.5,-46.5 193.5,-52.5 187.5,-52.5 187.5,-52.5 134.5,-52.5 134.5,-52.5 128.5,-52.5 122.5,-46.5 122.5,-40.5 122.5,-40.5 122.5,-28.5 122.5,-28.5 122.5,-22.5 128.5,-16.5 134.5,-16.5"/>
<text text-anchor="middle" x="161" y="-31.4" font-family="Georgia" font-size="12.00" fill="#000000">配置管理器</text>
</g>
<!-- db_mgr -->
<g id="node5" class="node">
<title>db_mgr</title>
<path fill="#87ceeb" stroke="#87ceeb" d="M27.5,-16.5C27.5,-16.5 92.5,-16.5 92.5,-16.5 98.5,-16.5 104.5,-22.5 104.5,-28.5 104.5,-28.5 104.5,-40.5 104.5,-40.5 104.5,-46.5 98.5,-52.5 92.5,-52.5 92.5,-52.5 27.5,-52.5 27.5,-52.5 21.5,-52.5 15.5,-46.5 15.5,-40.5 15.5,-40.5 15.5,-28.5 15.5,-28.5 15.5,-22.5 21.5,-16.5 27.5,-16.5"/>
<text text-anchor="middle" x="60" y="-31.4" font-family="Georgia" font-size="12.00" fill="#000000">数据库管理器</text>
</g>
<!-- mod_dev -->
<g id="node6" class="node">
<title>mod_dev</title>
<polygon fill="#76ee00" stroke="#76ee00" points="196.5,-269.5 196.5,-305.5 285.5,-305.5 285.5,-269.5 196.5,-269.5"/>
<text text-anchor="middle" x="241" y="-284.4" font-family="Georgia" font-size="12.00" fill="#000000">开发支持模块</text>
</g>
<!-- mod_dev&#45;&gt;module_mgr -->
<g id="edge5" class="edge">
<title>mod_dev&#45;&gt;module_mgr</title>
<path fill="none" stroke="#9acd32" d="M242.0788,-269.3049C244.8464,-222.6244 252.1742,-99.029 254.931,-52.5303"/>
<text text-anchor="middle" x="265" y="-179.4" font-family="Georgia" font-size="12.00" fill="#000000">安装...</text>
</g>
<!-- mod_dm -->
<g id="node7" class="node">
<title>mod_dm</title>
<polygon fill="#76ee00" stroke="#76ee00" points="138.5,-121.5 138.5,-157.5 227.5,-157.5 227.5,-121.5 138.5,-121.5"/>
<text text-anchor="middle" x="183" y="-136.4" font-family="Georgia" font-size="12.00" fill="#000000">数据建模模块</text>
</g>
<!-- mod_dev&#45;&gt;mod_dm -->
<g id="edge4" class="edge">
<title>mod_dev&#45;&gt;mod_dm</title>
<path fill="none" stroke="#000000" d="M230.3188,-269.345C222.7942,-256.0165 212.8749,-237.2964 206,-220 199.2824,-203.0993 193.6369,-183.4885 189.6203,-167.8545"/>
<polygon fill="#000000" stroke="#000000" points="192.917,-166.6079 187.1067,-157.7484 186.124,-168.2976 192.917,-166.6079"/>
<text text-anchor="middle" x="224" y="-210.4" font-family="Georgia" font-size="12.00" fill="#000000">依赖...</text>
</g>
<!-- mod_dm&#45;&gt;module_mgr -->
<g id="edge6" class="edge">
<title>mod_dm&#45;&gt;module_mgr</title>
<path fill="none" stroke="#9acd32" d="M189.8703,-121.4084C193.9211,-111.722 199.5199,-99.802 206,-90 214.8686,-76.585 226.8767,-63.1445 236.9022,-52.8505"/>
<text text-anchor="middle" x="224" y="-93.4" font-family="Georgia" font-size="12.00" fill="#000000">安装...</text>
</g>
<!-- mod_dp -->
<g id="node8" class="node">
<title>mod_dp</title>
<polygon fill="#76ee00" stroke="#76ee00" points="196.5,-393.5 196.5,-429.5 285.5,-429.5 285.5,-393.5 196.5,-393.5"/>
<text text-anchor="middle" x="241" y="-408.4" font-family="Georgia" font-size="12.00" fill="#000000">部署发布模块</text>
</g>
<!-- mod_dp&#45;&gt;module_mgr -->
<g id="edge3" class="edge">
<title>mod_dp&#45;&gt;module_mgr</title>
<path fill="none" stroke="#9acd32" d="M282.6178,-393.4591C299.0115,-383.3264 314,-368.7882 314,-349.5 314,-349.5 314,-349.5 314,-139.5 314,-105.5546 290.4862,-72.2684 273.4019,-52.5638"/>
<text text-anchor="middle" x="332" y="-241.4" font-family="Georgia" font-size="12.00" fill="#000000">安装...</text>
</g>
<!-- mod_dp&#45;&gt;mod_dev -->
<g id="edge1" class="edge">
<title>mod_dp&#45;&gt;mod_dev</title>
<path fill="none" stroke="#000000" d="M241,-393.4693C241,-373.0822 241,-339.6268 241,-315.7614"/>
<polygon fill="#000000" stroke="#000000" points="244.5001,-315.5524 241,-305.5524 237.5001,-315.5525 244.5001,-315.5524"/>
<text text-anchor="middle" x="259" y="-346.4" font-family="Georgia" font-size="12.00" fill="#000000">依赖...</text>
</g>
<!-- mod_dp&#45;&gt;mod_dm -->
<g id="edge2" class="edge">
<title>mod_dp&#45;&gt;mod_dm</title>
<path fill="none" stroke="#000000" d="M196.4234,-401.679C170.1463,-392.9707 142,-377.182 142,-349.5 142,-349.5 142,-349.5 142,-213.5 142,-196.2711 150.6086,-179.2939 159.9366,-165.9553"/>
<polygon fill="#000000" stroke="#000000" points="162.8902,-167.8503 166.087,-157.7493 157.2889,-163.6521 162.8902,-167.8503"/>
<text text-anchor="middle" x="160" y="-284.4" font-family="Georgia" font-size="12.00" fill="#000000">依赖...</text>
</g>
</g>
</svg>
