<?xml version="1.0" encoding="UTF-8" standalone="no"?><svg xmlns="http://www.w3.org/2000/svg" xmlns:xlink="http://www.w3.org/1999/xlink" contentScriptType="application/ecmascript" contentStyleType="text/css" height="478px" preserveAspectRatio="none" style="width:1058px;height:478px;" version="1.1" viewBox="0 0 1058 478" width="1058px" zoomAndPan="magnify"><defs><filter height="300%" id="f44dqshxtb6fb" width="300%" x="-1" y="-1"><feGaussianBlur result="blurOut" stdDeviation="2.0"/><feColorMatrix in="blurOut" result="blurOut2" type="matrix" values="0 0 0 0 0 0 0 0 0 0 0 0 0 0 0 0 0 0 .4 0"/><feOffset dx="4.0" dy="4.0" in="blurOut2" result="blurOut3"/><feBlend in="SourceGraphic" in2="blurOut3" mode="normal"/></filter></defs><g><!--cluster github.com\\opentracing\\opentracing_go\\ext--><polygon fill="#FFFFFF" filter="url(#f44dqshxtb6fb)" points="675,370,1026,370,1033,392.2969,1036,392.2969,1036,466,675,466,675,370" style="stroke: #000000; stroke-width: 1.5;"/><line style="stroke: #000000; stroke-width: 1.5;" x1="675" x2="1033" y1="392.2969" y2="392.2969"/><text fill="#000000" font-family="sans-serif" font-size="14" font-weight="bold" lengthAdjust="spacingAndGlyphs" textLength="345" x="679" y="384.9951">github.com\opentracing\opentracing_go\ext</text><!--cluster github.com\\opentracing\\opentracing_go--><polygon fill="#FFFFFF" filter="url(#f44dqshxtb6fb)" points="14,16,335,16,342,38.2969,667,38.2969,667,466,14,466,14,16" style="stroke: #000000; stroke-width: 1.5;"/><line style="stroke: #000000; stroke-width: 1.5;" x1="14" x2="342" y1="38.2969" y2="38.2969"/><text fill="#000000" font-family="sans-serif" font-size="14" font-weight="bold" lengthAdjust="spacingAndGlyphs" textLength="315" x="18" y="30.9951">github.com\opentracing\opentracing_go</text><!--class github.com\\opentracing\\opentracing_go\\ext.rpcServerOption--><rect fill="#FEFECE" filter="url(#f44dqshxtb6fb)" height="60.8047" id="github.com\\opentracing\\opentracing_go\\ext.rpcServerOption" style="stroke: #A80036; stroke-width: 1.5;" width="232" x="683" y="397"/><ellipse cx="744.25" cy="413" fill="#ADD1B2" rx="11" ry="11" style="stroke: #A80036; stroke-width: 1.0;"/><path d="M747.2188,418.6406 Q746.6406,418.9375 746,419.0781 Q745.3594,419.2344 744.6563,419.2344 Q742.1563,419.2344 740.8281,417.5938 Q739.5156,415.9375 739.5156,412.8125 Q739.5156,409.6875 740.8281,408.0313 Q742.1563,406.375 744.6563,406.375 Q745.3594,406.375 746,406.5313 Q746.6563,406.6875 747.2188,406.9844 L747.2188,409.7031 Q746.5938,409.125 746,408.8594 Q745.4063,408.5781 744.7813,408.5781 Q743.4375,408.5781 742.75,409.6563 Q742.0625,410.7188 742.0625,412.8125 Q742.0625,414.9063 742.75,415.9844 Q743.4375,417.0469 744.7813,417.0469 Q745.4063,417.0469 746,416.7813 Q746.5938,416.5 747.2188,415.9219 L747.2188,418.6406 Z "/><text fill="#000000" font-family="sans-serif" font-size="12" lengthAdjust="spacingAndGlyphs" textLength="101" x="764.75" y="417.1543">rpcServerOption</text><line style="stroke: #A80036; stroke-width: 1.5;" x1="684" x2="914" y1="429" y2="429"/><text fill="#000000" font-family="sans-serif" font-size="11" lengthAdjust="spacingAndGlyphs" textLength="220" x="689" y="443.2104">clientContext opentracing.SpanContext</text><line style="stroke: #A80036; stroke-width: 1.5;" x1="684" x2="914" y1="449.8047" y2="449.8047"/><!--class github.com\\opentracing\\opentracing_go.Tracer--><rect fill="#FEFECE" filter="url(#f44dqshxtb6fb)" height="86.4141" id="github.com\\opentracing\\opentracing_go.Tracer" style="stroke: #A80036; stroke-width: 1.5;" width="417" x="242.5" y="43"/><ellipse cx="426.75" cy="59" fill="#B4A7E5" rx="11" ry="11" style="stroke: #A80036; stroke-width: 1.0;"/><path d="M422.6719,54.7656 L422.6719,52.6094 L430.0625,52.6094 L430.0625,54.7656 L427.5938,54.7656 L427.5938,62.8438 L430.0625,62.8438 L430.0625,65 L422.6719,65 L422.6719,62.8438 L425.1406,62.8438 L425.1406,54.7656 L422.6719,54.7656 Z "/><text fill="#000000" font-family="sans-serif" font-size="12" font-style="italic" lengthAdjust="spacingAndGlyphs" textLength="40" x="447.25" y="63.1543">Tracer</text><line style="stroke: #A80036; stroke-width: 1.5;" x1="243.5" x2="658.5" y1="75" y2="75"/><line style="stroke: #A80036; stroke-width: 1.5;" x1="243.5" x2="658.5" y1="83" y2="83"/><text fill="#000000" font-family="sans-serif" font-size="11" lengthAdjust="spacingAndGlyphs" textLength="361" x="248.5" y="97.2104">StartSpan(operationName string,opts ... StartSpanOption)Span</text><text fill="#000000" font-family="sans-serif" font-size="11" lengthAdjust="spacingAndGlyphs" textLength="405" x="248.5" y="110.0151">Inject(sm SpanContext,format interface  { },carrier interface  { })error</text><text fill="#000000" font-family="sans-serif" font-size="11" lengthAdjust="spacingAndGlyphs" textLength="400" x="248.5" y="122.8198">Extract(format interface  { },carrier interface  { })(SpanContext,error)</text><!--class github.com\\opentracing\\opentracing_go.StartSpanOption--><rect fill="#FEFECE" filter="url(#f44dqshxtb6fb)" height="60.8047" id="github.com\\opentracing\\opentracing_go.StartSpanOption" style="stroke: #A80036; stroke-width: 1.5;" width="157" x="129.5" y="397"/><ellipse cx="154.4" cy="413" fill="#B4A7E5" rx="11" ry="11" style="stroke: #A80036; stroke-width: 1.0;"/><path d="M150.3219,408.7656 L150.3219,406.6094 L157.7125,406.6094 L157.7125,408.7656 L155.2438,408.7656 L155.2438,416.8438 L157.7125,416.8438 L157.7125,419 L150.3219,419 L150.3219,416.8438 L152.7906,416.8438 L152.7906,408.7656 L150.3219,408.7656 Z "/><text fill="#000000" font-family="sans-serif" font-size="12" font-style="italic" lengthAdjust="spacingAndGlyphs" textLength="103" x="170.6" y="417.1543">StartSpanOption</text><line style="stroke: #A80036; stroke-width: 1.5;" x1="130.5" x2="285.5" y1="429" y2="429"/><line style="stroke: #A80036; stroke-width: 1.5;" x1="130.5" x2="285.5" y1="437" y2="437"/><text fill="#000000" font-family="sans-serif" font-size="11" lengthAdjust="spacingAndGlyphs" textLength="145" x="135.5" y="451.2104">Apply(*StartSpanOptions)</text><!--class github.com\\opentracing\\opentracing_go.StartSpanOptions--><rect fill="#FEFECE" filter="url(#f44dqshxtb6fb)" height="86.4141" id="github.com\\opentracing\\opentracing_go.StartSpanOptions" style="stroke: #A80036; stroke-width: 1.5;" width="186" x="22" y="43"/><ellipse cx="56.35" cy="59" fill="#ADD1B2" rx="11" ry="11" style="stroke: #A80036; stroke-width: 1.0;"/><path d="M59.3188,64.6406 Q58.7406,64.9375 58.1,65.0781 Q57.4594,65.2344 56.7563,65.2344 Q54.2563,65.2344 52.9281,63.5938 Q51.6156,61.9375 51.6156,58.8125 Q51.6156,55.6875 52.9281,54.0313 Q54.2563,52.375 56.7563,52.375 Q57.4594,52.375 58.1,52.5313 Q58.7563,52.6875 59.3188,52.9844 L59.3188,55.7031 Q58.6938,55.125 58.1,54.8594 Q57.5063,54.5781 56.8813,54.5781 Q55.5375,54.5781 54.85,55.6563 Q54.1625,56.7188 54.1625,58.8125 Q54.1625,60.9063 54.85,61.9844 Q55.5375,63.0469 56.8813,63.0469 Q57.5063,63.0469 58.1,62.7813 Q58.6938,62.5 59.3188,61.9219 L59.3188,64.6406 Z "/><text fill="#000000" font-family="sans-serif" font-size="12" lengthAdjust="spacingAndGlyphs" textLength="111" x="74.65" y="63.1543">StartSpanOptions</text><line style="stroke: #A80036; stroke-width: 1.5;" x1="23" x2="207" y1="75" y2="75"/><text fill="#000000" font-family="sans-serif" font-size="11" lengthAdjust="spacingAndGlyphs" textLength="162" x="28" y="89.2104">References []SpanReference</text><text fill="#000000" font-family="sans-serif" font-size="11" lengthAdjust="spacingAndGlyphs" textLength="117" x="28" y="102.0151">StartTime time.Time</text><text fill="#000000" font-family="sans-serif" font-size="11" lengthAdjust="spacingAndGlyphs" textLength="174" x="28" y="114.8198">Tags map[string]interface  { }</text><line style="stroke: #A80036; stroke-width: 1.5;" x1="23" x2="207" y1="121.4141" y2="121.4141"/><!--class github.com\\opentracing\\opentracing_go.SpanReference--><rect fill="#FEFECE" filter="url(#f44dqshxtb6fb)" height="48" id="github.com\\opentracing\\opentracing_go.SpanReference" style="stroke: #A80036; stroke-width: 1.5;" width="128" x="412" y="403.5"/><ellipse cx="427" cy="419.5" fill="#ADD1B2" rx="11" ry="11" style="stroke: #A80036; stroke-width: 1.0;"/><path d="M429.9688,425.1406 Q429.3906,425.4375 428.75,425.5781 Q428.1094,425.7344 427.4063,425.7344 Q424.9063,425.7344 423.5781,424.0938 Q422.2656,422.4375 422.2656,419.3125 Q422.2656,416.1875 423.5781,414.5313 Q424.9063,412.875 427.4063,412.875 Q428.1094,412.875 428.75,413.0313 Q429.4063,413.1875 429.9688,413.4844 L429.9688,416.2031 Q429.3438,415.625 428.75,415.3594 Q428.1563,415.0781 427.5313,415.0781 Q426.1875,415.0781 425.5,416.1563 Q424.8125,417.2188 424.8125,419.3125 Q424.8125,421.4063 425.5,422.4844 Q426.1875,423.5469 427.5313,423.5469 Q428.1563,423.5469 428.75,423.2813 Q429.3438,423 429.9688,422.4219 L429.9688,425.1406 Z "/><text fill="#000000" font-family="sans-serif" font-size="12" lengthAdjust="spacingAndGlyphs" textLength="96" x="441" y="423.6543">SpanReference</text><line style="stroke: #A80036; stroke-width: 1.5;" x1="413" x2="539" y1="435.5" y2="435.5"/><line style="stroke: #A80036; stroke-width: 1.5;" x1="413" x2="539" y1="443.5" y2="443.5"/><!--class github.com\\opentracing\\opentracing_go.Tag--><rect fill="#FEFECE" filter="url(#f44dqshxtb6fb)" height="48" id="github.com\\opentracing\\opentracing_go.Tag" style="stroke: #A80036; stroke-width: 1.5;" width="55" x="321.5" y="403.5"/><ellipse cx="336.5" cy="419.5" fill="#ADD1B2" rx="11" ry="11" style="stroke: #A80036; stroke-width: 1.0;"/><path d="M339.4688,425.1406 Q338.8906,425.4375 338.25,425.5781 Q337.6094,425.7344 336.9063,425.7344 Q334.4063,425.7344 333.0781,424.0938 Q331.7656,422.4375 331.7656,419.3125 Q331.7656,416.1875 333.0781,414.5313 Q334.4063,412.875 336.9063,412.875 Q337.6094,412.875 338.25,413.0313 Q338.9063,413.1875 339.4688,413.4844 L339.4688,416.2031 Q338.8438,415.625 338.25,415.3594 Q337.6563,415.0781 337.0313,415.0781 Q335.6875,415.0781 335,416.1563 Q334.3125,417.2188 334.3125,419.3125 Q334.3125,421.4063 335,422.4844 Q335.6875,423.5469 337.0313,423.5469 Q337.6563,423.5469 338.25,423.2813 Q338.8438,423 339.4688,422.4219 L339.4688,425.1406 Z "/><text fill="#000000" font-family="sans-serif" font-size="12" lengthAdjust="spacingAndGlyphs" textLength="23" x="350.5" y="423.6543">Tag</text><line style="stroke: #A80036; stroke-width: 1.5;" x1="322.5" x2="375.5" y1="435.5" y2="435.5"/><line style="stroke: #A80036; stroke-width: 1.5;" x1="322.5" x2="375.5" y1="443.5" y2="443.5"/><!--link github.com\\opentracing\\opentracing_go.StartSpanOptions to github.com\\opentracing\\opentracing_go.SpanReference--><path d="M208.1635,122.3452 C252.0847,142.4718 295,167.9159 295,190.5 C295,190.5 295,190.5 295,330.5 C295,377.873 352.3266,347.4718 394,370 C410.0793,378.6923 426.7805,389.9419 440.8813,400.1827 " fill="none" id="github.com\\opentracing\\opentracing_go.StartSpanOptions-github.com\\opentracing\\opentracing_go.SpanReference" style="stroke: #A80036; stroke-width: 1.0;"/><polygon fill="#A80036" points="445.1703,403.3246,440.2736,394.7793,441.1367,400.3699,435.5461,401.233,445.1703,403.3246" style="stroke: #A80036; stroke-width: 1.0;"/><text fill="#000000" font-family="sans-serif" font-size="13" lengthAdjust="spacingAndGlyphs" textLength="71" x="296" y="265.0669">References</text><text fill="#000000" font-family="sans-serif" font-size="13" lengthAdjust="spacingAndGlyphs" textLength="7" x="429.3733" y="392.2917">*</text><!--link github.com\\opentracing\\opentracing_go.StartSpanOption to github.com\\opentracing\\opentracing_go\\ext.rpcServerOption--><path d="M257.2638,384.6879 C276.0799,370.9863 298.5543,357.5488 321.5,350.5 C392.8748,328.5739 585.1394,332.0866 657.5,350.5 C693.0061,359.5351 729.2266,379.4863 756.1328,396.8157 " fill="none" id="github.com\\opentracing\\opentracing_go.StartSpanOption-github.com\\opentracing\\opentracing_go\\ext.rpcServerOption" style="stroke: #A80036; stroke-width: 1.0;"/><polygon fill="none" points="261.539,390.2307,241.4279,396.905,252.9873,379.146,261.539,390.2307" style="stroke: #A80036; stroke-width: 1.0;"/><!--link github.com\\opentracing\\opentracing_go.StartSpanOption to github.com\\opentracing\\opentracing_go.SpanReference--><path d="M257.2638,384.6879 C276.0799,370.9863 298.5543,357.5488 321.5,350.5 C344.8667,343.3218 353.369,342.5951 376.5,350.5 C406.8836,360.8834 435.1814,384.7311 453.7705,403.1565 " fill="none" id="github.com\\opentracing\\opentracing_go.StartSpanOption-github.com\\opentracing\\opentracing_go.SpanReference" style="stroke: #A80036; stroke-width: 1.0;"/><polygon fill="none" points="261.539,390.2307,241.4279,396.905,252.9873,379.146,261.539,390.2307" style="stroke: #A80036; stroke-width: 1.0;"/><!--link github.com\\opentracing\\opentracing_go.StartSpanOption to github.com\\opentracing\\opentracing_go.Tag--><path d="M306.9899,427.5 C311.7548,427.5 316.5197,427.5 321.2845,427.5 " fill="none" id="github.com\\opentracing\\opentracing_go.StartSpanOption-github.com\\opentracing\\opentracing_go.Tag" style="stroke: #A80036; stroke-width: 1.0;"/><polygon fill="none" points="306.7618,434.4999,286.7617,427.5,306.7617,420.4999,306.7618,434.4999" style="stroke: #A80036; stroke-width: 1.0;"/><!--
@startuml
namespace github.com\\opentracing\\opentracing_go\\ext {
 class rpcServerOption {
  clientContext opentracing.SpanContext
} 
}


namespace github.com\\opentracing\\opentracing_go {
 interface Tracer  {
  StartSpan(operationName string,opts ... StartSpanOption)Span
  Inject(sm SpanContext,format interface  { },carrier interface  { })error
  Extract(format interface  { },carrier interface  { })(SpanContext,error)
} 
}
namespace github.com\\opentracing\\opentracing_go {
 interface StartSpanOption  {
  Apply(*StartSpanOptions)
} 
}

namespace github.com\\opentracing\\opentracing_go {
 class StartSpanOptions {
  References []SpanReference
  StartTime time.Time
  Tags map[string]interface  { }
} 
}


github.com\\opentracing\\opentracing_go.StartSpanOptions - - -> "*" github.com\\opentracing\\opentracing_go.SpanReference : References

github.com\\opentracing\\opentracing_go.StartSpanOption <|- github.com\\opentracing\\opentracing_go\\ext.rpcServerOption
github.com\\opentracing\\opentracing_go.StartSpanOption <|- github.com\\opentracing\\opentracing_go.SpanReference
github.com\\opentracing\\opentracing_go.StartSpanOption <|- github.com\\opentracing\\opentracing_go.Tag



@enduml

PlantUML version 1.2019.05(Sat Apr 20 16:45:36 UTC 2019)
(GPL source distribution)
Java Runtime: OpenJDK Runtime Environment
JVM: OpenJDK 64-Bit Server VM
Java Version: 11.0.9+11-post-Debian-1deb10u1
Operating System: Linux
OS Version: 6.2.0-1016-azure
Default Encoding: UTF-8
Language: en
Country: null
--></g></svg>