<?xml version="1.0" encoding="UTF-8" standalone="no"?><svg xmlns="http://www.w3.org/2000/svg" xmlns:xlink="http://www.w3.org/1999/xlink" contentScriptType="application/ecmascript" contentStyleType="text/css" height="312px" preserveAspectRatio="none" style="width:293px;height:312px;" version="1.1" viewBox="0 0 293 312" width="293px" zoomAndPan="magnify"><defs><filter height="300%" id="ffh95qyjd1g7y" width="300%" x="-1" y="-1"><feGaussianBlur result="blurOut" stdDeviation="2.0"/><feColorMatrix in="blurOut" result="blurOut2" type="matrix" values="0 0 0 0 0 0 0 0 0 0 0 0 0 0 0 0 0 0 .4 0"/><feOffset dx="4.0" dy="4.0" in="blurOut2" result="blurOut3"/><feBlend in="SourceGraphic" in2="blurOut3" mode="normal"/></filter></defs><g><ellipse cx="77" cy="20" fill="#000000" filter="url(#ffh95qyjd1g7y)" rx="10" ry="10" style="stroke: none; stroke-width: 1.0;"/><rect fill="#FEFECE" filter="url(#ffh95qyjd1g7y)" height="34.1328" rx="12.5" ry="12.5" style="stroke: #A80036; stroke-width: 1.5;" width="77" x="38.5" y="111.916"/><text fill="#000000" font-family="sans-serif" font-size="12" lengthAdjust="spacingAndGlyphs" textLength="57" x="48.5" y="133.5176">read data</text><rect fill="#FEFECE" filter="url(#ffh95qyjd1g7y)" height="34.1328" rx="12.5" ry="12.5" style="stroke: #A80036; stroke-width: 1.5;" width="129" x="12.5" y="181.0488"/><text fill="#000000" font-family="sans-serif" font-size="12" lengthAdjust="spacingAndGlyphs" textLength="109" x="22.5" y="202.6504">generate diagrams</text><rect fill="#FEFECE" filter="url(#ffh95qyjd1g7y)" height="34.1328" rx="12.5" ry="12.5" style="stroke: #A80036; stroke-width: 1.5;" width="134" x="10" y="50"/><text fill="#000000" font-family="sans-serif" font-size="12" lengthAdjust="spacingAndGlyphs" textLength="114" x="20" y="71.6016">foo as starting label</text><polygon fill="#FEFECE" filter="url(#ffh95qyjd1g7y)" points="47.5,235.1816,106.5,235.1816,118.5,247.1816,106.5,259.1816,47.5,259.1816,35.5,247.1816,47.5,235.1816" style="stroke: #A80036; stroke-width: 1.5;"/><text fill="#000000" font-family="sans-serif" font-size="11" lengthAdjust="spacingAndGlyphs" textLength="59" x="47.5" y="251.3389">more data?</text><rect fill="#FEFECE" filter="url(#ffh95qyjd1g7y)" height="34.1328" rx="12.5" ry="12.5" style="stroke: #A80036; stroke-width: 1.5;" width="118" x="164" y="141.416"/><text fill="#000000" font-family="sans-serif" font-size="12" lengthAdjust="spacingAndGlyphs" textLength="98" x="174" y="163.0176">This is backward</text><ellipse cx="77" cy="290.1816" fill="#FFFFFF" filter="url(#ffh95qyjd1g7y)" rx="11" ry="11" style="stroke: #000000; stroke-width: 1.0;"/><ellipse cx="77" cy="290.1816" fill="#000000" rx="6" ry="6" style="stroke: #7F7F7F; stroke-width: 1.0;"/><line style="stroke: #A80036; stroke-width: 1.5;" x1="77" x2="77" y1="146.0488" y2="181.0488"/><polygon fill="#A80036" points="73,171.0488,77,181.0488,81,171.0488,77,175.0488" style="stroke: #A80036; stroke-width: 1.0;"/><line style="stroke: #A80036; stroke-width: 1.5;" x1="77" x2="77" y1="84.1328" y2="111.916"/><polygon fill="#A80036" points="73,101.916,77,111.916,81,101.916,77,105.916" style="stroke: #A80036; stroke-width: 1.0;"/><line style="stroke: #A80036; stroke-width: 1.5;" x1="118.5" x2="223" y1="247.1816" y2="247.1816"/><line style="stroke: #A80036; stroke-width: 1.5;" x1="223" x2="223" y1="175.5488" y2="247.1816"/><polygon fill="#A80036" points="219,185.5488,223,175.5488,227,185.5488,223,181.5488" style="stroke: #A80036; stroke-width: 1.0;"/><polygon fill="#A80036" points="219,104.1328,223,94.1328,227,104.1328,223,100.1328" style="stroke: #A80036; stroke-width: 1.5;"/><line style="stroke: #A80036; stroke-width: 1.5;" x1="223" x2="223" y1="67.0664" y2="141.416"/><line style="stroke: #A80036; stroke-width: 1.5;" x1="223" x2="144" y1="67.0664" y2="67.0664"/><polygon fill="#A80036" points="154,63.0664,144,67.0664,154,71.0664,150,67.0664" style="stroke: #A80036; stroke-width: 1.0;"/><line style="stroke: #A80036; stroke-width: 1.5;" x1="77" x2="77" y1="215.1816" y2="235.1816"/><polygon fill="#A80036" points="73,225.1816,77,235.1816,81,225.1816,77,229.1816" style="stroke: #A80036; stroke-width: 1.0;"/><line style="stroke: #A80036; stroke-width: 1.5;" x1="77" x2="77" y1="30" y2="50"/><polygon fill="#A80036" points="73,40,77,50,81,40,77,44" style="stroke: #A80036; stroke-width: 1.0;"/><line style="stroke: #A80036; stroke-width: 1.5;" x1="77" x2="77" y1="259.1816" y2="279.1816"/><polygon fill="#A80036" points="73,269.1816,77,279.1816,81,269.1816,77,273.1816" style="stroke: #A80036; stroke-width: 1.0;"/><!--
@startuml

start

repeat :foo as starting label;
  :read data;
  :generate diagrams;
backward:This is backward;
repeat while (more data?)

stop

@enduml

PlantUML version 1.2019.05(Sun Apr 21 00:45:36 CST 2019)
(GPL source distribution)
Java Runtime: Java(TM) SE Runtime Environment
JVM: Java HotSpot(TM) 64-Bit Server VM
Java Version: 1.8.0_191-b12
Operating System: Mac OS X
OS Version: 10.16
Default Encoding: UTF-8
Language: en
Country: CN
--></g></svg>