<?xml version="1.0" encoding="UTF-8" standalone="no"?><svg xmlns="http://www.w3.org/2000/svg" xmlns:xlink="http://www.w3.org/1999/xlink" contentScriptType="application/ecmascript" contentStyleType="text/css" height="283px" preserveAspectRatio="none" style="width:337px;height:283px;" version="1.1" viewBox="0 0 337 283" width="337px" zoomAndPan="magnify"><defs><filter height="300%" id="f1j3cou3affugu" width="300%" x="-1" y="-1"><feGaussianBlur result="blurOut" stdDeviation="2.0"/><feColorMatrix in="blurOut" result="blurOut2" type="matrix" values="0 0 0 0 0 0 0 0 0 0 0 0 0 0 0 0 0 0 .4 0"/><feOffset dx="4.0" dy="4.0" in="blurOut2" result="blurOut3"/><feBlend in="SourceGraphic" in2="blurOut3" mode="normal"/></filter></defs><g><!--class foo--><rect fill="#FEFECE" filter="url(#f1j3cou3affugu)" height="48" id="foo" style="stroke: #A80036; stroke-width: 1.5;" width="50" x="137" y="116"/><ellipse cx="152" cy="132" fill="#ADD1B2" rx="11" ry="11" style="stroke: #A80036; stroke-width: 1.0;"/><path d="M154.4731,138.1431 Q153.8921,138.4419 153.2529,138.5913 Q152.6138,138.7407 151.9082,138.7407 Q149.4014,138.7407 148.0815,137.0889 Q146.7617,135.437 146.7617,132.3159 Q146.7617,129.1865 148.0815,127.5347 Q149.4014,125.8828 151.9082,125.8828 Q152.6138,125.8828 153.2612,126.0322 Q153.9087,126.1816 154.4731,126.4805 L154.4731,129.2031 Q153.8423,128.6221 153.2488,128.3523 Q152.6553,128.0825 152.0244,128.0825 Q150.6797,128.0825 149.9949,129.1492 Q149.3101,130.2158 149.3101,132.3159 Q149.3101,134.4077 149.9949,135.4744 Q150.6797,136.541 152.0244,136.541 Q152.6553,136.541 153.2488,136.2712 Q153.8423,136.0015 154.4731,135.4204 Z "/><text fill="#000000" font-family="sans-serif" font-size="12" lengthAdjust="spacingAndGlyphs" textLength="18" x="166" y="136.5352">foo</text><line style="stroke: #A80036; stroke-width: 1.5;" x1="138" x2="186" y1="148" y2="148"/><line style="stroke: #A80036; stroke-width: 1.5;" x1="138" x2="186" y1="156" y2="156"/><!--class dummyLeft--><rect fill="#FEFECE" filter="url(#f1j3cou3affugu)" height="48" id="dummyLeft" style="stroke: #A80036; stroke-width: 1.5;" width="96" x="6" y="116"/><ellipse cx="21" cy="132" fill="#ADD1B2" rx="11" ry="11" style="stroke: #A80036; stroke-width: 1.0;"/><path d="M23.4731,138.1431 Q22.8921,138.4419 22.2529,138.5913 Q21.6138,138.7407 20.9082,138.7407 Q18.4014,138.7407 17.0815,137.0889 Q15.7617,135.437 15.7617,132.3159 Q15.7617,129.1865 17.0815,127.5347 Q18.4014,125.8828 20.9082,125.8828 Q21.6138,125.8828 22.2612,126.0322 Q22.9087,126.1816 23.4731,126.4805 L23.4731,129.2031 Q22.8423,128.6221 22.2488,128.3523 Q21.6553,128.0825 21.0244,128.0825 Q19.6797,128.0825 18.9949,129.1492 Q18.3101,130.2158 18.3101,132.3159 Q18.3101,134.4077 18.9949,135.4744 Q19.6797,136.541 21.0244,136.541 Q21.6553,136.541 22.2488,136.2712 Q22.8423,136.0015 23.4731,135.4204 Z "/><text fill="#000000" font-family="sans-serif" font-size="12" lengthAdjust="spacingAndGlyphs" textLength="64" x="35" y="136.5352">dummyLeft</text><line style="stroke: #A80036; stroke-width: 1.5;" x1="7" x2="101" y1="148" y2="148"/><line style="stroke: #A80036; stroke-width: 1.5;" x1="7" x2="101" y1="156" y2="156"/><!--class dummyRight--><rect fill="#FEFECE" filter="url(#f1j3cou3affugu)" height="48" id="dummyRight" style="stroke: #A80036; stroke-width: 1.5;" width="104" x="222" y="116"/><ellipse cx="237" cy="132" fill="#ADD1B2" rx="11" ry="11" style="stroke: #A80036; stroke-width: 1.0;"/><path d="M239.4731,138.1431 Q238.8921,138.4419 238.2529,138.5913 Q237.6138,138.7407 236.9082,138.7407 Q234.4014,138.7407 233.0815,137.0889 Q231.7617,135.437 231.7617,132.3159 Q231.7617,129.1865 233.0815,127.5347 Q234.4014,125.8828 236.9082,125.8828 Q237.6138,125.8828 238.2612,126.0322 Q238.9087,126.1816 239.4731,126.4805 L239.4731,129.2031 Q238.8423,128.6221 238.2488,128.3523 Q237.6553,128.0825 237.0244,128.0825 Q235.6797,128.0825 234.9949,129.1492 Q234.3101,130.2158 234.3101,132.3159 Q234.3101,134.4077 234.9949,135.4744 Q235.6797,136.541 237.0244,136.541 Q237.6553,136.541 238.2488,136.2712 Q238.8423,136.0015 239.4731,135.4204 Z "/><text fill="#000000" font-family="sans-serif" font-size="12" lengthAdjust="spacingAndGlyphs" textLength="72" x="251" y="136.5352">dummyRight</text><line style="stroke: #A80036; stroke-width: 1.5;" x1="223" x2="325" y1="148" y2="148"/><line style="stroke: #A80036; stroke-width: 1.5;" x1="223" x2="325" y1="156" y2="156"/><!--class dummyUp--><rect fill="#FEFECE" filter="url(#f1j3cou3affugu)" height="48" id="dummyUp" style="stroke: #A80036; stroke-width: 1.5;" width="91" x="116.5" y="8"/><ellipse cx="131.5" cy="24" fill="#ADD1B2" rx="11" ry="11" style="stroke: #A80036; stroke-width: 1.0;"/><path d="M133.9731,30.1431 Q133.3921,30.4419 132.7529,30.5913 Q132.1138,30.7407 131.4082,30.7407 Q128.9014,30.7407 127.5815,29.0889 Q126.2617,27.437 126.2617,24.3159 Q126.2617,21.1865 127.5815,19.5347 Q128.9014,17.8828 131.4082,17.8828 Q132.1138,17.8828 132.7612,18.0322 Q133.4087,18.1816 133.9731,18.4805 L133.9731,21.2031 Q133.3423,20.6221 132.7488,20.3523 Q132.1553,20.0825 131.5244,20.0825 Q130.1797,20.0825 129.4949,21.1492 Q128.8101,22.2158 128.8101,24.3159 Q128.8101,26.4077 129.4949,27.4744 Q130.1797,28.541 131.5244,28.541 Q132.1553,28.541 132.7488,28.2712 Q133.3423,28.0015 133.9731,27.4204 Z "/><text fill="#000000" font-family="sans-serif" font-size="12" lengthAdjust="spacingAndGlyphs" textLength="59" x="145.5" y="28.5352">dummyUp</text><line style="stroke: #A80036; stroke-width: 1.5;" x1="117.5" x2="206.5" y1="40" y2="40"/><line style="stroke: #A80036; stroke-width: 1.5;" x1="117.5" x2="206.5" y1="48" y2="48"/><!--class dummyDown--><rect fill="#FEFECE" filter="url(#f1j3cou3affugu)" height="48" id="dummyDown" style="stroke: #A80036; stroke-width: 1.5;" width="107" x="108.5" y="224"/><ellipse cx="123.5" cy="240" fill="#ADD1B2" rx="11" ry="11" style="stroke: #A80036; stroke-width: 1.0;"/><path d="M125.9731,246.1431 Q125.3921,246.4419 124.7529,246.5913 Q124.1138,246.7407 123.4082,246.7407 Q120.9014,246.7407 119.5815,245.0889 Q118.2617,243.437 118.2617,240.3159 Q118.2617,237.1865 119.5815,235.5347 Q120.9014,233.8828 123.4082,233.8828 Q124.1138,233.8828 124.7612,234.0322 Q125.4087,234.1816 125.9731,234.4805 L125.9731,237.2031 Q125.3423,236.6221 124.7488,236.3523 Q124.1553,236.0825 123.5244,236.0825 Q122.1797,236.0825 121.4949,237.1492 Q120.8101,238.2158 120.8101,240.3159 Q120.8101,242.4077 121.4949,243.4744 Q122.1797,244.541 123.5244,244.541 Q124.1553,244.541 124.7488,244.2712 Q125.3423,244.0015 125.9731,243.4204 Z "/><text fill="#000000" font-family="sans-serif" font-size="12" lengthAdjust="spacingAndGlyphs" textLength="75" x="137.5" y="244.5352">dummyDown</text><line style="stroke: #A80036; stroke-width: 1.5;" x1="109.5" x2="214.5" y1="256" y2="256"/><line style="stroke: #A80036; stroke-width: 1.5;" x1="109.5" x2="214.5" y1="264" y2="264"/><!--link dummyLeft to foo--><path d="M107.2346,140 C117.0654,140 126.8962,140 136.7271,140 " fill="none" id="dummyLeft-foo" style="stroke: #A80036; stroke-width: 1.0;"/><polygon fill="#A80036" points="102.0938,140,111.0938,144,107.0938,140,111.0938,136,102.0938,140" style="stroke: #A80036; stroke-width: 1.0;"/><!--link foo to dummyRight--><path d="M187.375,140 C197.1721,140 206.9693,140 216.7664,140 " fill="none" id="foo-dummyRight" style="stroke: #A80036; stroke-width: 1.0;"/><polygon fill="#A80036" points="221.8896,140,212.8896,136,216.8896,140,212.8896,144,221.8896,140" style="stroke: #A80036; stroke-width: 1.0;"/><!--link dummyUp to foo--><path d="M162,61.3947 C162,78.4785 162,99.7416 162,115.8436 " fill="none" id="dummyUp-foo" style="stroke: #A80036; stroke-width: 1.0;"/><polygon fill="#A80036" points="162,56.2373,158,65.2373,162,61.2373,166,65.2373,162,56.2373" style="stroke: #A80036; stroke-width: 1.0;"/><!--link foo to dummyDown--><path d="M162,164.2373 C162,180.3565 162,201.6212 162,218.6911 " fill="none" id="foo-dummyDown" style="stroke: #A80036; stroke-width: 1.0;"/><polygon fill="#A80036" points="162,223.8436,166,214.8436,162,218.8436,158,214.8436,162,223.8436" style="stroke: #A80036; stroke-width: 1.0;"/><!--
@startuml
foo -left-> dummyLeft
foo -right-> dummyRight
foo -up-> dummyUp
foo -down-> dummyDown
@enduml

PlantUML version 1.2019.05(Sun Apr 21 00:45:36 CST 2019)
(GPL source distribution)
Java Runtime: Java(TM) SE Runtime Environment
JVM: Java HotSpot(TM) 64-Bit Server VM
Java Version: 1.8.0_191-b12
Operating System: Mac OS X
OS Version: 10.16
Default Encoding: UTF-8
Language: en
Country: CN
--></g></svg>