<?xml version="1.0" encoding="UTF-8" standalone="no"?><svg xmlns="http://www.w3.org/2000/svg" xmlns:xlink="http://www.w3.org/1999/xlink" contentScriptType="application/ecmascript" contentStyleType="text/css" height="283px" preserveAspectRatio="none" style="width:346px;height:283px;" version="1.1" viewBox="0 0 346 283" width="346px" zoomAndPan="magnify"><defs><filter height="300%" id="f1j3cou3affugu" width="300%" x="-1" y="-1"><feGaussianBlur result="blurOut" stdDeviation="2.0"/><feColorMatrix in="blurOut" result="blurOut2" type="matrix" values="0 0 0 0 0 0 0 0 0 0 0 0 0 0 0 0 0 0 .4 0"/><feOffset dx="4.0" dy="4.0" in="blurOut2" result="blurOut3"/><feBlend in="SourceGraphic" in2="blurOut3" mode="normal"/></filter></defs><g><!--class foo--><rect fill="#FEFECE" filter="url(#f1j3cou3affugu)" height="48" id="foo" style="stroke: #A80036; stroke-width: 1.5;" width="52" x="140.5" y="116"/><ellipse cx="155.5" cy="132" fill="#ADD1B2" rx="11" ry="11" style="stroke: #A80036; stroke-width: 1.0;"/><path d="M158.4688,137.6406 Q157.8906,137.9375 157.25,138.0781 Q156.6094,138.2344 155.9063,138.2344 Q153.4063,138.2344 152.0781,136.5938 Q150.7656,134.9375 150.7656,131.8125 Q150.7656,128.6875 152.0781,127.0313 Q153.4063,125.375 155.9063,125.375 Q156.6094,125.375 157.25,125.5313 Q157.9063,125.6875 158.4688,125.9844 L158.4688,128.7031 Q157.8438,128.125 157.25,127.8594 Q156.6563,127.5781 156.0313,127.5781 Q154.6875,127.5781 154,128.6563 Q153.3125,129.7188 153.3125,131.8125 Q153.3125,133.9063 154,134.9844 Q154.6875,136.0469 156.0313,136.0469 Q156.6563,136.0469 157.25,135.7813 Q157.8438,135.5 158.4688,134.9219 L158.4688,137.6406 Z "/><text fill="#000000" font-family="sans-serif" font-size="12" lengthAdjust="spacingAndGlyphs" textLength="20" x="169.5" y="136.1543">foo</text><line style="stroke: #A80036; stroke-width: 1.5;" x1="141.5" x2="191.5" y1="148" y2="148"/><line style="stroke: #A80036; stroke-width: 1.5;" x1="141.5" x2="191.5" y1="156" y2="156"/><!--class dummyLeft--><rect fill="#FEFECE" filter="url(#f1j3cou3affugu)" height="48" id="dummyLeft" style="stroke: #A80036; stroke-width: 1.5;" width="99" x="6" y="116"/><ellipse cx="21" cy="132" fill="#ADD1B2" rx="11" ry="11" style="stroke: #A80036; stroke-width: 1.0;"/><path d="M23.9688,137.6406 Q23.3906,137.9375 22.75,138.0781 Q22.1094,138.2344 21.4063,138.2344 Q18.9063,138.2344 17.5781,136.5938 Q16.2656,134.9375 16.2656,131.8125 Q16.2656,128.6875 17.5781,127.0313 Q18.9063,125.375 21.4063,125.375 Q22.1094,125.375 22.75,125.5313 Q23.4063,125.6875 23.9688,125.9844 L23.9688,128.7031 Q23.3438,128.125 22.75,127.8594 Q22.1563,127.5781 21.5313,127.5781 Q20.1875,127.5781 19.5,128.6563 Q18.8125,129.7188 18.8125,131.8125 Q18.8125,133.9063 19.5,134.9844 Q20.1875,136.0469 21.5313,136.0469 Q22.1563,136.0469 22.75,135.7813 Q23.3438,135.5 23.9688,134.9219 L23.9688,137.6406 Z "/><text fill="#000000" font-family="sans-serif" font-size="12" lengthAdjust="spacingAndGlyphs" textLength="67" x="35" y="136.1543">dummyLeft</text><line style="stroke: #A80036; stroke-width: 1.5;" x1="7" x2="104" y1="148" y2="148"/><line style="stroke: #A80036; stroke-width: 1.5;" x1="7" x2="104" y1="156" y2="156"/><!--class dummyRight--><rect fill="#FEFECE" filter="url(#f1j3cou3affugu)" height="48" id="dummyRight" style="stroke: #A80036; stroke-width: 1.5;" width="108" x="227.5" y="116"/><ellipse cx="242.5" cy="132" fill="#ADD1B2" rx="11" ry="11" style="stroke: #A80036; stroke-width: 1.0;"/><path d="M245.4688,137.6406 Q244.8906,137.9375 244.25,138.0781 Q243.6094,138.2344 242.9063,138.2344 Q240.4063,138.2344 239.0781,136.5938 Q237.7656,134.9375 237.7656,131.8125 Q237.7656,128.6875 239.0781,127.0313 Q240.4063,125.375 242.9063,125.375 Q243.6094,125.375 244.25,125.5313 Q244.9063,125.6875 245.4688,125.9844 L245.4688,128.7031 Q244.8438,128.125 244.25,127.8594 Q243.6563,127.5781 243.0313,127.5781 Q241.6875,127.5781 241,128.6563 Q240.3125,129.7188 240.3125,131.8125 Q240.3125,133.9063 241,134.9844 Q241.6875,136.0469 243.0313,136.0469 Q243.6563,136.0469 244.25,135.7813 Q244.8438,135.5 245.4688,134.9219 L245.4688,137.6406 Z "/><text fill="#000000" font-family="sans-serif" font-size="12" lengthAdjust="spacingAndGlyphs" textLength="76" x="256.5" y="136.1543">dummyRight</text><line style="stroke: #A80036; stroke-width: 1.5;" x1="228.5" x2="334.5" y1="148" y2="148"/><line style="stroke: #A80036; stroke-width: 1.5;" x1="228.5" x2="334.5" y1="156" y2="156"/><!--class dummyUp--><rect fill="#FEFECE" filter="url(#f1j3cou3affugu)" height="48" id="dummyUp" style="stroke: #A80036; stroke-width: 1.5;" width="93" x="120" y="8"/><ellipse cx="135" cy="24" fill="#ADD1B2" rx="11" ry="11" style="stroke: #A80036; stroke-width: 1.0;"/><path d="M137.9688,29.6406 Q137.3906,29.9375 136.75,30.0781 Q136.1094,30.2344 135.4063,30.2344 Q132.9063,30.2344 131.5781,28.5938 Q130.2656,26.9375 130.2656,23.8125 Q130.2656,20.6875 131.5781,19.0313 Q132.9063,17.375 135.4063,17.375 Q136.1094,17.375 136.75,17.5313 Q137.4063,17.6875 137.9688,17.9844 L137.9688,20.7031 Q137.3438,20.125 136.75,19.8594 Q136.1563,19.5781 135.5313,19.5781 Q134.1875,19.5781 133.5,20.6563 Q132.8125,21.7188 132.8125,23.8125 Q132.8125,25.9063 133.5,26.9844 Q134.1875,28.0469 135.5313,28.0469 Q136.1563,28.0469 136.75,27.7813 Q137.3438,27.5 137.9688,26.9219 L137.9688,29.6406 Z "/><text fill="#000000" font-family="sans-serif" font-size="12" lengthAdjust="spacingAndGlyphs" textLength="61" x="149" y="28.1543">dummyUp</text><line style="stroke: #A80036; stroke-width: 1.5;" x1="121" x2="212" y1="40" y2="40"/><line style="stroke: #A80036; stroke-width: 1.5;" x1="121" x2="212" y1="48" y2="48"/><!--class dummyDown--><rect fill="#FEFECE" filter="url(#f1j3cou3affugu)" height="48" id="dummyDown" style="stroke: #A80036; stroke-width: 1.5;" width="110" x="111.5" y="224"/><ellipse cx="126.5" cy="240" fill="#ADD1B2" rx="11" ry="11" style="stroke: #A80036; stroke-width: 1.0;"/><path d="M129.4688,245.6406 Q128.8906,245.9375 128.25,246.0781 Q127.6094,246.2344 126.9063,246.2344 Q124.4063,246.2344 123.0781,244.5938 Q121.7656,242.9375 121.7656,239.8125 Q121.7656,236.6875 123.0781,235.0313 Q124.4063,233.375 126.9063,233.375 Q127.6094,233.375 128.25,233.5313 Q128.9063,233.6875 129.4688,233.9844 L129.4688,236.7031 Q128.8438,236.125 128.25,235.8594 Q127.6563,235.5781 127.0313,235.5781 Q125.6875,235.5781 125,236.6563 Q124.3125,237.7188 124.3125,239.8125 Q124.3125,241.9063 125,242.9844 Q125.6875,244.0469 127.0313,244.0469 Q127.6563,244.0469 128.25,243.7813 Q128.8438,243.5 129.4688,242.9219 L129.4688,245.6406 Z "/><text fill="#000000" font-family="sans-serif" font-size="12" lengthAdjust="spacingAndGlyphs" textLength="78" x="140.5" y="244.1543">dummyDown</text><line style="stroke: #A80036; stroke-width: 1.5;" x1="112.5" x2="220.5" y1="256" y2="256"/><line style="stroke: #A80036; stroke-width: 1.5;" x1="112.5" x2="220.5" y1="264" y2="264"/><!--link dummyLeft to foo--><path d="M110.5389,140 C120.436,140 130.3332,140 140.2303,140 " fill="none" id="dummyLeft-foo" style="stroke: #A80036; stroke-width: 1.0;"/><polygon fill="#A80036" points="105.3633,140,114.3633,144,110.3633,140,114.3633,136,105.3633,140" style="stroke: #A80036; stroke-width: 1.0;"/><!--link foo to dummyRight--><path d="M192.5547,140 C202.417,140 212.2793,140 222.1416,140 " fill="none" id="foo-dummyRight" style="stroke: #A80036; stroke-width: 1.0;"/><polygon fill="#A80036" points="227.299,140,218.299,136,222.299,140,218.299,144,227.299,140" style="stroke: #A80036; stroke-width: 1.0;"/><!--link dummyUp to foo--><path d="M166.5,61.3947 C166.5,78.4785 166.5,99.7416 166.5,115.8436 " fill="none" id="dummyUp-foo" style="stroke: #A80036; stroke-width: 1.0;"/><polygon fill="#A80036" points="166.5,56.2373,162.5,65.2373,166.5,61.2373,170.5,65.2373,166.5,56.2373" style="stroke: #A80036; stroke-width: 1.0;"/><!--link foo to dummyDown--><path d="M166.5,164.2373 C166.5,180.3565 166.5,201.6212 166.5,218.6911 " fill="none" id="foo-dummyDown" style="stroke: #A80036; stroke-width: 1.0;"/><polygon fill="#A80036" points="166.5,223.8436,170.5,214.8436,166.5,218.8436,162.5,214.8436,166.5,223.8436" style="stroke: #A80036; stroke-width: 1.0;"/><!--
@startuml
foo -left-> dummyLeft
foo -right-> dummyRight
foo -up-> dummyUp
foo -down-> dummyDown
@enduml

PlantUML version 1.2019.05(Sat Apr 20 16:45:36 UTC 2019)
(GPL source distribution)
Java Runtime: OpenJDK Runtime Environment
JVM: OpenJDK 64-Bit Server VM
Java Version: 11.0.9+11-post-Debian-1deb10u1
Operating System: Linux
OS Version: 5.4.0-1047-azure
Default Encoding: UTF-8
Language: en
Country: null
--></g></svg>