<?xml version="1.0" encoding="UTF-8" standalone="no"?><svg xmlns="http://www.w3.org/2000/svg" xmlns:xlink="http://www.w3.org/1999/xlink" contentScriptType="application/ecmascript" contentStyleType="text/css" height="219px" preserveAspectRatio="none" style="width:343px;height:219px;" version="1.1" viewBox="0 0 343 219" width="343px" zoomAndPan="magnify"><defs><filter height="300%" id="f1qbljl01lul1a" width="300%" x="-1" y="-1"><feGaussianBlur result="blurOut" stdDeviation="2.0"/><feColorMatrix in="blurOut" result="blurOut2" type="matrix" values="0 0 0 0 0 0 0 0 0 0 0 0 0 0 0 0 0 0 .4 0"/><feOffset dx="4.0" dy="4.0" in="blurOut2" result="blurOut3"/><feBlend in="SourceGraphic" in2="blurOut3" mode="normal"/></filter></defs><g><!--cluster net.dummy--><polygon fill="#DDDDDD" filter="url(#f1qbljl01lul1a)" points="14,16,100,16,107,38.4883,110,38.4883,110,207,14,207,14,16" style="stroke: #000000; stroke-width: 1.5;"/><line style="stroke: #000000; stroke-width: 1.5;" x1="14" x2="107" y1="38.4883" y2="38.4883"/><text fill="#000000" font-family="sans-serif" font-size="14" font-weight="bold" lengthAdjust="spacingAndGlyphs" textLength="80" x="18" y="31.5352">net.dummy</text><!--cluster net.foo--><polygon fill="#FFFFFF" filter="url(#f1qbljl01lul1a)" points="124,124,180,124,187,146.4883,212,146.4883,212,207,124,207,124,124" style="stroke: #000000; stroke-width: 1.5;"/><line style="stroke: #000000; stroke-width: 1.5;" x1="124" x2="187" y1="146.4883" y2="146.4883"/><text fill="#000000" font-family="sans-serif" font-size="14" font-weight="bold" lengthAdjust="spacingAndGlyphs" textLength="50" x="128" y="139.5352">net.foo</text><!--cluster net.unused--><polygon fill="#FFFFFF" filter="url(#f1qbljl01lul1a)" points="227,124,311,124,318,146.4883,321,146.4883,321,207,227,207,227,124" style="stroke: #000000; stroke-width: 1.5;"/><line style="stroke: #000000; stroke-width: 1.5;" x1="227" x2="318" y1="146.4883" y2="146.4883"/><text fill="#000000" font-family="sans-serif" font-size="14" font-weight="bold" lengthAdjust="spacingAndGlyphs" textLength="78" x="231" y="139.5352">net.unused</text><!--class net.dummy.Person--><rect fill="#FEFECE" filter="url(#f1qbljl01lul1a)" height="48" id="net.dummy.Person" style="stroke: #A80036; stroke-width: 1.5;" width="71" x="26.5" y="151"/><ellipse cx="41.5" cy="167" fill="#ADD1B2" rx="11" ry="11" style="stroke: #A80036; stroke-width: 1.0;"/><path d="M43.9731,173.1431 Q43.3921,173.4419 42.7529,173.5913 Q42.1138,173.7407 41.4082,173.7407 Q38.9014,173.7407 37.5815,172.0889 Q36.2617,170.437 36.2617,167.3159 Q36.2617,164.1865 37.5815,162.5347 Q38.9014,160.8828 41.4082,160.8828 Q42.1138,160.8828 42.7612,161.0322 Q43.4087,161.1816 43.9731,161.4805 L43.9731,164.2031 Q43.3423,163.6221 42.7488,163.3523 Q42.1553,163.0825 41.5244,163.0825 Q40.1797,163.0825 39.4949,164.1492 Q38.8101,165.2158 38.8101,167.3159 Q38.8101,169.4077 39.4949,170.4744 Q40.1797,171.541 41.5244,171.541 Q42.1553,171.541 42.7488,171.2712 Q43.3423,171.0015 43.9731,170.4204 Z "/><text fill="#000000" font-family="sans-serif" font-size="12" lengthAdjust="spacingAndGlyphs" textLength="39" x="55.5" y="171.5352">Person</text><line style="stroke: #A80036; stroke-width: 1.5;" x1="27.5" x2="96.5" y1="183" y2="183"/><line style="stroke: #A80036; stroke-width: 1.5;" x1="27.5" x2="96.5" y1="191" y2="191"/><!--class net.dummy.Meeting--><rect fill="#FEFECE" filter="url(#f1qbljl01lul1a)" height="48" id="net.dummy.Meeting" style="stroke: #A80036; stroke-width: 1.5;" width="77" x="23.5" y="43"/><ellipse cx="38.5" cy="59" fill="#ADD1B2" rx="11" ry="11" style="stroke: #A80036; stroke-width: 1.0;"/><path d="M40.9731,65.1431 Q40.3921,65.4419 39.7529,65.5913 Q39.1138,65.7407 38.4082,65.7407 Q35.9014,65.7407 34.5815,64.0889 Q33.2617,62.437 33.2617,59.3159 Q33.2617,56.1865 34.5815,54.5347 Q35.9014,52.8828 38.4082,52.8828 Q39.1138,52.8828 39.7612,53.0322 Q40.4087,53.1816 40.9731,53.4805 L40.9731,56.2031 Q40.3423,55.6221 39.7488,55.3523 Q39.1553,55.0825 38.5244,55.0825 Q37.1797,55.0825 36.4949,56.1492 Q35.8101,57.2158 35.8101,59.3159 Q35.8101,61.4077 36.4949,62.4744 Q37.1797,63.541 38.5244,63.541 Q39.1553,63.541 39.7488,63.2712 Q40.3423,63.0015 40.9731,62.4204 Z "/><text fill="#000000" font-family="sans-serif" font-size="12" lengthAdjust="spacingAndGlyphs" textLength="45" x="52.5" y="63.5352">Meeting</text><line style="stroke: #A80036; stroke-width: 1.5;" x1="24.5" x2="99.5" y1="75" y2="75"/><line style="stroke: #A80036; stroke-width: 1.5;" x1="24.5" x2="99.5" y1="83" y2="83"/><!--class net.foo.Person--><rect fill="#FEFECE" filter="url(#f1qbljl01lul1a)" height="48" id="net.foo.Person" style="stroke: #A80036; stroke-width: 1.5;" width="71" x="132.5" y="151"/><ellipse cx="147.5" cy="167" fill="#ADD1B2" rx="11" ry="11" style="stroke: #A80036; stroke-width: 1.0;"/><path d="M149.9731,173.1431 Q149.3921,173.4419 148.7529,173.5913 Q148.1138,173.7407 147.4082,173.7407 Q144.9014,173.7407 143.5815,172.0889 Q142.2617,170.437 142.2617,167.3159 Q142.2617,164.1865 143.5815,162.5347 Q144.9014,160.8828 147.4082,160.8828 Q148.1138,160.8828 148.7612,161.0322 Q149.4087,161.1816 149.9731,161.4805 L149.9731,164.2031 Q149.3423,163.6221 148.7488,163.3523 Q148.1553,163.0825 147.5244,163.0825 Q146.1797,163.0825 145.4949,164.1492 Q144.8101,165.2158 144.8101,167.3159 Q144.8101,169.4077 145.4949,170.4744 Q146.1797,171.541 147.5244,171.541 Q148.1553,171.541 148.7488,171.2712 Q149.3423,171.0015 149.9731,170.4204 Z "/><text fill="#000000" font-family="sans-serif" font-size="12" lengthAdjust="spacingAndGlyphs" textLength="39" x="161.5" y="171.5352">Person</text><line style="stroke: #A80036; stroke-width: 1.5;" x1="133.5" x2="202.5" y1="183" y2="183"/><line style="stroke: #A80036; stroke-width: 1.5;" x1="133.5" x2="202.5" y1="191" y2="191"/><!--class net.unused.Person--><rect fill="#FEFECE" filter="url(#f1qbljl01lul1a)" height="48" id="net.unused.Person" style="stroke: #A80036; stroke-width: 1.5;" width="71" x="238.5" y="151"/><ellipse cx="253.5" cy="167" fill="#ADD1B2" rx="11" ry="11" style="stroke: #A80036; stroke-width: 1.0;"/><path d="M255.9731,173.1431 Q255.3921,173.4419 254.7529,173.5913 Q254.1138,173.7407 253.4082,173.7407 Q250.9014,173.7407 249.5815,172.0889 Q248.2617,170.437 248.2617,167.3159 Q248.2617,164.1865 249.5815,162.5347 Q250.9014,160.8828 253.4082,160.8828 Q254.1138,160.8828 254.7612,161.0322 Q255.4087,161.1816 255.9731,161.4805 L255.9731,164.2031 Q255.3423,163.6221 254.7488,163.3523 Q254.1553,163.0825 253.5244,163.0825 Q252.1797,163.0825 251.4949,164.1492 Q250.8101,165.2158 250.8101,167.3159 Q250.8101,169.4077 251.4949,170.4744 Q252.1797,171.541 253.5244,171.541 Q254.1553,171.541 254.7488,171.2712 Q255.3423,171.0015 255.9731,170.4204 Z "/><text fill="#000000" font-family="sans-serif" font-size="12" lengthAdjust="spacingAndGlyphs" textLength="39" x="267.5" y="171.5352">Person</text><line style="stroke: #A80036; stroke-width: 1.5;" x1="239.5" x2="308.5" y1="183" y2="183"/><line style="stroke: #A80036; stroke-width: 1.5;" x1="239.5" x2="308.5" y1="191" y2="191"/><!--class BaseClass--><rect fill="#FEFECE" filter="url(#f1qbljl01lul1a)" height="48" id="BaseClass" style="stroke: #A80036; stroke-width: 1.5;" width="89" x="135.5" y="43"/><ellipse cx="150.5" cy="59" fill="#ADD1B2" rx="11" ry="11" style="stroke: #A80036; stroke-width: 1.0;"/><path d="M152.9731,65.1431 Q152.3921,65.4419 151.7529,65.5913 Q151.1138,65.7407 150.4082,65.7407 Q147.9014,65.7407 146.5815,64.0889 Q145.2617,62.437 145.2617,59.3159 Q145.2617,56.1865 146.5815,54.5347 Q147.9014,52.8828 150.4082,52.8828 Q151.1138,52.8828 151.7612,53.0322 Q152.4087,53.1816 152.9731,53.4805 L152.9731,56.2031 Q152.3423,55.6221 151.7488,55.3523 Q151.1553,55.0825 150.5244,55.0825 Q149.1797,55.0825 148.4949,56.1492 Q147.8101,57.2158 147.8101,59.3159 Q147.8101,61.4077 148.4949,62.4744 Q149.1797,63.541 150.5244,63.541 Q151.1553,63.541 151.7488,63.2712 Q152.3423,63.0015 152.9731,62.4204 Z "/><text fill="#000000" font-family="sans-serif" font-size="12" lengthAdjust="spacingAndGlyphs" textLength="57" x="164.5" y="63.5352">BaseClass</text><line style="stroke: #A80036; stroke-width: 1.5;" x1="136.5" x2="223.5" y1="75" y2="75"/><line style="stroke: #A80036; stroke-width: 1.5;" x1="136.5" x2="223.5" y1="83" y2="83"/><!--link BaseClass to net.dummy.Person--><path d="M137.3064,104.7122 C130.1604,111.1136 122.8465,117.7206 116,124 C106.4966,132.7162 96.178,142.4049 87.1312,150.9763 " fill="none" id="BaseClass-net.dummy.Person" style="stroke: #A80036; stroke-width: 1.0;"/><polygon fill="none" points="132.8455,99.3114,152.4354,91.2345,142.1581,109.7649,132.8455,99.3114" style="stroke: #A80036; stroke-width: 1.0;"/><!--link net.dummy.Meeting to net.dummy.Person--><path d="M62,104.6145 C62,119.9531 62,137.2402 62,150.8436 " fill="none" id="net.dummy.Meeting-net.dummy.Person" style="stroke: #A80036; stroke-width: 1.0;"/><polygon fill="#FFFFFF" points="62,91.2373,58,97.2373,62,103.2373,66,97.2373,62,91.2373" style="stroke: #A80036; stroke-width: 1.0;"/><!--link BaseClass to net.dummy.Meeting--><path d="M115.3517,67 C110.4741,67 105.5964,67 100.7188,67 " fill="none" id="BaseClass-net.dummy.Meeting" style="stroke: #A80036; stroke-width: 1.0;"/><polygon fill="none" points="115.4043,59.9999,135.4043,67,115.4043,73.9999,115.4043,59.9999" style="stroke: #A80036; stroke-width: 1.0;"/><!--link net.dummy.Person to net.foo.Person--><path d="M117.6387,175 C122.5107,175 127.3828,175 132.2548,175 " fill="none" id="net.dummy.Person-net.foo.Person" style="stroke: #A80036; stroke-width: 1.0;"/><polygon fill="none" points="117.6094,181.9999,97.6094,175,117.6093,167.9999,117.6094,181.9999" style="stroke: #A80036; stroke-width: 1.0;"/><!--link BaseClass to net.foo.Person--><path d="M175.0788,111.2911 C173.5759,124.8171 171.9796,139.1835 170.684,150.8436 " fill="none" id="BaseClass-net.foo.Person" style="stroke: #A80036; stroke-width: 1.0;"/><polygon fill="none" points="168.1411,110.3419,177.307,91.2373,182.0554,111.888,168.1411,110.3419" style="stroke: #A80036; stroke-width: 1.0;"/><!--link net.dummy.Meeting to net.foo.Person--><path d="M94.9811,100.5583 C102.5456,108.2584 110.5528,116.4119 118,124 C126.5984,132.7611 136.024,142.3732 144.3512,150.8678 " fill="none" id="net.dummy.Meeting-net.foo.Person" style="stroke: #A80036; stroke-width: 1.0;"/><polygon fill="#FFFFFF" points="85.7116,91.1238,87.0634,98.2071,94.1217,99.6836,92.7699,92.6003,85.7116,91.1238" style="stroke: #A80036; stroke-width: 1.0;"/><!--link BaseClass to net.unused.Person--><path d="M214.3814,106.5021 C227.3118,121.3582 241.6182,137.7954 252.975,150.8436 " fill="none" id="BaseClass-net.unused.Person" style="stroke: #A80036; stroke-width: 1.0;"/><polygon fill="none" points="208.9458,110.9191,201.0954,91.2373,219.5061,101.7277,208.9458,110.9191" style="stroke: #A80036; stroke-width: 1.0;"/><!--
@startuml

class BaseClass

namespace net.dummy #DDDDDD {
    .BaseClass <|- - Person
    Meeting o- - Person

    .BaseClass <|- Meeting
}

namespace net.foo {
  net.dummy.Person  <|- Person
  .BaseClass <|- - Person

  net.dummy.Meeting o- - Person
}

BaseClass <|- - net.unused.Person

@enduml

PlantUML version 1.2019.05(Sun Apr 21 00:45:36 CST 2019)
(GPL source distribution)
Java Runtime: Java(TM) SE Runtime Environment
JVM: Java HotSpot(TM) 64-Bit Server VM
Java Version: 1.8.0_191-b12
Operating System: Mac OS X
OS Version: 10.16
Default Encoding: UTF-8
Language: en
Country: CN
--></g></svg>