<?xml version="1.0" encoding="UTF-8" standalone="no"?><svg xmlns="http://www.w3.org/2000/svg" xmlns:xlink="http://www.w3.org/1999/xlink" contentScriptType="application/ecmascript" contentStyleType="text/css" height="118px" preserveAspectRatio="none" style="width:101px;height:118px;" version="1.1" viewBox="0 0 101 118" width="101px" zoomAndPan="magnify"><defs><filter height="300%" id="f1dt5besu8e2qu" width="300%" x="-1" y="-1"><feGaussianBlur result="blurOut" stdDeviation="2.0"/><feColorMatrix in="blurOut" result="blurOut2" type="matrix" values="0 0 0 0 0 0 0 0 0 0 0 0 0 0 0 0 0 0 .4 0"/><feOffset dx="4.0" dy="4.0" in="blurOut2" result="blurOut3"/><feBlend in="SourceGraphic" in2="blurOut3" mode="normal"/></filter></defs><g><!--class Dummy--><rect fill="#FEFECE" filter="url(#f1dt5besu8e2qu)" height="99.2188" id="Dummy" style="stroke: #A80036; stroke-width: 1.5;" width="84" x="6" y="8"/><ellipse cx="24.15" cy="24" fill="#ADD1B2" rx="11" ry="11" style="stroke: #A80036; stroke-width: 1.0;"/><path d="M27.1188,29.6406 Q26.5406,29.9375 25.9,30.0781 Q25.2594,30.2344 24.5563,30.2344 Q22.0563,30.2344 20.7281,28.5938 Q19.4156,26.9375 19.4156,23.8125 Q19.4156,20.6875 20.7281,19.0313 Q22.0563,17.375 24.5563,17.375 Q25.2594,17.375 25.9,17.5313 Q26.5563,17.6875 27.1188,17.9844 L27.1188,20.7031 Q26.4938,20.125 25.9,19.8594 Q25.3063,19.5781 24.6813,19.5781 Q23.3375,19.5781 22.65,20.6563 Q21.9625,21.7188 21.9625,23.8125 Q21.9625,25.9063 22.65,26.9844 Q23.3375,28.0469 24.6813,28.0469 Q25.3063,28.0469 25.9,27.7813 Q26.4938,27.5 27.1188,26.9219 L27.1188,29.6406 Z "/><text fill="#000000" font-family="sans-serif" font-size="12" lengthAdjust="spacingAndGlyphs" textLength="45" x="38.85" y="28.1543">Dummy</text><line style="stroke: #A80036; stroke-width: 1.5;" x1="7" x2="89" y1="40" y2="40"/><rect fill="none" height="6" style="stroke: #C82930; stroke-width: 1.0;" width="6" x="14" y="48.9023"/><text fill="#000000" font-family="sans-serif" font-size="11" lengthAdjust="spacingAndGlyphs" textLength="31" x="26" y="54.2104">field1</text><polygon fill="none" points="17,59.707,21,63.707,17,67.707,13,63.707" style="stroke: #B38D22; stroke-width: 1.0;"/><text fill="#000000" font-family="sans-serif" font-size="11" lengthAdjust="spacingAndGlyphs" textLength="31" x="26" y="67.0151">field2</text><line style="stroke: #A80036; stroke-width: 1.5;" x1="7" x2="89" y1="73.6094" y2="73.6094"/><polygon fill="#4177AF" points="17,81.5117,13,87.5117,21,87.5117" style="stroke: #1963A0; stroke-width: 1.0;"/><text fill="#000000" font-family="sans-serif" font-size="11" lengthAdjust="spacingAndGlyphs" textLength="58" x="26" y="87.8198">method1()</text><ellipse cx="17" cy="98.3164" fill="#84BE84" rx="3" ry="3" style="stroke: #038048; stroke-width: 1.0;"/><text fill="#000000" font-family="sans-serif" font-size="11" lengthAdjust="spacingAndGlyphs" textLength="58" x="26" y="100.6245">method2()</text><!--
@startuml

class Dummy {
 -field1
 #field2
 ~method1()
 +method2()
}
@enduml

PlantUML version 1.2019.05(Sat Apr 20 16:45:36 UTC 2019)
(GPL source distribution)
Java Runtime: OpenJDK Runtime Environment
JVM: OpenJDK 64-Bit Server VM
Java Version: 11.0.9+11-post-Debian-1deb10u1
Operating System: Linux
OS Version: 5.4.0-1047-azure
Default Encoding: UTF-8
Language: en
Country: null
--></g></svg>