<?xml version="1.0" encoding="UTF-8" standalone="no"?><svg xmlns="http://www.w3.org/2000/svg" xmlns:xlink="http://www.w3.org/1999/xlink" contentScriptType="application/ecmascript" contentStyleType="text/css" height="503px" preserveAspectRatio="none" style="width:411px;height:503px;" version="1.1" viewBox="0 0 411 503" width="411px" zoomAndPan="magnify"><defs><filter height="300%" id="f12d2rj4tk64op" width="300%" x="-1" y="-1"><feGaussianBlur result="blurOut" stdDeviation="2.0"/><feColorMatrix in="blurOut" result="blurOut2" type="matrix" values="0 0 0 0 0 0 0 0 0 0 0 0 0 0 0 0 0 0 .4 0"/><feOffset dx="4.0" dy="4.0" in="blurOut2" result="blurOut3"/><feBlend in="SourceGraphic" in2="blurOut3" mode="normal"/></filter></defs><g><rect fill="#FEFECE" filter="url(#f12d2rj4tk64op)" height="34.1328" rx="12.5" ry="12.5" style="stroke: #A80036; stroke-width: 1.5;" width="56" x="190.5" y="10"/><text fill="#000000" font-family="sans-serif" font-size="12" lengthAdjust="spacingAndGlyphs" textLength="36" x="200.5" y="31.6016">Ready</text><rect fill="#FEFECE" filter="url(#f12d2rj4tk64op)" height="34.1328" style="stroke: #A80036; stroke-width: 1.5;" width="60" x="188.5" y="64.1328"/><line style="stroke: #A80036; stroke-width: 1.5;" x1="193.5" x2="193.5" y1="64.1328" y2="98.2656"/><line style="stroke: #A80036; stroke-width: 1.5;" x1="243.5" x2="243.5" y1="64.1328" y2="98.2656"/><text fill="#000000" font-family="sans-serif" font-size="12" lengthAdjust="spacingAndGlyphs" textLength="40" x="198.5" y="85.7344">next(o)</text><rect fill="#FEFECE" filter="url(#f12d2rj4tk64op)" height="34.1328" rx="12.5" ry="12.5" style="stroke: #A80036; stroke-width: 1.5;" width="74" x="181.5" y="118.2656"/><text fill="#000000" font-family="sans-serif" font-size="12" lengthAdjust="spacingAndGlyphs" textLength="54" x="191.5" y="139.8672">Receiving</text><line style="stroke: #A80036; stroke-width: 1.5;" x1="47.5" x2="374.5" y1="172.3984" y2="172.3984"/><polygon fill="#FEFECE" filter="url(#f12d2rj4tk64op)" points="21.5,253.5977,83.5,253.5977,73.5,270.6641,83.5,287.7305,21.5,287.7305" style="stroke: #A80036; stroke-width: 1.5;"/><text fill="#000000" font-family="sans-serif" font-size="12" lengthAdjust="spacingAndGlyphs" textLength="32" x="31.5" y="275.1992">nak(i)</text><polygon fill="#FEFECE" filter="url(#f12d2rj4tk64op)" points="20,322.7305,75,322.7305,85,339.7969,75,356.8633,20,356.8633" style="stroke: #A80036; stroke-width: 1.5;"/><text fill="#000000" font-family="sans-serif" font-size="12" lengthAdjust="spacingAndGlyphs" textLength="35" x="30" y="344.332">ack(o)</text><polygon fill="#FEFECE" filter="url(#f12d2rj4tk64op)" points="121,192.3984,182,192.3984,172,209.4648,182,226.5313,121,226.5313" style="stroke: #A80036; stroke-width: 1.5;"/><text fill="#000000" font-family="sans-serif" font-size="12" lengthAdjust="spacingAndGlyphs" textLength="31" x="131" y="214">ack(i)</text><rect fill="#FEFECE" filter="url(#f12d2rj4tk64op)" height="48.2656" style="stroke: #A80036; stroke-width: 1.5;" width="103" x="95" y="246.5313"/><line style="stroke: #A80036; stroke-width: 1.5;" x1="100" x2="100" y1="246.5313" y2="294.7969"/><line style="stroke: #A80036; stroke-width: 1.5;" x1="193" x2="193" y1="246.5313" y2="294.7969"/><text fill="#000000" font-family="sans-serif" font-size="12" lengthAdjust="spacingAndGlyphs" textLength="40" x="105" y="268.1328">next(o)</text><text fill="#000000" font-family="sans-serif" font-size="12" lengthAdjust="spacingAndGlyphs" textLength="83" x="105" y="282.2656">on several line</text><rect fill="#FEFECE" filter="url(#f12d2rj4tk64op)" height="34.1328" style="stroke: #A80036; stroke-width: 1.5;" width="74" x="109.5" y="329.7969"/><text fill="#000000" font-family="sans-serif" font-size="12" lengthAdjust="spacingAndGlyphs" textLength="54" x="119.5" y="351.3984">i := i + 1</text><polygon fill="#FEFECE" filter="url(#f12d2rj4tk64op)" points="119,383.9297,174,383.9297,184,400.9961,174,418.0625,119,418.0625" style="stroke: #A80036; stroke-width: 1.5;"/><text fill="#000000" font-family="sans-serif" font-size="12" lengthAdjust="spacingAndGlyphs" textLength="35" x="129" y="405.5313">ack(o)</text><polygon fill="#FEFECE" filter="url(#f12d2rj4tk64op)" points="230,253.5977,288,253.5977,278,270.6641,288,287.7305,230,287.7305" style="stroke: #A80036; stroke-width: 1.5;"/><text fill="#000000" font-family="sans-serif" font-size="12" lengthAdjust="spacingAndGlyphs" textLength="28" x="240" y="275.1992">err(i)</text><polygon fill="#FEFECE" filter="url(#f12d2rj4tk64op)" points="226,322.7305,282,322.7305,292,339.7969,282,356.8633,226,356.8633" style="stroke: #A80036; stroke-width: 1.5;"/><text fill="#000000" font-family="sans-serif" font-size="12" lengthAdjust="spacingAndGlyphs" textLength="36" x="236" y="344.332">nak(o)</text><polygon fill="#FEFECE" filter="url(#f12d2rj4tk64op)" points="312,288.1641,340,288.1641,330,322.2969,302,322.2969" style="stroke: #A80036; stroke-width: 1.5;"/><text fill="#000000" font-family="sans-serif" font-size="12" lengthAdjust="spacingAndGlyphs" textLength="18" x="312" y="309.7656">foo</text><path d="M355,259.6641 L350,276.7305 L355,293.7969 M394,259.6641 L399,276.7305 L394,293.7969 " fill="#FEFECE" filter="url(#f12d2rj4tk64op)" style="stroke: #A80036; stroke-width: 1.5;"/><text fill="#000000" font-family="sans-serif" font-size="12" lengthAdjust="spacingAndGlyphs" textLength="29" x="360" y="281.2656">i &gt; 5</text><ellipse cx="374.5" cy="339.7969" fill="#FFFFFF" filter="url(#f12d2rj4tk64op)" rx="11" ry="11" style="stroke: #000000; stroke-width: 1.0;"/><ellipse cx="374.5" cy="339.7969" fill="#000000" rx="6" ry="6" style="stroke: #7F7F7F; stroke-width: 1.0;"/><line style="stroke: #A80036; stroke-width: 1.5;" x1="47.5" x2="321" y1="438.0625" y2="438.0625"/><rect fill="#FEFECE" filter="url(#f12d2rj4tk64op)" height="34.1328" rx="12.5" ry="12.5" style="stroke: #A80036; stroke-width: 1.5;" width="50" x="193.5" y="458.0625"/><text fill="#000000" font-family="sans-serif" font-size="12" lengthAdjust="spacingAndGlyphs" textLength="30" x="203.5" y="479.6641">finish</text><line style="stroke: #A80036; stroke-width: 1.5;" x1="218.5" x2="218.5" y1="44.1328" y2="64.1328"/><polygon fill="#A80036" points="214.5,54.1328,218.5,64.1328,222.5,54.1328,218.5,58.1328" style="stroke: #A80036; stroke-width: 1.0;"/><line style="stroke: #A80036; stroke-width: 1.5;" x1="218.5" x2="218.5" y1="98.2656" y2="118.2656"/><polygon fill="#A80036" points="214.5,108.2656,218.5,118.2656,222.5,108.2656,218.5,112.2656" style="stroke: #A80036; stroke-width: 1.0;"/><line style="stroke: #A80036; stroke-width: 1.5;" x1="47.5" x2="47.5" y1="287.7305" y2="322.7305"/><polygon fill="#A80036" points="43.5,312.7305,47.5,322.7305,51.5,312.7305,47.5,316.7305" style="stroke: #A80036; stroke-width: 1.0;"/><line style="stroke: #A80036; stroke-width: 1.5;" x1="146.5" x2="146.5" y1="226.5313" y2="246.5313"/><polygon fill="#A80036" points="142.5,236.5313,146.5,246.5313,150.5,236.5313,146.5,240.5313" style="stroke: #A80036; stroke-width: 1.0;"/><line style="stroke: #A80036; stroke-width: 1.5;" x1="146.5" x2="146.5" y1="294.7969" y2="329.7969"/><polygon fill="#A80036" points="142.5,319.7969,146.5,329.7969,150.5,319.7969,146.5,323.7969" style="stroke: #A80036; stroke-width: 1.0;"/><line style="stroke: #A80036; stroke-width: 1.5;" x1="146.5" x2="146.5" y1="363.9297" y2="383.9297"/><polygon fill="#A80036" points="142.5,373.9297,146.5,383.9297,150.5,373.9297,146.5,377.9297" style="stroke: #A80036; stroke-width: 1.0;"/><line style="stroke: #A80036; stroke-width: 1.5;" x1="254" x2="254" y1="287.7305" y2="322.7305"/><polygon fill="#A80036" points="250,312.7305,254,322.7305,258,312.7305,254,316.7305" style="stroke: #A80036; stroke-width: 1.0;"/><line style="stroke: #A80036; stroke-width: 1.5;" x1="374.5" x2="374.5" y1="293.7969" y2="328.7969"/><polygon fill="#A80036" points="370.5,318.7969,374.5,328.7969,378.5,318.7969,374.5,322.7969" style="stroke: #A80036; stroke-width: 1.0;"/><line style="stroke: #A80036; stroke-width: 1.5;" x1="47.5" x2="47.5" y1="173.8984" y2="253.5977"/><polygon fill="#A80036" points="43.5,243.5977,47.5,253.5977,51.5,243.5977,47.5,247.5977" style="stroke: #A80036; stroke-width: 1.0;"/><line style="stroke: #A80036; stroke-width: 1.5;" x1="146.5" x2="146.5" y1="173.8984" y2="192.3984"/><polygon fill="#A80036" points="142.5,182.3984,146.5,192.3984,150.5,182.3984,146.5,186.3984" style="stroke: #A80036; stroke-width: 1.0;"/><line style="stroke: #A80036; stroke-width: 1.5;" x1="254" x2="254" y1="173.8984" y2="253.5977"/><polygon fill="#A80036" points="250,243.5977,254,253.5977,258,243.5977,254,247.5977" style="stroke: #A80036; stroke-width: 1.0;"/><line style="stroke: #A80036; stroke-width: 1.5;" x1="321" x2="321" y1="173.8984" y2="288.1641"/><polygon fill="#A80036" points="317,278.1641,321,288.1641,325,278.1641,321,282.1641" style="stroke: #A80036; stroke-width: 1.0;"/><line style="stroke: #A80036; stroke-width: 1.5;" x1="374.5" x2="374.5" y1="173.8984" y2="259.6641"/><polygon fill="#A80036" points="370.5,249.6641,374.5,259.6641,378.5,249.6641,374.5,253.6641" style="stroke: #A80036; stroke-width: 1.0;"/><line style="stroke: #A80036; stroke-width: 1.5;" x1="47.5" x2="47.5" y1="356.8633" y2="438.0625"/><polygon fill="#A80036" points="43.5,428.0625,47.5,438.0625,51.5,428.0625,47.5,432.0625" style="stroke: #A80036; stroke-width: 1.0;"/><line style="stroke: #A80036; stroke-width: 1.5;" x1="146.5" x2="146.5" y1="418.0625" y2="438.0625"/><polygon fill="#A80036" points="142.5,428.0625,146.5,438.0625,150.5,428.0625,146.5,432.0625" style="stroke: #A80036; stroke-width: 1.0;"/><line style="stroke: #A80036; stroke-width: 1.5;" x1="254" x2="254" y1="356.8633" y2="438.0625"/><polygon fill="#A80036" points="250,428.0625,254,438.0625,258,428.0625,254,432.0625" style="stroke: #A80036; stroke-width: 1.0;"/><line style="stroke: #A80036; stroke-width: 1.5;" x1="321" x2="321" y1="322.2969" y2="438.0625"/><polygon fill="#A80036" points="317,428.0625,321,438.0625,325,428.0625,321,432.0625" style="stroke: #A80036; stroke-width: 1.0;"/><line style="stroke: #A80036; stroke-width: 1.5;" x1="218.5" x2="218.5" y1="152.3984" y2="172.3984"/><polygon fill="#A80036" points="214.5,162.3984,218.5,172.3984,222.5,162.3984,218.5,166.3984" style="stroke: #A80036; stroke-width: 1.0;"/><line style="stroke: #A80036; stroke-width: 1.5;" x1="218.5" x2="218.5" y1="439.5625" y2="458.0625"/><polygon fill="#A80036" points="214.5,448.0625,218.5,458.0625,222.5,448.0625,218.5,452.0625" style="stroke: #A80036; stroke-width: 1.0;"/><!--
@startuml
:Ready;
:next(o)|
:Receiving;
split
 :nak(i)<
 :ack(o)>
split again
 :ack(i)<
 :next(o)
 on several line|
 :i := i + 1]
 :ack(o)>
split again
 :err(i)<
 :nak(o)>
split again
 :foo/
split again
 :i > 5}
stop
end split
:finish;
@enduml

PlantUML version 1.2019.05(Sun Apr 21 00:45:36 CST 2019)
(GPL source distribution)
Java Runtime: Java(TM) SE Runtime Environment
JVM: Java HotSpot(TM) 64-Bit Server VM
Java Version: 1.8.0_191-b12
Operating System: Mac OS X
OS Version: 10.16
Default Encoding: UTF-8
Language: en
Country: CN
--></g></svg>