<?xml version="1.0" encoding="UTF-8" standalone="no"?><svg xmlns="http://www.w3.org/2000/svg" xmlns:xlink="http://www.w3.org/1999/xlink" contentScriptType="application/ecmascript" contentStyleType="text/css" height="280px" preserveAspectRatio="none" style="width:359px;height:280px;" version="1.1" viewBox="0 0 359 280" width="359px" zoomAndPan="magnify"><defs><filter height="300%" id="f86piaijiism8" width="300%" x="-1" y="-1"><feGaussianBlur result="blurOut" stdDeviation="2.0"/><feColorMatrix in="blurOut" result="blurOut2" type="matrix" values="0 0 0 0 0 0 0 0 0 0 0 0 0 0 0 0 0 0 .4 0"/><feOffset dx="4.0" dy="4.0" in="blurOut2" result="blurOut3"/><feBlend in="SourceGraphic" in2="blurOut3" mode="normal"/></filter></defs><g><line style="stroke: #A80036; stroke-width: 1.0; stroke-dasharray: 5.0,5.0;" x1="25" x2="25" y1="86.2969" y2="193.6953"/><line style="stroke: #A80036; stroke-width: 1.0; stroke-dasharray: 5.0,5.0;" x1="208" x2="208" y1="86.2969" y2="193.6953"/><line style="stroke: #A80036; stroke-width: 1.0; stroke-dasharray: 5.0,5.0;" x1="297" x2="297" y1="86.2969" y2="193.6953"/><text fill="#000000" font-family="sans-serif" font-size="14" lengthAdjust="spacingAndGlyphs" textLength="28" x="8" y="82.9951">Bob</text><ellipse cx="25" cy="13" fill="#FF0000" filter="url(#f86piaijiism8)" rx="8" ry="8" style="stroke: #A80036; stroke-width: 2.0;"/><path d="M25,21 L25,48 M12,29 L38,29 M25,48 L12,63 M25,48 L38,63 " fill="none" filter="url(#f86piaijiism8)" style="stroke: #A80036; stroke-width: 2.0;"/><text fill="#000000" font-family="sans-serif" font-size="14" lengthAdjust="spacingAndGlyphs" textLength="28" x="8" y="205.6904">Bob</text><ellipse cx="25" cy="218.9922" fill="#FF0000" filter="url(#f86piaijiism8)" rx="8" ry="8" style="stroke: #A80036; stroke-width: 2.0;"/><path d="M25,226.9922 L25,253.9922 M12,234.9922 L38,234.9922 M25,253.9922 L12,268.9922 M25,253.9922 L38,268.9922 " fill="none" filter="url(#f86piaijiism8)" style="stroke: #A80036; stroke-width: 2.0;"/><rect fill="#FEFECE" filter="url(#f86piaijiism8)" height="30.2969" style="stroke: #A80036; stroke-width: 1.5;" width="46" x="183" y="51"/><text fill="#000000" font-family="sans-serif" font-size="14" lengthAdjust="spacingAndGlyphs" textLength="32" x="190" y="70.9951">Alice</text><rect fill="#FEFECE" filter="url(#f86piaijiism8)" height="30.2969" style="stroke: #A80036; stroke-width: 1.5;" width="46" x="183" y="192.6953"/><text fill="#000000" font-family="sans-serif" font-size="14" lengthAdjust="spacingAndGlyphs" textLength="32" x="190" y="212.6904">Alice</text><rect fill="#99FF99" filter="url(#f86piaijiism8)" height="46.5938" style="stroke: #A80036; stroke-width: 1.5;" width="105" x="243" y="34.7031"/><text fill="#000000" font-family="sans-serif" font-size="14" lengthAdjust="spacingAndGlyphs" textLength="91" x="250" y="54.6982">I have a really</text><text fill="#000000" font-family="sans-serif" font-size="14" lengthAdjust="spacingAndGlyphs" textLength="73" x="259" y="70.9951">long name</text><rect fill="#99FF99" filter="url(#f86piaijiism8)" height="46.5938" style="stroke: #A80036; stroke-width: 1.5;" width="105" x="243" y="192.6953"/><text fill="#000000" font-family="sans-serif" font-size="14" lengthAdjust="spacingAndGlyphs" textLength="91" x="250" y="212.6904">I have a really</text><text fill="#000000" font-family="sans-serif" font-size="14" lengthAdjust="spacingAndGlyphs" textLength="73" x="259" y="228.9873">long name</text><polygon fill="#A80036" points="36,113.4297,26,117.4297,36,121.4297,32,117.4297" style="stroke: #A80036; stroke-width: 1.0;"/><line style="stroke: #A80036; stroke-width: 1.0;" x1="30" x2="207" y1="117.4297" y2="117.4297"/><text fill="#000000" font-family="sans-serif" font-size="13" lengthAdjust="spacingAndGlyphs" textLength="149" x="42" y="112.3638">Authentication Request</text><polygon fill="#A80036" points="196,142.5625,206,146.5625,196,150.5625,200,146.5625" style="stroke: #A80036; stroke-width: 1.0;"/><line style="stroke: #A80036; stroke-width: 1.0;" x1="25" x2="202" y1="146.5625" y2="146.5625"/><text fill="#000000" font-family="sans-serif" font-size="13" lengthAdjust="spacingAndGlyphs" textLength="159" x="32" y="141.4966">Authentication Response</text><polygon fill="#A80036" points="285.5,171.6953,295.5,175.6953,285.5,179.6953,289.5,175.6953" style="stroke: #A80036; stroke-width: 1.0;"/><line style="stroke: #A80036; stroke-width: 1.0;" x1="25" x2="291.5" y1="175.6953" y2="175.6953"/><text fill="#000000" font-family="sans-serif" font-size="13" lengthAdjust="spacingAndGlyphs" textLength="99" x="32" y="170.6294">Log transaction</text><!--
@startuml
actor Bob #red
participant Alice
participant "I have a really\nlong name" as L #99FF99

Alice->Bob: Authentication Request
Bob->Alice: Authentication Response
Bob->L: Log transaction
@enduml

PlantUML version 1.2019.05(Sat Apr 20 16:45:36 UTC 2019)
(GPL source distribution)
Java Runtime: OpenJDK Runtime Environment
JVM: OpenJDK 64-Bit Server VM
Java Version: 11.0.9+11-post-Debian-1deb10u1
Operating System: Linux
OS Version: 5.4.0-1047-azure
Default Encoding: UTF-8
Language: en
Country: null
--></g></svg>