<?xml version="1.0" encoding="UTF-8" standalone="no"?><svg xmlns="http://www.w3.org/2000/svg" xmlns:xlink="http://www.w3.org/1999/xlink" contentScriptType="application/ecmascript" contentStyleType="text/css" height="281px" preserveAspectRatio="none" style="width:358px;height:281px;" version="1.1" viewBox="0 0 358 281" width="358px" zoomAndPan="magnify"><defs><filter height="300%" id="f86piaijiism8" width="300%" x="-1" y="-1"><feGaussianBlur result="blurOut" stdDeviation="2.0"/><feColorMatrix in="blurOut" result="blurOut2" type="matrix" values="0 0 0 0 0 0 0 0 0 0 0 0 0 0 0 0 0 0 .4 0"/><feOffset dx="4.0" dy="4.0" in="blurOut2" result="blurOut3"/><feBlend in="SourceGraphic" in2="blurOut3" mode="normal"/></filter></defs><g><line style="stroke: #A80036; stroke-width: 1.0; stroke-dasharray: 5.0,5.0;" x1="24" x2="24" y1="86.4883" y2="194.4199"/><line style="stroke: #A80036; stroke-width: 1.0; stroke-dasharray: 5.0,5.0;" x1="204.5" x2="204.5" y1="86.4883" y2="194.4199"/><line style="stroke: #A80036; stroke-width: 1.0; stroke-dasharray: 5.0,5.0;" x1="295.5" x2="295.5" y1="86.4883" y2="194.4199"/><text fill="#000000" font-family="sans-serif" font-size="14" lengthAdjust="spacingAndGlyphs" textLength="26" x="8" y="83.5352">Bob</text><ellipse cx="24" cy="13" fill="#FF0000" filter="url(#f86piaijiism8)" rx="8" ry="8" style="stroke: #A80036; stroke-width: 2.0;"/><path d="M24,21 L24,48 M11,29 L37,29 M24,48 L11,63 M24,48 L37,63 " fill="none" filter="url(#f86piaijiism8)" style="stroke: #A80036; stroke-width: 2.0;"/><text fill="#000000" font-family="sans-serif" font-size="14" lengthAdjust="spacingAndGlyphs" textLength="26" x="8" y="206.9551">Bob</text><ellipse cx="24" cy="219.9082" fill="#FF0000" filter="url(#f86piaijiism8)" rx="8" ry="8" style="stroke: #A80036; stroke-width: 2.0;"/><path d="M24,227.9082 L24,254.9082 M11,235.9082 L37,235.9082 M24,254.9082 L11,269.9082 M24,254.9082 L37,269.9082 " fill="none" filter="url(#f86piaijiism8)" style="stroke: #A80036; stroke-width: 2.0;"/><rect fill="#FEFECE" filter="url(#f86piaijiism8)" height="30.4883" style="stroke: #A80036; stroke-width: 1.5;" width="47" x="179.5" y="51"/><text fill="#000000" font-family="sans-serif" font-size="14" lengthAdjust="spacingAndGlyphs" textLength="33" x="186.5" y="71.5352">Alice</text><rect fill="#FEFECE" filter="url(#f86piaijiism8)" height="30.4883" style="stroke: #A80036; stroke-width: 1.5;" width="47" x="179.5" y="193.4199"/><text fill="#000000" font-family="sans-serif" font-size="14" lengthAdjust="spacingAndGlyphs" textLength="33" x="186.5" y="213.9551">Alice</text><rect fill="#99FF99" filter="url(#f86piaijiism8)" height="46.9766" style="stroke: #A80036; stroke-width: 1.5;" width="107" x="240.5" y="34.5117"/><text fill="#000000" font-family="sans-serif" font-size="14" lengthAdjust="spacingAndGlyphs" textLength="93" x="247.5" y="55.0469">I have a really</text><text fill="#000000" font-family="sans-serif" font-size="14" lengthAdjust="spacingAndGlyphs" textLength="73" x="257.5" y="71.5352">long name</text><rect fill="#99FF99" filter="url(#f86piaijiism8)" height="46.9766" style="stroke: #A80036; stroke-width: 1.5;" width="107" x="240.5" y="193.4199"/><text fill="#000000" font-family="sans-serif" font-size="14" lengthAdjust="spacingAndGlyphs" textLength="93" x="247.5" y="213.9551">I have a really</text><text fill="#000000" font-family="sans-serif" font-size="14" lengthAdjust="spacingAndGlyphs" textLength="73" x="257.5" y="230.4434">long name</text><polygon fill="#A80036" points="35,113.7988,25,117.7988,35,121.7988,31,117.7988" style="stroke: #A80036; stroke-width: 1.0;"/><line style="stroke: #A80036; stroke-width: 1.0;" x1="29" x2="204" y1="117.7988" y2="117.7988"/><text fill="#000000" font-family="sans-serif" font-size="13" lengthAdjust="spacingAndGlyphs" textLength="147" x="41" y="113.0566">Authentication Request</text><polygon fill="#A80036" points="193,143.1094,203,147.1094,193,151.1094,197,147.1094" style="stroke: #A80036; stroke-width: 1.0;"/><line style="stroke: #A80036; stroke-width: 1.0;" x1="24" x2="199" y1="147.1094" y2="147.1094"/><text fill="#000000" font-family="sans-serif" font-size="13" lengthAdjust="spacingAndGlyphs" textLength="157" x="31" y="142.3672">Authentication Response</text><polygon fill="#A80036" points="284,172.4199,294,176.4199,284,180.4199,288,176.4199" style="stroke: #A80036; stroke-width: 1.0;"/><line style="stroke: #A80036; stroke-width: 1.0;" x1="24" x2="290" y1="176.4199" y2="176.4199"/><text fill="#000000" font-family="sans-serif" font-size="13" lengthAdjust="spacingAndGlyphs" textLength="98" x="31" y="171.6777">Log transaction</text><!--
@startuml
actor Bob #red
participant Alice
participant "I have a really\nlong name" as L #99FF99

Alice->Bob: Authentication Request
Bob->Alice: Authentication Response
Bob->L: Log transaction
@enduml

PlantUML version 1.2019.05(Sun Apr 21 00:45:36 CST 2019)
(GPL source distribution)
Java Runtime: Java(TM) SE Runtime Environment
JVM: Java HotSpot(TM) 64-Bit Server VM
Java Version: 1.8.0_191-b12
Operating System: Mac OS X
OS Version: 10.16
Default Encoding: UTF-8
Language: en
Country: CN
--></g></svg>