<?xml version="1.0" encoding="UTF-8" standalone="no"?><svg xmlns="http://www.w3.org/2000/svg" xmlns:xlink="http://www.w3.org/1999/xlink" contentScriptType="application/ecmascript" contentStyleType="text/css" height="175px" preserveAspectRatio="none" style="width:138px;height:175px;" version="1.1" viewBox="0 0 138 175" width="138px" zoomAndPan="magnify"><defs><filter height="300%" id="fovr0bihtjww8" width="300%" x="-1" y="-1"><feGaussianBlur result="blurOut" stdDeviation="2.0"/><feColorMatrix in="blurOut" result="blurOut2" type="matrix" values="0 0 0 0 0 0 0 0 0 0 0 0 0 0 0 0 0 0 .4 0"/><feOffset dx="4.0" dy="4.0" in="blurOut2" result="blurOut3"/><feBlend in="SourceGraphic" in2="blurOut3" mode="normal"/></filter></defs><g><rect fill="#FFC0CB" filter="url(#fovr0bihtjww8)" height="34.1328" rx="12.5" ry="12.5" style="stroke: #A80036; stroke-width: 1.5;" width="49" x="35.5" y="54"/><text fill="#000000" font-family="sans-serif" font-size="12" lengthAdjust="spacingAndGlyphs" textLength="29" x="45.5" y="75.6016">error</text><polygon fill="#FEFECE" filter="url(#fovr0bihtjww8)" points="32,10,88,10,100,22,88,34,32,34,20,22,32,10" style="stroke: #A80036; stroke-width: 1.5;"/><text fill="#000000" font-family="sans-serif" font-size="11" lengthAdjust="spacingAndGlyphs" textLength="56" x="32" y="26.1572">condition?</text><rect fill="#98FB98" filter="url(#fovr0bihtjww8)" height="34.1328" rx="12.5" ry="12.5" style="stroke: #A80036; stroke-width: 1.5;" width="54" x="33" y="130.1328"/><text fill="#000000" font-family="sans-serif" font-size="12" lengthAdjust="spacingAndGlyphs" textLength="34" x="43" y="151.7344">action</text><line style="stroke: #A80036; stroke-width: 1.5;" x1="60" x2="60" y1="34" y2="54"/><polygon fill="#A80036" points="56,44,60,54,64,44,60,48" style="stroke: #A80036; stroke-width: 1.0;"/><line style="stroke: #A80036; stroke-width: 1.5;" x1="100" x2="112" y1="22" y2="22"/><polygon fill="#A80036" points="108,58.0664,112,68.0664,116,58.0664,112,62.0664" style="stroke: #A80036; stroke-width: 1.5;"/><line style="stroke: #A80036; stroke-width: 1.5;" x1="112" x2="112" y1="22" y2="110.1328"/><line style="stroke: #A80036; stroke-width: 1.5;" x1="112" x2="60" y1="110.1328" y2="110.1328"/><line style="stroke: #A80036; stroke-width: 1.5;" x1="60" x2="60" y1="110.1328" y2="130.1328"/><polygon fill="#A80036" points="56,120.1328,60,130.1328,64,120.1328,60,124.1328" style="stroke: #A80036; stroke-width: 1.0;"/><!--
@startuml
if (condition?) then
  #pink:error;
  detach
endif
#palegreen:action;
@enduml

PlantUML version 1.2019.05(Sun Apr 21 00:45:36 CST 2019)
(GPL source distribution)
Java Runtime: Java(TM) SE Runtime Environment
JVM: Java HotSpot(TM) 64-Bit Server VM
Java Version: 1.8.0_191-b12
Operating System: Mac OS X
OS Version: 10.16
Default Encoding: UTF-8
Language: en
Country: CN
--></g></svg>