<?xml version="1.0" encoding="UTF-8" standalone="no"?><svg xmlns="http://www.w3.org/2000/svg" xmlns:xlink="http://www.w3.org/1999/xlink" contentScriptType="application/ecmascript" contentStyleType="text/css" height="286px" preserveAspectRatio="none" style="width:188px;height:286px;" version="1.1" viewBox="0 0 188 286" width="188px" zoomAndPan="magnify"><defs><filter height="300%" id="f13r8ndtyzbiid" width="300%" x="-1" y="-1"><feGaussianBlur result="blurOut" stdDeviation="2.0"/><feColorMatrix in="blurOut" result="blurOut2" type="matrix" values="0 0 0 0 0 0 0 0 0 0 0 0 0 0 0 0 0 0 .4 0"/><feOffset dx="4.0" dy="4.0" in="blurOut2" result="blurOut3"/><feBlend in="SourceGraphic" in2="blurOut3" mode="normal"/></filter></defs><g><ellipse cx="80" cy="20" fill="#000000" filter="url(#f13r8ndtyzbiid)" rx="10" ry="10" style="stroke: none; stroke-width: 1.0;"/><rect fill="#FEFECE" filter="url(#f13r8ndtyzbiid)" height="33.9688" rx="12.5" ry="12.5" style="stroke: #A80036; stroke-width: 1.5;" width="82" x="39" y="94"/><text fill="#000000" font-family="sans-serif" font-size="12" lengthAdjust="spacingAndGlyphs" textLength="62" x="49" y="115.1387">read data</text><rect fill="#FEFECE" filter="url(#f13r8ndtyzbiid)" height="33.9688" rx="12.5" ry="12.5" style="stroke: #A80036; stroke-width: 1.5;" width="140" x="10" y="155.4688"/><text fill="#000000" font-family="sans-serif" font-size="12" lengthAdjust="spacingAndGlyphs" textLength="120" x="20" y="176.6074">generate diagrams</text><polygon fill="#FEFECE" filter="url(#f13r8ndtyzbiid)" points="80,50,92,62,80,74,68,62,80,50" style="stroke: #A80036; stroke-width: 1.5;"/><polygon fill="#FEFECE" filter="url(#f13r8ndtyzbiid)" points="47.5,209.4375,112.5,209.4375,124.5,221.4375,112.5,233.4375,47.5,233.4375,35.5,221.4375,47.5,209.4375" style="stroke: #A80036; stroke-width: 1.5;"/><text fill="#000000" font-family="sans-serif" font-size="11" lengthAdjust="spacingAndGlyphs" textLength="65" x="47.5" y="225.2456">more data?</text><ellipse cx="80" cy="264.4375" fill="#FFFFFF" filter="url(#f13r8ndtyzbiid)" rx="11" ry="11" style="stroke: #000000; stroke-width: 1.0;"/><ellipse cx="80" cy="264.4375" fill="#000000" rx="6" ry="6" style="stroke: #7F7F7F; stroke-width: 1.0;"/><line style="stroke: #A80036; stroke-width: 1.5;" x1="80" x2="80" y1="127.9688" y2="155.4688"/><polygon fill="#A80036" points="76,145.4688,80,155.4688,84,145.4688,80,149.4688" style="stroke: #A80036; stroke-width: 1.0;"/><line style="stroke: #A80036; stroke-width: 1.5;" x1="80" x2="80" y1="74" y2="94"/><polygon fill="#A80036" points="76,84,80,94,84,84,80,88" style="stroke: #A80036; stroke-width: 1.0;"/><line style="stroke: #A80036; stroke-width: 1.5;" x1="124.5" x2="162" y1="221.4375" y2="221.4375"/><polygon fill="#A80036" points="158,147.9688,162,137.9688,166,147.9688,162,143.9688" style="stroke: #A80036; stroke-width: 1.5;"/><line style="stroke: #A80036; stroke-width: 1.5;" x1="162" x2="162" y1="62" y2="221.4375"/><line style="stroke: #A80036; stroke-width: 1.5;" x1="162" x2="92" y1="62" y2="62"/><polygon fill="#A80036" points="102,58,92,62,102,66,98,62" style="stroke: #A80036; stroke-width: 1.0;"/><line style="stroke: #A80036; stroke-width: 1.5;" x1="80" x2="80" y1="189.4375" y2="209.4375"/><polygon fill="#A80036" points="76,199.4375,80,209.4375,84,199.4375,80,203.4375" style="stroke: #A80036; stroke-width: 1.0;"/><line style="stroke: #A80036; stroke-width: 1.5;" x1="80" x2="80" y1="30" y2="50"/><polygon fill="#A80036" points="76,40,80,50,84,40,80,44" style="stroke: #A80036; stroke-width: 1.0;"/><line style="stroke: #A80036; stroke-width: 1.5;" x1="80" x2="80" y1="233.4375" y2="253.4375"/><polygon fill="#A80036" points="76,243.4375,80,253.4375,84,243.4375,80,247.4375" style="stroke: #A80036; stroke-width: 1.0;"/><!--
@startuml

start

repeat
  :read data;
  :generate diagrams;
repeat while (more data?)

stop

@enduml

PlantUML version 1.2019.05(Sat Apr 20 16:45:36 UTC 2019)
(GPL source distribution)
Java Runtime: OpenJDK Runtime Environment
JVM: OpenJDK 64-Bit Server VM
Java Version: 11.0.9+11-post-Debian-1deb10u1
Operating System: Linux
OS Version: 5.4.0-1047-azure
Default Encoding: UTF-8
Language: en
Country: null
--></g></svg>