<?xml version="1.0" encoding="UTF-8" standalone="no"?><svg xmlns="http://www.w3.org/2000/svg" xmlns:xlink="http://www.w3.org/1999/xlink" contentScriptType="application/ecmascript" contentStyleType="text/css" height="405px" preserveAspectRatio="none" style="width:649px;height:405px;" version="1.1" viewBox="0 0 649 405" width="649px" zoomAndPan="magnify"><defs><filter height="300%" id="f1mkl9ypx0ee41" width="300%" x="-1" y="-1"><feGaussianBlur result="blurOut" stdDeviation="2.0"/><feColorMatrix in="blurOut" result="blurOut2" type="matrix" values="0 0 0 0 0 0 0 0 0 0 0 0 0 0 0 0 0 0 .4 0"/><feOffset dx="4.0" dy="4.0" in="blurOut2" result="blurOut3"/><feBlend in="SourceGraphic" in2="blurOut3" mode="normal"/></filter></defs><g><ellipse cx="350.9975" cy="49.5236" fill="#FEFECE" filter="url(#f1mkl9ypx0ee41)" rx="52.4975" ry="14.5236" style="stroke: #A80036; stroke-width: 1.5;"/><text fill="#000000" font-family="sans-serif" font-size="14" lengthAdjust="spacingAndGlyphs" textLength="70" x="315.9975" y="54.1721">第一个用例</text><ellipse cx="490.9975" cy="49.5236" fill="#FEFECE" filter="url(#f1mkl9ypx0ee41)" rx="52.4975" ry="14.5236" style="stroke: #A80036; stroke-width: 1.5;"/><text fill="#000000" font-family="sans-serif" font-size="14" lengthAdjust="spacingAndGlyphs" textLength="70" x="455.9975" y="54.1721">另一个用例</text><ellipse cx="602.0061" cy="49.5236" fill="#FEFECE" filter="url(#f1mkl9ypx0ee41)" rx="23.5061" ry="14.5236" style="stroke: #A80036; stroke-width: 1.5;"/><text fill="#000000" font-family="sans-serif" font-size="14" lengthAdjust="spacingAndGlyphs" textLength="29" x="587.5061" y="54.1721">UC3</text><ellipse cx="351.0143" cy="193.7029" fill="#FEFECE" filter="url(#f1mkl9ypx0ee41)" rx="61.5143" ry="14.7029" style="stroke: #A80036; stroke-width: 1.5;"/><text fill="#000000" font-family="sans-serif" font-size="14" lengthAdjust="spacingAndGlyphs" textLength="84" x="309.0143" y="198.3513">最后一个用例</text><!--entity 一个参与者--><ellipse cx="483" cy="162" fill="#FEFECE" filter="url(#f1mkl9ypx0ee41)" rx="8" ry="8" style="stroke: #A80036; stroke-width: 2.0;"/><path d="M483,170 L483,197 M470,178 L496,178 M483,197 L470,212 M483,197 L496,212 " fill="none" filter="url(#f1mkl9ypx0ee41)" style="stroke: #A80036; stroke-width: 2.0;"/><text fill="#000000" font-family="sans-serif" font-size="14" lengthAdjust="spacingAndGlyphs" textLength="70" x="448" y="231.9951">一个参与者</text><!--entity Men2--><ellipse cx="595" cy="162" fill="#FEFECE" filter="url(#f1mkl9ypx0ee41)" rx="8" ry="8" style="stroke: #A80036; stroke-width: 2.0;"/><path d="M595,170 L595,197 M582,178 L608,178 M595,197 L582,212 M595,197 L608,212 " fill="none" filter="url(#f1mkl9ypx0ee41)" style="stroke: #A80036; stroke-width: 2.0;"/><text fill="#000000" font-family="sans-serif" font-size="14" lengthAdjust="spacingAndGlyphs" textLength="84" x="553" y="231.9951">另一个参与者</text><!--entity Men3--><ellipse cx="351" cy="322" fill="#FEFECE" filter="url(#f1mkl9ypx0ee41)" rx="8" ry="8" style="stroke: #A80036; stroke-width: 2.0;"/><path d="M351,330 L351,357 M338,338 L364,338 M351,357 L338,372 M351,357 L364,372 " fill="none" filter="url(#f1mkl9ypx0ee41)" style="stroke: #A80036; stroke-width: 2.0;"/><text fill="#000000" font-family="sans-serif" font-size="14" lengthAdjust="spacingAndGlyphs" textLength="39" x="331.5" y="391.9951">Men3</text><!--entity Men4--><ellipse cx="455" cy="322" fill="#FEFECE" filter="url(#f1mkl9ypx0ee41)" rx="8" ry="8" style="stroke: #A80036; stroke-width: 2.0;"/><path d="M455,330 L455,357 M442,338 L468,338 M455,357 L442,372 M455,357 L468,372 " fill="none" filter="url(#f1mkl9ypx0ee41)" style="stroke: #A80036; stroke-width: 2.0;"/><text fill="#000000" font-family="sans-serif" font-size="14" lengthAdjust="spacingAndGlyphs" textLength="98" x="406" y="391.9951">最后一个参与者</text><!--entity 用户--><ellipse cx="21" cy="162" fill="#FEFECE" filter="url(#f1mkl9ypx0ee41)" rx="8" ry="8" style="stroke: #A80036; stroke-width: 2.0;"/><path d="M21,170 L21,197 M8,178 L34,178 M21,197 L8,212 M21,197 L34,212 " fill="none" filter="url(#f1mkl9ypx0ee41)" style="stroke: #A80036; stroke-width: 2.0;"/><text fill="#000000" font-family="sans-serif" font-size="14" lengthAdjust="spacingAndGlyphs" textLength="28" x="7" y="231.9951">用户</text><ellipse cx="93.799" cy="193.5236" fill="#FEFECE" filter="url(#f1mkl9ypx0ee41)" rx="22.799" ry="14.5236" style="stroke: #A80036; stroke-width: 1.5;"/><text fill="#000000" font-family="sans-serif" font-size="14" lengthAdjust="spacingAndGlyphs" textLength="28" x="79.799" y="198.1721">开始</text><ellipse cx="127.1838" cy="353.5236" fill="#FEFECE" filter="url(#f1mkl9ypx0ee41)" rx="41.1838" ry="14.5236" style="stroke: #A80036; stroke-width: 1.5;"/><text fill="#000000" font-family="sans-serif" font-size="14" lengthAdjust="spacingAndGlyphs" textLength="54" x="100.1838" y="358.1721">使用app</text><!--entity 管理员--><ellipse cx="187" cy="18" fill="#FEFECE" filter="url(#f1mkl9ypx0ee41)" rx="8" ry="8" style="stroke: #A80036; stroke-width: 2.0;"/><path d="M187,26 L187,53 M174,34 L200,34 M187,53 L174,68 M187,53 L200,68 " fill="none" filter="url(#f1mkl9ypx0ee41)" style="stroke: #A80036; stroke-width: 2.0;"/><text fill="#000000" font-family="sans-serif" font-size="14" lengthAdjust="spacingAndGlyphs" textLength="42" x="166" y="87.9951">管理员</text><!--link 用户 to 开始--><path d="M36.1133,193.5 C45.9978,193.5 55.8823,193.5 65.7668,193.5 " fill="none" id="用户-开始" style="stroke: #A80036; stroke-width: 1.0;"/><polygon fill="#A80036" points="70.9358,193.5,61.9358,189.5,65.9358,193.5,61.9358,197.5,70.9358,193.5" style="stroke: #A80036; stroke-width: 1.0;"/><!--link 用户 to 使用app--><path d="M36.1872,216.4241 C57.2707,248.2483 95.012,305.2162 114.5368,334.6876 " fill="none" id="用户-使用app" style="stroke: #A80036; stroke-width: 1.0;"/><polygon fill="#A80036" points="117.5087,339.1735,115.8728,329.4615,114.7473,335.0052,109.2035,333.8797,117.5087,339.1735" style="stroke: #A80036; stroke-width: 1.0;"/><text fill="#000000" font-family="sans-serif" font-size="13" lengthAdjust="spacingAndGlyphs" textLength="52" x="79" y="278.0669">用户入口</text><!--link 管理员 to 使用app--><path d="M178.7831,91.1325 C165.6533,157.6565 140.4459,285.374 130.8435,334.0263 " fill="none" id="管理员-使用app" style="stroke: #A80036; stroke-width: 1.0;"/><polygon fill="#A80036" points="129.8573,339.0228,135.5245,330.9678,130.8256,334.1175,127.6759,329.4186,129.8573,339.0228" style="stroke: #A80036; stroke-width: 1.0;"/><text fill="#000000" font-family="sans-serif" font-size="13" lengthAdjust="spacingAndGlyphs" textLength="65" x="168" y="198.0669">管理员入口</text><!--link 第一个用例 to UC2--><!--link UC2 to UC3--><!--link 第一个用例 to UC4--><!--link UC4 to 一个参与者--><!--link 一个参与者 to Men2--><!--link UC4 to Men3--><!--link Men3 to Men4--><!--
@startuml

(第一个用例)
(另一个用例) as (UC2)  
usecase UC3
usecase (最后一个用例) as UC4

:一个参与者:
:另一个参与者: as Men2  
actor Men3
actor :最后一个参与者: as Men4


用户 -> (开始)
用户 - -> (使用app) : 用户入口

:管理员: - - -> (使用app) : 管理员入口


@enduml

PlantUML version 1.2019.05(Sat Apr 20 16:45:36 UTC 2019)
(GPL source distribution)
Java Runtime: OpenJDK Runtime Environment
JVM: OpenJDK 64-Bit Server VM
Java Version: 11.0.9+11-post-Debian-1deb10u1
Operating System: Linux
OS Version: 5.4.0-1047-azure
Default Encoding: UTF-8
Language: en
Country: null
--></g></svg>