<?xml version="1.0" encoding="UTF-8" standalone="no"?><svg xmlns="http://www.w3.org/2000/svg" xmlns:xlink="http://www.w3.org/1999/xlink" contentScriptType="application/ecmascript" contentStyleType="text/css" height="219px" preserveAspectRatio="none" style="width:401px;height:219px;" version="1.1" viewBox="0 0 401 219" width="401px" zoomAndPan="magnify"><defs><filter height="300%" id="fgyz9wbycycpu" width="300%" x="-1" y="-1"><feGaussianBlur result="blurOut" stdDeviation="2.0"/><feColorMatrix in="blurOut" result="blurOut2" type="matrix" values="0 0 0 0 0 0 0 0 0 0 0 0 0 0 0 0 0 0 .4 0"/><feOffset dx="4.0" dy="4.0" in="blurOut2" result="blurOut3"/><feBlend in="SourceGraphic" in2="blurOut3" mode="normal"/></filter></defs><g><!--cluster Classic Collections--><polygon fill="#DDDDDD" filter="url(#fgyz9wbycycpu)" points="14,16,157,16,164,38.4883,167,38.4883,167,207,14,207,14,16" style="stroke: #000000; stroke-width: 1.5;"/><line style="stroke: #000000; stroke-width: 1.5;" x1="14" x2="164" y1="38.4883" y2="38.4883"/><text fill="#000000" font-family="sans-serif" font-size="14" font-weight="bold" lengthAdjust="spacingAndGlyphs" textLength="137" x="18" y="31.5352">Classic Collections</text><!--cluster net.sourceforge.plantuml--><polygon fill="#FFFFFF" filter="url(#fgyz9wbycycpu)" points="180,124,365,124,372,146.4883,379,146.4883,379,207,180,207,180,124" style="stroke: #000000; stroke-width: 1.5;"/><line style="stroke: #000000; stroke-width: 1.5;" x1="180" x2="372" y1="146.4883" y2="146.4883"/><text fill="#000000" font-family="sans-serif" font-size="14" font-weight="bold" lengthAdjust="spacingAndGlyphs" textLength="179" x="184" y="139.5352">net.sourceforge.plantuml</text><!--class Object--><rect fill="#FEFECE" filter="url(#fgyz9wbycycpu)" height="48" id="Object" style="stroke: #A80036; stroke-width: 1.5;" width="70" x="83" y="43"/><ellipse cx="98" cy="59" fill="#ADD1B2" rx="11" ry="11" style="stroke: #A80036; stroke-width: 1.0;"/><path d="M100.4731,65.1431 Q99.8921,65.4419 99.2529,65.5913 Q98.6138,65.7407 97.9082,65.7407 Q95.4014,65.7407 94.0815,64.0889 Q92.7617,62.437 92.7617,59.3159 Q92.7617,56.1865 94.0815,54.5347 Q95.4014,52.8828 97.9082,52.8828 Q98.6138,52.8828 99.2612,53.0322 Q99.9087,53.1816 100.4731,53.4805 L100.4731,56.2031 Q99.8423,55.6221 99.2488,55.3523 Q98.6553,55.0825 98.0244,55.0825 Q96.6797,55.0825 95.9949,56.1492 Q95.3101,57.2158 95.3101,59.3159 Q95.3101,61.4077 95.9949,62.4744 Q96.6797,63.541 98.0244,63.541 Q98.6553,63.541 99.2488,63.2712 Q99.8423,63.0015 100.4731,62.4204 Z "/><text fill="#000000" font-family="sans-serif" font-size="12" lengthAdjust="spacingAndGlyphs" textLength="38" x="112" y="63.5352">Object</text><line style="stroke: #A80036; stroke-width: 1.5;" x1="84" x2="152" y1="75" y2="75"/><line style="stroke: #A80036; stroke-width: 1.5;" x1="84" x2="152" y1="83" y2="83"/><!--class ArrayList--><rect fill="#FEFECE" filter="url(#fgyz9wbycycpu)" height="48" id="ArrayList" style="stroke: #A80036; stroke-width: 1.5;" width="82" x="71" y="151"/><ellipse cx="86" cy="167" fill="#ADD1B2" rx="11" ry="11" style="stroke: #A80036; stroke-width: 1.0;"/><path d="M88.4731,173.1431 Q87.8921,173.4419 87.2529,173.5913 Q86.6138,173.7407 85.9082,173.7407 Q83.4014,173.7407 82.0815,172.0889 Q80.7617,170.437 80.7617,167.3159 Q80.7617,164.1865 82.0815,162.5347 Q83.4014,160.8828 85.9082,160.8828 Q86.6138,160.8828 87.2612,161.0322 Q87.9087,161.1816 88.4731,161.4805 L88.4731,164.2031 Q87.8423,163.6221 87.2488,163.3523 Q86.6553,163.0825 86.0244,163.0825 Q84.6797,163.0825 83.9949,164.1492 Q83.3101,165.2158 83.3101,167.3159 Q83.3101,169.4077 83.9949,170.4744 Q84.6797,171.541 86.0244,171.541 Q86.6553,171.541 87.2488,171.2712 Q87.8423,171.0015 88.4731,170.4204 Z "/><text fill="#000000" font-family="sans-serif" font-size="12" lengthAdjust="spacingAndGlyphs" textLength="50" x="100" y="171.5352">ArrayList</text><line style="stroke: #A80036; stroke-width: 1.5;" x1="72" x2="152" y1="183" y2="183"/><line style="stroke: #A80036; stroke-width: 1.5;" x1="72" x2="152" y1="191" y2="191"/><!--class Demo1--><rect fill="#FEFECE" filter="url(#fgyz9wbycycpu)" height="48" id="Demo1" style="stroke: #A80036; stroke-width: 1.5;" width="74" x="188" y="151"/><ellipse cx="203" cy="167" fill="#ADD1B2" rx="11" ry="11" style="stroke: #A80036; stroke-width: 1.0;"/><path d="M205.4731,173.1431 Q204.8921,173.4419 204.2529,173.5913 Q203.6138,173.7407 202.9082,173.7407 Q200.4014,173.7407 199.0815,172.0889 Q197.7617,170.437 197.7617,167.3159 Q197.7617,164.1865 199.0815,162.5347 Q200.4014,160.8828 202.9082,160.8828 Q203.6138,160.8828 204.2612,161.0322 Q204.9087,161.1816 205.4731,161.4805 L205.4731,164.2031 Q204.8423,163.6221 204.2488,163.3523 Q203.6553,163.0825 203.0244,163.0825 Q201.6797,163.0825 200.9949,164.1492 Q200.3101,165.2158 200.3101,167.3159 Q200.3101,169.4077 200.9949,170.4744 Q201.6797,171.541 203.0244,171.541 Q203.6553,171.541 204.2488,171.2712 Q204.8423,171.0015 205.4731,170.4204 Z "/><text fill="#000000" font-family="sans-serif" font-size="12" lengthAdjust="spacingAndGlyphs" textLength="42" x="217" y="171.5352">Demo1</text><line style="stroke: #A80036; stroke-width: 1.5;" x1="189" x2="261" y1="183" y2="183"/><line style="stroke: #A80036; stroke-width: 1.5;" x1="189" x2="261" y1="191" y2="191"/><!--class Demo2--><rect fill="#FEFECE" filter="url(#fgyz9wbycycpu)" height="48" id="Demo2" style="stroke: #A80036; stroke-width: 1.5;" width="74" x="297" y="151"/><ellipse cx="312" cy="167" fill="#ADD1B2" rx="11" ry="11" style="stroke: #A80036; stroke-width: 1.0;"/><path d="M314.4731,173.1431 Q313.8921,173.4419 313.2529,173.5913 Q312.6138,173.7407 311.9082,173.7407 Q309.4014,173.7407 308.0815,172.0889 Q306.7617,170.437 306.7617,167.3159 Q306.7617,164.1865 308.0815,162.5347 Q309.4014,160.8828 311.9082,160.8828 Q312.6138,160.8828 313.2612,161.0322 Q313.9087,161.1816 314.4731,161.4805 L314.4731,164.2031 Q313.8423,163.6221 313.2488,163.3523 Q312.6553,163.0825 312.0244,163.0825 Q310.6797,163.0825 309.9949,164.1492 Q309.3101,165.2158 309.3101,167.3159 Q309.3101,169.4077 309.9949,170.4744 Q310.6797,171.541 312.0244,171.541 Q312.6553,171.541 313.2488,171.2712 Q313.8423,171.0015 314.4731,170.4204 Z "/><text fill="#000000" font-family="sans-serif" font-size="12" lengthAdjust="spacingAndGlyphs" textLength="42" x="326" y="171.5352">Demo2</text><line style="stroke: #A80036; stroke-width: 1.5;" x1="298" x2="370" y1="183" y2="183"/><line style="stroke: #A80036; stroke-width: 1.5;" x1="298" x2="370" y1="191" y2="191"/><!--link Object to ArrayList--><path d="M115.5394,111.2911 C114.7879,124.8171 113.9898,139.1835 113.342,150.8436 " fill="none" id="Object-ArrayList" style="stroke: #A80036; stroke-width: 1.0;"/><polygon fill="none" points="108.5548,110.8182,116.6535,91.2373,122.5332,111.5948,108.5548,110.8182" style="stroke: #A80036; stroke-width: 1.0;"/><!--link Object to Demo1--><path d="M156.5434,105.4397 C162.7259,111.6354 169.0466,117.9873 175,124 C183.637,132.723 193.0714,142.3264 201.3948,150.8248 " fill="none" id="Object-Demo1" style="stroke: #A80036; stroke-width: 1.0;"/><polygon fill="none" points="151.3734,110.1692,142.1823,91.0766,161.2736,100.2704,151.3734,110.1692" style="stroke: #A80036; stroke-width: 1.0;"/><!--link Demo1 to Demo2--><path d="M275.1133,175 C282.3746,175 289.6359,175 296.8972,175 " fill="none" id="Demo1-Demo2" style="stroke: #A80036; stroke-width: 1.0;"/><polygon fill="#A80036" points="262.043,175,268.043,179,274.043,175,268.043,171,262.043,175" style="stroke: #A80036; stroke-width: 1.0;"/><!--
@startuml
package "Classic Collections" #DDDDDD {
  Object <|- - ArrayList
}
package net.sourceforge.plantuml {
  Object <|- - Demo1
  Demo1 *- Demo2
}
@enduml

PlantUML version 1.2019.05(Sun Apr 21 00:45:36 CST 2019)
(GPL source distribution)
Java Runtime: Java(TM) SE Runtime Environment
JVM: Java HotSpot(TM) 64-Bit Server VM
Java Version: 1.8.0_191-b12
Operating System: Mac OS X
OS Version: 10.16
Default Encoding: UTF-8
Language: en
Country: CN
--></g></svg>