<?xml version="1.0" encoding="UTF-8" standalone="no"?><svg xmlns="http://www.w3.org/2000/svg" xmlns:xlink="http://www.w3.org/1999/xlink" contentScriptType="application/ecmascript" contentStyleType="text/css" height="219px" preserveAspectRatio="none" style="width:429px;height:219px;" version="1.1" viewBox="0 0 429 219" width="429px" zoomAndPan="magnify"><defs><filter height="300%" id="fgyz9wbycycpu" width="300%" x="-1" y="-1"><feGaussianBlur result="blurOut" stdDeviation="2.0"/><feColorMatrix in="blurOut" result="blurOut2" type="matrix" values="0 0 0 0 0 0 0 0 0 0 0 0 0 0 0 0 0 0 .4 0"/><feOffset dx="4.0" dy="4.0" in="blurOut2" result="blurOut3"/><feBlend in="SourceGraphic" in2="blurOut3" mode="normal"/></filter></defs><g><!--cluster Classic Collections--><polygon fill="#DDDDDD" filter="url(#fgyz9wbycycpu)" points="14,16,167,16,174,38.2969,177,38.2969,177,207,14,207,14,16" style="stroke: #000000; stroke-width: 1.5;"/><line style="stroke: #000000; stroke-width: 1.5;" x1="14" x2="174" y1="38.2969" y2="38.2969"/><text fill="#000000" font-family="sans-serif" font-size="14" font-weight="bold" lengthAdjust="spacingAndGlyphs" textLength="147" x="18" y="30.9951">Classic Collections</text><!--cluster net.sourceforge.plantuml--><polygon fill="#FFFFFF" filter="url(#fgyz9wbycycpu)" points="190,124,397,124,404,146.2969,407,146.2969,407,207,190,207,190,124" style="stroke: #000000; stroke-width: 1.5;"/><line style="stroke: #000000; stroke-width: 1.5;" x1="190" x2="404" y1="146.2969" y2="146.2969"/><text fill="#000000" font-family="sans-serif" font-size="14" font-weight="bold" lengthAdjust="spacingAndGlyphs" textLength="201" x="194" y="138.9951">net.sourceforge.plantuml</text><!--class Object--><rect fill="#FEFECE" filter="url(#fgyz9wbycycpu)" height="48" id="Object" style="stroke: #A80036; stroke-width: 1.5;" width="72" x="92" y="43"/><ellipse cx="107" cy="59" fill="#ADD1B2" rx="11" ry="11" style="stroke: #A80036; stroke-width: 1.0;"/><path d="M109.9688,64.6406 Q109.3906,64.9375 108.75,65.0781 Q108.1094,65.2344 107.4063,65.2344 Q104.9063,65.2344 103.5781,63.5938 Q102.2656,61.9375 102.2656,58.8125 Q102.2656,55.6875 103.5781,54.0313 Q104.9063,52.375 107.4063,52.375 Q108.1094,52.375 108.75,52.5313 Q109.4063,52.6875 109.9688,52.9844 L109.9688,55.7031 Q109.3438,55.125 108.75,54.8594 Q108.1563,54.5781 107.5313,54.5781 Q106.1875,54.5781 105.5,55.6563 Q104.8125,56.7188 104.8125,58.8125 Q104.8125,60.9063 105.5,61.9844 Q106.1875,63.0469 107.5313,63.0469 Q108.1563,63.0469 108.75,62.7813 Q109.3438,62.5 109.9688,61.9219 L109.9688,64.6406 Z "/><text fill="#000000" font-family="sans-serif" font-size="12" lengthAdjust="spacingAndGlyphs" textLength="40" x="121" y="63.1543">Object</text><line style="stroke: #A80036; stroke-width: 1.5;" x1="93" x2="163" y1="75" y2="75"/><line style="stroke: #A80036; stroke-width: 1.5;" x1="93" x2="163" y1="83" y2="83"/><!--class ArrayList--><rect fill="#FEFECE" filter="url(#fgyz9wbycycpu)" height="48" id="ArrayList" style="stroke: #A80036; stroke-width: 1.5;" width="85" x="80.5" y="151"/><ellipse cx="95.5" cy="167" fill="#ADD1B2" rx="11" ry="11" style="stroke: #A80036; stroke-width: 1.0;"/><path d="M98.4688,172.6406 Q97.8906,172.9375 97.25,173.0781 Q96.6094,173.2344 95.9063,173.2344 Q93.4063,173.2344 92.0781,171.5938 Q90.7656,169.9375 90.7656,166.8125 Q90.7656,163.6875 92.0781,162.0313 Q93.4063,160.375 95.9063,160.375 Q96.6094,160.375 97.25,160.5313 Q97.9063,160.6875 98.4688,160.9844 L98.4688,163.7031 Q97.8438,163.125 97.25,162.8594 Q96.6563,162.5781 96.0313,162.5781 Q94.6875,162.5781 94,163.6563 Q93.3125,164.7188 93.3125,166.8125 Q93.3125,168.9063 94,169.9844 Q94.6875,171.0469 96.0313,171.0469 Q96.6563,171.0469 97.25,170.7813 Q97.8438,170.5 98.4688,169.9219 L98.4688,172.6406 Z "/><text fill="#000000" font-family="sans-serif" font-size="12" lengthAdjust="spacingAndGlyphs" textLength="53" x="109.5" y="171.1543">ArrayList</text><line style="stroke: #A80036; stroke-width: 1.5;" x1="81.5" x2="164.5" y1="183" y2="183"/><line style="stroke: #A80036; stroke-width: 1.5;" x1="81.5" x2="164.5" y1="191" y2="191"/><!--class Demo1--><rect fill="#FEFECE" filter="url(#fgyz9wbycycpu)" height="48" id="Demo1" style="stroke: #A80036; stroke-width: 1.5;" width="76" x="201" y="151"/><ellipse cx="216" cy="167" fill="#ADD1B2" rx="11" ry="11" style="stroke: #A80036; stroke-width: 1.0;"/><path d="M218.9688,172.6406 Q218.3906,172.9375 217.75,173.0781 Q217.1094,173.2344 216.4063,173.2344 Q213.9063,173.2344 212.5781,171.5938 Q211.2656,169.9375 211.2656,166.8125 Q211.2656,163.6875 212.5781,162.0313 Q213.9063,160.375 216.4063,160.375 Q217.1094,160.375 217.75,160.5313 Q218.4063,160.6875 218.9688,160.9844 L218.9688,163.7031 Q218.3438,163.125 217.75,162.8594 Q217.1563,162.5781 216.5313,162.5781 Q215.1875,162.5781 214.5,163.6563 Q213.8125,164.7188 213.8125,166.8125 Q213.8125,168.9063 214.5,169.9844 Q215.1875,171.0469 216.5313,171.0469 Q217.1563,171.0469 217.75,170.7813 Q218.3438,170.5 218.9688,169.9219 L218.9688,172.6406 Z "/><text fill="#000000" font-family="sans-serif" font-size="12" lengthAdjust="spacingAndGlyphs" textLength="44" x="230" y="171.1543">Demo1</text><line style="stroke: #A80036; stroke-width: 1.5;" x1="202" x2="276" y1="183" y2="183"/><line style="stroke: #A80036; stroke-width: 1.5;" x1="202" x2="276" y1="191" y2="191"/><!--class Demo2--><rect fill="#FEFECE" filter="url(#fgyz9wbycycpu)" height="48" id="Demo2" style="stroke: #A80036; stroke-width: 1.5;" width="76" x="312" y="151"/><ellipse cx="327" cy="167" fill="#ADD1B2" rx="11" ry="11" style="stroke: #A80036; stroke-width: 1.0;"/><path d="M329.9688,172.6406 Q329.3906,172.9375 328.75,173.0781 Q328.1094,173.2344 327.4063,173.2344 Q324.9063,173.2344 323.5781,171.5938 Q322.2656,169.9375 322.2656,166.8125 Q322.2656,163.6875 323.5781,162.0313 Q324.9063,160.375 327.4063,160.375 Q328.1094,160.375 328.75,160.5313 Q329.4063,160.6875 329.9688,160.9844 L329.9688,163.7031 Q329.3438,163.125 328.75,162.8594 Q328.1563,162.5781 327.5313,162.5781 Q326.1875,162.5781 325.5,163.6563 Q324.8125,164.7188 324.8125,166.8125 Q324.8125,168.9063 325.5,169.9844 Q326.1875,171.0469 327.5313,171.0469 Q328.1563,171.0469 328.75,170.7813 Q329.3438,170.5 329.9688,169.9219 L329.9688,172.6406 Z "/><text fill="#000000" font-family="sans-serif" font-size="12" lengthAdjust="spacingAndGlyphs" textLength="44" x="341" y="171.1543">Demo2</text><line style="stroke: #A80036; stroke-width: 1.5;" x1="313" x2="387" y1="183" y2="183"/><line style="stroke: #A80036; stroke-width: 1.5;" x1="313" x2="387" y1="191" y2="191"/><!--link Object to ArrayList--><path d="M125.9495,111.2911 C125.3233,124.8171 124.6582,139.1835 124.1184,150.8436 " fill="none" id="Object-ArrayList" style="stroke: #A80036; stroke-width: 1.0;"/><polygon fill="none" points="118.9604,110.8921,126.8779,91.2373,132.9454,111.5397,118.9604,110.8921" style="stroke: #A80036; stroke-width: 1.0;"/><!--link Object to Demo1--><path d="M167.627,105.556 C183.1477,120.6572 200.4766,137.5178 214.1726,150.8436 " fill="none" id="Object-Demo1" style="stroke: #A80036; stroke-width: 1.0;"/><polygon fill="none" points="162.3636,110.2015,152.9106,91.2373,172.1266,100.1673,162.3636,110.2015" style="stroke: #A80036; stroke-width: 1.0;"/><!--link Demo1 to Demo2--><path d="M290.1742,175 C297.4064,175 304.6386,175 311.8708,175 " fill="none" id="Demo1-Demo2" style="stroke: #A80036; stroke-width: 1.0;"/><polygon fill="#A80036" points="277.1563,175,283.1563,179,289.1563,175,283.1563,171,277.1563,175" style="stroke: #A80036; stroke-width: 1.0;"/><!--
@startuml
package "Classic Collections" #DDDDDD {
  Object <|- - ArrayList
}
package net.sourceforge.plantuml {
  Object <|- - Demo1
  Demo1 *- Demo2
}
@enduml

PlantUML version 1.2019.05(Sat Apr 20 16:45:36 UTC 2019)
(GPL source distribution)
Java Runtime: OpenJDK Runtime Environment
JVM: OpenJDK 64-Bit Server VM
Java Version: 11.0.9+11-post-Debian-1deb10u1
Operating System: Linux
OS Version: 5.4.0-1047-azure
Default Encoding: UTF-8
Language: en
Country: null
--></g></svg>