<?xml version="1.0" encoding="UTF-8" standalone="no"?><svg xmlns="http://www.w3.org/2000/svg" xmlns:xlink="http://www.w3.org/1999/xlink" contentScriptType="application/ecmascript" contentStyleType="text/css" height="230px" preserveAspectRatio="none" style="width:223px;height:230px;" version="1.1" viewBox="0 0 223 230" width="223px" zoomAndPan="magnify"><defs><filter height="300%" id="fr342k5yeicj" width="300%" x="-1" y="-1"><feGaussianBlur result="blurOut" stdDeviation="2.0"/><feColorMatrix in="blurOut" result="blurOut2" type="matrix" values="0 0 0 0 0 0 0 0 0 0 0 0 0 0 0 0 0 0 .4 0"/><feOffset dx="4.0" dy="4.0" in="blurOut2" result="blurOut3"/><feBlend in="SourceGraphic" in2="blurOut3" mode="normal"/></filter></defs><g><ellipse cx="115" cy="20" fill="#000000" filter="url(#fr342k5yeicj)" rx="10" ry="10" style="stroke: none; stroke-width: 1.0;"/><rect fill="#FEFECE" filter="url(#fr342k5yeicj)" height="33.9688" rx="12.5" ry="12.5" style="stroke: #A80036; stroke-width: 1.5;" width="82" x="74" y="94"/><text fill="#000000" font-family="sans-serif" font-size="12" lengthAdjust="spacingAndGlyphs" textLength="62" x="84" y="115.1387">read data</text><rect fill="#FEFECE" filter="url(#fr342k5yeicj)" height="33.9688" rx="12.5" ry="12.5" style="stroke: #A80036; stroke-width: 1.5;" width="140" x="45" y="162.9688"/><text fill="#000000" font-family="sans-serif" font-size="12" lengthAdjust="spacingAndGlyphs" textLength="120" x="55" y="184.1074">generate diagrams</text><polygon fill="#FEFECE" filter="url(#fr342k5yeicj)" points="72.5,50,157.5,50,169.5,62,157.5,74,72.5,74,60.5,62,72.5,50" style="stroke: #A80036; stroke-width: 1.5;"/><text fill="#000000" font-family="sans-serif" font-size="11" lengthAdjust="spacingAndGlyphs" textLength="85" x="72.5" y="65.8081">data available?</text><ellipse cx="24" cy="105" fill="#FFFFFF" filter="url(#fr342k5yeicj)" rx="11" ry="11" style="stroke: #000000; stroke-width: 1.0;"/><ellipse cx="24" cy="105" fill="#000000" rx="6" ry="6" style="stroke: #7F7F7F; stroke-width: 1.0;"/><line style="stroke: #A80036; stroke-width: 1.5;" x1="115" x2="115" y1="127.9688" y2="162.9688"/><polygon fill="#A80036" points="111,152.9688,115,162.9688,119,152.9688,115,156.9688" style="stroke: #A80036; stroke-width: 1.0;"/><line style="stroke: #A80036; stroke-width: 1.5;" x1="115" x2="115" y1="74" y2="94"/><polygon fill="#A80036" points="111,84,115,94,119,84,115,88" style="stroke: #A80036; stroke-width: 1.0;"/><line style="stroke: #A80036; stroke-width: 1.5;" x1="115" x2="115" y1="196.9375" y2="206.9375"/><line style="stroke: #A80036; stroke-width: 1.5;" x1="115" x2="197" y1="206.9375" y2="206.9375"/><polygon fill="#A80036" points="193,143.4688,197,133.4688,201,143.4688,197,139.4688" style="stroke: #A80036; stroke-width: 1.5;"/><line style="stroke: #A80036; stroke-width: 1.5;" x1="197" x2="197" y1="62" y2="206.9375"/><line style="stroke: #A80036; stroke-width: 1.5;" x1="197" x2="169.5" y1="62" y2="62"/><polygon fill="#A80036" points="179.5,58,169.5,62,179.5,66,175.5,62" style="stroke: #A80036; stroke-width: 1.0;"/><line style="stroke: #A80036; stroke-width: 1.5;" x1="60.5" x2="24" y1="62" y2="62"/><line style="stroke: #A80036; stroke-width: 1.5;" x1="24" x2="24" y1="62" y2="94"/><polygon fill="#A80036" points="20,84,24,94,28,84,24,88" style="stroke: #A80036; stroke-width: 1.0;"/><line style="stroke: #A80036; stroke-width: 1.5;" x1="115" x2="115" y1="30" y2="50"/><polygon fill="#A80036" points="111,40,115,50,119,40,115,44" style="stroke: #A80036; stroke-width: 1.0;"/><!--
@startuml

start

while (data available?)
  :read data;
  :generate diagrams;
endwhile

stop

@enduml

PlantUML version 1.2019.05(Sat Apr 20 16:45:36 UTC 2019)
(GPL source distribution)
Java Runtime: OpenJDK Runtime Environment
JVM: OpenJDK 64-Bit Server VM
Java Version: 11.0.9+11-post-Debian-1deb10u1
Operating System: Linux
OS Version: 5.4.0-1047-azure
Default Encoding: UTF-8
Language: en
Country: null
--></g></svg>