<?xml version="1.0" encoding="UTF-8" standalone="no"?><svg xmlns="http://www.w3.org/2000/svg" xmlns:xlink="http://www.w3.org/1999/xlink" contentScriptType="application/ecmascript" contentStyleType="text/css" height="228px" preserveAspectRatio="none" style="width:386px;height:228px;" version="1.1" viewBox="0 0 386 228" width="386px" zoomAndPan="magnify"><defs><filter height="300%" id="f1n7x3hm4aqnaz" width="300%" x="-1" y="-1"><feGaussianBlur result="blurOut" stdDeviation="2.0"/><feColorMatrix in="blurOut" result="blurOut2" type="matrix" values="0 0 0 0 0 0 0 0 0 0 0 0 0 0 0 0 0 0 .4 0"/><feOffset dx="4.0" dy="4.0" in="blurOut2" result="blurOut3"/><feBlend in="SourceGraphic" in2="blurOut3" mode="normal"/></filter></defs><g><ellipse cx="229.75" cy="20" fill="#000000" filter="url(#f1n7x3hm4aqnaz)" rx="10" ry="10" style="stroke: none; stroke-width: 1.0;"/><polygon fill="#FEFECE" filter="url(#f1n7x3hm4aqnaz)" points="183.75,50,275.75,50,287.75,62,275.75,74,183.75,74,171.75,62,183.75,50" style="stroke: #A80036; stroke-width: 1.5;"/><text fill="#000000" font-family="sans-serif" font-size="11" lengthAdjust="spacingAndGlyphs" textLength="92" x="183.75" y="65.8081">multiprocessor?</text><text fill="#000000" font-family="sans-serif" font-size="11" lengthAdjust="spacingAndGlyphs" textLength="20" x="151.75" y="59.4058">yes</text><text fill="#000000" font-family="sans-serif" font-size="11" lengthAdjust="spacingAndGlyphs" textLength="57" x="287.75" y="59.4058">monoproc</text><rect fill="#000000" filter="url(#f1n7x3hm4aqnaz)" height="6" rx="2.5" ry="2.5" style="stroke: #000000; stroke-width: 1.0;" width="248" x="10" y="84"/><rect fill="#FEFECE" filter="url(#f1n7x3hm4aqnaz)" height="33.9688" rx="12.5" ry="12.5" style="stroke: #A80036; stroke-width: 1.5;" width="97" x="22" y="110"/><text fill="#000000" font-family="sans-serif" font-size="12" lengthAdjust="spacingAndGlyphs" textLength="77" x="32" y="131.1387">Treatment 1</text><rect fill="#FEFECE" filter="url(#f1n7x3hm4aqnaz)" height="33.9688" rx="12.5" ry="12.5" style="stroke: #A80036; stroke-width: 1.5;" width="97" x="147" y="110"/><text fill="#000000" font-family="sans-serif" font-size="12" lengthAdjust="spacingAndGlyphs" textLength="77" x="157" y="131.1387">Treatment 2</text><rect fill="#000000" filter="url(#f1n7x3hm4aqnaz)" height="6" rx="2.5" ry="2.5" style="stroke: #000000; stroke-width: 1.0;" width="248" x="10" y="163.9688"/><rect fill="#FEFECE" filter="url(#f1n7x3hm4aqnaz)" height="33.9688" rx="12.5" ry="12.5" style="stroke: #A80036; stroke-width: 1.5;" width="97" x="278" y="84"/><text fill="#000000" font-family="sans-serif" font-size="12" lengthAdjust="spacingAndGlyphs" textLength="77" x="288" y="105.1387">Treatment 1</text><rect fill="#FEFECE" filter="url(#f1n7x3hm4aqnaz)" height="33.9688" rx="12.5" ry="12.5" style="stroke: #A80036; stroke-width: 1.5;" width="97" x="278" y="152.9688"/><text fill="#000000" font-family="sans-serif" font-size="12" lengthAdjust="spacingAndGlyphs" textLength="77" x="288" y="174.1074">Treatment 2</text><polygon fill="#FEFECE" filter="url(#f1n7x3hm4aqnaz)" points="229.75,192.9375,241.75,204.9375,229.75,216.9375,217.75,204.9375,229.75,192.9375" style="stroke: #A80036; stroke-width: 1.5;"/><line style="stroke: #A80036; stroke-width: 1.5;" x1="70.5" x2="70.5" y1="90" y2="110"/><polygon fill="#A80036" points="66.5,100,70.5,110,74.5,100,70.5,104" style="stroke: #A80036; stroke-width: 1.0;"/><line style="stroke: #A80036; stroke-width: 1.5;" x1="195.5" x2="195.5" y1="90" y2="110"/><polygon fill="#A80036" points="191.5,100,195.5,110,199.5,100,195.5,104" style="stroke: #A80036; stroke-width: 1.0;"/><line style="stroke: #A80036; stroke-width: 1.5;" x1="70.5" x2="70.5" y1="143.9688" y2="163.9688"/><polygon fill="#A80036" points="66.5,153.9688,70.5,163.9688,74.5,153.9688,70.5,157.9688" style="stroke: #A80036; stroke-width: 1.0;"/><line style="stroke: #A80036; stroke-width: 1.5;" x1="195.5" x2="195.5" y1="143.9688" y2="163.9688"/><polygon fill="#A80036" points="191.5,153.9688,195.5,163.9688,199.5,153.9688,195.5,157.9688" style="stroke: #A80036; stroke-width: 1.0;"/><line style="stroke: #A80036; stroke-width: 1.5;" x1="326.5" x2="326.5" y1="117.9688" y2="152.9688"/><polygon fill="#A80036" points="322.5,142.9688,326.5,152.9688,330.5,142.9688,326.5,146.9688" style="stroke: #A80036; stroke-width: 1.0;"/><line style="stroke: #A80036; stroke-width: 1.5;" x1="171.75" x2="133" y1="62" y2="62"/><line style="stroke: #A80036; stroke-width: 1.5;" x1="133" x2="133" y1="62" y2="84"/><polygon fill="#A80036" points="129,74,133,84,137,74,133,78" style="stroke: #A80036; stroke-width: 1.0;"/><line style="stroke: #A80036; stroke-width: 1.5;" x1="287.75" x2="326.5" y1="62" y2="62"/><line style="stroke: #A80036; stroke-width: 1.5;" x1="326.5" x2="326.5" y1="62" y2="84"/><polygon fill="#A80036" points="322.5,74,326.5,84,330.5,74,326.5,78" style="stroke: #A80036; stroke-width: 1.0;"/><line style="stroke: #A80036; stroke-width: 1.5;" x1="133" x2="133" y1="169.9688" y2="204.9375"/><line style="stroke: #A80036; stroke-width: 1.5;" x1="133" x2="217.75" y1="204.9375" y2="204.9375"/><polygon fill="#A80036" points="207.75,200.9375,217.75,204.9375,207.75,208.9375,211.75,204.9375" style="stroke: #A80036; stroke-width: 1.0;"/><line style="stroke: #A80036; stroke-width: 1.5;" x1="326.5" x2="326.5" y1="186.9375" y2="204.9375"/><line style="stroke: #A80036; stroke-width: 1.5;" x1="326.5" x2="241.75" y1="204.9375" y2="204.9375"/><polygon fill="#A80036" points="251.75,200.9375,241.75,204.9375,251.75,208.9375,247.75,204.9375" style="stroke: #A80036; stroke-width: 1.0;"/><line style="stroke: #A80036; stroke-width: 1.5;" x1="229.75" x2="229.75" y1="30" y2="50"/><polygon fill="#A80036" points="225.75,40,229.75,50,233.75,40,229.75,44" style="stroke: #A80036; stroke-width: 1.0;"/><!--
@startuml

start

if (multiprocessor?) then (yes)
  fork
    :Treatment 1;
  fork again
    :Treatment 2;
  end fork
else (monoproc)
  :Treatment 1;
  :Treatment 2;
endif

@enduml

PlantUML version 1.2019.05(Sat Apr 20 16:45:36 UTC 2019)
(GPL source distribution)
Java Runtime: OpenJDK Runtime Environment
JVM: OpenJDK 64-Bit Server VM
Java Version: 11.0.9+11-post-Debian-1deb10u1
Operating System: Linux
OS Version: 5.4.0-1047-azure
Default Encoding: UTF-8
Language: en
Country: null
--></g></svg>