<?xml version="1.0" encoding="UTF-8" standalone="no"?><svg xmlns="http://www.w3.org/2000/svg" xmlns:xlink="http://www.w3.org/1999/xlink" contentScriptType="application/ecmascript" contentStyleType="text/css" height="229px" preserveAspectRatio="none" style="width:371px;height:229px;" version="1.1" viewBox="0 0 371 229" width="371px" zoomAndPan="magnify"><defs><filter height="300%" id="f1n7x3hm4aqnaz" width="300%" x="-1" y="-1"><feGaussianBlur result="blurOut" stdDeviation="2.0"/><feColorMatrix in="blurOut" result="blurOut2" type="matrix" values="0 0 0 0 0 0 0 0 0 0 0 0 0 0 0 0 0 0 .4 0"/><feOffset dx="4.0" dy="4.0" in="blurOut2" result="blurOut3"/><feBlend in="SourceGraphic" in2="blurOut3" mode="normal"/></filter></defs><g><ellipse cx="221" cy="20" fill="#000000" filter="url(#f1n7x3hm4aqnaz)" rx="10" ry="10" style="stroke: none; stroke-width: 1.0;"/><polygon fill="#FEFECE" filter="url(#f1n7x3hm4aqnaz)" points="177.5,50,264.5,50,276.5,62,264.5,74,177.5,74,165.5,62,177.5,50" style="stroke: #A80036; stroke-width: 1.5;"/><text fill="#000000" font-family="sans-serif" font-size="11" lengthAdjust="spacingAndGlyphs" textLength="87" x="177.5" y="66.1572">multiprocessor?</text><text fill="#000000" font-family="sans-serif" font-size="11" lengthAdjust="spacingAndGlyphs" textLength="18" x="147.5" y="59.6797">yes</text><text fill="#000000" font-family="sans-serif" font-size="11" lengthAdjust="spacingAndGlyphs" textLength="56" x="276.5" y="59.6797">monoproc</text><rect fill="#000000" filter="url(#f1n7x3hm4aqnaz)" height="6" rx="2.5" ry="2.5" style="stroke: #000000; stroke-width: 1.0;" width="238" x="10" y="84"/><rect fill="#FEFECE" filter="url(#f1n7x3hm4aqnaz)" height="34.1328" rx="12.5" ry="12.5" style="stroke: #A80036; stroke-width: 1.5;" width="92" x="22" y="110"/><text fill="#000000" font-family="sans-serif" font-size="12" lengthAdjust="spacingAndGlyphs" textLength="72" x="32" y="131.6016">Treatment 1</text><rect fill="#FEFECE" filter="url(#f1n7x3hm4aqnaz)" height="34.1328" rx="12.5" ry="12.5" style="stroke: #A80036; stroke-width: 1.5;" width="92" x="142" y="110"/><text fill="#000000" font-family="sans-serif" font-size="12" lengthAdjust="spacingAndGlyphs" textLength="72" x="152" y="131.6016">Treatment 2</text><rect fill="#000000" filter="url(#f1n7x3hm4aqnaz)" height="6" rx="2.5" ry="2.5" style="stroke: #000000; stroke-width: 1.0;" width="238" x="10" y="164.1328"/><rect fill="#FEFECE" filter="url(#f1n7x3hm4aqnaz)" height="34.1328" rx="12.5" ry="12.5" style="stroke: #A80036; stroke-width: 1.5;" width="92" x="268" y="84"/><text fill="#000000" font-family="sans-serif" font-size="12" lengthAdjust="spacingAndGlyphs" textLength="72" x="278" y="105.6016">Treatment 1</text><rect fill="#FEFECE" filter="url(#f1n7x3hm4aqnaz)" height="34.1328" rx="12.5" ry="12.5" style="stroke: #A80036; stroke-width: 1.5;" width="92" x="268" y="153.1328"/><text fill="#000000" font-family="sans-serif" font-size="12" lengthAdjust="spacingAndGlyphs" textLength="72" x="278" y="174.7344">Treatment 2</text><polygon fill="#FEFECE" filter="url(#f1n7x3hm4aqnaz)" points="221,193.2656,233,205.2656,221,217.2656,209,205.2656,221,193.2656" style="stroke: #A80036; stroke-width: 1.5;"/><line style="stroke: #A80036; stroke-width: 1.5;" x1="68" x2="68" y1="90" y2="110"/><polygon fill="#A80036" points="64,100,68,110,72,100,68,104" style="stroke: #A80036; stroke-width: 1.0;"/><line style="stroke: #A80036; stroke-width: 1.5;" x1="188" x2="188" y1="90" y2="110"/><polygon fill="#A80036" points="184,100,188,110,192,100,188,104" style="stroke: #A80036; stroke-width: 1.0;"/><line style="stroke: #A80036; stroke-width: 1.5;" x1="68" x2="68" y1="144.1328" y2="164.1328"/><polygon fill="#A80036" points="64,154.1328,68,164.1328,72,154.1328,68,158.1328" style="stroke: #A80036; stroke-width: 1.0;"/><line style="stroke: #A80036; stroke-width: 1.5;" x1="188" x2="188" y1="144.1328" y2="164.1328"/><polygon fill="#A80036" points="184,154.1328,188,164.1328,192,154.1328,188,158.1328" style="stroke: #A80036; stroke-width: 1.0;"/><line style="stroke: #A80036; stroke-width: 1.5;" x1="314" x2="314" y1="118.1328" y2="153.1328"/><polygon fill="#A80036" points="310,143.1328,314,153.1328,318,143.1328,314,147.1328" style="stroke: #A80036; stroke-width: 1.0;"/><line style="stroke: #A80036; stroke-width: 1.5;" x1="165.5" x2="128" y1="62" y2="62"/><line style="stroke: #A80036; stroke-width: 1.5;" x1="128" x2="128" y1="62" y2="84"/><polygon fill="#A80036" points="124,74,128,84,132,74,128,78" style="stroke: #A80036; stroke-width: 1.0;"/><line style="stroke: #A80036; stroke-width: 1.5;" x1="276.5" x2="314" y1="62" y2="62"/><line style="stroke: #A80036; stroke-width: 1.5;" x1="314" x2="314" y1="62" y2="84"/><polygon fill="#A80036" points="310,74,314,84,318,74,314,78" style="stroke: #A80036; stroke-width: 1.0;"/><line style="stroke: #A80036; stroke-width: 1.5;" x1="128" x2="128" y1="170.1328" y2="205.2656"/><line style="stroke: #A80036; stroke-width: 1.5;" x1="128" x2="209" y1="205.2656" y2="205.2656"/><polygon fill="#A80036" points="199,201.2656,209,205.2656,199,209.2656,203,205.2656" style="stroke: #A80036; stroke-width: 1.0;"/><line style="stroke: #A80036; stroke-width: 1.5;" x1="314" x2="314" y1="187.2656" y2="205.2656"/><line style="stroke: #A80036; stroke-width: 1.5;" x1="314" x2="233" y1="205.2656" y2="205.2656"/><polygon fill="#A80036" points="243,201.2656,233,205.2656,243,209.2656,239,205.2656" style="stroke: #A80036; stroke-width: 1.0;"/><line style="stroke: #A80036; stroke-width: 1.5;" x1="221" x2="221" y1="30" y2="50"/><polygon fill="#A80036" points="217,40,221,50,225,40,221,44" style="stroke: #A80036; stroke-width: 1.0;"/><!--
@startuml

start

if (multiprocessor?) then (yes)
  fork
    :Treatment 1;
  fork again
    :Treatment 2;
  end fork
else (monoproc)
  :Treatment 1;
  :Treatment 2;
endif

@enduml

PlantUML version 1.2019.05(Sun Apr 21 00:45:36 CST 2019)
(GPL source distribution)
Java Runtime: Java(TM) SE Runtime Environment
JVM: Java HotSpot(TM) 64-Bit Server VM
Java Version: 1.8.0_191-b12
Operating System: Mac OS X
OS Version: 10.16
Default Encoding: UTF-8
Language: en
Country: CN
--></g></svg>