<?xml version="1.0" encoding="UTF-8" standalone="no"?><svg xmlns="http://www.w3.org/2000/svg" xmlns:xlink="http://www.w3.org/1999/xlink" contentScriptType="application/ecmascript" contentStyleType="text/css" height="192px" preserveAspectRatio="none" style="width:256px;height:192px;" version="1.1" viewBox="0 0 256 192" width="256px" zoomAndPan="magnify"><defs><filter height="300%" id="f1lmputfhfmqgy" width="300%" x="-1" y="-1"><feGaussianBlur result="blurOut" stdDeviation="2.0"/><feColorMatrix in="blurOut" result="blurOut2" type="matrix" values="0 0 0 0 0 0 0 0 0 0 0 0 0 0 0 0 0 0 .4 0"/><feOffset dx="4.0" dy="4.0" in="blurOut2" result="blurOut3"/><feBlend in="SourceGraphic" in2="blurOut3" mode="normal"/></filter></defs><g><!--class Class01--><rect fill="#98FB98" filter="url(#f1lmputfhfmqgy)" height="48" id="Class01" style="stroke: #00FF7F; stroke-width: 1.5;" width="78" x="16" y="8"/><ellipse cx="31" cy="24" fill="#9ACD32" rx="11" ry="11" style="stroke: #00FF7F; stroke-width: 1.0;"/><path d="M33.4731,30.1431 Q32.8921,30.4419 32.2529,30.5913 Q31.6138,30.7407 30.9082,30.7407 Q28.4014,30.7407 27.0815,29.0889 Q25.7617,27.437 25.7617,24.3159 Q25.7617,21.1865 27.0815,19.5347 Q28.4014,17.8828 30.9082,17.8828 Q31.6138,17.8828 32.2612,18.0322 Q32.9087,18.1816 33.4731,18.4805 L33.4731,21.2031 Q32.8423,20.6221 32.2488,20.3523 Q31.6553,20.0825 31.0244,20.0825 Q29.6797,20.0825 28.9949,21.1492 Q28.3101,22.2158 28.3101,24.3159 Q28.3101,26.4077 28.9949,27.4744 Q29.6797,28.541 31.0244,28.541 Q31.6553,28.541 32.2488,28.2712 Q32.8423,28.0015 33.4731,27.4204 Z "/><text fill="#000000" font-family="sans-serif" font-size="12" lengthAdjust="spacingAndGlyphs" textLength="46" x="45" y="28.5352">Class01</text><line style="stroke: #00FF7F; stroke-width: 1.5;" x1="17" x2="93" y1="40" y2="40"/><line style="stroke: #00FF7F; stroke-width: 1.5;" x1="17" x2="93" y1="48" y2="48"/><!--class Class02--><rect fill="#98FB98" filter="url(#f1lmputfhfmqgy)" height="48" id="Class02" style="stroke: #00FF7F; stroke-width: 1.5;" width="78" x="16" y="133"/><ellipse cx="31" cy="149" fill="#9ACD32" rx="11" ry="11" style="stroke: #00FF7F; stroke-width: 1.0;"/><path d="M33.4731,155.1431 Q32.8921,155.4419 32.2529,155.5913 Q31.6138,155.7407 30.9082,155.7407 Q28.4014,155.7407 27.0815,154.0889 Q25.7617,152.437 25.7617,149.3159 Q25.7617,146.1865 27.0815,144.5347 Q28.4014,142.8828 30.9082,142.8828 Q31.6138,142.8828 32.2612,143.0322 Q32.9087,143.1816 33.4731,143.4805 L33.4731,146.2031 Q32.8423,145.6221 32.2488,145.3523 Q31.6553,145.0825 31.0244,145.0825 Q29.6797,145.0825 28.9949,146.1492 Q28.3101,147.2158 28.3101,149.3159 Q28.3101,151.4077 28.9949,152.4744 Q29.6797,153.541 31.0244,153.541 Q31.6553,153.541 32.2488,153.2712 Q32.8423,153.0015 33.4731,152.4204 Z "/><text fill="#000000" font-family="sans-serif" font-size="12" lengthAdjust="spacingAndGlyphs" textLength="46" x="45" y="153.5352">Class02</text><line style="stroke: #00FF7F; stroke-width: 1.5;" x1="17" x2="93" y1="165" y2="165"/><line style="stroke: #00FF7F; stroke-width: 1.5;" x1="17" x2="93" y1="173" y2="173"/><!--class Class03--><rect fill="#98FB98" filter="url(#f1lmputfhfmqgy)" height="48" id="Class03" style="stroke: #00FF7F; stroke-width: 1.5;" width="78" x="129" y="8"/><ellipse cx="144" cy="24" fill="#9ACD32" rx="11" ry="11" style="stroke: #00FF7F; stroke-width: 1.0;"/><path d="M146.4731,30.1431 Q145.8921,30.4419 145.2529,30.5913 Q144.6138,30.7407 143.9082,30.7407 Q141.4014,30.7407 140.0815,29.0889 Q138.7617,27.437 138.7617,24.3159 Q138.7617,21.1865 140.0815,19.5347 Q141.4014,17.8828 143.9082,17.8828 Q144.6138,17.8828 145.2612,18.0322 Q145.9087,18.1816 146.4731,18.4805 L146.4731,21.2031 Q145.8423,20.6221 145.2488,20.3523 Q144.6553,20.0825 144.0244,20.0825 Q142.6797,20.0825 141.9949,21.1492 Q141.3101,22.2158 141.3101,24.3159 Q141.3101,26.4077 141.9949,27.4744 Q142.6797,28.541 144.0244,28.541 Q144.6553,28.541 145.2488,28.2712 Q145.8423,28.0015 146.4731,27.4204 Z "/><text fill="#000000" font-family="sans-serif" font-size="12" lengthAdjust="spacingAndGlyphs" textLength="46" x="158" y="28.5352">Class03</text><line style="stroke: #00FF7F; stroke-width: 1.5;" x1="130" x2="206" y1="40" y2="40"/><line style="stroke: #00FF7F; stroke-width: 1.5;" x1="130" x2="206" y1="48" y2="48"/><!--class Class04--><rect fill="#98FB98" filter="url(#f1lmputfhfmqgy)" height="48" id="Class04" style="stroke: #00FF7F; stroke-width: 1.5;" width="78" x="129" y="133"/><ellipse cx="144" cy="149" fill="#9ACD32" rx="11" ry="11" style="stroke: #00FF7F; stroke-width: 1.0;"/><path d="M146.4731,155.1431 Q145.8921,155.4419 145.2529,155.5913 Q144.6138,155.7407 143.9082,155.7407 Q141.4014,155.7407 140.0815,154.0889 Q138.7617,152.437 138.7617,149.3159 Q138.7617,146.1865 140.0815,144.5347 Q141.4014,142.8828 143.9082,142.8828 Q144.6138,142.8828 145.2612,143.0322 Q145.9087,143.1816 146.4731,143.4805 L146.4731,146.2031 Q145.8423,145.6221 145.2488,145.3523 Q144.6553,145.0825 144.0244,145.0825 Q142.6797,145.0825 141.9949,146.1492 Q141.3101,147.2158 141.3101,149.3159 Q141.3101,151.4077 141.9949,152.4744 Q142.6797,153.541 144.0244,153.541 Q144.6553,153.541 145.2488,153.2712 Q145.8423,153.0015 146.4731,152.4204 Z "/><text fill="#000000" font-family="sans-serif" font-size="12" lengthAdjust="spacingAndGlyphs" textLength="46" x="158" y="153.5352">Class04</text><line style="stroke: #00FF7F; stroke-width: 1.5;" x1="130" x2="206" y1="165" y2="165"/><line style="stroke: #00FF7F; stroke-width: 1.5;" x1="130" x2="206" y1="173" y2="173"/><!--link Class01 to Class02--><path d="M55,69.2235 C55,89.8612 55,114.921 55,132.9727 " fill="none" id="Class01-Class02" style="stroke: #2E8B57; stroke-width: 1.0;"/><polygon fill="#2E8B57" points="55,56.1013,51,62.1013,55,68.1013,59,62.1013,55,56.1013" style="stroke: #2E8B57; stroke-width: 1.0;"/><text fill="#000000" font-family="sans-serif" font-size="13" lengthAdjust="spacingAndGlyphs" textLength="54" x="56" y="99.5684">contains</text><text fill="#000000" font-family="sans-serif" font-size="13" lengthAdjust="spacingAndGlyphs" textLength="8" x="46.025" y="76.4103">1</text><text fill="#000000" font-family="sans-serif" font-size="13" lengthAdjust="spacingAndGlyphs" textLength="34" x="16.4313" y="122.1098">many</text><!--link Class03 to Class04--><path d="M168,69.2235 C168,89.8612 168,114.921 168,132.9727 " fill="none" id="Class03-Class04" style="stroke: #2E8B57; stroke-width: 1.0;"/><polygon fill="#FFFFFF" points="168,56.1013,164,62.1013,168,68.1013,172,62.1013,168,56.1013" style="stroke: #2E8B57; stroke-width: 1.0;"/><text fill="#000000" font-family="sans-serif" font-size="13" lengthAdjust="spacingAndGlyphs" textLength="75" x="169" y="99.5684">aggregation</text><!--
@startuml

skinparam class {
  BackgroundColor PaleGreen
  ArrowColor SeaGreen
  BorderColor SpringGreen
}
skinparam stereotypeCBackgroundColor YellowGreen

Class01 "1" *- - "many" Class02 : contains

Class03 o- - Class04 : aggregation

@enduml

PlantUML version 1.2019.05(Sun Apr 21 00:45:36 CST 2019)
(GPL source distribution)
Java Runtime: Java(TM) SE Runtime Environment
JVM: Java HotSpot(TM) 64-Bit Server VM
Java Version: 1.8.0_191-b12
Operating System: Mac OS X
OS Version: 10.16
Default Encoding: UTF-8
Language: en
Country: CN
--></g></svg>