<?xml version="1.0" encoding="UTF-8" standalone="no"?><svg xmlns="http://www.w3.org/2000/svg" xmlns:xlink="http://www.w3.org/1999/xlink" contentScriptType="application/ecmascript" contentStyleType="text/css" height="231px" preserveAspectRatio="none" style="width:212px;height:231px;" version="1.1" viewBox="0 0 212 231" width="212px" zoomAndPan="magnify"><defs><filter height="300%" id="fr342k5yeicj" width="300%" x="-1" y="-1"><feGaussianBlur result="blurOut" stdDeviation="2.0"/><feColorMatrix in="blurOut" result="blurOut2" type="matrix" values="0 0 0 0 0 0 0 0 0 0 0 0 0 0 0 0 0 0 .4 0"/><feOffset dx="4.0" dy="4.0" in="blurOut2" result="blurOut3"/><feBlend in="SourceGraphic" in2="blurOut3" mode="normal"/></filter></defs><g><ellipse cx="109.5" cy="20" fill="#000000" filter="url(#fr342k5yeicj)" rx="10" ry="10" style="stroke: none; stroke-width: 1.0;"/><rect fill="#FEFECE" filter="url(#fr342k5yeicj)" height="34.1328" rx="12.5" ry="12.5" style="stroke: #A80036; stroke-width: 1.5;" width="77" x="71" y="94"/><text fill="#000000" font-family="sans-serif" font-size="12" lengthAdjust="spacingAndGlyphs" textLength="57" x="81" y="115.6016">read data</text><rect fill="#FEFECE" filter="url(#fr342k5yeicj)" height="34.1328" rx="12.5" ry="12.5" style="stroke: #A80036; stroke-width: 1.5;" width="129" x="45" y="163.1328"/><text fill="#000000" font-family="sans-serif" font-size="12" lengthAdjust="spacingAndGlyphs" textLength="109" x="55" y="184.7344">generate diagrams</text><polygon fill="#FEFECE" filter="url(#fr342k5yeicj)" points="71,50,148,50,160,62,148,74,71,74,59,62,71,50" style="stroke: #A80036; stroke-width: 1.5;"/><text fill="#000000" font-family="sans-serif" font-size="11" lengthAdjust="spacingAndGlyphs" textLength="77" x="71" y="66.1572">data available?</text><ellipse cx="24" cy="105" fill="#FFFFFF" filter="url(#fr342k5yeicj)" rx="11" ry="11" style="stroke: #000000; stroke-width: 1.0;"/><ellipse cx="24" cy="105" fill="#000000" rx="6" ry="6" style="stroke: #7F7F7F; stroke-width: 1.0;"/><line style="stroke: #A80036; stroke-width: 1.5;" x1="109.5" x2="109.5" y1="128.1328" y2="163.1328"/><polygon fill="#A80036" points="105.5,153.1328,109.5,163.1328,113.5,153.1328,109.5,157.1328" style="stroke: #A80036; stroke-width: 1.0;"/><line style="stroke: #A80036; stroke-width: 1.5;" x1="109.5" x2="109.5" y1="74" y2="94"/><polygon fill="#A80036" points="105.5,84,109.5,94,113.5,84,109.5,88" style="stroke: #A80036; stroke-width: 1.0;"/><line style="stroke: #A80036; stroke-width: 1.5;" x1="109.5" x2="109.5" y1="197.2656" y2="207.2656"/><line style="stroke: #A80036; stroke-width: 1.5;" x1="109.5" x2="186" y1="207.2656" y2="207.2656"/><polygon fill="#A80036" points="182,143.6328,186,133.6328,190,143.6328,186,139.6328" style="stroke: #A80036; stroke-width: 1.5;"/><line style="stroke: #A80036; stroke-width: 1.5;" x1="186" x2="186" y1="62" y2="207.2656"/><line style="stroke: #A80036; stroke-width: 1.5;" x1="186" x2="160" y1="62" y2="62"/><polygon fill="#A80036" points="170,58,160,62,170,66,166,62" style="stroke: #A80036; stroke-width: 1.0;"/><line style="stroke: #A80036; stroke-width: 1.5;" x1="59" x2="24" y1="62" y2="62"/><line style="stroke: #A80036; stroke-width: 1.5;" x1="24" x2="24" y1="62" y2="94"/><polygon fill="#A80036" points="20,84,24,94,28,84,24,88" style="stroke: #A80036; stroke-width: 1.0;"/><line style="stroke: #A80036; stroke-width: 1.5;" x1="109.5" x2="109.5" y1="30" y2="50"/><polygon fill="#A80036" points="105.5,40,109.5,50,113.5,40,109.5,44" style="stroke: #A80036; stroke-width: 1.0;"/><!--
@startuml

start

while (data available?)
  :read data;
  :generate diagrams;
endwhile

stop

@enduml

PlantUML version 1.2019.05(Sun Apr 21 00:45:36 CST 2019)
(GPL source distribution)
Java Runtime: Java(TM) SE Runtime Environment
JVM: Java HotSpot(TM) 64-Bit Server VM
Java Version: 1.8.0_191-b12
Operating System: Mac OS X
OS Version: 10.16
Default Encoding: UTF-8
Language: en
Country: CN
--></g></svg>