<?xml version="1.0" encoding="UTF-8" standalone="no"?><svg xmlns="http://www.w3.org/2000/svg" xmlns:xlink="http://www.w3.org/1999/xlink" contentScriptType="application/ecmascript" contentStyleType="text/css" height="516px" preserveAspectRatio="none" style="width:556px;height:516px;" version="1.1" viewBox="0 0 556 516" width="556px" zoomAndPan="magnify"><defs><filter height="300%" id="f60wr1xvulbnq" width="300%" x="-1" y="-1"><feGaussianBlur result="blurOut" stdDeviation="2.0"/><feColorMatrix in="blurOut" result="blurOut2" type="matrix" values="0 0 0 0 0 0 0 0 0 0 0 0 0 0 0 0 0 0 .4 0"/><feOffset dx="4.0" dy="4.0" in="blurOut2" result="blurOut3"/><feBlend in="SourceGraphic" in2="blurOut3" mode="normal"/></filter></defs><g><!--entity 用户--><ellipse cx="50.5" cy="18" fill="#FEFECE" filter="url(#f60wr1xvulbnq)" rx="8" ry="8" style="stroke: #A80036; stroke-width: 2.0;"/><path d="M50.5,26 L50.5,53 M37.5,34 L63.5,34 M50.5,53 L37.5,68 M50.5,53 L63.5,68 " fill="none" filter="url(#f60wr1xvulbnq)" style="stroke: #A80036; stroke-width: 2.0;"/><text fill="#000000" font-family="sans-serif" font-size="14" lengthAdjust="spacingAndGlyphs" textLength="28" x="36.5" y="87.9951">用户</text><!--entity 代理--><rect fill="#FEFECE" filter="url(#f60wr1xvulbnq)" height="36.2969" style="stroke: #A80036; stroke-width: 1.5;" width="48" x="100.5" y="31.5"/><text fill="#000000" font-family="sans-serif" font-size="14" lengthAdjust="spacingAndGlyphs" textLength="28" x="110.5" y="54.4951">代理</text><!--entity artifact--><rect fill="#FEFECE" filter="url(#f60wr1xvulbnq)" height="39.2969" style="stroke: #000000; stroke-width: 1.5;" width="76" x="183.5" y="30"/><polygon fill="#FEFECE" points="242.5,35,242.5,49,254.5,49,254.5,41,248.5,35,242.5,35" style="stroke: #000000; stroke-width: 1.5;"/><line style="stroke: #000000; stroke-width: 1.5;" x1="248.5" x2="248.5" y1="35" y2="41"/><line style="stroke: #000000; stroke-width: 1.5;" x1="254.5" x2="248.5" y1="41" y2="41"/><text fill="#000000" font-family="sans-serif" font-size="14" lengthAdjust="spacingAndGlyphs" textLength="46" x="193.5" y="55.9951">artifact</text><!--entity boundary--><path d="M307,29.5 L307,53.5 M307,41.5 L324,41.5 " fill="none" filter="url(#f60wr1xvulbnq)" style="stroke: #A80036; stroke-width: 2.0;"/><ellipse cx="336" cy="41.5" fill="#FEFECE" filter="url(#f60wr1xvulbnq)" rx="12" ry="12" style="stroke: #A80036; stroke-width: 2.0;"/><text fill="#000000" font-family="sans-serif" font-size="14" lengthAdjust="spacingAndGlyphs" textLength="65" x="295" y="70.4951">boundary</text><!--entity 卡版--><rect fill="#FEFECE" filter="url(#f60wr1xvulbnq)" height="22.2969" style="stroke: #000000; stroke-width: 1.5;" width="48" x="395.5" y="38.5"/><text fill="#000000" font-family="sans-serif" font-size="14" lengthAdjust="spacingAndGlyphs" textLength="28" x="405.5" y="54.4951">卡版</text><!--entity 云--><path d="M37.443,161.6908 C39.2977,153.5251 45.7246,152.9156 51.23,157.8482 C56.6307,152.3677 62.3039,153.3745 64.9707,160.7665 C73.2825,162.3028 75.849,169.7174 69.9327,175.9144 C75.2507,182.7296 75.0502,189.6418 65.1635,191.929 C61.2971,198.0473 56.6497,197.348 52.5008,192.2478 C47.5058,200.2659 41.0187,199.9144 36.7592,191.5415 C28.1566,189.1743 27.5021,181.5643 32.8204,175.7294 C28.0331,169.4757 28.8156,163.5274 37.443,161.6908 " fill="#FEFECE" style="stroke: #000000; stroke-width: 1.5;"/><text fill="#000000" font-family="sans-serif" font-size="14" lengthAdjust="spacingAndGlyphs" textLength="14" x="43.5" y="179.9951">云</text><!--entity 组件--><rect fill="#FEFECE" filter="url(#f60wr1xvulbnq)" height="36.2969" style="stroke: #A80036; stroke-width: 1.5;" width="48" x="107.5" y="157"/><rect fill="#FEFECE" height="5" style="stroke: #A80036; stroke-width: 1.5;" width="10" x="102.5" y="162"/><rect fill="#FEFECE" height="5" style="stroke: #A80036; stroke-width: 1.5;" width="10" x="102.5" y="183.2969"/><text fill="#000000" font-family="sans-serif" font-size="14" lengthAdjust="spacingAndGlyphs" textLength="28" x="117.5" y="179.9951">组件</text><!--entity 控制--><ellipse cx="206.5" cy="167" fill="#FEFECE" filter="url(#f60wr1xvulbnq)" rx="12" ry="12" style="stroke: #A80036; stroke-width: 2.0;"/><polygon fill="#A80036" points="202.5,155,208.5,150,206.5,155,208.5,160,202.5,155" style="stroke: #A80036; stroke-width: 1.0;"/><text fill="#000000" font-family="sans-serif" font-size="14" lengthAdjust="spacingAndGlyphs" textLength="28" x="192.5" y="195.9951">控制</text><!--entity 数据库--><path d="M257.5,162.5 C257.5,152.5 288.5,152.5 288.5,152.5 C288.5,152.5 319.5,152.5 319.5,162.5 L319.5,187.7969 C319.5,197.7969 288.5,197.7969 288.5,197.7969 C288.5,197.7969 257.5,197.7969 257.5,187.7969 L257.5,162.5 " fill="#FEFECE" filter="url(#f60wr1xvulbnq)" style="stroke: #000000; stroke-width: 1.5;"/><path d="M257.5,162.5 C257.5,172.5 288.5,172.5 288.5,172.5 C288.5,172.5 319.5,172.5 319.5,162.5 " fill="none" style="stroke: #000000; stroke-width: 1.5;"/><text fill="#000000" font-family="sans-serif" font-size="14" lengthAdjust="spacingAndGlyphs" textLength="42" x="267.5" y="189.4951">数据库</text><!--entity 实例--><ellipse cx="370.5" cy="167" fill="#FEFECE" filter="url(#f60wr1xvulbnq)" rx="12" ry="12" style="stroke: #A80036; stroke-width: 2.0;"/><line style="stroke: #A80036; stroke-width: 2.0;" x1="358.5" x2="382.5" y1="181" y2="181"/><text fill="#000000" font-family="sans-serif" font-size="14" lengthAdjust="spacingAndGlyphs" textLength="28" x="356.5" y="195.9951">实例</text><!--entity 文件--><polygon fill="#FEFECE" filter="url(#f60wr1xvulbnq)" points="26.5,270,26.5,306.2969,74.5,306.2969,74.5,280,64.5,270,26.5,270" style="stroke: #000000; stroke-width: 1.5;"/><path d="M64.5,270 L64.5,280 L74.5,280 " fill="#FEFECE" style="stroke: #000000; stroke-width: 1.5;"/><text fill="#000000" font-family="sans-serif" font-size="14" lengthAdjust="spacingAndGlyphs" textLength="28" x="36.5" y="292.9951">文件</text><!--entity 文件夹--><polygon fill="#FEFECE" filter="url(#f60wr1xvulbnq)" points="109.5,260,155.5,260,162.5,281,181.5,281,181.5,315.5938,109.5,315.5938,109.5,260" style="stroke: #000000; stroke-width: 1.5;"/><line style="stroke: #000000; stroke-width: 1.5;" x1="109.5" x2="162.5" y1="281" y2="281"/><text fill="#000000" font-family="sans-serif" font-size="14" lengthAdjust="spacingAndGlyphs" textLength="42" x="119.5" y="300.9951">文件夹</text><!--entity frame--><rect fill="#FEFECE" filter="url(#f60wr1xvulbnq)" height="46.2969" style="stroke: #000000; stroke-width: 1.5;" width="79" x="217" y="265"/><path d="M243.3333,266 L243.3333,270 L236.3333,277 L217,277 " fill="none" style="stroke: #000000; stroke-width: 1.5;"/><text fill="#000000" font-family="sans-serif" font-size="14" lengthAdjust="spacingAndGlyphs" textLength="39" x="232" y="297.9951">frame</text><!--entity interface--><ellipse cx="369.5" cy="288" fill="#FEFECE" filter="url(#f60wr1xvulbnq)" rx="8" ry="8" style="stroke: #A80036; stroke-width: 2.0;"/><text fill="#000000" font-family="sans-serif" font-size="14" lengthAdjust="spacingAndGlyphs" textLength="60" x="339.5" y="317.9951">interface</text><!--entity node--><polygon fill="#FEFECE" filter="url(#f60wr1xvulbnq)" points="442.5,275,452.5,265,518.5,265,518.5,301.2969,508.5,311.2969,442.5,311.2969,442.5,275" style="stroke: #000000; stroke-width: 1.5;"/><line style="stroke: #000000; stroke-width: 1.5;" x1="508.5" x2="517.5" y1="275" y2="266"/><line style="stroke: #000000; stroke-width: 1.5;" x1="442.5" x2="508.5" y1="275" y2="275"/><line style="stroke: #000000; stroke-width: 1.5;" x1="508.5" x2="508.5" y1="275" y2="311.2969"/><text fill="#000000" font-family="sans-serif" font-size="14" lengthAdjust="spacingAndGlyphs" textLength="36" x="457.5" y="297.9951">node</text><!--entity package--><polygon fill="#FEFECE" filter="url(#f60wr1xvulbnq)" points="6,377,71,377,78,399.2969,95,399.2969,95,416.2969,6,416.2969,6,377" style="stroke: #000000; stroke-width: 1.5;"/><line style="stroke: #000000; stroke-width: 1.5;" x1="6" x2="78" y1="399.2969" y2="399.2969"/><text fill="#000000" font-family="sans-serif" font-size="14" lengthAdjust="spacingAndGlyphs" textLength="59" x="10" y="392.9951">package</text><!--entity queue--><path d="M135,383.5 L190,383.5 C195,383.5 195,396.6484 195,396.6484 C195,396.6484 195,409.7969 190,409.7969 L135,409.7969 C130,409.7969 130,396.6484 130,396.6484 C130,396.6484 130,383.5 135,383.5 " fill="#FEFECE" filter="url(#f60wr1xvulbnq)" style="stroke: #A80036; stroke-width: 1.5;"/><path d="M190,383.5 C185,383.5 185,396.6484 185,396.6484 C185,409.7969 190,409.7969 190,409.7969 " fill="none" style="stroke: #A80036; stroke-width: 1.5;"/><text fill="#000000" font-family="sans-serif" font-size="14" lengthAdjust="spacingAndGlyphs" textLength="45" x="135" y="401.4951">queue</text><!--entity stack--><rect fill="#FEFECE" filter="url(#f60wr1xvulbnq)" height="36.2969" style="stroke: none; stroke-width: 1.5;" width="57" x="245" y="378.5"/><path d="M230,378.5 L245,378.5 L245,414.7969 L302,414.7969 L302,378.5 L317,378.5 " fill="none" style="stroke: #A80036; stroke-width: 1.5;"/><text fill="#000000" font-family="sans-serif" font-size="14" lengthAdjust="spacingAndGlyphs" textLength="37" x="255" y="401.4951">stack</text><!--entity rectangle--><rect fill="#FEFECE" filter="url(#f60wr1xvulbnq)" height="36.2969" style="stroke: #000000; stroke-width: 1.5;" width="85" x="352" y="378.5"/><text fill="#000000" font-family="sans-serif" font-size="14" lengthAdjust="spacingAndGlyphs" textLength="65" x="362" y="401.4951">rectangle</text><!--entity storage--><rect fill="#FEFECE" filter="url(#f60wr1xvulbnq)" height="36.2969" rx="35" ry="35" style="stroke: #000000; stroke-width: 1.5;" width="73" x="472" y="378.5"/><text fill="#000000" font-family="sans-serif" font-size="14" lengthAdjust="spacingAndGlyphs" textLength="53" x="482" y="401.4951">storage</text><ellipse cx="50.7193" cy="490.5236" fill="#FEFECE" filter="url(#f60wr1xvulbnq)" rx="44.7193" ry="14.5236" style="stroke: #A80036; stroke-width: 1.5;"/><text fill="#000000" font-family="sans-serif" font-size="14" lengthAdjust="spacingAndGlyphs" textLength="59" x="21.2193" y="495.1721">usecase</text><!--link 用户 to 代理--><!--link 代理 to artifact--><!--link artifact to boundary--><!--link boundary to 卡版--><!--link 用户 to 云--><!--link 云 to 组件--><!--link 组件 to 控制--><!--link 控制 to 数据库--><!--link 数据库 to 实例--><!--link 云 to 文件--><!--link 文件 to 文件夹--><!--link 文件夹 to frame--><!--link frame to interface--><!--link interface to node--><!--link 文件 to package--><!--link package to queue--><!--link queue to stack--><!--link stack to rectangle--><!--link rectangle to storage--><!--link package to usecase--><!--
@startuml
actor 用户
agent 代理
artifact artifact
boundary boundary
card 卡版
cloud 云
component 组件
control 控制
database 数据库
entity 实例
file 文件
folder 文件夹
frame frame
interface  interface
node node
package package
queue queue
stack stack
rectangle rectangle
storage storage
usecase usecase
@enduml

PlantUML version 1.2019.05(Sat Apr 20 16:45:36 UTC 2019)
(GPL source distribution)
Java Runtime: OpenJDK Runtime Environment
JVM: OpenJDK 64-Bit Server VM
Java Version: 11.0.9+11-post-Debian-1deb10u1
Operating System: Linux
OS Version: 5.4.0-1047-azure
Default Encoding: UTF-8
Language: en
Country: null
--></g></svg>