<?xml version="1.0" encoding="UTF-8" standalone="no"?><svg xmlns="http://www.w3.org/2000/svg" xmlns:xlink="http://www.w3.org/1999/xlink" contentScriptType="application/ecmascript" contentStyleType="text/css" height="175px" preserveAspectRatio="none" style="width:201px;height:175px;" version="1.1" viewBox="0 0 201 175" width="201px" zoomAndPan="magnify"><defs><filter height="300%" id="fk4nuay1ncpz6" width="300%" x="-1" y="-1"><feGaussianBlur result="blurOut" stdDeviation="2.0"/><feColorMatrix in="blurOut" result="blurOut2" type="matrix" values="0 0 0 0 0 0 0 0 0 0 0 0 0 0 0 0 0 0 .4 0"/><feOffset dx="4.0" dy="4.0" in="blurOut2" result="blurOut3"/><feBlend in="SourceGraphic" in2="blurOut3" mode="normal"/></filter></defs><g><!--class Room--><rect fill="#FEFECE" filter="url(#fk4nuay1ncpz6)" height="48" id="Room" style="stroke: #A80036; stroke-width: 1.5;" width="67" x="6" y="8"/><ellipse cx="21" cy="24" fill="#ADD1B2" rx="11" ry="11" style="stroke: #A80036; stroke-width: 1.0;"/><path d="M23.9688,29.6406 Q23.3906,29.9375 22.75,30.0781 Q22.1094,30.2344 21.4063,30.2344 Q18.9063,30.2344 17.5781,28.5938 Q16.2656,26.9375 16.2656,23.8125 Q16.2656,20.6875 17.5781,19.0313 Q18.9063,17.375 21.4063,17.375 Q22.1094,17.375 22.75,17.5313 Q23.4063,17.6875 23.9688,17.9844 L23.9688,20.7031 Q23.3438,20.125 22.75,19.8594 Q22.1563,19.5781 21.5313,19.5781 Q20.1875,19.5781 19.5,20.6563 Q18.8125,21.7188 18.8125,23.8125 Q18.8125,25.9063 19.5,26.9844 Q20.1875,28.0469 21.5313,28.0469 Q22.1563,28.0469 22.75,27.7813 Q23.3438,27.5 23.9688,26.9219 L23.9688,29.6406 Z "/><text fill="#000000" font-family="sans-serif" font-size="12" lengthAdjust="spacingAndGlyphs" textLength="35" x="35" y="28.1543">Room</text><line style="stroke: #A80036; stroke-width: 1.5;" x1="7" x2="72" y1="40" y2="40"/><line style="stroke: #A80036; stroke-width: 1.5;" x1="7" x2="72" y1="48" y2="48"/><!--class Student--><rect fill="#FEFECE" filter="url(#fk4nuay1ncpz6)" height="48" id="Student" style="stroke: #A80036; stroke-width: 1.5;" width="82" x="108.5" y="8"/><ellipse cx="123.5" cy="24" fill="#ADD1B2" rx="11" ry="11" style="stroke: #A80036; stroke-width: 1.0;"/><path d="M126.4688,29.6406 Q125.8906,29.9375 125.25,30.0781 Q124.6094,30.2344 123.9063,30.2344 Q121.4063,30.2344 120.0781,28.5938 Q118.7656,26.9375 118.7656,23.8125 Q118.7656,20.6875 120.0781,19.0313 Q121.4063,17.375 123.9063,17.375 Q124.6094,17.375 125.25,17.5313 Q125.9063,17.6875 126.4688,17.9844 L126.4688,20.7031 Q125.8438,20.125 125.25,19.8594 Q124.6563,19.5781 124.0313,19.5781 Q122.6875,19.5781 122,20.6563 Q121.3125,21.7188 121.3125,23.8125 Q121.3125,25.9063 122,26.9844 Q122.6875,28.0469 124.0313,28.0469 Q124.6563,28.0469 125.25,27.7813 Q125.8438,27.5 126.4688,26.9219 L126.4688,29.6406 Z "/><text fill="#000000" font-family="sans-serif" font-size="12" lengthAdjust="spacingAndGlyphs" textLength="50" x="137.5" y="28.1543">Student</text><line style="stroke: #A80036; stroke-width: 1.5;" x1="109.5" x2="189.5" y1="40" y2="40"/><line style="stroke: #A80036; stroke-width: 1.5;" x1="109.5" x2="189.5" y1="48" y2="48"/><!--class Chair--><rect fill="#FEFECE" filter="url(#fk4nuay1ncpz6)" height="48" id="Chair" style="stroke: #A80036; stroke-width: 1.5;" width="64" x="7.5" y="116"/><ellipse cx="22.5" cy="132" fill="#ADD1B2" rx="11" ry="11" style="stroke: #A80036; stroke-width: 1.0;"/><path d="M25.4688,137.6406 Q24.8906,137.9375 24.25,138.0781 Q23.6094,138.2344 22.9063,138.2344 Q20.4063,138.2344 19.0781,136.5938 Q17.7656,134.9375 17.7656,131.8125 Q17.7656,128.6875 19.0781,127.0313 Q20.4063,125.375 22.9063,125.375 Q23.6094,125.375 24.25,125.5313 Q24.9063,125.6875 25.4688,125.9844 L25.4688,128.7031 Q24.8438,128.125 24.25,127.8594 Q23.6563,127.5781 23.0313,127.5781 Q21.6875,127.5781 21,128.6563 Q20.3125,129.7188 20.3125,131.8125 Q20.3125,133.9063 21,134.9844 Q21.6875,136.0469 23.0313,136.0469 Q23.6563,136.0469 24.25,135.7813 Q24.8438,135.5 25.4688,134.9219 L25.4688,137.6406 Z "/><text fill="#000000" font-family="sans-serif" font-size="12" lengthAdjust="spacingAndGlyphs" textLength="32" x="36.5" y="136.1543">Chair</text><line style="stroke: #A80036; stroke-width: 1.5;" x1="8.5" x2="70.5" y1="148" y2="148"/><line style="stroke: #A80036; stroke-width: 1.5;" x1="8.5" x2="70.5" y1="156" y2="156"/><!--link Room to Student--><path d="M86.2361,32 C93.5808,32 100.9255,32 108.2701,32 " fill="none" id="Room-Student" style="stroke: #A80036; stroke-width: 1.0;"/><polygon fill="#FFFFFF" points="73.0156,32,79.0156,36,85.0156,32,79.0156,28,73.0156,32" style="stroke: #A80036; stroke-width: 1.0;"/><!--link Room to Chair--><path d="M39.5,69.6145 C39.5,84.9531 39.5,102.2402 39.5,115.8436 " fill="none" id="Room-Chair" style="stroke: #A80036; stroke-width: 1.0;"/><polygon fill="#A80036" points="39.5,56.2373,35.5,62.2373,39.5,68.2373,43.5,62.2373,39.5,56.2373" style="stroke: #A80036; stroke-width: 1.0;"/><!--
@startuml
Room o- Student
Room *- - Chair
@enduml

PlantUML version 1.2019.05(Sat Apr 20 16:45:36 UTC 2019)
(GPL source distribution)
Java Runtime: OpenJDK Runtime Environment
JVM: OpenJDK 64-Bit Server VM
Java Version: 11.0.9+11-post-Debian-1deb10u1
Operating System: Linux
OS Version: 5.4.0-1047-azure
Default Encoding: UTF-8
Language: en
Country: null
--></g></svg>