<?xml version="1.0" encoding="UTF-8" standalone="no"?><svg xmlns="http://www.w3.org/2000/svg" xmlns:xlink="http://www.w3.org/1999/xlink" contentScriptType="application/ecmascript" contentStyleType="text/css" height="501px" preserveAspectRatio="none" style="width:431px;height:501px;" version="1.1" viewBox="0 0 431 501" width="431px" zoomAndPan="magnify"><defs><filter height="300%" id="f12d2rj4tk64op" width="300%" x="-1" y="-1"><feGaussianBlur result="blurOut" stdDeviation="2.0"/><feColorMatrix in="blurOut" result="blurOut2" type="matrix" values="0 0 0 0 0 0 0 0 0 0 0 0 0 0 0 0 0 0 .4 0"/><feOffset dx="4.0" dy="4.0" in="blurOut2" result="blurOut3"/><feBlend in="SourceGraphic" in2="blurOut3" mode="normal"/></filter></defs><g><rect fill="#FEFECE" filter="url(#f12d2rj4tk64op)" height="33.9688" rx="12.5" ry="12.5" style="stroke: #A80036; stroke-width: 1.5;" width="58" x="199.5" y="10"/><text fill="#000000" font-family="sans-serif" font-size="12" lengthAdjust="spacingAndGlyphs" textLength="38" x="209.5" y="31.1387">Ready</text><rect fill="#FEFECE" filter="url(#f12d2rj4tk64op)" height="33.9688" style="stroke: #A80036; stroke-width: 1.5;" width="65" x="196" y="63.9688"/><line style="stroke: #A80036; stroke-width: 1.5;" x1="201" x2="201" y1="63.9688" y2="97.9375"/><line style="stroke: #A80036; stroke-width: 1.5;" x1="256" x2="256" y1="63.9688" y2="97.9375"/><text fill="#000000" font-family="sans-serif" font-size="12" lengthAdjust="spacingAndGlyphs" textLength="45" x="206" y="85.1074">next(o)</text><rect fill="#FEFECE" filter="url(#f12d2rj4tk64op)" height="33.9688" rx="12.5" ry="12.5" style="stroke: #A80036; stroke-width: 1.5;" width="79" x="189" y="117.9375"/><text fill="#000000" font-family="sans-serif" font-size="12" lengthAdjust="spacingAndGlyphs" textLength="59" x="199" y="139.0762">Receiving</text><line style="stroke: #A80036; stroke-width: 1.5;" x1="50" x2="394.5" y1="171.9063" y2="171.9063"/><polygon fill="#FEFECE" filter="url(#f12d2rj4tk64op)" points="22,252.8594,88,252.8594,78,269.8438,88,286.8281,22,286.8281" style="stroke: #A80036; stroke-width: 1.5;"/><text fill="#000000" font-family="sans-serif" font-size="12" lengthAdjust="spacingAndGlyphs" textLength="36" x="32" y="273.998">nak(i)</text><polygon fill="#FEFECE" filter="url(#f12d2rj4tk64op)" points="20,321.8281,80,321.8281,90,338.8125,80,355.7969,20,355.7969" style="stroke: #A80036; stroke-width: 1.5;"/><text fill="#000000" font-family="sans-serif" font-size="12" lengthAdjust="spacingAndGlyphs" textLength="40" x="30" y="342.9668">ack(o)</text><polygon fill="#FEFECE" filter="url(#f12d2rj4tk64op)" points="128,191.9063,193,191.9063,183,208.8906,193,225.875,128,225.875" style="stroke: #A80036; stroke-width: 1.5;"/><text fill="#000000" font-family="sans-serif" font-size="12" lengthAdjust="spacingAndGlyphs" textLength="35" x="138" y="213.0449">ack(i)</text><rect fill="#FEFECE" filter="url(#f12d2rj4tk64op)" height="47.9375" style="stroke: #A80036; stroke-width: 1.5;" width="111" x="100" y="245.875"/><line style="stroke: #A80036; stroke-width: 1.5;" x1="105" x2="105" y1="245.875" y2="293.8125"/><line style="stroke: #A80036; stroke-width: 1.5;" x1="206" x2="206" y1="245.875" y2="293.8125"/><text fill="#000000" font-family="sans-serif" font-size="12" lengthAdjust="spacingAndGlyphs" textLength="45" x="110" y="267.0137">next(o)</text><text fill="#000000" font-family="sans-serif" font-size="12" lengthAdjust="spacingAndGlyphs" textLength="91" x="110" y="280.9824">on several line</text><rect fill="#FEFECE" filter="url(#f12d2rj4tk64op)" height="33.9688" style="stroke: #A80036; stroke-width: 1.5;" width="74" x="118.5" y="328.8125"/><text fill="#000000" font-family="sans-serif" font-size="12" lengthAdjust="spacingAndGlyphs" textLength="54" x="128.5" y="349.9512">i := i + 1</text><polygon fill="#FEFECE" filter="url(#f12d2rj4tk64op)" points="125.5,382.7813,185.5,382.7813,195.5,399.7656,185.5,416.75,125.5,416.75" style="stroke: #A80036; stroke-width: 1.5;"/><text fill="#000000" font-family="sans-serif" font-size="12" lengthAdjust="spacingAndGlyphs" textLength="40" x="135.5" y="403.9199">ack(o)</text><polygon fill="#FEFECE" filter="url(#f12d2rj4tk64op)" points="244,252.8594,305,252.8594,295,269.8438,305,286.8281,244,286.8281" style="stroke: #A80036; stroke-width: 1.5;"/><text fill="#000000" font-family="sans-serif" font-size="12" lengthAdjust="spacingAndGlyphs" textLength="31" x="254" y="273.998">err(i)</text><polygon fill="#FEFECE" filter="url(#f12d2rj4tk64op)" points="239,321.8281,300,321.8281,310,338.8125,300,355.7969,239,355.7969" style="stroke: #A80036; stroke-width: 1.5;"/><text fill="#000000" font-family="sans-serif" font-size="12" lengthAdjust="spacingAndGlyphs" textLength="41" x="249" y="342.9668">nak(o)</text><polygon fill="#FEFECE" filter="url(#f12d2rj4tk64op)" points="330,287.3438,360,287.3438,350,321.3125,320,321.3125" style="stroke: #A80036; stroke-width: 1.5;"/><text fill="#000000" font-family="sans-serif" font-size="12" lengthAdjust="spacingAndGlyphs" textLength="20" x="330" y="308.4824">foo</text><path d="M375,258.8438 L370,275.8281 L375,292.8125 M414,258.8438 L419,275.8281 L414,292.8125 " fill="#FEFECE" filter="url(#f12d2rj4tk64op)" style="stroke: #A80036; stroke-width: 1.5;"/><text fill="#000000" font-family="sans-serif" font-size="12" lengthAdjust="spacingAndGlyphs" textLength="29" x="380" y="279.9824">i &gt; 5</text><ellipse cx="394.5" cy="338.8125" fill="#FFFFFF" filter="url(#f12d2rj4tk64op)" rx="11" ry="11" style="stroke: #000000; stroke-width: 1.0;"/><ellipse cx="394.5" cy="338.8125" fill="#000000" rx="6" ry="6" style="stroke: #7F7F7F; stroke-width: 1.0;"/><line style="stroke: #A80036; stroke-width: 1.5;" x1="50" x2="340" y1="436.75" y2="436.75"/><rect fill="#FEFECE" filter="url(#f12d2rj4tk64op)" height="33.9688" rx="12.5" ry="12.5" style="stroke: #A80036; stroke-width: 1.5;" width="53" x="202" y="456.75"/><text fill="#000000" font-family="sans-serif" font-size="12" lengthAdjust="spacingAndGlyphs" textLength="33" x="212" y="477.8887">finish</text><line style="stroke: #A80036; stroke-width: 1.5;" x1="228.5" x2="228.5" y1="43.9688" y2="63.9688"/><polygon fill="#A80036" points="224.5,53.9688,228.5,63.9688,232.5,53.9688,228.5,57.9688" style="stroke: #A80036; stroke-width: 1.0;"/><line style="stroke: #A80036; stroke-width: 1.5;" x1="228.5" x2="228.5" y1="97.9375" y2="117.9375"/><polygon fill="#A80036" points="224.5,107.9375,228.5,117.9375,232.5,107.9375,228.5,111.9375" style="stroke: #A80036; stroke-width: 1.0;"/><line style="stroke: #A80036; stroke-width: 1.5;" x1="50" x2="50" y1="286.8281" y2="321.8281"/><polygon fill="#A80036" points="46,311.8281,50,321.8281,54,311.8281,50,315.8281" style="stroke: #A80036; stroke-width: 1.0;"/><line style="stroke: #A80036; stroke-width: 1.5;" x1="155.5" x2="155.5" y1="225.875" y2="245.875"/><polygon fill="#A80036" points="151.5,235.875,155.5,245.875,159.5,235.875,155.5,239.875" style="stroke: #A80036; stroke-width: 1.0;"/><line style="stroke: #A80036; stroke-width: 1.5;" x1="155.5" x2="155.5" y1="293.8125" y2="328.8125"/><polygon fill="#A80036" points="151.5,318.8125,155.5,328.8125,159.5,318.8125,155.5,322.8125" style="stroke: #A80036; stroke-width: 1.0;"/><line style="stroke: #A80036; stroke-width: 1.5;" x1="155.5" x2="155.5" y1="362.7813" y2="382.7813"/><polygon fill="#A80036" points="151.5,372.7813,155.5,382.7813,159.5,372.7813,155.5,376.7813" style="stroke: #A80036; stroke-width: 1.0;"/><line style="stroke: #A80036; stroke-width: 1.5;" x1="269.5" x2="269.5" y1="286.8281" y2="321.8281"/><polygon fill="#A80036" points="265.5,311.8281,269.5,321.8281,273.5,311.8281,269.5,315.8281" style="stroke: #A80036; stroke-width: 1.0;"/><line style="stroke: #A80036; stroke-width: 1.5;" x1="394.5" x2="394.5" y1="292.8125" y2="327.8125"/><polygon fill="#A80036" points="390.5,317.8125,394.5,327.8125,398.5,317.8125,394.5,321.8125" style="stroke: #A80036; stroke-width: 1.0;"/><line style="stroke: #A80036; stroke-width: 1.5;" x1="50" x2="50" y1="173.4063" y2="252.8594"/><polygon fill="#A80036" points="46,242.8594,50,252.8594,54,242.8594,50,246.8594" style="stroke: #A80036; stroke-width: 1.0;"/><line style="stroke: #A80036; stroke-width: 1.5;" x1="155.5" x2="155.5" y1="173.4063" y2="191.9063"/><polygon fill="#A80036" points="151.5,181.9063,155.5,191.9063,159.5,181.9063,155.5,185.9063" style="stroke: #A80036; stroke-width: 1.0;"/><line style="stroke: #A80036; stroke-width: 1.5;" x1="269.5" x2="269.5" y1="173.4063" y2="252.8594"/><polygon fill="#A80036" points="265.5,242.8594,269.5,252.8594,273.5,242.8594,269.5,246.8594" style="stroke: #A80036; stroke-width: 1.0;"/><line style="stroke: #A80036; stroke-width: 1.5;" x1="340" x2="340" y1="173.4063" y2="287.3438"/><polygon fill="#A80036" points="336,277.3438,340,287.3438,344,277.3438,340,281.3438" style="stroke: #A80036; stroke-width: 1.0;"/><line style="stroke: #A80036; stroke-width: 1.5;" x1="394.5" x2="394.5" y1="173.4063" y2="258.8438"/><polygon fill="#A80036" points="390.5,248.8438,394.5,258.8438,398.5,248.8438,394.5,252.8438" style="stroke: #A80036; stroke-width: 1.0;"/><line style="stroke: #A80036; stroke-width: 1.5;" x1="50" x2="50" y1="355.7969" y2="436.75"/><polygon fill="#A80036" points="46,426.75,50,436.75,54,426.75,50,430.75" style="stroke: #A80036; stroke-width: 1.0;"/><line style="stroke: #A80036; stroke-width: 1.5;" x1="155.5" x2="155.5" y1="416.75" y2="436.75"/><polygon fill="#A80036" points="151.5,426.75,155.5,436.75,159.5,426.75,155.5,430.75" style="stroke: #A80036; stroke-width: 1.0;"/><line style="stroke: #A80036; stroke-width: 1.5;" x1="269.5" x2="269.5" y1="355.7969" y2="436.75"/><polygon fill="#A80036" points="265.5,426.75,269.5,436.75,273.5,426.75,269.5,430.75" style="stroke: #A80036; stroke-width: 1.0;"/><line style="stroke: #A80036; stroke-width: 1.5;" x1="340" x2="340" y1="321.3125" y2="436.75"/><polygon fill="#A80036" points="336,426.75,340,436.75,344,426.75,340,430.75" style="stroke: #A80036; stroke-width: 1.0;"/><line style="stroke: #A80036; stroke-width: 1.5;" x1="228.5" x2="228.5" y1="151.9063" y2="171.9063"/><polygon fill="#A80036" points="224.5,161.9063,228.5,171.9063,232.5,161.9063,228.5,165.9063" style="stroke: #A80036; stroke-width: 1.0;"/><line style="stroke: #A80036; stroke-width: 1.5;" x1="228.5" x2="228.5" y1="438.25" y2="456.75"/><polygon fill="#A80036" points="224.5,446.75,228.5,456.75,232.5,446.75,228.5,450.75" style="stroke: #A80036; stroke-width: 1.0;"/><!--
@startuml
:Ready;
:next(o)|
:Receiving;
split
 :nak(i)<
 :ack(o)>
split again
 :ack(i)<
 :next(o)
 on several line|
 :i := i + 1]
 :ack(o)>
split again
 :err(i)<
 :nak(o)>
split again
 :foo/
split again
 :i > 5}
stop
end split
:finish;
@enduml

PlantUML version 1.2019.05(Sat Apr 20 16:45:36 UTC 2019)
(GPL source distribution)
Java Runtime: OpenJDK Runtime Environment
JVM: OpenJDK 64-Bit Server VM
Java Version: 11.0.9+11-post-Debian-1deb10u1
Operating System: Linux
OS Version: 5.4.0-1047-azure
Default Encoding: UTF-8
Language: en
Country: null
--></g></svg>