<?xml version="1.0" encoding="UTF-8" standalone="no"?><svg xmlns="http://www.w3.org/2000/svg" xmlns:xlink="http://www.w3.org/1999/xlink" contentScriptType="application/ecmascript" contentStyleType="text/css" height="168px" preserveAspectRatio="none" style="width:521px;height:168px;" version="1.1" viewBox="0 0 521 168" width="521px" zoomAndPan="magnify"><defs/><g><line style="stroke: #000000; stroke-width: 1.7;" x1="10" x2="10" y1="10" y2="137.875"/><line style="stroke: #000000; stroke-width: 1.7;" x1="491" x2="491" y1="10" y2="137.875"/><line style="stroke: #AAAAAA; stroke-width: 0.5; stroke-dasharray: 3.0,5.0;" x1="86" x2="86" y1="10" y2="137.875"/><line style="stroke: #AAAAAA; stroke-width: 0.5; stroke-dasharray: 3.0,5.0;" x1="136" x2="136" y1="10" y2="137.875"/><line style="stroke: #AAAAAA; stroke-width: 0.5; stroke-dasharray: 3.0,5.0;" x1="186" x2="186" y1="10" y2="137.875"/><line style="stroke: #AAAAAA; stroke-width: 0.5; stroke-dasharray: 3.0,5.0;" x1="236" x2="236" y1="10" y2="137.875"/><line style="stroke: #AAAAAA; stroke-width: 0.5; stroke-dasharray: 3.0,5.0;" x1="286" x2="286" y1="10" y2="137.875"/><line style="stroke: #AAAAAA; stroke-width: 0.5; stroke-dasharray: 3.0,5.0;" x1="336" x2="336" y1="10" y2="137.875"/><line style="stroke: #AAAAAA; stroke-width: 0.5; stroke-dasharray: 3.0,5.0;" x1="386" x2="386" y1="10" y2="137.875"/><line style="stroke: #AAAAAA; stroke-width: 0.5; stroke-dasharray: 3.0,5.0;" x1="436" x2="436" y1="10" y2="137.875"/><line style="stroke: #AAAAAA; stroke-width: 0.5; stroke-dasharray: 3.0,5.0;" x1="486" x2="486" y1="10" y2="137.875"/><text fill="#000000" font-family="sans-serif" font-size="12" lengthAdjust="spacingAndGlyphs" textLength="14" x="15" y="21.1387">LR</text><line style="stroke: #000000; stroke-width: 1.0;" x1="10" x2="30" y1="24.9688" y2="24.9688"/><line style="stroke: #000000; stroke-width: 1.0;" x1="30" x2="40" y1="24.9688" y2="10"/><polygon fill="#98FB98" points="15,31.9375,74,31.9375,86,43.9375,74,55.9375,15,55.9375" style="stroke: #98FB98; stroke-width: 1.5;"/><path d="M15,31.9375 L74,31.9375 L86,43.9375 L74,55.9375 L15,55.9375 " fill="#98FB98" style="stroke: #038048; stroke-width: 1.5;"/><polygon fill="#D7E0F2" points="98,31.9375,174,31.9375,186,43.9375,174,55.9375,98,55.9375,86,43.9375" style="stroke: #038048; stroke-width: 1.5;"/><polygon fill="#FFC0CB" points="198,31.9375,424,31.9375,436,43.9375,424,55.9375,198,55.9375,186,43.9375" style="stroke: #038048; stroke-width: 1.5;"/><polygon fill="#D7E0F2" points="448,31.9375,486,31.9375,486,55.9375,448,55.9375,436,43.9375" style="stroke: #D7E0F2; stroke-width: 1.5;"/><path d="M486,31.9375 L448,31.9375 L436,43.9375 L448,55.9375 L486,55.9375 " fill="#D7E0F2" style="stroke: #038048; stroke-width: 1.5;"/><text fill="#000000" font-family="sans-serif" font-size="12" lengthAdjust="spacingAndGlyphs" textLength="47" x="27" y="48.0918">AtPlace</text><text fill="#000000" font-family="sans-serif" font-size="12" lengthAdjust="spacingAndGlyphs" textLength="55" x="108.5" y="48.0918">Lowering</text><text fill="#000000" font-family="sans-serif" font-size="12" lengthAdjust="spacingAndGlyphs" textLength="52" x="285" y="48.0918">Lowered</text><text fill="#000000" font-family="sans-serif" font-size="12" lengthAdjust="spacingAndGlyphs" textLength="61" x="448" y="48.0918">Releasing</text><line style="stroke: #000000; stroke-width: 1.7;" x1="10" x2="491" y1="10" y2="10"/><text fill="#000000" font-family="sans-serif" font-size="12" lengthAdjust="spacingAndGlyphs" textLength="15" x="15" y="85.0762">ST</text><line style="stroke: #000000; stroke-width: 1.0;" x1="10" x2="31" y1="88.9063" y2="88.9063"/><line style="stroke: #000000; stroke-width: 1.0;" x1="31" x2="41" y1="88.9063" y2="73.9375"/><polygon fill="#808080" points="19,95.875,274,95.875,286,107.875,274,119.875,19,119.875" style="stroke: #808080; stroke-width: 1.5;"/><path d="M19,95.875 L274,95.875 L286,107.875 L274,119.875 L19,119.875 " fill="#808080" style="stroke: #038048; stroke-width: 1.5;"/><polygon fill="#D7E0F2" points="298,95.875,486,95.875,486,119.875,298,119.875,286,107.875" style="stroke: #D7E0F2; stroke-width: 1.5;"/><path d="M486,95.875 L298,95.875 L286,107.875 L298,119.875 L486,119.875 " fill="#D7E0F2" style="stroke: #038048; stroke-width: 1.5;"/><text fill="#000000" font-family="sans-serif" font-size="12" lengthAdjust="spacingAndGlyphs" textLength="43" x="31" y="112.0293">AtLoad</text><text fill="#000000" font-family="sans-serif" font-size="12" lengthAdjust="spacingAndGlyphs" textLength="43" x="298" y="112.0293">Moving</text><line style="stroke: #000000; stroke-width: 1.7;" x1="10" x2="491" y1="73.9375" y2="73.9375"/><line style="stroke: #000000; stroke-width: 2.0;" x1="86" x2="86" y1="137.875" y2="142.875"/><line style="stroke: #000000; stroke-width: 2.0;" x1="136" x2="136" y1="137.875" y2="142.875"/><line style="stroke: #000000; stroke-width: 2.0;" x1="186" x2="186" y1="137.875" y2="142.875"/><line style="stroke: #000000; stroke-width: 2.0;" x1="236" x2="236" y1="137.875" y2="142.875"/><line style="stroke: #000000; stroke-width: 2.0;" x1="286" x2="286" y1="137.875" y2="142.875"/><line style="stroke: #000000; stroke-width: 2.0;" x1="336" x2="336" y1="137.875" y2="142.875"/><line style="stroke: #000000; stroke-width: 2.0;" x1="386" x2="386" y1="137.875" y2="142.875"/><line style="stroke: #000000; stroke-width: 2.0;" x1="436" x2="436" y1="137.875" y2="142.875"/><line style="stroke: #000000; stroke-width: 2.0;" x1="486" x2="486" y1="137.875" y2="142.875"/><line style="stroke: #000000; stroke-width: 2.0;" x1="86" x2="486" y1="137.875" y2="137.875"/><text fill="#000000" font-family="sans-serif" font-size="12" lengthAdjust="spacingAndGlyphs" textLength="8" x="82" y="155.0137">0</text><text fill="#000000" font-family="sans-serif" font-size="12" lengthAdjust="spacingAndGlyphs" textLength="24" x="174" y="155.0137">100</text><text fill="#000000" font-family="sans-serif" font-size="12" lengthAdjust="spacingAndGlyphs" textLength="24" x="274" y="155.0137">200</text><text fill="#000000" font-family="sans-serif" font-size="12" lengthAdjust="spacingAndGlyphs" textLength="24" x="424" y="155.0137">350</text><!--
@startuml
concise "LR" as LR
concise "ST" as ST

LR is AtPlace #palegreen
ST is AtLoad #gray

@LR
0 is Lowering
100 is Lowered #pink
350 is Releasing
 
@ST
200 is Moving
@enduml

PlantUML version 1.2019.05(Sat Apr 20 16:45:36 UTC 2019)
(GPL source distribution)
Java Runtime: OpenJDK Runtime Environment
JVM: OpenJDK 64-Bit Server VM
Java Version: 11.0.9+11-post-Debian-1deb10u1
Operating System: Linux
OS Version: 5.4.0-1047-azure
Default Encoding: UTF-8
Language: en
Country: null
--></g></svg>