<?xml version="1.0" encoding="UTF-8" standalone="no"?><svg xmlns="http://www.w3.org/2000/svg" xmlns:xlink="http://www.w3.org/1999/xlink" contentScriptType="application/ecmascript" contentStyleType="text/css" height="189px" preserveAspectRatio="none" style="width:184px;height:189px;" version="1.1" viewBox="0 0 184 189" width="184px" zoomAndPan="magnify"><defs><filter height="300%" id="fmrfos47plmcr" width="300%" x="-1" y="-1"><feGaussianBlur result="blurOut" stdDeviation="2.0"/><feColorMatrix in="blurOut" result="blurOut2" type="matrix" values="0 0 0 0 0 0 0 0 0 0 0 0 0 0 0 0 0 0 .4 0"/><feOffset dx="4.0" dy="4.0" in="blurOut2" result="blurOut3"/><feBlend in="SourceGraphic" in2="blurOut3" mode="normal"/></filter></defs><g><rect fill="#FEFECE" filter="url(#fmrfos47plmcr)" height="34.1328" rx="12.5" ry="12.5" style="stroke: #A80036; stroke-width: 1.5;" width="68" x="60.5" y="67.9102"/><text fill="#000000" font-family="sans-serif" font-size="12" lengthAdjust="spacingAndGlyphs" textLength="48" x="70.5" y="89.5117">read file</text><polygon fill="#FEFECE" filter="url(#fmrfos47plmcr)" points="55,11.7754,134,11.7754,146,23.7754,134,35.7754,55,35.7754,43,23.7754,55,11.7754" style="stroke: #A80036; stroke-width: 1.5;"/><text fill="#000000" font-family="sans-serif" font-size="11" lengthAdjust="spacingAndGlyphs" textLength="54" x="98.5" y="46.4102">not empty</text><text fill="#000000" font-family="sans-serif" font-size="11" lengthAdjust="spacingAndGlyphs" textLength="79" x="55" y="27.9326">check filesize ?</text><text fill="#000000" font-family="sans-serif" font-size="11" lengthAdjust="spacingAndGlyphs" textLength="33" x="10" y="21.4551">empty</text><rect fill="#FEFECE" filter="url(#fmrfos47plmcr)" height="34.1328" rx="12.5" ry="12.5" style="stroke: #A80036; stroke-width: 1.5;" width="70" x="59.5" y="144.043"/><text fill="#000000" font-family="sans-serif" font-size="12" lengthAdjust="spacingAndGlyphs" textLength="50" x="69.5" y="165.6445">close file</text><line style="stroke: #A80036; stroke-width: 1.5;" x1="94.5" x2="94.5" y1="35.7754" y2="67.9102"/><polygon fill="#A80036" points="90.5,57.9102,94.5,67.9102,98.5,57.9102,94.5,61.9102" style="stroke: #A80036; stroke-width: 1.0;"/><line style="stroke: #A80036; stroke-width: 1.5;" x1="94.5" x2="94.5" y1="102.043" y2="112.043"/><line style="stroke: #A80036; stroke-width: 1.5;" x1="94.5" x2="158" y1="112.043" y2="112.043"/><polygon fill="#A80036" points="154,76.499,158,66.499,162,76.499,158,72.499" style="stroke: #A80036; stroke-width: 1.5;"/><line style="stroke: #A80036; stroke-width: 1.5;" x1="158" x2="158" y1="23.7754" y2="112.043"/><line style="stroke: #A80036; stroke-width: 1.5;" x1="158" x2="146" y1="23.7754" y2="23.7754"/><polygon fill="#A80036" points="156,19.7754,146,23.7754,156,27.7754,152,23.7754" style="stroke: #A80036; stroke-width: 1.0;"/><line style="stroke: #A80036; stroke-width: 1.5;" x1="43" x2="31" y1="23.7754" y2="23.7754"/><polygon fill="#A80036" points="27,62.499,31,72.499,35,62.499,31,66.499" style="stroke: #A80036; stroke-width: 1.5;"/><line style="stroke: #A80036; stroke-width: 1.5;" x1="31" x2="31" y1="23.7754" y2="124.043"/><line style="stroke: #A80036; stroke-width: 1.5;" x1="31" x2="94.5" y1="124.043" y2="124.043"/><line style="stroke: #A80036; stroke-width: 1.5;" x1="94.5" x2="94.5" y1="124.043" y2="144.043"/><polygon fill="#A80036" points="90.5,134.043,94.5,144.043,98.5,134.043,94.5,138.043" style="stroke: #A80036; stroke-width: 1.0;"/><!--
@startuml
while (check filesize ?) is (not empty)
  :read file;
endwhile (empty)
:close file;
@enduml

PlantUML version 1.2019.05(Sun Apr 21 00:45:36 CST 2019)
(GPL source distribution)
Java Runtime: Java(TM) SE Runtime Environment
JVM: Java HotSpot(TM) 64-Bit Server VM
Java Version: 1.8.0_191-b12
Operating System: Mac OS X
OS Version: 10.16
Default Encoding: UTF-8
Language: en
Country: CN
--></g></svg>