<?xml version="1.0" encoding="UTF-8" standalone="no"?><svg xmlns="http://www.w3.org/2000/svg" xmlns:xlink="http://www.w3.org/1999/xlink" contentScriptType="application/ecmascript" contentStyleType="text/css" height="124px" preserveAspectRatio="none" style="width:122px;height:124px;" version="1.1" viewBox="0 0 122 124" width="122px" zoomAndPan="magnify"><defs><filter height="300%" id="f1xx7ydnjuoa75" width="300%" x="-1" y="-1"><feGaussianBlur result="blurOut" stdDeviation="2.0"/><feColorMatrix in="blurOut" result="blurOut2" type="matrix" values="0 0 0 0 0 0 0 0 0 0 0 0 0 0 0 0 0 0 .4 0"/><feOffset dx="4.0" dy="4.0" in="blurOut2" result="blurOut3"/><feBlend in="SourceGraphic" in2="blurOut3" mode="normal"/></filter></defs><g><!--cluster X1::X2--><polygon fill="#FFFFFF" filter="url(#f1xx7ydnjuoa75)" points="14,16,72,16,79,38.2969,100,38.2969,100,112,14,112,14,16" style="stroke: #000000; stroke-width: 1.5;"/><line style="stroke: #000000; stroke-width: 1.5;" x1="14" x2="79" y1="38.2969" y2="38.2969"/><text fill="#000000" font-family="sans-serif" font-size="14" font-weight="bold" lengthAdjust="spacingAndGlyphs" textLength="52" x="18" y="30.9951">X1::X2</text><!--class X1::X2::foo--><rect fill="#FEFECE" filter="url(#f1xx7ydnjuoa75)" height="60.8047" id="X1::X2::foo" style="stroke: #A80036; stroke-width: 1.5;" width="69" x="22.5" y="43"/><ellipse cx="45.15" cy="59" fill="#ADD1B2" rx="11" ry="11" style="stroke: #A80036; stroke-width: 1.0;"/><path d="M48.1188,64.6406 Q47.5406,64.9375 46.9,65.0781 Q46.2594,65.2344 45.5563,65.2344 Q43.0563,65.2344 41.7281,63.5938 Q40.4156,61.9375 40.4156,58.8125 Q40.4156,55.6875 41.7281,54.0313 Q43.0563,52.375 45.5563,52.375 Q46.2594,52.375 46.9,52.5313 Q47.5563,52.6875 48.1188,52.9844 L48.1188,55.7031 Q47.4938,55.125 46.9,54.8594 Q46.3063,54.5781 45.6813,54.5781 Q44.3375,54.5781 43.65,55.6563 Q42.9625,56.7188 42.9625,58.8125 Q42.9625,60.9063 43.65,61.9844 Q44.3375,63.0469 45.6813,63.0469 Q46.3063,63.0469 46.9,62.7813 Q47.4938,62.5 48.1188,61.9219 L48.1188,64.6406 Z "/><text fill="#000000" font-family="sans-serif" font-size="12" lengthAdjust="spacingAndGlyphs" textLength="20" x="60.85" y="63.1543">foo</text><line style="stroke: #A80036; stroke-width: 1.5;" x1="23.5" x2="90.5" y1="75" y2="75"/><text fill="#000000" font-family="sans-serif" font-size="11" lengthAdjust="spacingAndGlyphs" textLength="57" x="28.5" y="89.2104">some info</text><line style="stroke: #A80036; stroke-width: 1.5;" x1="23.5" x2="90.5" y1="95.8047" y2="95.8047"/><!--
@startuml

set namespaceSeparator ::
class X1::X2::foo {
  some info
}

@enduml

PlantUML version 1.2019.05(Sat Apr 20 16:45:36 UTC 2019)
(GPL source distribution)
Java Runtime: OpenJDK Runtime Environment
JVM: OpenJDK 64-Bit Server VM
Java Version: 11.0.9+11-post-Debian-1deb10u1
Operating System: Linux
OS Version: 5.4.0-1047-azure
Default Encoding: UTF-8
Language: en
Country: null
--></g></svg>