<?xml version="1.0" encoding="UTF-8" standalone="no"?><svg xmlns="http://www.w3.org/2000/svg" xmlns:xlink="http://www.w3.org/1999/xlink" contentScriptType="application/ecmascript" contentStyleType="text/css" height="376px" preserveAspectRatio="none" style="width:404px;height:376px;background:#EEEBDC;" version="1.1" viewBox="0 0 404 376" width="404px" zoomAndPan="magnify"><defs><filter height="300%" id="fvihy1l1vghv0" width="300%" x="-1" y="-1"><feGaussianBlur result="blurOut" stdDeviation="2.0"/><feColorMatrix in="blurOut" result="blurOut2" type="matrix" values="0 0 0 0 0 0 0 0 0 0 0 0 0 0 0 0 0 0 .4 0"/><feOffset dx="4.0" dy="4.0" in="blurOut2" result="blurOut3"/><feBlend in="SourceGraphic" in2="blurOut3" mode="normal"/></filter></defs><g><polygon fill="#A9DCDF" filter="url(#fvihy1l1vghv0)" points="101.5,121.332,101.5,121.4021,103.5,121.1939,105.5,121.3965,107.5,121.4653,109.5,121.0942,111.5,121.332,111.4223,121.332,111.0735,131.1022,111.1165,140.8724,111.4318,150.6426,110.8086,160.4128,112.0536,170.1829,110.8697,179.9531,111.3022,189.7233,111.9319,199.4935,111.4142,209.2637,111.5682,219.0339,111.4681,228.804,111.6785,238.5742,111.7391,248.3444,112.0857,258.1146,111.5,267.8848,111.5,268.1085,109.5,268.1112,107.5,267.9696,105.5,268.0393,103.5,268.1188,101.5,267.8848,100.7788,267.8848,102.1785,258.1146,101.2035,248.3444,102.0338,238.5742,101.005,228.804,101.4315,219.0339,102.2416,209.2637,101.4513,199.4935,101.6053,189.7233,101.8386,179.9531,101.9162,170.1829,101.4961,160.4128,101.7872,150.6426,100.9276,140.8724,101.7844,131.1022,101.5,121.332" style="stroke: #0000FF; stroke-width: 1.0;"/><polygon fill="#A9DCDF" filter="url(#fvihy1l1vghv0)" points="237.5,150.6426,237.5,150.7126,239.5,150.5045,241.5,150.707,243.5,150.7758,245.5,150.4048,247.5,150.6426,247.4223,150.6426,247.0735,160.4128,247.1165,170.1829,247.4318,179.9531,246.8086,189.7233,248.0536,199.4935,246.8697,209.2637,247.3022,219.0339,247.9319,228.804,247.5,238.5742,247.5,238.5456,245.5,238.597,243.5,238.5636,241.5,238.6337,239.5,238.6539,237.5,238.5742,238.0857,238.5742,238.1711,228.804,238.1793,219.0339,237.7546,209.2637,237.9636,199.4935,238.2022,189.7233,236.7788,179.9531,238.1785,170.1829,237.2035,160.4128,237.5,150.6426" style="stroke: #0000FF; stroke-width: 1.0;"/><polygon fill="#A9DCDF" filter="url(#fvihy1l1vghv0)" points="348,179.9531,348,180.0232,350,179.815,352,180.0176,354,180.0864,356,179.7153,358,179.9531,357.9741,179.9531,357.8578,185.8152,357.8722,191.6773,357.9773,197.5395,357.7695,203.4016,358,209.2637,358,209.4482,356,209.0536,354,209.1977,352,209.4077,350,209.2351,348,209.2637,348.0227,209.2637,347.9894,203.4016,348.0595,197.5395,348.0797,191.6773,348.1952,185.8152,348,179.9531" style="stroke: #0000FF; stroke-width: 1.0;"/><path d="M29,90.0215 L29.2802,90.0215 L28.4476,99.8146 L29.2577,109.6078 L29.5329,119.401 L28.0488,129.1941 L28.8964,138.9873 L28.4313,148.7805 L28.4887,158.5736 L28.9091,168.3668 L28.0782,178.16 L29.7382,187.9531 L28.1596,197.7463 L28.7363,207.5395 L29.5759,217.3326 L28.8856,227.1258 L29.091,236.9189 L28.9574,246.7121 L29.238,256.5053 L29.3188,266.2984 L29.7809,276.0916 L29,285.8848 " fill="none" style="stroke: #0000FF; stroke-width: 1.0; stroke-dasharray: 5.0,5.0;"/><path d="M106,90.0215 L106.2802,90.0215 L105.4476,99.8146 L106.2577,109.6078 L106.5329,119.401 L105.0488,129.1941 L105.8964,138.9873 L105.4313,148.7805 L105.4887,158.5736 L105.9091,168.3668 L105.0782,178.16 L106.7382,187.9531 L105.1596,197.7463 L105.7363,207.5395 L106.5759,217.3326 L105.8856,227.1258 L106.091,236.9189 L105.9574,246.7121 L106.238,256.5053 L106.3188,266.2984 L106.7809,276.0916 L106,285.8848 " fill="none" style="stroke: #0000FF; stroke-width: 1.0; stroke-dasharray: 5.0,5.0;"/><path d="M242,90.0215 L242.2802,90.0215 L241.4476,99.8146 L242.2577,109.6078 L242.5329,119.401 L241.0488,129.1941 L241.8964,138.9873 L241.4313,148.7805 L241.4887,158.5736 L241.9091,168.3668 L241.0782,178.16 L242.7382,187.9531 L241.1596,197.7463 L241.7363,207.5395 L242.5759,217.3326 L241.8856,227.1258 L242.091,236.9189 L241.9574,246.7121 L242.238,256.5053 L242.3188,266.2984 L242.7809,276.0916 L242,285.8848 " fill="none" style="stroke: #0000FF; stroke-width: 1.0; stroke-dasharray: 5.0,5.0;"/><path d="M353,90.0215 L353.2802,90.0215 L352.4476,99.8146 L353.2577,109.6078 L353.5329,119.401 L352.0488,129.1941 L352.8964,138.9873 L352.4313,148.7805 L352.4887,158.5736 L352.9091,168.3668 L352.0782,178.16 L353.7382,187.9531 L352.1596,197.7463 L352.7363,207.5395 L353.5759,217.3326 L352.8856,227.1258 L353.091,236.9189 L352.9574,246.7121 L353.238,256.5053 L353.3188,266.2984 L353.7809,276.0916 L353,285.8848 " fill="none" style="stroke: #0000FF; stroke-width: 1.0; stroke-dasharray: 5.0,5.0;"/><text fill="#00BFFF" font-family="Aapex" font-size="17" lengthAdjust="spacingAndGlyphs" textLength="37" x="8" y="86.4355">User</text><polygon fill="#00FFFF" filter="url(#fvihy1l1vghv0)" points="37.5442,14.9459,36.3715,16.5482,34.9845,18.8951,33.0008,20.4767,30.9163,21.3415,29.2542,21.4166,27.118,20.3349,25.1023,19.6283,23.5724,18.1936,22.7699,16.5511,22.2939,15.2433,21.8277,13.5351,21.0709,12.0651,21.6525,10.6298,22.162,9.0576,24.074,7.8142,25.4192,6.2008,27.0843,5.665,29.0637,5.2037,31.6021,5.4778,32.9924,6.1335,34.6089,6.4307,36.5743,8.4443,37.2595,10.5701,37.5571,12.0206,37.22,14.4108" style="stroke: #00BFFF; stroke-width: 2.0;"/><path d="M29.5,21 L29.6868,21 L29.1317,26.4 L29.6718,31.8 L29.8553,37.2 L28.8659,42.6 L29.5,48 M16.5,29 L16.5,28.9309 L21.7,28.6209 L26.9,28.6591 L32.1,28.9394 L37.3,28.3854 L42.5,29 M29.5,48 L29.8719,48.3223 L26.4766,50.6331 L24.1672,53.8849 L21.9901,57.2515 L19.0424,59.9501 L16.5,63 M29.5,48 L29.5458,48.0397 L32.0785,50.9814 L34.8199,54.1039 L37.4606,57.1392 L40.2934,60.341 L42.5,63 " fill="none" filter="url(#fvihy1l1vghv0)" style="stroke: #00BFFF; stroke-width: 2.0;"/><text fill="#00BFFF" font-family="Aapex" font-size="17" lengthAdjust="spacingAndGlyphs" textLength="37" x="8" y="301.3203">User</text><polygon fill="#00FFFF" filter="url(#fvihy1l1vghv0)" points="37.5442,316.8522,36.3715,318.4545,34.9845,320.8013,33.0008,322.3829,30.9163,323.2478,29.2542,323.3228,27.118,322.2412,25.1023,321.5346,23.5724,320.0998,22.7699,318.4574,22.2939,317.1495,21.8277,315.4413,21.0709,313.9713,21.6525,312.5361,22.162,310.9639,24.074,309.7204,25.4192,308.107,27.0843,307.5713,29.0637,307.1099,31.6021,307.384,32.9924,308.0397,34.6089,308.3369,36.5743,310.3506,37.2595,312.4764,37.5571,313.9269,37.22,316.3171" style="stroke: #00BFFF; stroke-width: 2.0;"/><path d="M29.5,322.9063 L29.6868,322.9063 L29.1317,328.3063 L29.6718,333.7063 L29.8553,339.1063 L28.8659,344.5063 L29.5,349.9063 M16.5,330.9063 L16.5,330.8372 L21.7,330.5271 L26.9,330.5654 L32.1,330.8457 L37.3,330.2917 L42.5,330.9063 M29.5,349.9063 L29.8719,350.2286 L26.4766,352.5393 L24.1672,355.7911 L21.9901,359.1577 L19.0424,361.8563 L16.5,364.9063 M29.5,349.9063 L29.5458,349.946 L32.0785,352.8877 L34.8199,356.0102 L37.4606,359.0455 L40.2934,362.2472 L42.5,364.9063 " fill="none" filter="url(#fvihy1l1vghv0)" style="stroke: #00BFFF; stroke-width: 2.0;"/><polygon fill="#1E90FF" filter="url(#fvihy1l1vghv0)" points="61,50.2861,61,50.4963,70.6667,49.8718,80.3333,50.4794,90,50.6858,99.6667,49.5727,109.3333,50.2084,119,49.8596,128.6667,49.9026,138.3333,50.218,148,50.2861,147.7695,50.2861,148.1845,57.2332,147.7899,64.1803,147.9341,71.1273,148.144,78.0744,148,85.0215,148,84.9357,138.3333,85.0897,128.6667,84.9895,119,85.2,109.3333,85.2606,99.6667,85.6072,90,85.6925,80.3333,85.7007,70.6667,85.2761,61,85.0215,61.1545,85.0215,61.2341,78.0744,60.7596,71.1273,61.2262,64.1803,60.9012,57.2332,61,50.2861" style="stroke: #00BFFF; stroke-width: 1.5;"/><text fill="#A9DCDF" font-family="Impact" font-size="17" lengthAdjust="spacingAndGlyphs" textLength="73" x="68" y="74.4355">First Class</text><polygon fill="#1E90FF" filter="url(#fvihy1l1vghv0)" points="61,284.8848,61,285.0949,70.6667,284.4704,80.3333,285.0781,90,285.2844,99.6667,284.1714,109.3333,284.8071,119,284.4583,128.6667,284.5013,138.3333,284.8166,148,284.8848,147.7695,284.8848,148.1845,291.8318,147.7899,298.7789,147.9341,305.726,148.144,312.673,148,319.6201,148,319.5343,138.3333,319.6884,128.6667,319.5882,119,319.7986,109.3333,319.8593,99.6667,320.2058,90,320.2912,80.3333,320.2994,70.6667,319.8747,61,319.6201,61.1545,319.6201,61.2341,312.673,60.7596,305.726,61.2262,298.7789,60.9012,291.8318,61,284.8848" style="stroke: #00BFFF; stroke-width: 1.5;"/><text fill="#A9DCDF" font-family="Impact" font-size="17" lengthAdjust="spacingAndGlyphs" textLength="73" x="68" y="309.0342">First Class</text><polygon fill="#1E90FF" filter="url(#fvihy1l1vghv0)" points="186,50.2861,186,50.4963,195.9091,49.8718,205.8182,50.4794,215.7273,50.6858,225.6364,49.5727,235.5455,50.2084,245.4545,49.8596,255.3636,49.9026,265.2727,50.218,275.1818,49.5948,285.0909,50.8398,295,50.2861,294.7899,50.2861,294.9341,57.2332,295.144,64.1803,294.9714,71.1273,295.0227,78.0744,295,85.0215,295,84.9895,285.0909,85.2,275.1818,85.2606,265.2727,85.6072,255.3636,85.6925,245.4545,85.7007,235.5455,85.2761,225.6364,85.4851,215.7273,85.7237,205.8182,84.3003,195.9091,85.7,186,85.0215,185.9012,85.0215,186.1779,78.0744,185.835,71.1273,185.9772,64.1803,186.2472,57.2332,186,50.2861" style="stroke: #00BFFF; stroke-width: 1.5;"/><text fill="#A9DCDF" font-family="Impact" font-size="17" lengthAdjust="spacingAndGlyphs" textLength="95" x="193" y="74.4355">Second Class</text><polygon fill="#1E90FF" filter="url(#fvihy1l1vghv0)" points="186,284.8848,186,285.0949,195.9091,284.4704,205.8182,285.0781,215.7273,285.2844,225.6364,284.1714,235.5455,284.8071,245.4545,284.4583,255.3636,284.5013,265.2727,284.8166,275.1818,284.1934,285.0909,285.4384,295,284.8848,294.7899,284.8848,294.9341,291.8318,295.144,298.7789,294.9714,305.726,295.0227,312.673,295,319.6201,295,319.5882,285.0909,319.7986,275.1818,319.8593,265.2727,320.2058,255.3636,320.2912,245.4545,320.2994,235.5455,319.8747,225.6364,320.0837,215.7273,320.3223,205.8182,318.8989,195.9091,320.2986,186,319.6201,185.9012,319.6201,186.1779,312.673,185.835,305.726,185.9772,298.7789,186.2472,291.8318,186,284.8848" style="stroke: #00BFFF; stroke-width: 1.5;"/><text fill="#A9DCDF" font-family="Impact" font-size="17" lengthAdjust="spacingAndGlyphs" textLength="95" x="193" y="309.0342">Second Class</text><polygon fill="#1E90FF" filter="url(#fvihy1l1vghv0)" points="309,50.2861,309,50.4963,319.5,49.8718,330,50.4794,340.5,50.6858,351,49.5727,361.5,50.2084,372,49.8596,382.5,49.9026,393,50.2861,392.9773,50.2861,392.7695,57.2332,393.1845,64.1803,392.7899,71.1273,392.9341,78.0744,393,85.0215,393,85.4534,382.5,84.9357,372,85.0897,361.5,84.9895,351,85.2,340.5,85.2606,330,85.6072,319.5,85.6925,309,85.0215,309.2264,85.0215,309.0849,78.0744,309.1545,71.1273,309.2341,64.1803,308.7596,57.2332,309,50.2861" style="stroke: #00BFFF; stroke-width: 1.5;"/><text fill="#A9DCDF" font-family="Impact" font-size="17" lengthAdjust="spacingAndGlyphs" textLength="70" x="316" y="74.4355">Last Class</text><polygon fill="#1E90FF" filter="url(#fvihy1l1vghv0)" points="309,284.8848,309,285.0949,319.5,284.4704,330,285.0781,340.5,285.2844,351,284.1714,361.5,284.8071,372,284.4583,382.5,284.5013,393,284.8848,392.9773,284.8848,392.7695,291.8318,393.1845,298.7789,392.7899,305.726,392.9341,312.673,393,319.6201,393,320.0521,382.5,319.5343,372,319.6884,361.5,319.5882,351,319.7986,340.5,319.8593,330,320.2058,319.5,320.2912,309,319.6201,309.2264,319.6201,309.0849,312.673,309.1545,305.726,309.2341,298.7789,308.7596,291.8318,309,284.8848" style="stroke: #00BFFF; stroke-width: 1.5;"/><text fill="#A9DCDF" font-family="Impact" font-size="17" lengthAdjust="spacingAndGlyphs" textLength="70" x="316" y="309.0342">Last Class</text><polygon fill="#A9DCDF" filter="url(#fvihy1l1vghv0)" points="101.5,121.332,101.5,121.4021,103.5,121.1939,105.5,121.3965,107.5,121.4653,109.5,121.0942,111.5,121.332,111.4223,121.332,111.0735,131.1022,111.1165,140.8724,111.4318,150.6426,110.8086,160.4128,112.0536,170.1829,110.8697,179.9531,111.3022,189.7233,111.9319,199.4935,111.4142,209.2637,111.5682,219.0339,111.4681,228.804,111.6785,238.5742,111.7391,248.3444,112.0857,258.1146,111.5,267.8848,111.5,268.1085,109.5,268.1112,107.5,267.9696,105.5,268.0393,103.5,268.1188,101.5,267.8848,100.7788,267.8848,102.1785,258.1146,101.2035,248.3444,102.0338,238.5742,101.005,228.804,101.4315,219.0339,102.2416,209.2637,101.4513,199.4935,101.6053,189.7233,101.8386,179.9531,101.9162,170.1829,101.4961,160.4128,101.7872,150.6426,100.9276,140.8724,101.7844,131.1022,101.5,121.332" style="stroke: #0000FF; stroke-width: 1.0;"/><polygon fill="#A9DCDF" filter="url(#fvihy1l1vghv0)" points="237.5,150.6426,237.5,150.7126,239.5,150.5045,241.5,150.707,243.5,150.7758,245.5,150.4048,247.5,150.6426,247.4223,150.6426,247.0735,160.4128,247.1165,170.1829,247.4318,179.9531,246.8086,189.7233,248.0536,199.4935,246.8697,209.2637,247.3022,219.0339,247.9319,228.804,247.5,238.5742,247.5,238.5456,245.5,238.597,243.5,238.5636,241.5,238.6337,239.5,238.6539,237.5,238.5742,238.0857,238.5742,238.1711,228.804,238.1793,219.0339,237.7546,209.2637,237.9636,199.4935,238.2022,189.7233,236.7788,179.9531,238.1785,170.1829,237.2035,160.4128,237.5,150.6426" style="stroke: #0000FF; stroke-width: 1.0;"/><polygon fill="#A9DCDF" filter="url(#fvihy1l1vghv0)" points="348,179.9531,348,180.0232,350,179.815,352,180.0176,354,180.0864,356,179.7153,358,179.9531,357.9741,179.9531,357.8578,185.8152,357.8722,191.6773,357.9773,197.5395,357.7695,203.4016,358,209.2637,358,209.4482,356,209.0536,354,209.1977,352,209.4077,350,209.2351,348,209.2637,348.0227,209.2637,347.9894,203.4016,348.0595,197.5395,348.0797,191.6773,348.1952,185.8152,348,179.9531" style="stroke: #0000FF; stroke-width: 1.0;"/><polygon fill="#00BFFF" points="89.5,117.332,89.526,117.3971,91.4487,118.0038,93.5239,118.9919,95.5495,119.8557,97.4117,120.3112,99.5,121.332,99.4904,121.308,97.4472,122,95.4525,122.8133,93.4916,123.7109,91.4144,124.3181,89.5,125.332,89.6305,125.4625,90.1514,124.3835,91.0534,123.6854,92.0018,123.0338,92.6798,122.1118,93.5,121.332,93.5161,121.3481,92.6925,120.5245,91.9421,119.7741,91.1564,118.9884,90.438,118.2701,89.5,117.332" style="stroke: #00BFFF; stroke-width: 1.0;"/><path d="M29.5,121.332 L29.5,121.6123 L38.9286,120.7796 L48.3571,121.5897 L57.7857,121.8649 L67.2143,120.3808 L76.6429,121.2284 L86.0714,120.7634 L95.5,121.332 " fill="none" style="stroke: #00BFFF; stroke-width: 1.0;"/><text fill="#000000" font-family="sans-serif" font-size="13" lengthAdjust="spacingAndGlyphs" textLength="50" x="36.5" y="116.5898">DoWork</text><polygon fill="#00BFFF" points="225.5,146.6426,225.526,146.7076,227.4487,147.3143,229.5239,148.3024,231.5495,149.1663,233.4117,149.6218,235.5,150.6426,235.4904,150.6185,233.4472,151.3106,231.4525,152.1239,229.4916,153.0215,227.4144,153.6286,225.5,154.6426,225.6305,154.7731,226.1514,153.694,227.0534,152.996,228.0018,152.3444,228.6798,151.4224,229.5,150.6426,229.5161,150.6587,228.6925,149.835,227.9421,149.0847,227.1564,148.2989,226.438,147.5806,225.5,146.6426" style="stroke: #00BFFF; stroke-width: 1.0;"/><path d="M111.5,150.6426 L111.5,150.9228 L121.5,150.0902 L131.5,150.9003 L141.5,151.1755 L151.5,149.6914 L161.5,150.539 L171.5,150.0739 L181.5,150.1312 L191.5,150.5517 L201.5,149.7208 L211.5,151.3808 L221.5,149.8022 L231.5,150.6426 " fill="none" style="stroke: #00BFFF; stroke-width: 1.0;"/><text fill="#000000" font-family="sans-serif" font-size="13" lengthAdjust="spacingAndGlyphs" textLength="94" x="118.5" y="145.9004">Create Request</text><polygon fill="#00BFFF" points="336,175.9531,336.026,176.0182,337.9487,176.6249,340.0239,177.6129,342.0495,178.4768,343.9117,178.9323,346,179.9531,345.9904,179.9291,343.9472,180.6211,341.9525,181.4344,339.9916,182.332,337.9144,182.9392,336,183.9531,336.1305,184.0836,336.6514,183.0046,337.5534,182.3065,338.5018,181.6549,339.1798,180.7329,340,179.9531,340.0161,179.9692,339.1925,179.1456,338.4421,178.3952,337.6564,177.6095,336.938,176.8912,336,175.9531" style="stroke: #00BFFF; stroke-width: 1.0;"/><path d="M247.5,179.9531 L247.5,180.2334 L258,179.4007 L268.5,180.2108 L279,180.486 L289.5,179.0019 L300,179.8495 L310.5,179.3845 L321,179.4418 L331.5,179.8622 L342,179.9531 " fill="none" style="stroke: #00BFFF; stroke-width: 1.0;"/><text fill="#000000" font-family="sans-serif" font-size="13" lengthAdjust="spacingAndGlyphs" textLength="50" x="254.5" y="175.2109">DoWork</text><polygon fill="#00BFFF" points="258.5,205.2637,258.526,205.3287,256.4487,205.9354,254.5239,206.9235,252.5495,207.7874,250.4117,208.2429,248.5,209.2637,248.4904,209.2396,250.4472,209.9317,252.4525,210.745,254.4916,211.6426,256.4144,212.2497,258.5,213.2637,258.6305,213.3942,257.5514,212.3151,256.8534,211.6171,256.2018,210.9655,255.2798,210.0435,254.5,209.2637,254.5161,209.2798,255.2925,208.4561,256.1421,207.7058,256.9564,206.92,257.838,206.2017,258.5,205.2637" style="stroke: #00BFFF; stroke-width: 1.0;"/><path d="M252.5,209.2637 L252.5,209.5439 L262.45,208.7112 L272.4,209.5214 L282.35,209.7966 L292.3,208.3125 L302.25,209.1601 L312.2,208.695 L322.15,208.7523 L332.1,209.1728 L342.05,208.3418 L352,209.2637 " fill="none" style="stroke: #00BFFF; stroke-width: 1.0; stroke-dasharray: 2.0,2.0;"/><text fill="#000000" font-family="sans-serif" font-size="13" lengthAdjust="spacingAndGlyphs" textLength="65" x="264.5" y="204.5215">WorkDone</text><path d="M344,200.2637 L344.0661,200.3297 L347.4698,203.7335 L351.2607,207.5244 L354.9256,211.1893 L358.1758,214.4395 L362,218.2637 " fill="none" style="stroke: #0000FF; stroke-width: 2.0;"/><path d="M344,218.2637 L344.0661,218.3297 L347.4698,214.5335 L351.2607,211.1244 L354.9256,207.5893 L358.1758,203.6395 L362,200.2637 " fill="none" style="stroke: #0000FF; stroke-width: 2.0;"/><polygon fill="#00BFFF" points="122.5,234.5742,122.526,234.6393,120.4487,235.246,118.5239,236.234,116.5495,237.0979,114.4117,237.5534,112.5,238.5742,112.4904,238.5502,114.4472,239.2422,116.4525,240.0555,118.4916,240.9531,120.4144,241.5602,122.5,242.5742,122.6305,242.7047,121.5514,241.6257,120.8534,240.9276,120.2018,240.276,119.2798,239.354,118.5,238.5742,118.5161,238.5903,119.2925,237.7667,120.1421,237.0163,120.9564,236.2306,121.838,235.5123,122.5,234.5742" style="stroke: #00BFFF; stroke-width: 1.0;"/><path d="M116.5,238.5742 L116.5,238.8545 L126.1154,238.0218 L135.7308,238.8319 L145.3462,239.1071 L154.9615,237.623 L164.5769,238.4706 L174.1923,238.0056 L183.8077,238.0629 L193.4231,238.4833 L203.0385,237.6524 L212.6538,239.3124 L222.2692,237.7338 L231.8846,238.3105 L241.5,238.5742 " fill="none" style="stroke: #00BFFF; stroke-width: 1.0; stroke-dasharray: 2.0,2.0;"/><text fill="#000000" font-family="sans-serif" font-size="13" lengthAdjust="spacingAndGlyphs" textLength="102" x="128.5" y="233.832">Request Created</text><polygon fill="#00BFFF" points="40.5,263.8848,40.526,263.9498,38.4487,264.5565,36.5239,265.5446,34.5495,266.4085,32.4117,266.864,30.5,267.8848,30.4904,267.8607,32.4472,268.5528,34.4525,269.3661,36.4916,270.2637,38.4144,270.8708,40.5,271.8848,40.6305,272.0153,39.5514,270.9362,38.8534,270.2382,38.2018,269.5866,37.2798,268.6645,36.5,267.8848,36.5161,267.9008,37.2925,267.0772,38.1421,266.3268,38.9564,265.5411,39.838,264.8228,40.5,263.8848" style="stroke: #00BFFF; stroke-width: 1.0;"/><path d="M34.5,267.8848 L34.5,268.165 L44.6429,267.3323 L54.7857,268.1425 L64.9286,268.4177 L75.0714,266.9336 L85.2143,267.7811 L95.3571,267.3161 L105.5,267.8848 " fill="none" style="stroke: #00BFFF; stroke-width: 1.0; stroke-dasharray: 2.0,2.0;"/><text fill="#000000" font-family="sans-serif" font-size="13" lengthAdjust="spacingAndGlyphs" textLength="33" x="46.5" y="263.1426">Done</text><!--
@startuml
skinparam backgroundColor #EEEBDC
skinparam handwritten true

skinparam sequence {
ArrowColor DeepSkyBlue
ActorBorderColor DeepSkyBlue
LifeLineBorderColor blue
LifeLineBackgroundColor #A9DCDF

ParticipantBorderColor DeepSkyBlue
ParticipantBackgroundColor DodgerBlue
ParticipantFontName Impact
ParticipantFontSize 17
ParticipantFontColor #A9DCDF

ActorBackgroundColor aqua
ActorFontColor DeepSkyBlue
ActorFontSize 17
ActorFontName Aapex
}

actor User
participant "First Class" as A
participant "Second Class" as B
participant "Last Class" as C

User -> A: DoWork
activate A

A -> B: Create Request
activate B

B -> C: DoWork
activate C
C - -> B: WorkDone
destroy C

B - -> A: Request Created
deactivate B

A - -> User: Done
deactivate A

@enduml

PlantUML version 1.2019.05(Sun Apr 21 00:45:36 CST 2019)
(GPL source distribution)
Java Runtime: Java(TM) SE Runtime Environment
JVM: Java HotSpot(TM) 64-Bit Server VM
Java Version: 1.8.0_191-b12
Operating System: Mac OS X
OS Version: 10.16
Default Encoding: UTF-8
Language: en
Country: CN
--></g></svg>