<?xml version="1.0" encoding="UTF-8" standalone="no"?><svg xmlns="http://www.w3.org/2000/svg" xmlns:xlink="http://www.w3.org/1999/xlink" contentScriptType="application/ecmascript" contentStyleType="text/css" height="175px" preserveAspectRatio="none" style="width:202px;height:175px;" version="1.1" viewBox="0 0 202 175" width="202px" zoomAndPan="magnify"><defs><filter height="300%" id="f56a0lg5gogsv" width="300%" x="-1" y="-1"><feGaussianBlur result="blurOut" stdDeviation="2.0"/><feColorMatrix in="blurOut" result="blurOut2" type="matrix" values="0 0 0 0 0 0 0 0 0 0 0 0 0 0 0 0 0 0 .4 0"/><feOffset dx="4.0" dy="4.0" in="blurOut2" result="blurOut3"/><feBlend in="SourceGraphic" in2="blurOut3" mode="normal"/></filter></defs><g><!--class ArrayList--><rect fill="#FEFECE" filter="url(#f56a0lg5gogsv)" height="48" id="ArrayList" style="stroke: #A80036; stroke-width: 1.5;" width="82" x="45.5" y="116"/><ellipse cx="60.5" cy="132" fill="#ADD1B2" rx="11" ry="11" style="stroke: #A80036; stroke-width: 1.0;"/><path d="M62.9731,138.1431 Q62.3921,138.4419 61.7529,138.5913 Q61.1138,138.7407 60.4082,138.7407 Q57.9014,138.7407 56.5815,137.0889 Q55.2617,135.437 55.2617,132.3159 Q55.2617,129.1865 56.5815,127.5347 Q57.9014,125.8828 60.4082,125.8828 Q61.1138,125.8828 61.7612,126.0322 Q62.4087,126.1816 62.9731,126.4805 L62.9731,129.2031 Q62.3423,128.6221 61.7488,128.3523 Q61.1553,128.0825 60.5244,128.0825 Q59.1797,128.0825 58.4949,129.1492 Q57.8101,130.2158 57.8101,132.3159 Q57.8101,134.4077 58.4949,135.4744 Q59.1797,136.541 60.5244,136.541 Q61.1553,136.541 61.7488,136.2712 Q62.3423,136.0015 62.9731,135.4204 Z "/><text fill="#000000" font-family="sans-serif" font-size="12" lengthAdjust="spacingAndGlyphs" textLength="50" x="74.5" y="136.5352">ArrayList</text><line style="stroke: #A80036; stroke-width: 1.5;" x1="46.5" x2="126.5" y1="148" y2="148"/><line style="stroke: #A80036; stroke-width: 1.5;" x1="46.5" x2="126.5" y1="156" y2="156"/><!--class List--><rect fill="#FEFECE" filter="url(#f56a0lg5gogsv)" height="48" id="List" style="stroke: #A80036; stroke-width: 1.5;" width="51" x="6" y="8"/><ellipse cx="21" cy="24" fill="#B4A7E5" rx="11" ry="11" style="stroke: #A80036; stroke-width: 1.0;"/><path d="M17.4277,20.2651 L17.4277,18.1069 L24.8071,18.1069 L24.8071,20.2651 L22.3418,20.2651 L22.3418,28.3418 L24.8071,28.3418 L24.8071,30.5 L17.4277,30.5 L17.4277,28.3418 L19.8931,28.3418 L19.8931,20.2651 Z "/><text fill="#000000" font-family="sans-serif" font-size="12" font-style="italic" lengthAdjust="spacingAndGlyphs" textLength="19" x="35" y="28.5352">List</text><line style="stroke: #A80036; stroke-width: 1.5;" x1="7" x2="56" y1="40" y2="40"/><line style="stroke: #A80036; stroke-width: 1.5;" x1="7" x2="56" y1="48" y2="48"/><!--class AbstractList--><rect fill="#FEFECE" filter="url(#f56a0lg5gogsv)" height="48" id="AbstractList" style="stroke: #A80036; stroke-width: 1.5;" width="99" x="92" y="8"/><ellipse cx="107" cy="24" fill="#ADD1B2" rx="11" ry="11" style="stroke: #A80036; stroke-width: 1.0;"/><path d="M109.4731,30.1431 Q108.8921,30.4419 108.2529,30.5913 Q107.6138,30.7407 106.9082,30.7407 Q104.4014,30.7407 103.0815,29.0889 Q101.7617,27.437 101.7617,24.3159 Q101.7617,21.1865 103.0815,19.5347 Q104.4014,17.8828 106.9082,17.8828 Q107.6138,17.8828 108.2612,18.0322 Q108.9087,18.1816 109.4731,18.4805 L109.4731,21.2031 Q108.8423,20.6221 108.2488,20.3523 Q107.6553,20.0825 107.0244,20.0825 Q105.6797,20.0825 104.9949,21.1492 Q104.3101,22.2158 104.3101,24.3159 Q104.3101,26.4077 104.9949,27.4744 Q105.6797,28.541 107.0244,28.541 Q107.6553,28.541 108.2488,28.2712 Q108.8423,28.0015 109.4731,27.4204 Z "/><text fill="#000000" font-family="sans-serif" font-size="12" lengthAdjust="spacingAndGlyphs" textLength="67" x="121" y="28.5352">AbstractList</text><line style="stroke: #A80036; stroke-width: 1.5;" x1="93" x2="190" y1="40" y2="40"/><line style="stroke: #A80036; stroke-width: 1.5;" x1="93" x2="190" y1="48" y2="48"/><!--link List to ArrayList--><path d="M53.0747,74.3649 C60.244,88.4428 67.9774,103.6283 74.1981,115.8436 " fill="none" id="List-ArrayList" style="stroke: #A80036; stroke-width: 1.0; stroke-dasharray: 7.0,7.0;"/><polygon fill="none" points="46.6814,77.236,43.8431,56.2373,59.1569,70.8827,46.6814,77.236" style="stroke: #A80036; stroke-width: 1.0;"/><!--link AbstractList to ArrayList--><path d="M119.9253,74.3649 C112.756,88.4428 105.0226,103.6283 98.8019,115.8436 " fill="none" id="AbstractList-ArrayList" style="stroke: #A80036; stroke-width: 1.0;"/><polygon fill="none" points="113.8431,70.8827,129.1569,56.2373,126.3186,77.236,113.8431,70.8827" style="stroke: #A80036; stroke-width: 1.0;"/><!--
@startuml
class ArrayList implements List
class ArrayList extends AbstractList
@enduml

PlantUML version 1.2019.05(Sun Apr 21 00:45:36 CST 2019)
(GPL source distribution)
Java Runtime: Java(TM) SE Runtime Environment
JVM: Java HotSpot(TM) 64-Bit Server VM
Java Version: 1.8.0_191-b12
Operating System: Mac OS X
OS Version: 10.16
Default Encoding: UTF-8
Language: en
Country: CN
--></g></svg>