<?xml version="1.0" encoding="UTF-8" standalone="no"?><svg xmlns="http://www.w3.org/2000/svg" xmlns:xlink="http://www.w3.org/1999/xlink" contentScriptType="application/ecmascript" contentStyleType="text/css" height="228px" preserveAspectRatio="none" style="width:484px;height:228px;" version="1.1" viewBox="0 0 484 228" width="484px" zoomAndPan="magnify"><defs><filter height="300%" id="f1h1p21ln4fzhk" width="300%" x="-1" y="-1"><feGaussianBlur result="blurOut" stdDeviation="2.0"/><feColorMatrix in="blurOut" result="blurOut2" type="matrix" values="0 0 0 0 0 0 0 0 0 0 0 0 0 0 0 0 0 0 .4 0"/><feOffset dx="4.0" dy="4.0" in="blurOut2" result="blurOut3"/><feBlend in="SourceGraphic" in2="blurOut3" mode="normal"/></filter></defs><g><ellipse cx="149" cy="20" fill="#000000" filter="url(#f1h1p21ln4fzhk)" rx="10" ry="10" style="stroke: none; stroke-width: 1.0;"/><path d="M10,54.4111 L10,79.7217 L116,79.7217 L116,64.4111 L106,54.4111 L10,54.4111 " fill="#FBFB77" filter="url(#f1h1p21ln4fzhk)" style="stroke: #A80036; stroke-width: 1.0;"/><path d="M106,54.4111 L106,64.4111 L116,64.4111 L106,54.4111 " fill="#FBFB77" style="stroke: #A80036; stroke-width: 1.0;"/><text fill="#000000" font-family="sans-serif" font-size="13" lengthAdjust="spacingAndGlyphs" textLength="85" x="16" y="71.9795">This is a note</text><rect fill="#FEFECE" filter="url(#f1h1p21ln4fzhk)" height="34.1328" rx="12.5" ry="12.5" style="stroke: #A80036; stroke-width: 1.5;" width="46" x="126" y="50"/><text fill="#000000" font-family="sans-serif" font-size="12" lengthAdjust="spacingAndGlyphs" textLength="26" x="136" y="71.6016">foo1</text><path d="M192,94.1328 L192,130.7539 L172,134.7539 L192,138.7539 L192,175.375 A0,0 0 0 0 192,175.375 L472,175.375 A0,0 0 0 0 472,175.375 L472,104.1328 L462,94.1328 L192,94.1328 A0,0 0 0 0 192,94.1328 " fill="#FBFB77" filter="url(#f1h1p21ln4fzhk)" style="stroke: #A80036; stroke-width: 1.0;"/><path d="M462,94.1328 L462,104.1328 L472,104.1328 L462,94.1328 " fill="#FBFB77" style="stroke: #A80036; stroke-width: 1.0;"/><text fill="#000000" font-family="sans-serif" font-size="13" lengthAdjust="spacingAndGlyphs" textLength="142" x="198" y="111.7012">This note is on several</text><text fill="#000000" font-family="sans-serif" font-size="13" font-style="italic" lengthAdjust="spacingAndGlyphs" textLength="30" x="198" y="127.0117">lines</text><text fill="#000000" font-family="sans-serif" font-size="13" lengthAdjust="spacingAndGlyphs" textLength="49" x="232" y="127.0117">and can</text><text fill="#000000" font-family="sans-serif" font-size="13" lengthAdjust="spacingAndGlyphs" textLength="47" x="198" y="142.3223">contain</text><text fill="#000000" font-family="sans-serif" font-size="13" font-weight="bold" lengthAdjust="spacingAndGlyphs" textLength="39" x="249" y="142.3223">HTML</text><line style="stroke: #A80036; stroke-width: 1.0;" x1="192" x2="472" y1="150.0645" y2="150.0645"/><line style="stroke: #A80036; stroke-width: 1.0;" x1="192" x2="472" y1="152.0645" y2="152.0645"/><ellipse cx="203.5" cy="162.875" fill="#000000" rx="2.5" ry="2.5" style="stroke: #000000; stroke-width: 0.0;"/><text fill="#000000" font-family="sans-serif" font-size="13" lengthAdjust="spacingAndGlyphs" textLength="120" x="209" y="167.6328">Calling the method</text><text fill="#000000" font-family="monospace" font-size="13" lengthAdjust="spacingAndGlyphs" textLength="40" x="333" y="167.3091">foo()</text><text fill="#000000" font-family="sans-serif" font-size="13" lengthAdjust="spacingAndGlyphs" textLength="80" x="377" y="167.6328">is prohibited</text><rect fill="#FEFECE" filter="url(#f1h1p21ln4fzhk)" height="34.1328" rx="12.5" ry="12.5" style="stroke: #A80036; stroke-width: 1.5;" width="46" x="126" y="117.6875"/><text fill="#000000" font-family="sans-serif" font-size="12" lengthAdjust="spacingAndGlyphs" textLength="26" x="136" y="139.2891">foo2</text><ellipse cx="149" cy="206.375" fill="#FFFFFF" filter="url(#f1h1p21ln4fzhk)" rx="11" ry="11" style="stroke: #000000; stroke-width: 1.0;"/><ellipse cx="149" cy="206.375" fill="#000000" rx="6" ry="6" style="stroke: #7F7F7F; stroke-width: 1.0;"/><line style="stroke: #A80036; stroke-width: 1.5;" x1="149" x2="149" y1="30" y2="50"/><polygon fill="#A80036" points="145,40,149,50,153,40,149,44" style="stroke: #A80036; stroke-width: 1.0;"/><line style="stroke: #A80036; stroke-width: 1.5;" x1="149" x2="149" y1="84.1328" y2="117.6875"/><polygon fill="#A80036" points="145,107.6875,149,117.6875,153,107.6875,149,111.6875" style="stroke: #A80036; stroke-width: 1.0;"/><line style="stroke: #A80036; stroke-width: 1.5;" x1="149" x2="149" y1="151.8203" y2="195.375"/><polygon fill="#A80036" points="145,185.375,149,195.375,153,185.375,149,189.375" style="stroke: #A80036; stroke-width: 1.0;"/><!--
@startuml

start
:foo1;
floating note left: This is a note
:foo2;
note right
  This note is on several
  //lines// and can
  contain <b>HTML</b>
  ====
  * Calling the method ""foo()"" is prohibited
end note
stop

@enduml

PlantUML version 1.2019.05(Sun Apr 21 00:45:36 CST 2019)
(GPL source distribution)
Java Runtime: Java(TM) SE Runtime Environment
JVM: Java HotSpot(TM) 64-Bit Server VM
Java Version: 1.8.0_191-b12
Operating System: Mac OS X
OS Version: 10.16
Default Encoding: UTF-8
Language: en
Country: CN
--></g></svg>