<?xml version="1.0" encoding="UTF-8" standalone="no"?><svg xmlns="http://www.w3.org/2000/svg" xmlns:xlink="http://www.w3.org/1999/xlink" contentScriptType="application/ecmascript" contentStyleType="text/css" height="150px" preserveAspectRatio="none" style="width:127px;height:150px;" version="1.1" viewBox="0 0 127 150" width="127px" zoomAndPan="magnify"><defs><filter height="300%" id="f1dqaxu5lff7u2" width="300%" x="-1" y="-1"><feGaussianBlur result="blurOut" stdDeviation="2.0"/><feColorMatrix in="blurOut" result="blurOut2" type="matrix" values="0 0 0 0 0 0 0 0 0 0 0 0 0 0 0 0 0 0 .4 0"/><feOffset dx="4.0" dy="4.0" in="blurOut2" result="blurOut3"/><feBlend in="SourceGraphic" in2="blurOut3" mode="normal"/></filter></defs><g><line style="stroke: none; stroke-width: 1.5;" x1="24" x2="101" y1="10" y2="10"/><rect fill="#FEFECE" filter="url(#f1dqaxu5lff7u2)" height="34.1328" rx="12.5" ry="12.5" style="stroke: #A80036; stroke-width: 1.5;" width="28" x="10" y="31.5"/><text fill="#000000" font-family="sans-serif" font-size="12" lengthAdjust="spacingAndGlyphs" textLength="8" x="20" y="53.1016">A</text><rect fill="#FEFECE" filter="url(#f1dqaxu5lff7u2)" height="34.1328" rx="12.5" ry="12.5" style="stroke: #A80036; stroke-width: 1.5;" width="27" x="49" y="31.5"/><text fill="#000000" font-family="sans-serif" font-size="12" lengthAdjust="spacingAndGlyphs" textLength="7" x="59" y="53.1016">B</text><rect fill="#FEFECE" filter="url(#f1dqaxu5lff7u2)" height="34.1328" rx="12.5" ry="12.5" style="stroke: #A80036; stroke-width: 1.5;" width="28" x="87" y="31.5"/><text fill="#000000" font-family="sans-serif" font-size="12" lengthAdjust="spacingAndGlyphs" textLength="8" x="97" y="53.1016">C</text><line style="stroke: #A80036; stroke-width: 1.5;" x1="24" x2="101" y1="85.6328" y2="85.6328"/><rect fill="#FEFECE" filter="url(#f1dqaxu5lff7u2)" height="34.1328" rx="12.5" ry="12.5" style="stroke: #A80036; stroke-width: 1.5;" width="29" x="48" y="105.6328"/><text fill="#000000" font-family="sans-serif" font-size="12" lengthAdjust="spacingAndGlyphs" textLength="9" x="58" y="127.2344">D</text><line style="stroke: #A80036; stroke-width: 1.5;" x1="24" x2="24" y1="65.6328" y2="85.6328"/><polygon fill="#A80036" points="20,75.6328,24,85.6328,28,75.6328,24,79.6328" style="stroke: #A80036; stroke-width: 1.0;"/><line style="stroke: #A80036; stroke-width: 1.5;" x1="62.5" x2="62.5" y1="65.6328" y2="85.6328"/><polygon fill="#A80036" points="58.5,75.6328,62.5,85.6328,66.5,75.6328,62.5,79.6328" style="stroke: #A80036; stroke-width: 1.0;"/><line style="stroke: #A80036; stroke-width: 1.5;" x1="101" x2="101" y1="65.6328" y2="85.6328"/><polygon fill="#A80036" points="97,75.6328,101,85.6328,105,75.6328,101,79.6328" style="stroke: #A80036; stroke-width: 1.0;"/><line style="stroke: #A80036; stroke-width: 1.5;" x1="62.5" x2="62.5" y1="87.1328" y2="105.6328"/><polygon fill="#A80036" points="58.5,95.6328,62.5,105.6328,66.5,95.6328,62.5,99.6328" style="stroke: #A80036; stroke-width: 1.0;"/><!--
@startuml
split
   -[hidden]->
   :A;
split again
   -[hidden]->
   :B;
split again
   -[hidden]->
   :C;
end split
:D;
@enduml

PlantUML version 1.2019.05(Sun Apr 21 00:45:36 CST 2019)
(GPL source distribution)
Java Runtime: Java(TM) SE Runtime Environment
JVM: Java HotSpot(TM) 64-Bit Server VM
Java Version: 1.8.0_191-b12
Operating System: Mac OS X
OS Version: 10.16
Default Encoding: UTF-8
Language: en
Country: CN
--></g></svg>