<?xml version="1.0" encoding="UTF-8" standalone="no"?><svg xmlns="http://www.w3.org/2000/svg" xmlns:xlink="http://www.w3.org/1999/xlink" contentScriptType="application/ecmascript" contentStyleType="text/css" height="427px" preserveAspectRatio="none" style="width:354px;height:427px;" version="1.1" viewBox="0 0 354 427" width="354px" zoomAndPan="magnify"><defs><filter height="300%" id="f13b8x7rvse0nk" width="300%" x="-1" y="-1"><feGaussianBlur result="blurOut" stdDeviation="2.0"/><feColorMatrix in="blurOut" result="blurOut2" type="matrix" values="0 0 0 0 0 0 0 0 0 0 0 0 0 0 0 0 0 0 .4 0"/><feOffset dx="4.0" dy="4.0" in="blurOut2" result="blurOut3"/><feBlend in="SourceGraphic" in2="blurOut3" mode="normal"/></filter></defs><g><rect fill="#FFFFFF" filter="url(#f13b8x7rvse0nk)" height="285.7051" style="stroke: #000000; stroke-width: 2.0;" width="329.5" x="13" y="84.7988"/><rect fill="#FFFFFF" height="194.8184" style="stroke: none; stroke-width: 1.0;" width="329.5" x="13" y="131.4199"/><rect fill="#FFFFFF" filter="url(#f13b8x7rvse0nk)" height="136.5527" style="stroke: #000000; stroke-width: 2.0;" width="309.5" x="23" y="182.6855"/><rect fill="#FFFFFF" filter="url(#f13b8x7rvse0nk)" height="46.6211" style="stroke: #000000; stroke-width: 2.0;" width="246.5" x="33" y="236.3066"/><rect fill="#FFFFFF" height="44.2656" style="stroke: none; stroke-width: 1.0;" width="329.5" x="13" y="326.2383"/><line style="stroke: #A80036; stroke-width: 1.0; stroke-dasharray: 5.0,5.0;" x1="68" x2="68" y1="38.4883" y2="387.5039"/><line style="stroke: #A80036; stroke-width: 1.0; stroke-dasharray: 5.0,5.0;" x1="247.5" x2="247.5" y1="38.4883" y2="387.5039"/><line style="stroke: #A80036; stroke-width: 1.0; stroke-dasharray: 5.0,5.0;" x1="300.5" x2="300.5" y1="38.4883" y2="387.5039"/><rect fill="#FEFECE" filter="url(#f13b8x7rvse0nk)" height="30.4883" style="stroke: #A80036; stroke-width: 1.5;" width="47" x="43" y="3"/><text fill="#000000" font-family="sans-serif" font-size="14" lengthAdjust="spacingAndGlyphs" textLength="33" x="50" y="23.5352">Alice</text><rect fill="#FEFECE" filter="url(#f13b8x7rvse0nk)" height="30.4883" style="stroke: #A80036; stroke-width: 1.5;" width="47" x="43" y="386.5039"/><text fill="#000000" font-family="sans-serif" font-size="14" lengthAdjust="spacingAndGlyphs" textLength="33" x="50" y="407.0391">Alice</text><rect fill="#FEFECE" filter="url(#f13b8x7rvse0nk)" height="30.4883" style="stroke: #A80036; stroke-width: 1.5;" width="40" x="225.5" y="3"/><text fill="#000000" font-family="sans-serif" font-size="14" lengthAdjust="spacingAndGlyphs" textLength="26" x="232.5" y="23.5352">Bob</text><rect fill="#FEFECE" filter="url(#f13b8x7rvse0nk)" height="30.4883" style="stroke: #A80036; stroke-width: 1.5;" width="40" x="225.5" y="386.5039"/><text fill="#000000" font-family="sans-serif" font-size="14" lengthAdjust="spacingAndGlyphs" textLength="26" x="232.5" y="407.0391">Bob</text><rect fill="#FEFECE" filter="url(#f13b8x7rvse0nk)" height="30.4883" style="stroke: #A80036; stroke-width: 1.5;" width="39" x="279.5" y="3"/><text fill="#000000" font-family="sans-serif" font-size="14" lengthAdjust="spacingAndGlyphs" textLength="25" x="286.5" y="23.5352">Log</text><rect fill="#FEFECE" filter="url(#f13b8x7rvse0nk)" height="30.4883" style="stroke: #A80036; stroke-width: 1.5;" width="39" x="279.5" y="386.5039"/><text fill="#000000" font-family="sans-serif" font-size="14" lengthAdjust="spacingAndGlyphs" textLength="25" x="286.5" y="407.0391">Log</text><polygon fill="#A80036" points="235.5,65.7988,245.5,69.7988,235.5,73.7988,239.5,69.7988" style="stroke: #A80036; stroke-width: 1.0;"/><line style="stroke: #A80036; stroke-width: 1.0;" x1="68.5" x2="241.5" y1="69.7988" y2="69.7988"/><text fill="#000000" font-family="sans-serif" font-size="13" lengthAdjust="spacingAndGlyphs" textLength="147" x="75.5" y="65.0566">Authentication Request</text><path d="M13,84.7988 L75,84.7988 L75,91.7988 L65,101.7988 L13,101.7988 L13,84.7988 " fill="#EEEEEE" style="stroke: #000000; stroke-width: 1.0;"/><rect fill="none" height="285.7051" style="stroke: #000000; stroke-width: 2.0;" width="329.5" x="13" y="84.7988"/><text fill="#000000" font-family="sans-serif" font-size="13" font-weight="bold" lengthAdjust="spacingAndGlyphs" textLength="17" x="28" y="98.3672">alt</text><text fill="#000000" font-family="sans-serif" font-size="11" font-weight="bold" lengthAdjust="spacingAndGlyphs" textLength="95" x="90" y="97.4336">[successful case]</text><polygon fill="#A80036" points="79.5,119.4199,69.5,123.4199,79.5,127.4199,75.5,123.4199" style="stroke: #A80036; stroke-width: 1.0;"/><line style="stroke: #A80036; stroke-width: 1.0;" x1="73.5" x2="246.5" y1="123.4199" y2="123.4199"/><text fill="#000000" font-family="sans-serif" font-size="13" lengthAdjust="spacingAndGlyphs" textLength="155" x="85.5" y="118.6777">Authentication Accepted</text><line style="stroke: #000000; stroke-width: 1.0; stroke-dasharray: 2.0,2.0;" x1="13" x2="342.5" y1="132.4199" y2="132.4199"/><text fill="#000000" font-family="sans-serif" font-size="11" font-weight="bold" lengthAdjust="spacingAndGlyphs" textLength="124" x="18" y="143.0547">[some kind of failure]</text><polygon fill="#A80036" points="79.5,163.6855,69.5,167.6855,79.5,171.6855,75.5,167.6855" style="stroke: #A80036; stroke-width: 1.0;"/><line style="stroke: #A80036; stroke-width: 1.0;" x1="73.5" x2="246.5" y1="167.6855" y2="167.6855"/><text fill="#000000" font-family="sans-serif" font-size="13" lengthAdjust="spacingAndGlyphs" textLength="139" x="85.5" y="162.9434">Authentication Failure</text><path d="M23,182.6855 L157,182.6855 L157,189.6855 L147,199.6855 L23,199.6855 L23,182.6855 " fill="#EEEEEE" style="stroke: #000000; stroke-width: 1.0;"/><rect fill="none" height="136.5527" style="stroke: #000000; stroke-width: 2.0;" width="309.5" x="23" y="182.6855"/><text fill="#000000" font-family="sans-serif" font-size="13" font-weight="bold" lengthAdjust="spacingAndGlyphs" textLength="89" x="38" y="196.2539">My own label</text><polygon fill="#A80036" points="289,217.3066,299,221.3066,289,225.3066,293,221.3066" style="stroke: #A80036; stroke-width: 1.0;"/><line style="stroke: #A80036; stroke-width: 1.0;" x1="68.5" x2="295" y1="221.3066" y2="221.3066"/><text fill="#000000" font-family="sans-serif" font-size="13" lengthAdjust="spacingAndGlyphs" textLength="99" x="75.5" y="216.5645">Log attack start</text><path d="M33,236.3066 L107,236.3066 L107,243.3066 L97,253.3066 L33,253.3066 L33,236.3066 " fill="#EEEEEE" style="stroke: #000000; stroke-width: 1.0;"/><rect fill="none" height="46.6211" style="stroke: #000000; stroke-width: 2.0;" width="246.5" x="33" y="236.3066"/><text fill="#000000" font-family="sans-serif" font-size="13" font-weight="bold" lengthAdjust="spacingAndGlyphs" textLength="29" x="48" y="249.875">loop</text><text fill="#000000" font-family="sans-serif" font-size="11" font-weight="bold" lengthAdjust="spacingAndGlyphs" textLength="71" x="122" y="248.9414">[1000 times]</text><polygon fill="#A80036" points="235.5,270.9277,245.5,274.9277,235.5,278.9277,239.5,274.9277" style="stroke: #A80036; stroke-width: 1.0;"/><line style="stroke: #A80036; stroke-width: 1.0;" x1="68.5" x2="241.5" y1="274.9277" y2="274.9277"/><text fill="#000000" font-family="sans-serif" font-size="13" lengthAdjust="spacingAndGlyphs" textLength="72" x="75.5" y="270.1855">DNS Attack</text><polygon fill="#A80036" points="289,307.2383,299,311.2383,289,315.2383,293,311.2383" style="stroke: #A80036; stroke-width: 1.0;"/><line style="stroke: #A80036; stroke-width: 1.0;" x1="68.5" x2="295" y1="311.2383" y2="311.2383"/><text fill="#000000" font-family="sans-serif" font-size="13" lengthAdjust="spacingAndGlyphs" textLength="93" x="75.5" y="306.4961">Log attack end</text><line style="stroke: #000000; stroke-width: 1.0; stroke-dasharray: 2.0,2.0;" x1="13" x2="342.5" y1="327.2383" y2="327.2383"/><text fill="#000000" font-family="sans-serif" font-size="11" font-weight="bold" lengthAdjust="spacingAndGlyphs" textLength="136" x="18" y="337.873">[Another type of failure]</text><polygon fill="#A80036" points="79.5,358.5039,69.5,362.5039,79.5,366.5039,75.5,362.5039" style="stroke: #A80036; stroke-width: 1.0;"/><line style="stroke: #A80036; stroke-width: 1.0;" x1="73.5" x2="246.5" y1="362.5039" y2="362.5039"/><text fill="#000000" font-family="sans-serif" font-size="13" lengthAdjust="spacingAndGlyphs" textLength="82" x="85.5" y="357.7617">Please repeat</text><!--
@startuml
Alice -> Bob: Authentication Request

alt successful case

    Bob -> Alice: Authentication Accepted

else some kind of failure

    Bob -> Alice: Authentication Failure
    group My own label
    Alice -> Log : Log attack start
        loop 1000 times
            Alice -> Bob: DNS Attack
        end
    Alice -> Log : Log attack end
    end

else Another type of failure

   Bob -> Alice: Please repeat

end
@enduml

PlantUML version 1.2019.05(Sun Apr 21 00:45:36 CST 2019)
(GPL source distribution)
Java Runtime: Java(TM) SE Runtime Environment
JVM: Java HotSpot(TM) 64-Bit Server VM
Java Version: 1.8.0_191-b12
Operating System: Mac OS X
OS Version: 10.16
Default Encoding: UTF-8
Language: en
Country: CN
--></g></svg>