<?xml version="1.0" encoding="UTF-8" standalone="no"?><svg xmlns="http://www.w3.org/2000/svg" xmlns:xlink="http://www.w3.org/1999/xlink" contentScriptType="application/ecmascript" contentStyleType="text/css" height="227px" preserveAspectRatio="none" style="width:484px;height:227px;" version="1.1" viewBox="0 0 484 227" width="484px" zoomAndPan="magnify"><defs><filter height="300%" id="f1h1p21ln4fzhk" width="300%" x="-1" y="-1"><feGaussianBlur result="blurOut" stdDeviation="2.0"/><feColorMatrix in="blurOut" result="blurOut2" type="matrix" values="0 0 0 0 0 0 0 0 0 0 0 0 0 0 0 0 0 0 .4 0"/><feOffset dx="4.0" dy="4.0" in="blurOut2" result="blurOut3"/><feBlend in="SourceGraphic" in2="blurOut3" mode="normal"/></filter></defs><g><ellipse cx="149" cy="20" fill="#000000" filter="url(#f1h1p21ln4fzhk)" rx="10" ry="10" style="stroke: none; stroke-width: 1.0;"/><path d="M10,54.418 L10,79.5508 L115,79.5508 L115,64.418 L105,54.418 L10,54.418 " fill="#FBFB77" filter="url(#f1h1p21ln4fzhk)" style="stroke: #A80036; stroke-width: 1.0;"/><path d="M105,54.418 L105,64.418 L115,64.418 L105,54.418 " fill="#FBFB77" style="stroke: #A80036; stroke-width: 1.0;"/><text fill="#000000" font-family="sans-serif" font-size="13" lengthAdjust="spacingAndGlyphs" textLength="84" x="16" y="71.4849">This is a note</text><rect fill="#FEFECE" filter="url(#f1h1p21ln4fzhk)" height="33.9688" rx="12.5" ry="12.5" style="stroke: #A80036; stroke-width: 1.5;" width="48" x="125" y="50"/><text fill="#000000" font-family="sans-serif" font-size="12" lengthAdjust="spacingAndGlyphs" textLength="28" x="135" y="71.1387">foo1</text><path d="M193,93.9688 L193,130.2344 L173,134.2344 L193,138.2344 L193,174.5 A0,0 0 0 0 193,174.5 L472,174.5 A0,0 0 0 0 472,174.5 L472,103.9688 L462,93.9688 L193,93.9688 A0,0 0 0 0 193,93.9688 " fill="#FBFB77" filter="url(#f1h1p21ln4fzhk)" style="stroke: #A80036; stroke-width: 1.0;"/><path d="M462,93.9688 L462,103.9688 L472,103.9688 L462,93.9688 " fill="#FBFB77" style="stroke: #A80036; stroke-width: 1.0;"/><text fill="#000000" font-family="sans-serif" font-size="13" lengthAdjust="spacingAndGlyphs" textLength="142" x="199" y="111.0356">This note is on several</text><text fill="#000000" font-family="sans-serif" font-size="13" font-style="italic" lengthAdjust="spacingAndGlyphs" textLength="29" x="199" y="126.1685">lines</text><text fill="#000000" font-family="sans-serif" font-size="13" lengthAdjust="spacingAndGlyphs" textLength="51" x="232" y="126.1685">and can</text><text fill="#000000" font-family="sans-serif" font-size="13" lengthAdjust="spacingAndGlyphs" textLength="47" x="199" y="141.3013">contain</text><text fill="#000000" font-family="sans-serif" font-size="13" font-weight="bold" lengthAdjust="spacingAndGlyphs" textLength="40" x="250" y="141.3013">HTML</text><line style="stroke: #A80036; stroke-width: 1.0;" x1="193" x2="472" y1="149.3672" y2="149.3672"/><line style="stroke: #A80036; stroke-width: 1.0;" x1="193" x2="472" y1="151.3672" y2="151.3672"/><ellipse cx="204.5" cy="162" fill="#000000" rx="2.5" ry="2.5" style="stroke: #000000; stroke-width: 0.0;"/><text fill="#000000" font-family="sans-serif" font-size="13" lengthAdjust="spacingAndGlyphs" textLength="121" x="210" y="166.4341">Calling the method</text><text fill="#000000" font-family="monospace" font-size="13" lengthAdjust="spacingAndGlyphs" textLength="40" x="335" y="166.4341">foo()</text><text fill="#000000" font-family="sans-serif" font-size="13" lengthAdjust="spacingAndGlyphs" textLength="78" x="379" y="166.4341">is prohibited</text><rect fill="#FEFECE" filter="url(#f1h1p21ln4fzhk)" height="33.9688" rx="12.5" ry="12.5" style="stroke: #A80036; stroke-width: 1.5;" width="48" x="125" y="117.25"/><text fill="#000000" font-family="sans-serif" font-size="12" lengthAdjust="spacingAndGlyphs" textLength="28" x="135" y="138.3887">foo2</text><ellipse cx="149" cy="205.5" fill="#FFFFFF" filter="url(#f1h1p21ln4fzhk)" rx="11" ry="11" style="stroke: #000000; stroke-width: 1.0;"/><ellipse cx="149" cy="205.5" fill="#000000" rx="6" ry="6" style="stroke: #7F7F7F; stroke-width: 1.0;"/><line style="stroke: #A80036; stroke-width: 1.5;" x1="149" x2="149" y1="30" y2="50"/><polygon fill="#A80036" points="145,40,149,50,153,40,149,44" style="stroke: #A80036; stroke-width: 1.0;"/><line style="stroke: #A80036; stroke-width: 1.5;" x1="149" x2="149" y1="83.9688" y2="117.25"/><polygon fill="#A80036" points="145,107.25,149,117.25,153,107.25,149,111.25" style="stroke: #A80036; stroke-width: 1.0;"/><line style="stroke: #A80036; stroke-width: 1.5;" x1="149" x2="149" y1="151.2188" y2="194.5"/><polygon fill="#A80036" points="145,184.5,149,194.5,153,184.5,149,188.5" style="stroke: #A80036; stroke-width: 1.0;"/><!--
@startuml

start
:foo1;
floating note left: This is a note
:foo2;
note right
  This note is on several
  //lines// and can
  contain <b>HTML</b>
  ====
  * Calling the method ""foo()"" is prohibited
end note
stop

@enduml

PlantUML version 1.2019.05(Sat Apr 20 16:45:36 UTC 2019)
(GPL source distribution)
Java Runtime: OpenJDK Runtime Environment
JVM: OpenJDK 64-Bit Server VM
Java Version: 11.0.9+11-post-Debian-1deb10u1
Operating System: Linux
OS Version: 5.4.0-1047-azure
Default Encoding: UTF-8
Language: en
Country: null
--></g></svg>