<?xml version="1.0" encoding="UTF-8" standalone="no"?><svg xmlns="http://www.w3.org/2000/svg" xmlns:xlink="http://www.w3.org/1999/xlink" contentScriptType="application/ecmascript" contentStyleType="text/css" height="115px" preserveAspectRatio="none" style="width:125px;height:115px;" version="1.1" viewBox="0 0 125 115" width="125px" zoomAndPan="magnify"><defs><filter height="300%" id="fmmzwq5oiczje" width="300%" x="-1" y="-1"><feGaussianBlur result="blurOut" stdDeviation="2.0"/><feColorMatrix in="blurOut" result="blurOut2" type="matrix" values="0 0 0 0 0 0 0 0 0 0 0 0 0 0 0 0 0 0 .4 0"/><feOffset dx="4.0" dy="4.0" in="blurOut2" result="blurOut3"/><feBlend in="SourceGraphic" in2="blurOut3" mode="normal"/></filter></defs><g><ellipse cx="61.5" cy="20" fill="#000000" filter="url(#fmmzwq5oiczje)" rx="10" ry="10" style="stroke: none; stroke-width: 1.0;"/><line style="stroke: #A80036; stroke-width: 1.5;" x1="24" x2="99" y1="50" y2="50"/><rect fill="#FEFECE" filter="url(#fmmzwq5oiczje)" height="34.1328" rx="12.5" ry="12.5" style="stroke: #A80036; stroke-width: 1.5;" width="28" x="10" y="70"/><text fill="#000000" font-family="sans-serif" font-size="12" lengthAdjust="spacingAndGlyphs" textLength="8" x="20" y="91.6016">A</text><rect fill="#FEFECE" filter="url(#fmmzwq5oiczje)" height="34.1328" rx="12.5" ry="12.5" style="stroke: #A80036; stroke-width: 1.5;" width="27" x="48" y="70"/><text fill="#000000" font-family="sans-serif" font-size="12" lengthAdjust="spacingAndGlyphs" textLength="7" x="58" y="91.6016">B</text><rect fill="#FEFECE" filter="url(#fmmzwq5oiczje)" height="34.1328" rx="12.5" ry="12.5" style="stroke: #A80036; stroke-width: 1.5;" width="28" x="85" y="70"/><text fill="#000000" font-family="sans-serif" font-size="12" lengthAdjust="spacingAndGlyphs" textLength="8" x="95" y="91.6016">C</text><line style="stroke: #A80036; stroke-width: 1.5;" x1="24" x2="24" y1="51.5" y2="70"/><polygon fill="#A80036" points="20,60,24,70,28,60,24,64" style="stroke: #A80036; stroke-width: 1.0;"/><line style="stroke: #A80036; stroke-width: 1.5;" x1="61.5" x2="61.5" y1="51.5" y2="70"/><polygon fill="#A80036" points="57.5,60,61.5,70,65.5,60,61.5,64" style="stroke: #A80036; stroke-width: 1.0;"/><line style="stroke: #A80036; stroke-width: 1.5;" x1="99" x2="99" y1="51.5" y2="70"/><polygon fill="#A80036" points="95,60,99,70,103,60,99,64" style="stroke: #A80036; stroke-width: 1.0;"/><line style="stroke: #A80036; stroke-width: 1.5;" x1="61.5" x2="61.5" y1="30" y2="50"/><polygon fill="#A80036" points="57.5,40,61.5,50,65.5,40,61.5,44" style="stroke: #A80036; stroke-width: 1.0;"/><!--
@startuml
start
split
   :A;
   kill
split again
   :B;
   detach
split again
   :C;
   kill
end split
@enduml

PlantUML version 1.2019.05(Sun Apr 21 00:45:36 CST 2019)
(GPL source distribution)
Java Runtime: Java(TM) SE Runtime Environment
JVM: Java HotSpot(TM) 64-Bit Server VM
Java Version: 1.8.0_191-b12
Operating System: Mac OS X
OS Version: 10.16
Default Encoding: UTF-8
Language: en
Country: CN
--></g></svg>