<?xml version="1.0" encoding="UTF-8" standalone="no"?><svg xmlns="http://www.w3.org/2000/svg" xmlns:xlink="http://www.w3.org/1999/xlink" contentScriptType="application/ecmascript" contentStyleType="text/css" height="215px" preserveAspectRatio="none" style="width:325px;height:215px;" version="1.1" viewBox="0 0 325 215" width="325px" zoomAndPan="magnify"><defs><filter height="300%" id="f1rk2prmxtw8gs" width="300%" x="-1" y="-1"><feGaussianBlur result="blurOut" stdDeviation="2.0"/><feColorMatrix in="blurOut" result="blurOut2" type="matrix" values="0 0 0 0 0 0 0 0 0 0 0 0 0 0 0 0 0 0 .4 0"/><feOffset dx="4.0" dy="4.0" in="blurOut2" result="blurOut3"/><feBlend in="SourceGraphic" in2="blurOut3" mode="normal"/></filter></defs><g><ellipse cx="132" cy="20" fill="#000000" filter="url(#f1rk2prmxtw8gs)" rx="10" ry="10" style="stroke: none; stroke-width: 1.0;"/><polygon fill="#FEFECE" filter="url(#f1rk2prmxtw8gs)" points="81.5,50,182.5,50,194.5,62,182.5,74,81.5,74,69.5,62,81.5,50" style="stroke: #A80036; stroke-width: 1.5;"/><text fill="#000000" font-family="sans-serif" font-size="11" lengthAdjust="spacingAndGlyphs" textLength="101" x="81.5" y="66.1572">Graphviz installed?</text><text fill="#000000" font-family="sans-serif" font-size="11" lengthAdjust="spacingAndGlyphs" textLength="18" x="51.5" y="59.6797">yes</text><text fill="#000000" font-family="sans-serif" font-size="11" lengthAdjust="spacingAndGlyphs" textLength="14" x="194.5" y="59.6797">no</text><rect fill="#FEFECE" filter="url(#f1rk2prmxtw8gs)" height="48.2656" rx="12.5" ry="12.5" style="stroke: #A80036; stroke-width: 1.5;" width="82" x="10" y="84"/><text fill="#000000" font-family="sans-serif" font-size="12" lengthAdjust="spacingAndGlyphs" textLength="62" x="20" y="105.6016">process all</text><text fill="#000000" font-family="sans-serif" font-size="12" lengthAdjust="spacingAndGlyphs" textLength="54" x="20" y="119.7344">diagrams</text><rect fill="#FEFECE" filter="url(#f1rk2prmxtw8gs)" height="48.2656" rx="12.5" ry="12.5" style="stroke: #A80036; stroke-width: 1.5;" width="202" x="112" y="84"/><text fill="#000000" font-family="sans-serif" font-size="12" lengthAdjust="spacingAndGlyphs" textLength="72" x="122" y="105.6016">process only</text><text fill="#000000" font-family="sans-serif" font-size="12" lengthAdjust="spacingAndGlyphs" text-decoration="underline" textLength="55" x="122" y="119.7344">sequence</text><text fill="#000000" font-family="sans-serif" font-size="12" lengthAdjust="spacingAndGlyphs" textLength="22" x="181" y="119.7344">and</text><text fill="#000000" font-family="sans-serif" font-size="12" lengthAdjust="spacingAndGlyphs" text-decoration="underline" textLength="39" x="207" y="119.7344">activity</text><text fill="#000000" font-family="sans-serif" font-size="12" lengthAdjust="spacingAndGlyphs" textLength="54" x="250" y="119.7344">diagrams</text><polygon fill="#FEFECE" filter="url(#f1rk2prmxtw8gs)" points="132,138.2656,144,150.2656,132,162.2656,120,150.2656,132,138.2656" style="stroke: #A80036; stroke-width: 1.5;"/><ellipse cx="132" cy="193.2656" fill="#FFFFFF" filter="url(#f1rk2prmxtw8gs)" rx="11" ry="11" style="stroke: #000000; stroke-width: 1.0;"/><ellipse cx="132" cy="193.2656" fill="#000000" rx="6" ry="6" style="stroke: #7F7F7F; stroke-width: 1.0;"/><line style="stroke: #A80036; stroke-width: 1.5;" x1="69.5" x2="51" y1="62" y2="62"/><line style="stroke: #A80036; stroke-width: 1.5;" x1="51" x2="51" y1="62" y2="84"/><polygon fill="#A80036" points="47,74,51,84,55,74,51,78" style="stroke: #A80036; stroke-width: 1.0;"/><line style="stroke: #A80036; stroke-width: 1.5;" x1="194.5" x2="213" y1="62" y2="62"/><line style="stroke: #A80036; stroke-width: 1.5;" x1="213" x2="213" y1="62" y2="84"/><polygon fill="#A80036" points="209,74,213,84,217,74,213,78" style="stroke: #A80036; stroke-width: 1.0;"/><line style="stroke: #A80036; stroke-width: 1.5;" x1="51" x2="51" y1="132.2656" y2="150.2656"/><line style="stroke: #A80036; stroke-width: 1.5;" x1="51" x2="120" y1="150.2656" y2="150.2656"/><polygon fill="#A80036" points="110,146.2656,120,150.2656,110,154.2656,114,150.2656" style="stroke: #A80036; stroke-width: 1.0;"/><line style="stroke: #A80036; stroke-width: 1.5;" x1="213" x2="213" y1="132.2656" y2="150.2656"/><line style="stroke: #A80036; stroke-width: 1.5;" x1="213" x2="144" y1="150.2656" y2="150.2656"/><polygon fill="#A80036" points="154,146.2656,144,150.2656,154,154.2656,150,150.2656" style="stroke: #A80036; stroke-width: 1.0;"/><line style="stroke: #A80036; stroke-width: 1.5;" x1="132" x2="132" y1="30" y2="50"/><polygon fill="#A80036" points="128,40,132,50,136,40,132,44" style="stroke: #A80036; stroke-width: 1.0;"/><line style="stroke: #A80036; stroke-width: 1.5;" x1="132" x2="132" y1="162.2656" y2="182.2656"/><polygon fill="#A80036" points="128,172.2656,132,182.2656,136,172.2656,132,176.2656" style="stroke: #A80036; stroke-width: 1.0;"/><!--
@startuml

start

if (Graphviz installed?) then (yes)
  :process all\ndiagrams;
else (no)
  :process only
  __sequence__ and __activity__ diagrams;
endif

stop

@enduml

PlantUML version 1.2019.05(Sun Apr 21 00:45:36 CST 2019)
(GPL source distribution)
Java Runtime: Java(TM) SE Runtime Environment
JVM: Java HotSpot(TM) 64-Bit Server VM
Java Version: 1.8.0_191-b12
Operating System: Mac OS X
OS Version: 10.16
Default Encoding: UTF-8
Language: en
Country: CN
--></g></svg>