<?xml version="1.0" encoding="UTF-8" standalone="no"?><svg xmlns="http://www.w3.org/2000/svg" xmlns:xlink="http://www.w3.org/1999/xlink" contentScriptType="application/ecmascript" contentStyleType="text/css" height="138.563px" preserveAspectRatio="none" style="width:734px;height:138px;" version="1.1" viewBox="0 0 734 138" width="734.6041px" zoomAndPan="magnify"><defs><filter height="300%" id="foahtzdlf4q3f" width="300%" x="-1" y="-1"><feGaussianBlur result="blurOut" stdDeviation="2.19941348973607"/><feColorMatrix in="blurOut" result="blurOut2" type="matrix" values="0 0 0 0 0 0 0 0 0 0 0 0 0 0 0 0 0 0 .4 0"/><feOffset dx="4.39882697947214" dy="4.39882697947214" in="blurOut2" result="blurOut3"/><feBlend in="SourceGraphic" in2="blurOut3" mode="normal"/></filter></defs><g><!--cluster foo1--><polygon fill="#FFFFFF" filter="url(#foahtzdlf4q3f)" points="15.3959,39.5894,26.393,28.5924,138.563,28.5924,138.563,114.3695,127.566,125.3666,15.3959,125.3666,15.3959,39.5894" style="stroke: #000000; stroke-width: 1.6495601173020527;"/><line style="stroke: #000000; stroke-width: 1.6495601173020527;" x1="127.566" x2="137.4633" y1="39.5894" y2="29.6921"/><line style="stroke: #000000; stroke-width: 1.6495601173020527;" x1="15.3959" x2="127.566" y1="39.5894" y2="39.5894"/><line style="stroke: #000000; stroke-width: 1.6495601173020527;" x1="127.566" x2="127.566" y1="39.5894" y2="125.3666"/><text fill="#000000" font-family="sans-serif" font-size="15.3959" font-weight="bold" lengthAdjust="spacingAndGlyphs" textLength="39.5894" x="52.7859" y="57.1794">foo1</text><!--cluster foo2--><rect fill="#FFFFFF" filter="url(#foahtzdlf4q3f)" height="91.2757" style="stroke: #000000; stroke-width: 1.6495601173020527;" width="98.9736" x="147.3607" y="34.0909"/><text fill="#000000" font-family="sans-serif" font-size="15.3959" font-weight="bold" lengthAdjust="spacingAndGlyphs" textLength="39.5894" x="177.0528" y="50.5811">foo2</text><!--cluster foo3--><polygon fill="#FFFFFF" filter="url(#foahtzdlf4q3f)" points="266.129,34.0909,312.3167,34.0909,320.0147,58.6109,365.1026,58.6109,365.1026,125.3666,266.129,125.3666,266.129,34.0909" style="stroke: #000000; stroke-width: 1.6495601173020527;"/><line style="stroke: #000000; stroke-width: 1.6495601173020527;" x1="266.129" x2="320.0147" y1="58.6109" y2="58.6109"/><text fill="#000000" font-family="sans-serif" font-size="15.3959" font-weight="bold" lengthAdjust="spacingAndGlyphs" textLength="39.5894" x="270.5279" y="50.5811">foo3</text><!--cluster foo4--><rect fill="#FFFFFF" filter="url(#foahtzdlf4q3f)" height="91.2757" style="stroke: #000000; stroke-width: 1.6495601173020527;" width="98.9736" x="384.8974" y="34.0909"/><path d="M435.4839,35.1906 L435.4839,44.3147 L424.4868,55.3118 L384.8974,55.3118 " fill="none" style="stroke: #000000; stroke-width: 1.6495601173020527;"/><text fill="#000000" font-family="sans-serif" font-size="15.3959" font-weight="bold" lengthAdjust="spacingAndGlyphs" textLength="39.5894" x="388.1965" y="49.4814">foo4</text><!--cluster foo5--><path d="M514.3305,44.7662 C517.8446,38.1682 522.3668,36.8748 527.6255,42.9337 C531.0976,36.7153 536.1628,37.0087 540.5559,41.8576 C543.0063,33.9729 548.8883,33.2892 554.457,38.5635 C559.6262,32.0593 564.2806,33.3505 567.641,40.3319 C572.0976,35.1025 578.3497,34.5838 581.1537,42.086 C585.9471,35.4695 591.3356,36.3816 595.3487,42.9274 C602.6199,46.6646 602.313,53.6635 595.4622,57.5107 C602.0455,59.6856 603.0521,64.2109 597.6215,68.7034 C604.2397,72.2881 605.5914,76.4409 599.0536,81.4981 C604.3116,84.8298 603.1763,89.456 598.4237,92.1983 C603.3775,96.2144 603.6527,101.4246 597.2027,104.2891 C602.7091,108.6817 602.3476,113.4977 595.8959,116.6234 C591.8293,123.1421 586.4961,124.9189 581.4723,117.6228 C577.1497,124.4955 572.0199,124.186 567.5393,117.7888 C564.0674,123.4299 559.8282,124.7903 555.2005,119.0408 C550.8796,125.8427 545.2011,126.2206 541.213,118.7155 C537.641,124.8723 531.3564,124.8373 527.6993,118.8099 C523.1195,126.1162 515.7853,125.1795 512.7004,117.3305 C507.6323,114.1715 506.4996,110.0061 511.9594,106.1495 C505.6569,103.793 503.4554,98.896 509.3675,93.9454 C502.3743,91.1959 501.1859,86.7897 505.3399,80.6607 C499.9353,75.0795 502.9186,70.3345 509.2531,68.5449 C504.6919,63.8929 505.2116,58.0635 511.8099,55.6188 C506.6627,51.4879 509.0116,46.4663 514.3305,44.7662 " fill="#FFFFFF" style="stroke: #000000; stroke-width: 1.6495601173020527;"/><text fill="#000000" font-family="sans-serif" font-size="15.3959" font-weight="bold" lengthAdjust="spacingAndGlyphs" textLength="39.5894" x="533.3578" y="62.6779">foo5</text><!--cluster foo6--><path d="M622.434,28.5924 C622.434,17.5953 671.9208,17.5953 671.9208,17.5953 C671.9208,17.5953 721.4076,17.5953 721.4076,28.5924 L721.4076,114.3695 C721.4076,125.3666 671.9208,125.3666 671.9208,125.3666 C671.9208,125.3666 622.434,125.3666 622.434,114.3695 L622.434,28.5924 " fill="#FFFFFF" filter="url(#foahtzdlf4q3f)" style="stroke: #000000; stroke-width: 1.6495601173020527;"/><path d="M622.434,28.5924 C622.434,39.5894 671.9208,39.5894 671.9208,39.5894 C671.9208,39.5894 721.4076,39.5894 721.4076,28.5924 " fill="none" style="stroke: #000000; stroke-width: 1.6495601173020527;"/><text fill="#000000" font-family="sans-serif" font-size="15.3959" font-weight="bold" lengthAdjust="spacingAndGlyphs" textLength="39.5894" x="652.1261" y="56.0797">foo6</text><!--class Class1--><rect fill="#FEFECE" filter="url(#foahtzdlf4q3f)" height="52.7859" id="Class1" style="stroke: #A80036; stroke-width: 1.6495601173020527;" width="80.2786" x="31.3416" y="63.783"/><ellipse cx="47.8372" cy="81.3783" fill="#ADD1B2" rx="12.0968" ry="12.0968" style="stroke: #A80036; stroke-width: 1.099706744868035;"/><path d="M51.102,87.5813 Q50.4662,87.9078 49.7617,88.0625 Q49.0572,88.2343 48.284,88.2343 Q45.5347,88.2343 44.0742,86.4301 Q42.6308,84.6087 42.6308,81.1721 Q42.6308,77.7355 44.0742,75.9141 Q45.5347,74.0927 48.284,74.0927 Q49.0572,74.0927 49.7617,74.2646 Q50.4834,74.4364 51.102,74.7629 L51.102,77.7527 Q50.4147,77.1169 49.7617,76.8248 Q49.1088,76.5155 48.4215,76.5155 Q46.9437,76.5155 46.1877,77.7012 Q45.4316,78.8696 45.4316,81.1721 Q45.4316,83.4746 46.1877,84.6602 Q46.9437,85.8287 48.4215,85.8287 Q49.1088,85.8287 49.7617,85.5366 Q50.4147,85.2273 51.102,84.5915 L51.102,87.5813 Z "/><text fill="#000000" font-family="sans-serif" font-size="13.1965" lengthAdjust="spacingAndGlyphs" textLength="45.088" x="63.2331" y="85.9468">Class1</text><line style="stroke: #A80036; stroke-width: 1.6495601173020527;" x1="32.4413" x2="110.5205" y1="98.9736" y2="98.9736"/><line style="stroke: #A80036; stroke-width: 1.6495601173020527;" x1="32.4413" x2="110.5205" y1="107.7713" y2="107.7713"/><!--class Class2--><rect fill="#FEFECE" filter="url(#foahtzdlf4q3f)" height="52.7859" id="Class2" style="stroke: #A80036; stroke-width: 1.6495601173020527;" width="80.2786" x="156.7082" y="63.783"/><ellipse cx="173.2038" cy="81.3783" fill="#ADD1B2" rx="12.0968" ry="12.0968" style="stroke: #A80036; stroke-width: 1.099706744868035;"/><path d="M176.4686,87.5813 Q175.8328,87.9078 175.1283,88.0625 Q174.4238,88.2343 173.6506,88.2343 Q170.9013,88.2343 169.4408,86.4301 Q167.9974,84.6087 167.9974,81.1721 Q167.9974,77.7355 169.4408,75.9141 Q170.9013,74.0927 173.6506,74.0927 Q174.4238,74.0927 175.1283,74.2646 Q175.85,74.4364 176.4686,74.7629 L176.4686,77.7527 Q175.7813,77.1169 175.1283,76.8248 Q174.4753,76.5155 173.788,76.5155 Q172.3103,76.5155 171.5543,77.7012 Q170.7982,78.8696 170.7982,81.1721 Q170.7982,83.4746 171.5543,84.6602 Q172.3103,85.8287 173.788,85.8287 Q174.4753,85.8287 175.1283,85.5366 Q175.7813,85.2273 176.4686,84.5915 L176.4686,87.5813 Z "/><text fill="#000000" font-family="sans-serif" font-size="13.1965" lengthAdjust="spacingAndGlyphs" textLength="45.088" x="188.5997" y="85.9468">Class2</text><line style="stroke: #A80036; stroke-width: 1.6495601173020527;" x1="157.8079" x2="235.8871" y1="98.9736" y2="98.9736"/><line style="stroke: #A80036; stroke-width: 1.6495601173020527;" x1="157.8079" x2="235.8871" y1="107.7713" y2="107.7713"/><!--class Class3--><rect fill="#FEFECE" filter="url(#foahtzdlf4q3f)" height="52.7859" id="Class3" style="stroke: #A80036; stroke-width: 1.6495601173020527;" width="80.2786" x="275.4765" y="63.783"/><ellipse cx="291.9721" cy="81.3783" fill="#ADD1B2" rx="12.0968" ry="12.0968" style="stroke: #A80036; stroke-width: 1.099706744868035;"/><path d="M295.2369,87.5813 Q294.6011,87.9078 293.8966,88.0625 Q293.1921,88.2343 292.4189,88.2343 Q289.6696,88.2343 288.2091,86.4301 Q286.7657,84.6087 286.7657,81.1721 Q286.7657,77.7355 288.2091,75.9141 Q289.6696,74.0927 292.4189,74.0927 Q293.1921,74.0927 293.8966,74.2646 Q294.6183,74.4364 295.2369,74.7629 L295.2369,77.7527 Q294.5496,77.1169 293.8966,76.8248 Q293.2437,76.5155 292.5564,76.5155 Q291.0786,76.5155 290.3226,77.7012 Q289.5665,78.8696 289.5665,81.1721 Q289.5665,83.4746 290.3226,84.6602 Q291.0786,85.8287 292.5564,85.8287 Q293.2437,85.8287 293.8966,85.5366 Q294.5496,85.2273 295.2369,84.5915 L295.2369,87.5813 Z "/><text fill="#000000" font-family="sans-serif" font-size="13.1965" lengthAdjust="spacingAndGlyphs" textLength="45.088" x="307.368" y="85.9468">Class3</text><line style="stroke: #A80036; stroke-width: 1.6495601173020527;" x1="276.5762" x2="354.6554" y1="98.9736" y2="98.9736"/><line style="stroke: #A80036; stroke-width: 1.6495601173020527;" x1="276.5762" x2="354.6554" y1="107.7713" y2="107.7713"/><!--class Class4--><rect fill="#FEFECE" filter="url(#foahtzdlf4q3f)" height="52.7859" id="Class4" style="stroke: #A80036; stroke-width: 1.6495601173020527;" width="80.2786" x="394.2449" y="63.783"/><ellipse cx="410.7405" cy="81.3783" fill="#ADD1B2" rx="12.0968" ry="12.0968" style="stroke: #A80036; stroke-width: 1.099706744868035;"/><path d="M414.0052,87.5813 Q413.3695,87.9078 412.665,88.0625 Q411.9605,88.2343 411.1872,88.2343 Q408.438,88.2343 406.9774,86.4301 Q405.534,84.6087 405.534,81.1721 Q405.534,77.7355 406.9774,75.9141 Q408.438,74.0927 411.1872,74.0927 Q411.9605,74.0927 412.665,74.2646 Q413.3866,74.4364 414.0052,74.7629 L414.0052,77.7527 Q413.3179,77.1169 412.665,76.8248 Q412.012,76.5155 411.3247,76.5155 Q409.847,76.5155 409.0909,77.7012 Q408.3349,78.8696 408.3349,81.1721 Q408.3349,83.4746 409.0909,84.6602 Q409.847,85.8287 411.3247,85.8287 Q412.012,85.8287 412.665,85.5366 Q413.3179,85.2273 414.0052,84.5915 L414.0052,87.5813 Z "/><text fill="#000000" font-family="sans-serif" font-size="13.1965" lengthAdjust="spacingAndGlyphs" textLength="45.088" x="426.1364" y="85.9468">Class4</text><line style="stroke: #A80036; stroke-width: 1.6495601173020527;" x1="395.3446" x2="473.4238" y1="98.9736" y2="98.9736"/><line style="stroke: #A80036; stroke-width: 1.6495601173020527;" x1="395.3446" x2="473.4238" y1="107.7713" y2="107.7713"/><!--class Class5--><rect fill="#FEFECE" filter="url(#foahtzdlf4q3f)" height="52.7859" id="Class5" style="stroke: #A80036; stroke-width: 1.6495601173020527;" width="80.2786" x="513.0132" y="63.783"/><ellipse cx="529.5088" cy="81.3783" fill="#ADD1B2" rx="12.0968" ry="12.0968" style="stroke: #A80036; stroke-width: 1.099706744868035;"/><path d="M532.7736,87.5813 Q532.1378,87.9078 531.4333,88.0625 Q530.7288,88.2343 529.9556,88.2343 Q527.2063,88.2343 525.7457,86.4301 Q524.3024,84.6087 524.3024,81.1721 Q524.3024,77.7355 525.7457,75.9141 Q527.2063,74.0927 529.9556,74.0927 Q530.7288,74.0927 531.4333,74.2646 Q532.155,74.4364 532.7736,74.7629 L532.7736,77.7527 Q532.0862,77.1169 531.4333,76.8248 Q530.7803,76.5155 530.093,76.5155 Q528.6153,76.5155 527.8592,77.7012 Q527.1032,78.8696 527.1032,81.1721 Q527.1032,83.4746 527.8592,84.6602 Q528.6153,85.8287 530.093,85.8287 Q530.7803,85.8287 531.4333,85.5366 Q532.0862,85.2273 532.7736,84.5915 L532.7736,87.5813 Z "/><text fill="#000000" font-family="sans-serif" font-size="13.1965" lengthAdjust="spacingAndGlyphs" textLength="45.088" x="544.9047" y="85.9468">Class5</text><line style="stroke: #A80036; stroke-width: 1.6495601173020527;" x1="514.1129" x2="592.1921" y1="98.9736" y2="98.9736"/><line style="stroke: #A80036; stroke-width: 1.6495601173020527;" x1="514.1129" x2="592.1921" y1="107.7713" y2="107.7713"/><!--class Class6--><rect fill="#FEFECE" filter="url(#foahtzdlf4q3f)" height="52.7859" id="Class6" style="stroke: #A80036; stroke-width: 1.6495601173020527;" width="80.2786" x="631.7815" y="63.783"/><ellipse cx="648.2771" cy="81.3783" fill="#ADD1B2" rx="12.0968" ry="12.0968" style="stroke: #A80036; stroke-width: 1.099706744868035;"/><path d="M651.5419,87.5813 Q650.9061,87.9078 650.2016,88.0625 Q649.4971,88.2343 648.7239,88.2343 Q645.9746,88.2343 644.5141,86.4301 Q643.0707,84.6087 643.0707,81.1721 Q643.0707,77.7355 644.5141,75.9141 Q645.9746,74.0927 648.7239,74.0927 Q649.4971,74.0927 650.2016,74.2646 Q650.9233,74.4364 651.5419,74.7629 L651.5419,77.7527 Q650.8546,77.1169 650.2016,76.8248 Q649.5487,76.5155 648.8613,76.5155 Q647.3836,76.5155 646.6276,77.7012 Q645.8715,78.8696 645.8715,81.1721 Q645.8715,83.4746 646.6276,84.6602 Q647.3836,85.8287 648.8613,85.8287 Q649.5487,85.8287 650.2016,85.5366 Q650.8546,85.2273 651.5419,84.5915 L651.5419,87.5813 Z "/><text fill="#000000" font-family="sans-serif" font-size="13.1965" lengthAdjust="spacingAndGlyphs" textLength="45.088" x="663.673" y="85.9468">Class6</text><line style="stroke: #A80036; stroke-width: 1.6495601173020527;" x1="632.8812" x2="710.9604" y1="98.9736" y2="98.9736"/><line style="stroke: #A80036; stroke-width: 1.6495601173020527;" x1="632.8812" x2="710.9604" y1="107.7713" y2="107.7713"/><!--
@startuml
scale 750 width
package foo1 <<Node>> {
  class Class1
}
package foo2 <<Rectangle>> {
  class Class2
}
package foo3 <<Folder>> {
  class Class3
}
package foo4 <<Frame>> {
  class Class4
}
package foo5 <<Cloud>> {
  class Class5
}
package foo6 <<Database>> {
  class Class6
}
@enduml

PlantUML version 1.2019.05(Sat Apr 20 16:45:36 UTC 2019)
(GPL source distribution)
Java Runtime: OpenJDK Runtime Environment
JVM: OpenJDK 64-Bit Server VM
Java Version: 11.0.9+11-post-Debian-1deb10u1
Operating System: Linux
OS Version: 5.4.0-1047-azure
Default Encoding: UTF-8
Language: en
Country: null
--></g></svg>