<?xml version="1.0" encoding="UTF-8" standalone="no"?><svg xmlns="http://www.w3.org/2000/svg" xmlns:xlink="http://www.w3.org/1999/xlink" contentScriptType="application/ecmascript" contentStyleType="text/css" height="516px" preserveAspectRatio="none" style="width:548px;height:516px;" version="1.1" viewBox="0 0 548 516" width="548px" zoomAndPan="magnify"><defs><filter height="300%" id="f60wr1xvulbnq" width="300%" x="-1" y="-1"><feGaussianBlur result="blurOut" stdDeviation="2.0"/><feColorMatrix in="blurOut" result="blurOut2" type="matrix" values="0 0 0 0 0 0 0 0 0 0 0 0 0 0 0 0 0 0 .4 0"/><feOffset dx="4.0" dy="4.0" in="blurOut2" result="blurOut3"/><feBlend in="SourceGraphic" in2="blurOut3" mode="normal"/></filter></defs><g><!--entity 用户--><ellipse cx="49.5" cy="18" fill="#FEFECE" filter="url(#f60wr1xvulbnq)" rx="8" ry="8" style="stroke: #A80036; stroke-width: 2.0;"/><path d="M49.5,26 L49.5,53 M36.5,34 L62.5,34 M49.5,53 L36.5,68 M49.5,53 L62.5,68 " fill="none" filter="url(#f60wr1xvulbnq)" style="stroke: #A80036; stroke-width: 2.0;"/><text fill="#000000" font-family="sans-serif" font-size="14" lengthAdjust="spacingAndGlyphs" textLength="28" x="35.5" y="88.5352">用户</text><!--entity 代理--><rect fill="#FEFECE" filter="url(#f60wr1xvulbnq)" height="36.4883" style="stroke: #A80036; stroke-width: 1.5;" width="48" x="99.5" y="31.5"/><text fill="#000000" font-family="sans-serif" font-size="14" lengthAdjust="spacingAndGlyphs" textLength="28" x="109.5" y="55.0352">代理</text><!--entity artifact--><rect fill="#FEFECE" filter="url(#f60wr1xvulbnq)" height="39.4883" style="stroke: #000000; stroke-width: 1.5;" width="78" x="182.5" y="30"/><polygon fill="#FEFECE" points="243.5,35,243.5,49,255.5,49,255.5,41,249.5,35,243.5,35" style="stroke: #000000; stroke-width: 1.5;"/><line style="stroke: #000000; stroke-width: 1.5;" x1="249.5" x2="249.5" y1="35" y2="41"/><line style="stroke: #000000; stroke-width: 1.5;" x1="255.5" x2="249.5" y1="41" y2="41"/><text fill="#000000" font-family="sans-serif" font-size="14" lengthAdjust="spacingAndGlyphs" textLength="48" x="192.5" y="56.5352">artifact</text><!--entity boundary--><path d="M308,29.5 L308,53.5 M308,41.5 L325,41.5 " fill="none" filter="url(#f60wr1xvulbnq)" style="stroke: #A80036; stroke-width: 2.0;"/><ellipse cx="337" cy="41.5" fill="#FEFECE" filter="url(#f60wr1xvulbnq)" rx="12" ry="12" style="stroke: #A80036; stroke-width: 2.0;"/><text fill="#000000" font-family="sans-serif" font-size="14" lengthAdjust="spacingAndGlyphs" textLength="66" x="295.5" y="71.0352">boundary</text><!--entity 卡版--><rect fill="#FEFECE" filter="url(#f60wr1xvulbnq)" height="22.4883" style="stroke: #000000; stroke-width: 1.5;" width="48" x="396.5" y="38.5"/><text fill="#000000" font-family="sans-serif" font-size="14" lengthAdjust="spacingAndGlyphs" textLength="28" x="406.5" y="55.0352">卡版</text><!--entity 云--><path d="M36.443,161.6908 C38.2977,153.5251 44.7246,152.9156 50.23,157.8482 C55.6307,152.3677 61.3039,153.3745 63.9707,160.7665 C72.3271,162.3271 74.8944,169.7888 68.9327,176.0101 C74.2911,182.854 74.1007,189.8045 64.1635,192.1204 C60.2971,198.2387 55.6497,197.5394 51.5008,192.4392 C46.5058,200.4573 40.0187,200.1058 35.7592,191.7329 C27.111,189.34 26.4635,181.6857 31.8204,175.8251 C26.991,169.5427 27.7663,163.5561 36.443,161.6908 " fill="#FEFECE" style="stroke: #000000; stroke-width: 1.5;"/><text fill="#000000" font-family="sans-serif" font-size="14" lengthAdjust="spacingAndGlyphs" textLength="14" x="42.5" y="180.5352">云</text><!--entity 组件--><rect fill="#FEFECE" filter="url(#f60wr1xvulbnq)" height="36.4883" style="stroke: #A80036; stroke-width: 1.5;" width="48" x="106.5" y="157"/><rect fill="#FEFECE" height="5" style="stroke: #A80036; stroke-width: 1.5;" width="10" x="101.5" y="162"/><rect fill="#FEFECE" height="5" style="stroke: #A80036; stroke-width: 1.5;" width="10" x="101.5" y="183.4883"/><text fill="#000000" font-family="sans-serif" font-size="14" lengthAdjust="spacingAndGlyphs" textLength="28" x="116.5" y="180.5352">组件</text><!--entity 控制--><ellipse cx="205.5" cy="167" fill="#FEFECE" filter="url(#f60wr1xvulbnq)" rx="12" ry="12" style="stroke: #A80036; stroke-width: 2.0;"/><polygon fill="#A80036" points="201.5,155,207.5,150,205.5,155,207.5,160,201.5,155" style="stroke: #A80036; stroke-width: 1.0;"/><text fill="#000000" font-family="sans-serif" font-size="14" lengthAdjust="spacingAndGlyphs" textLength="28" x="191.5" y="196.5352">控制</text><!--entity 数据库--><path d="M256.5,162.5 C256.5,152.5 287.5,152.5 287.5,152.5 C287.5,152.5 318.5,152.5 318.5,162.5 L318.5,187.9883 C318.5,197.9883 287.5,197.9883 287.5,197.9883 C287.5,197.9883 256.5,197.9883 256.5,187.9883 L256.5,162.5 " fill="#FEFECE" filter="url(#f60wr1xvulbnq)" style="stroke: #000000; stroke-width: 1.5;"/><path d="M256.5,162.5 C256.5,172.5 287.5,172.5 287.5,172.5 C287.5,172.5 318.5,172.5 318.5,162.5 " fill="none" style="stroke: #000000; stroke-width: 1.5;"/><text fill="#000000" font-family="sans-serif" font-size="14" lengthAdjust="spacingAndGlyphs" textLength="42" x="266.5" y="190.0352">数据库</text><!--entity 实例--><ellipse cx="369.5" cy="167" fill="#FEFECE" filter="url(#f60wr1xvulbnq)" rx="12" ry="12" style="stroke: #A80036; stroke-width: 2.0;"/><line style="stroke: #A80036; stroke-width: 2.0;" x1="357.5" x2="381.5" y1="181" y2="181"/><text fill="#000000" font-family="sans-serif" font-size="14" lengthAdjust="spacingAndGlyphs" textLength="28" x="355.5" y="196.5352">实例</text><!--entity 文件--><polygon fill="#FEFECE" filter="url(#f60wr1xvulbnq)" points="25.5,270,25.5,306.4883,73.5,306.4883,73.5,280,63.5,270,25.5,270" style="stroke: #000000; stroke-width: 1.5;"/><path d="M63.5,270 L63.5,280 L73.5,280 " fill="#FEFECE" style="stroke: #000000; stroke-width: 1.5;"/><text fill="#000000" font-family="sans-serif" font-size="14" lengthAdjust="spacingAndGlyphs" textLength="28" x="35.5" y="293.5352">文件</text><!--entity 文件夹--><polygon fill="#FEFECE" filter="url(#f60wr1xvulbnq)" points="108.5,260,154.5,260,161.5,281,180.5,281,180.5,315.9766,108.5,315.9766,108.5,260" style="stroke: #000000; stroke-width: 1.5;"/><line style="stroke: #000000; stroke-width: 1.5;" x1="108.5" x2="161.5" y1="281" y2="281"/><text fill="#000000" font-family="sans-serif" font-size="14" lengthAdjust="spacingAndGlyphs" textLength="42" x="118.5" y="301.5352">文件夹</text><!--entity frame--><rect fill="#FEFECE" filter="url(#f60wr1xvulbnq)" height="46.4883" style="stroke: #000000; stroke-width: 1.5;" width="80" x="215.5" y="265"/><path d="M242.1667,266 L242.1667,270 L235.1667,277 L215.5,277 " fill="none" style="stroke: #000000; stroke-width: 1.5;"/><text fill="#000000" font-family="sans-serif" font-size="14" lengthAdjust="spacingAndGlyphs" textLength="40" x="230.5" y="298.5352">frame</text><!--entity interface--><ellipse cx="368.5" cy="288" fill="#FEFECE" filter="url(#f60wr1xvulbnq)" rx="8" ry="8" style="stroke: #A80036; stroke-width: 2.0;"/><text fill="#000000" font-family="sans-serif" font-size="14" lengthAdjust="spacingAndGlyphs" textLength="60" x="338.5" y="318.5352">interface</text><!--entity node--><polygon fill="#FEFECE" filter="url(#f60wr1xvulbnq)" points="442,275,452,265,517,265,517,301.4883,507,311.4883,442,311.4883,442,275" style="stroke: #000000; stroke-width: 1.5;"/><line style="stroke: #000000; stroke-width: 1.5;" x1="507" x2="516" y1="275" y2="266"/><line style="stroke: #000000; stroke-width: 1.5;" x1="442" x2="507" y1="275" y2="275"/><line style="stroke: #000000; stroke-width: 1.5;" x1="507" x2="507" y1="275" y2="311.4883"/><text fill="#000000" font-family="sans-serif" font-size="14" lengthAdjust="spacingAndGlyphs" textLength="35" x="457" y="298.5352">node</text><!--entity package--><polygon fill="#FEFECE" filter="url(#f60wr1xvulbnq)" points="6,377,69,377,76,399.4883,93,399.4883,93,416.4883,6,416.4883,6,377" style="stroke: #000000; stroke-width: 1.5;"/><line style="stroke: #000000; stroke-width: 1.5;" x1="6" x2="76" y1="399.4883" y2="399.4883"/><text fill="#000000" font-family="sans-serif" font-size="14" lengthAdjust="spacingAndGlyphs" textLength="57" x="10" y="393.5352">package</text><!--entity queue--><path d="M133,383.5 L186,383.5 C191,383.5 191,396.7441 191,396.7441 C191,396.7441 191,409.9883 186,409.9883 L133,409.9883 C128,409.9883 128,396.7441 128,396.7441 C128,396.7441 128,383.5 133,383.5 " fill="#FEFECE" filter="url(#f60wr1xvulbnq)" style="stroke: #A80036; stroke-width: 1.5;"/><path d="M186,383.5 C181,383.5 181,396.7441 181,396.7441 C181,409.9883 186,409.9883 186,409.9883 " fill="none" style="stroke: #A80036; stroke-width: 1.5;"/><text fill="#000000" font-family="sans-serif" font-size="14" lengthAdjust="spacingAndGlyphs" textLength="43" x="133" y="402.0352">queue</text><!--entity stack--><rect fill="#FEFECE" filter="url(#f60wr1xvulbnq)" height="36.4883" style="stroke: none; stroke-width: 1.5;" width="55" x="241" y="378.5"/><path d="M226,378.5 L241,378.5 L241,414.9883 L296,414.9883 L296,378.5 L311,378.5 " fill="none" style="stroke: #A80036; stroke-width: 1.5;"/><text fill="#000000" font-family="sans-serif" font-size="14" lengthAdjust="spacingAndGlyphs" textLength="35" x="251" y="402.0352">stack</text><!--entity rectangle--><rect fill="#FEFECE" filter="url(#f60wr1xvulbnq)" height="36.4883" style="stroke: #000000; stroke-width: 1.5;" width="84" x="346.5" y="378.5"/><text fill="#000000" font-family="sans-serif" font-size="14" lengthAdjust="spacingAndGlyphs" textLength="64" x="356.5" y="402.0352">rectangle</text><!--entity storage--><rect fill="#FEFECE" filter="url(#f60wr1xvulbnq)" height="36.4883" rx="35" ry="35" style="stroke: #000000; stroke-width: 1.5;" width="72" x="465.5" y="378.5"/><text fill="#000000" font-family="sans-serif" font-size="14" lengthAdjust="spacingAndGlyphs" textLength="52" x="475.5" y="402.0352">storage</text><ellipse cx="49.6838" cy="490.659" fill="#FEFECE" filter="url(#f60wr1xvulbnq)" rx="41.1838" ry="14.659" style="stroke: #A80036; stroke-width: 1.5;"/><text fill="#000000" font-family="sans-serif" font-size="14" lengthAdjust="spacingAndGlyphs" textLength="54" x="22.6838" y="495.4031">usecase</text><!--link 用户 to 代理--><!--link 代理 to artifact--><!--link artifact to boundary--><!--link boundary to 卡版--><!--link 用户 to 云--><!--link 云 to 组件--><!--link 组件 to 控制--><!--link 控制 to 数据库--><!--link 数据库 to 实例--><!--link 云 to 文件--><!--link 文件 to 文件夹--><!--link 文件夹 to frame--><!--link frame to interface--><!--link interface to node--><!--link 文件 to package--><!--link package to queue--><!--link queue to stack--><!--link stack to rectangle--><!--link rectangle to storage--><!--link package to usecase--><!--
@startuml
actor 用户
agent 代理
artifact artifact
boundary boundary
card 卡版
cloud 云
component 组件
control 控制
database 数据库
entity 实例
file 文件
folder 文件夹
frame frame
interface  interface
node node
package package
queue queue
stack stack
rectangle rectangle
storage storage
usecase usecase
@enduml

PlantUML version 1.2019.05(Sun Apr 21 00:45:36 CST 2019)
(GPL source distribution)
Java Runtime: Java(TM) SE Runtime Environment
JVM: Java HotSpot(TM) 64-Bit Server VM
Java Version: 1.8.0_191-b12
Operating System: Mac OS X
OS Version: 10.16
Default Encoding: UTF-8
Language: en
Country: CN
--></g></svg>