<?xml version="1.0" encoding="UTF-8" standalone="no"?><svg xmlns="http://www.w3.org/2000/svg" xmlns:xlink="http://www.w3.org/1999/xlink" contentScriptType="application/ecmascript" contentStyleType="text/css" height="144.7964px" preserveAspectRatio="none" style="width:734px;height:144px;" version="1.1" viewBox="0 0 734 144" width="734.1629px" zoomAndPan="magnify"><defs><filter height="300%" id="foahtzdlf4q3f" width="300%" x="-1" y="-1"><feGaussianBlur result="blurOut" stdDeviation="2.262443438914027"/><feColorMatrix in="blurOut" result="blurOut2" type="matrix" values="0 0 0 0 0 0 0 0 0 0 0 0 0 0 0 0 0 0 .4 0"/><feOffset dx="4.524886877828054" dy="4.524886877828054" in="blurOut2" result="blurOut3"/><feBlend in="SourceGraphic" in2="blurOut3" mode="normal"/></filter></defs><g><!--cluster foo1--><polygon fill="#FFFFFF" filter="url(#foahtzdlf4q3f)" points="15.8371,40.724,27.1493,29.4118,139.1403,29.4118,139.1403,117.6471,127.8281,128.9593,15.8371,128.9593,15.8371,40.724" style="stroke: #000000; stroke-width: 1.6968325791855203;"/><line style="stroke: #000000; stroke-width: 1.6968325791855203;" x1="127.8281" x2="138.009" y1="40.724" y2="30.543"/><line style="stroke: #000000; stroke-width: 1.6968325791855203;" x1="15.8371" x2="127.8281" y1="40.724" y2="40.724"/><line style="stroke: #000000; stroke-width: 1.6968325791855203;" x1="127.8281" x2="127.8281" y1="40.724" y2="128.9593"/><text fill="#000000" font-family="sans-serif" font-size="15.8371" font-weight="bold" lengthAdjust="spacingAndGlyphs" textLength="37.3303" x="54.2986" y="59.4289">foo1</text><!--cluster foo2--><rect fill="#FFFFFF" filter="url(#foahtzdlf4q3f)" height="93.8914" style="stroke: #000000; stroke-width: 1.6968325791855203;" width="97.2851" x="148.19" y="35.0679"/><text fill="#000000" font-family="sans-serif" font-size="15.8371" font-weight="bold" lengthAdjust="spacingAndGlyphs" textLength="37.3303" x="178.1674" y="52.6416">foo2</text><!--cluster foo3--><polygon fill="#FFFFFF" filter="url(#foahtzdlf4q3f)" points="266.9683,35.0679,311.086,35.0679,319.0045,60.5071,364.2534,60.5071,364.2534,128.9593,266.9683,128.9593,266.9683,35.0679" style="stroke: #000000; stroke-width: 1.6968325791855203;"/><line style="stroke: #000000; stroke-width: 1.6968325791855203;" x1="266.9683" x2="319.0045" y1="60.5071" y2="60.5071"/><text fill="#000000" font-family="sans-serif" font-size="15.8371" font-weight="bold" lengthAdjust="spacingAndGlyphs" textLength="37.3303" x="271.4932" y="52.6416">foo3</text><!--cluster foo4--><rect fill="#FFFFFF" filter="url(#foahtzdlf4q3f)" height="93.8914" style="stroke: #000000; stroke-width: 1.6968325791855203;" width="97.2851" x="385.7466" y="35.0679"/><path d="M434.3891,36.1991 L434.3891,45.8012 L423.0769,57.1134 L385.7466,57.1134 " fill="none" style="stroke: #000000; stroke-width: 1.6968325791855203;"/><text fill="#000000" font-family="sans-serif" font-size="15.8371" font-weight="bold" lengthAdjust="spacingAndGlyphs" textLength="37.3303" x="389.1403" y="51.5104">foo4</text><!--cluster foo5--><path d="M513.8076,45.3493 C516.5057,37.6462 523.1846,37.4004 528.0958,42.9663 C532.4654,35.2417 536.6691,36.3671 541.7315,42.2732 C545.9234,35.984 550.0293,35.547 554.957,41.4767 C559.1677,35.4905 564.4977,35.6714 567.3585,42.7574 C571.6441,37.1849 577.8079,38.5044 580.7752,44.3117 C585.2271,39.3384 590.6401,40.4279 593.6212,46.0884 C599.7053,49.0002 602.1613,53.2219 596.5868,58.8442 C602.5695,61.5786 602.9024,65.918 597.4176,69.5429 C603.951,72.936 604.8258,78.1381 599.2444,83.1568 C606.1931,88.4447 603.9133,92.9805 597.8308,96.9311 C603.1641,102.5642 601.1517,106.6256 594.681,109.2375 C600.3896,112.7379 599.3963,118.3269 593.4276,120.5314 C590.6343,127.6584 584.2821,128.0773 579.5775,122.6378 C577.1169,129.0465 571.8613,130.3769 567.5872,124.3923 C563.3458,131.0897 559.5264,129.7681 555.0967,124.5904 C551.3717,130.7743 544.7157,131.2376 541.2824,124.2836 C535.551,129.6093 530.8756,130.1887 527.0297,122.2566 C522.5082,128.0298 518.5223,127.347 514.2121,122.0129 C508.3565,117.9403 507.2157,112.1673 514.221,108.103 C507.9125,105.8468 506.8395,100.501 512.0211,96.133 C505.5946,91.761 505.9246,87.8107 511.9493,83.3686 C506.1658,79.6349 505.5428,75.1153 511.0255,70.5685 C505.7163,65.7687 506.4578,61.166 512.7125,57.907 C507.5471,54.2536 508.1723,48.0608 513.8076,45.3493 " fill="#FFFFFF" style="stroke: #000000; stroke-width: 1.6968325791855203;"/><text fill="#000000" font-family="sans-serif" font-size="15.8371" font-weight="bold" lengthAdjust="spacingAndGlyphs" textLength="37.3303" x="534.5023" y="65.085">foo5</text><!--cluster foo6--><path d="M623.3032,29.4118 C623.3032,18.0995 671.9457,18.0995 671.9457,18.0995 C671.9457,18.0995 720.5882,18.0995 720.5882,29.4118 L720.5882,117.6471 C720.5882,128.9593 671.9457,128.9593 671.9457,128.9593 C671.9457,128.9593 623.3032,128.9593 623.3032,117.6471 L623.3032,29.4118 " fill="#FFFFFF" filter="url(#foahtzdlf4q3f)" style="stroke: #000000; stroke-width: 1.6968325791855203;"/><path d="M623.3032,29.4118 C623.3032,40.724 671.9457,40.724 671.9457,40.724 C671.9457,40.724 720.5882,40.724 720.5882,29.4118 " fill="none" style="stroke: #000000; stroke-width: 1.6968325791855203;"/><text fill="#000000" font-family="sans-serif" font-size="15.8371" font-weight="bold" lengthAdjust="spacingAndGlyphs" textLength="37.3303" x="653.2805" y="58.2977">foo6</text><!--class Class1--><rect fill="#FEFECE" filter="url(#foahtzdlf4q3f)" height="54.2986" id="Class1" style="stroke: #A80036; stroke-width: 1.6968325791855203;" width="79.1855" x="31.6742" y="65.6109"/><ellipse cx="48.6425" cy="83.7104" fill="#ADD1B2" rx="12.4434" ry="12.4434" style="stroke: #A80036; stroke-width: 1.1312217194570136;"/><path d="M51.4402,90.6596 Q50.7829,90.9976 50.0599,91.1666 Q49.3368,91.3357 48.5387,91.3357 Q45.7029,91.3357 44.2099,89.467 Q42.7169,87.5984 42.7169,84.0678 Q42.7169,80.5277 44.2099,78.6591 Q45.7029,76.7905 48.5387,76.7905 Q49.3368,76.7905 50.0693,76.9595 Q50.8017,77.1286 51.4402,77.4666 L51.4402,80.5465 Q50.7266,79.8892 50.0552,79.584 Q49.3838,79.2789 48.6702,79.2789 Q47.149,79.2789 46.3743,80.4855 Q45.5996,81.6921 45.5996,84.0678 Q45.5996,86.4341 46.3743,87.6407 Q47.149,88.8473 48.6702,88.8473 Q49.3838,88.8473 50.0552,88.5421 Q50.7266,88.237 51.4402,87.5796 Z "/><text fill="#000000" font-family="sans-serif" font-size="13.5747" lengthAdjust="spacingAndGlyphs" textLength="42.9864" x="64.4796" y="88.8407">Class1</text><line style="stroke: #A80036; stroke-width: 1.6968325791855203;" x1="32.8054" x2="109.7285" y1="101.81" y2="101.81"/><line style="stroke: #A80036; stroke-width: 1.6968325791855203;" x1="32.8054" x2="109.7285" y1="110.8597" y2="110.8597"/><!--class Class2--><rect fill="#FEFECE" filter="url(#foahtzdlf4q3f)" height="54.2986" id="Class2" style="stroke: #A80036; stroke-width: 1.6968325791855203;" width="79.1855" x="157.2398" y="65.6109"/><ellipse cx="174.2081" cy="83.7104" fill="#ADD1B2" rx="12.4434" ry="12.4434" style="stroke: #A80036; stroke-width: 1.1312217194570136;"/><path d="M177.0058,90.6596 Q176.3485,90.9976 175.6255,91.1666 Q174.9025,91.3357 174.1043,91.3357 Q171.2685,91.3357 169.7755,89.467 Q168.2825,87.5984 168.2825,84.0678 Q168.2825,80.5277 169.7755,78.6591 Q171.2685,76.7905 174.1043,76.7905 Q174.9025,76.7905 175.6349,76.9595 Q176.3673,77.1286 177.0058,77.4666 L177.0058,80.5465 Q176.2922,79.8892 175.6208,79.584 Q174.9494,79.2789 174.2358,79.2789 Q172.7146,79.2789 171.9399,80.4855 Q171.1652,81.6921 171.1652,84.0678 Q171.1652,86.4341 171.9399,87.6407 Q172.7146,88.8473 174.2358,88.8473 Q174.9494,88.8473 175.6208,88.5421 Q176.2922,88.237 177.0058,87.5796 Z "/><text fill="#000000" font-family="sans-serif" font-size="13.5747" lengthAdjust="spacingAndGlyphs" textLength="42.9864" x="190.0452" y="88.8407">Class2</text><line style="stroke: #A80036; stroke-width: 1.6968325791855203;" x1="158.371" x2="235.2941" y1="101.81" y2="101.81"/><line style="stroke: #A80036; stroke-width: 1.6968325791855203;" x1="158.371" x2="235.2941" y1="110.8597" y2="110.8597"/><!--class Class3--><rect fill="#FEFECE" filter="url(#foahtzdlf4q3f)" height="54.2986" id="Class3" style="stroke: #A80036; stroke-width: 1.6968325791855203;" width="79.1855" x="276.0181" y="65.6109"/><ellipse cx="292.9864" cy="83.7104" fill="#ADD1B2" rx="12.4434" ry="12.4434" style="stroke: #A80036; stroke-width: 1.1312217194570136;"/><path d="M295.7841,90.6596 Q295.1268,90.9976 294.4038,91.1666 Q293.6807,91.3357 292.8826,91.3357 Q290.0468,91.3357 288.5538,89.467 Q287.0608,87.5984 287.0608,84.0678 Q287.0608,80.5277 288.5538,78.6591 Q290.0468,76.7905 292.8826,76.7905 Q293.6807,76.7905 294.4132,76.9595 Q295.1456,77.1286 295.7841,77.4666 L295.7841,80.5465 Q295.0705,79.8892 294.3991,79.584 Q293.7277,79.2789 293.014,79.2789 Q291.4929,79.2789 290.7182,80.4855 Q289.9435,81.6921 289.9435,84.0678 Q289.9435,86.4341 290.7182,87.6407 Q291.4929,88.8473 293.014,88.8473 Q293.7277,88.8473 294.3991,88.5421 Q295.0705,88.237 295.7841,87.5796 Z "/><text fill="#000000" font-family="sans-serif" font-size="13.5747" lengthAdjust="spacingAndGlyphs" textLength="42.9864" x="308.8235" y="88.8407">Class3</text><line style="stroke: #A80036; stroke-width: 1.6968325791855203;" x1="277.1493" x2="354.0724" y1="101.81" y2="101.81"/><line style="stroke: #A80036; stroke-width: 1.6968325791855203;" x1="277.1493" x2="354.0724" y1="110.8597" y2="110.8597"/><!--class Class4--><rect fill="#FEFECE" filter="url(#foahtzdlf4q3f)" height="54.2986" id="Class4" style="stroke: #A80036; stroke-width: 1.6968325791855203;" width="79.1855" x="394.7964" y="65.6109"/><ellipse cx="411.7647" cy="83.7104" fill="#ADD1B2" rx="12.4434" ry="12.4434" style="stroke: #A80036; stroke-width: 1.1312217194570136;"/><path d="M414.5624,90.6596 Q413.9051,90.9976 413.182,91.1666 Q412.459,91.3357 411.6609,91.3357 Q408.8251,91.3357 407.3321,89.467 Q405.839,87.5984 405.839,84.0678 Q405.839,80.5277 407.3321,78.6591 Q408.8251,76.7905 411.6609,76.7905 Q412.459,76.7905 413.1914,76.9595 Q413.9239,77.1286 414.5624,77.4666 L414.5624,80.5465 Q413.8487,79.8892 413.1774,79.584 Q412.506,79.2789 411.7923,79.2789 Q410.2711,79.2789 409.4965,80.4855 Q408.7218,81.6921 408.7218,84.0678 Q408.7218,86.4341 409.4965,87.6407 Q410.2711,88.8473 411.7923,88.8473 Q412.506,88.8473 413.1774,88.5421 Q413.8487,88.237 414.5624,87.5796 Z "/><text fill="#000000" font-family="sans-serif" font-size="13.5747" lengthAdjust="spacingAndGlyphs" textLength="42.9864" x="427.6018" y="88.8407">Class4</text><line style="stroke: #A80036; stroke-width: 1.6968325791855203;" x1="395.9276" x2="472.8507" y1="101.81" y2="101.81"/><line style="stroke: #A80036; stroke-width: 1.6968325791855203;" x1="395.9276" x2="472.8507" y1="110.8597" y2="110.8597"/><!--class Class5--><rect fill="#FEFECE" filter="url(#foahtzdlf4q3f)" height="54.2986" id="Class5" style="stroke: #A80036; stroke-width: 1.6968325791855203;" width="79.1855" x="513.5747" y="65.6109"/><ellipse cx="530.543" cy="83.7104" fill="#ADD1B2" rx="12.4434" ry="12.4434" style="stroke: #A80036; stroke-width: 1.1312217194570136;"/><path d="M533.3407,90.6596 Q532.6834,90.9976 531.9603,91.1666 Q531.2373,91.3357 530.4391,91.3357 Q527.6034,91.3357 526.1103,89.467 Q524.6173,87.5984 524.6173,84.0678 Q524.6173,80.5277 526.1103,78.6591 Q527.6034,76.7905 530.4391,76.7905 Q531.2373,76.7905 531.9697,76.9595 Q532.7021,77.1286 533.3407,77.4666 L533.3407,80.5465 Q532.627,79.8892 531.9556,79.584 Q531.2842,79.2789 530.5706,79.2789 Q529.0494,79.2789 528.2747,80.4855 Q527.5001,81.6921 527.5001,84.0678 Q527.5001,86.4341 528.2747,87.6407 Q529.0494,88.8473 530.5706,88.8473 Q531.2842,88.8473 531.9556,88.5421 Q532.627,88.237 533.3407,87.5796 Z "/><text fill="#000000" font-family="sans-serif" font-size="13.5747" lengthAdjust="spacingAndGlyphs" textLength="42.9864" x="546.3801" y="88.8407">Class5</text><line style="stroke: #A80036; stroke-width: 1.6968325791855203;" x1="514.7059" x2="591.629" y1="101.81" y2="101.81"/><line style="stroke: #A80036; stroke-width: 1.6968325791855203;" x1="514.7059" x2="591.629" y1="110.8597" y2="110.8597"/><!--class Class6--><rect fill="#FEFECE" filter="url(#foahtzdlf4q3f)" height="54.2986" id="Class6" style="stroke: #A80036; stroke-width: 1.6968325791855203;" width="79.1855" x="632.3529" y="65.6109"/><ellipse cx="649.3213" cy="83.7104" fill="#ADD1B2" rx="12.4434" ry="12.4434" style="stroke: #A80036; stroke-width: 1.1312217194570136;"/><path d="M652.1189,90.6596 Q651.4616,90.9976 650.7386,91.1666 Q650.0156,91.3357 649.2174,91.3357 Q646.3816,91.3357 644.8886,89.467 Q643.3956,87.5984 643.3956,84.0678 Q643.3956,80.5277 644.8886,78.6591 Q646.3816,76.7905 649.2174,76.7905 Q650.0156,76.7905 650.748,76.9595 Q651.4804,77.1286 652.1189,77.4666 L652.1189,80.5465 Q651.4053,79.8892 650.7339,79.584 Q650.0625,79.2789 649.3489,79.2789 Q647.8277,79.2789 647.053,80.4855 Q646.2783,81.6921 646.2783,84.0678 Q646.2783,86.4341 647.053,87.6407 Q647.8277,88.8473 649.3489,88.8473 Q650.0625,88.8473 650.7339,88.5421 Q651.4053,88.237 652.1189,87.5796 Z "/><text fill="#000000" font-family="sans-serif" font-size="13.5747" lengthAdjust="spacingAndGlyphs" textLength="42.9864" x="665.1584" y="88.8407">Class6</text><line style="stroke: #A80036; stroke-width: 1.6968325791855203;" x1="633.4842" x2="710.4072" y1="101.81" y2="101.81"/><line style="stroke: #A80036; stroke-width: 1.6968325791855203;" x1="633.4842" x2="710.4072" y1="110.8597" y2="110.8597"/><!--
@startuml
scale 750 width
package foo1 <<Node>> {
  class Class1
}
package foo2 <<Rectangle>> {
  class Class2
}
package foo3 <<Folder>> {
  class Class3
}
package foo4 <<Frame>> {
  class Class4
}
package foo5 <<Cloud>> {
  class Class5
}
package foo6 <<Database>> {
  class Class6
}
@enduml

PlantUML version 1.2019.05(Sun Apr 21 00:45:36 CST 2019)
(GPL source distribution)
Java Runtime: Java(TM) SE Runtime Environment
JVM: Java HotSpot(TM) 64-Bit Server VM
Java Version: 1.8.0_191-b12
Operating System: Mac OS X
OS Version: 10.16
Default Encoding: UTF-8
Language: en
Country: CN
--></g></svg>