<?xml version="1.0" encoding="UTF-8" standalone="no"?><svg xmlns="http://www.w3.org/2000/svg" xmlns:xlink="http://www.w3.org/1999/xlink" contentScriptType="application/ecmascript" contentStyleType="text/css" height="311px" preserveAspectRatio="none" style="width:310px;height:311px;" version="1.1" viewBox="0 0 310 311" width="310px" zoomAndPan="magnify"><defs><filter height="300%" id="ffh95qyjd1g7y" width="300%" x="-1" y="-1"><feGaussianBlur result="blurOut" stdDeviation="2.0"/><feColorMatrix in="blurOut" result="blurOut2" type="matrix" values="0 0 0 0 0 0 0 0 0 0 0 0 0 0 0 0 0 0 .4 0"/><feOffset dx="4.0" dy="4.0" in="blurOut2" result="blurOut3"/><feBlend in="SourceGraphic" in2="blurOut3" mode="normal"/></filter></defs><g><ellipse cx="83" cy="20" fill="#000000" filter="url(#ffh95qyjd1g7y)" rx="10" ry="10" style="stroke: none; stroke-width: 1.0;"/><rect fill="#FEFECE" filter="url(#ffh95qyjd1g7y)" height="33.9688" rx="12.5" ry="12.5" style="stroke: #A80036; stroke-width: 1.5;" width="82" x="42" y="111.7109"/><text fill="#000000" font-family="sans-serif" font-size="12" lengthAdjust="spacingAndGlyphs" textLength="62" x="52" y="132.8496">read data</text><rect fill="#FEFECE" filter="url(#ffh95qyjd1g7y)" height="33.9688" rx="12.5" ry="12.5" style="stroke: #A80036; stroke-width: 1.5;" width="140" x="13" y="180.6797"/><text fill="#000000" font-family="sans-serif" font-size="12" lengthAdjust="spacingAndGlyphs" textLength="120" x="23" y="201.8184">generate diagrams</text><rect fill="#FEFECE" filter="url(#ffh95qyjd1g7y)" height="33.9688" rx="12.5" ry="12.5" style="stroke: #A80036; stroke-width: 1.5;" width="146" x="10" y="50"/><text fill="#000000" font-family="sans-serif" font-size="12" lengthAdjust="spacingAndGlyphs" textLength="126" x="20" y="71.1387">foo as starting label</text><polygon fill="#FEFECE" filter="url(#ffh95qyjd1g7y)" points="50.5,234.6484,115.5,234.6484,127.5,246.6484,115.5,258.6484,50.5,258.6484,38.5,246.6484,50.5,234.6484" style="stroke: #A80036; stroke-width: 1.5;"/><text fill="#000000" font-family="sans-serif" font-size="11" lengthAdjust="spacingAndGlyphs" textLength="65" x="50.5" y="250.4565">more data?</text><rect fill="#FEFECE" filter="url(#ffh95qyjd1g7y)" height="33.9688" rx="12.5" ry="12.5" style="stroke: #A80036; stroke-width: 1.5;" width="123" x="176" y="141.2109"/><text fill="#000000" font-family="sans-serif" font-size="12" lengthAdjust="spacingAndGlyphs" textLength="103" x="186" y="162.3496">This is backward</text><ellipse cx="83" cy="289.6484" fill="#FFFFFF" filter="url(#ffh95qyjd1g7y)" rx="11" ry="11" style="stroke: #000000; stroke-width: 1.0;"/><ellipse cx="83" cy="289.6484" fill="#000000" rx="6" ry="6" style="stroke: #7F7F7F; stroke-width: 1.0;"/><line style="stroke: #A80036; stroke-width: 1.5;" x1="83" x2="83" y1="145.6797" y2="180.6797"/><polygon fill="#A80036" points="79,170.6797,83,180.6797,87,170.6797,83,174.6797" style="stroke: #A80036; stroke-width: 1.0;"/><line style="stroke: #A80036; stroke-width: 1.5;" x1="83" x2="83" y1="83.9688" y2="111.7109"/><polygon fill="#A80036" points="79,101.7109,83,111.7109,87,101.7109,83,105.7109" style="stroke: #A80036; stroke-width: 1.0;"/><line style="stroke: #A80036; stroke-width: 1.5;" x1="127.5" x2="237.5" y1="246.6484" y2="246.6484"/><line style="stroke: #A80036; stroke-width: 1.5;" x1="237.5" x2="237.5" y1="175.1797" y2="246.6484"/><polygon fill="#A80036" points="233.5,185.1797,237.5,175.1797,241.5,185.1797,237.5,181.1797" style="stroke: #A80036; stroke-width: 1.0;"/><polygon fill="#A80036" points="233.5,103.9688,237.5,93.9688,241.5,103.9688,237.5,99.9688" style="stroke: #A80036; stroke-width: 1.5;"/><line style="stroke: #A80036; stroke-width: 1.5;" x1="237.5" x2="237.5" y1="66.9844" y2="141.2109"/><line style="stroke: #A80036; stroke-width: 1.5;" x1="237.5" x2="156" y1="66.9844" y2="66.9844"/><polygon fill="#A80036" points="166,62.9844,156,66.9844,166,70.9844,162,66.9844" style="stroke: #A80036; stroke-width: 1.0;"/><line style="stroke: #A80036; stroke-width: 1.5;" x1="83" x2="83" y1="214.6484" y2="234.6484"/><polygon fill="#A80036" points="79,224.6484,83,234.6484,87,224.6484,83,228.6484" style="stroke: #A80036; stroke-width: 1.0;"/><line style="stroke: #A80036; stroke-width: 1.5;" x1="83" x2="83" y1="30" y2="50"/><polygon fill="#A80036" points="79,40,83,50,87,40,83,44" style="stroke: #A80036; stroke-width: 1.0;"/><line style="stroke: #A80036; stroke-width: 1.5;" x1="83" x2="83" y1="258.6484" y2="278.6484"/><polygon fill="#A80036" points="79,268.6484,83,278.6484,87,268.6484,83,272.6484" style="stroke: #A80036; stroke-width: 1.0;"/><!--
@startuml

start

repeat :foo as starting label;
  :read data;
  :generate diagrams;
backward:This is backward;
repeat while (more data?)

stop

@enduml

PlantUML version 1.2019.05(Sat Apr 20 16:45:36 UTC 2019)
(GPL source distribution)
Java Runtime: OpenJDK Runtime Environment
JVM: OpenJDK 64-Bit Server VM
Java Version: 11.0.9+11-post-Debian-1deb10u1
Operating System: Linux
OS Version: 5.4.0-1047-azure
Default Encoding: UTF-8
Language: en
Country: null
--></g></svg>