<?xml version="1.0" encoding="UTF-8" standalone="no"?><svg xmlns="http://www.w3.org/2000/svg" xmlns:xlink="http://www.w3.org/1999/xlink" contentScriptType="application/ecmascript" contentStyleType="text/css" height="118px" preserveAspectRatio="none" style="width:96px;height:118px;" version="1.1" viewBox="0 0 96 118" width="96px" zoomAndPan="magnify"><defs><filter height="300%" id="f1ecchuq1p59jw" width="300%" x="-1" y="-1"><feGaussianBlur result="blurOut" stdDeviation="2.0"/><feColorMatrix in="blurOut" result="blurOut2" type="matrix" values="0 0 0 0 0 0 0 0 0 0 0 0 0 0 0 0 0 0 .4 0"/><feOffset dx="4.0" dy="4.0" in="blurOut2" result="blurOut3"/><feBlend in="SourceGraphic" in2="blurOut3" mode="normal"/></filter></defs><g><!--class Dummy--><rect fill="#FEFECE" filter="url(#f1ecchuq1p59jw)" height="99.2188" id="Dummy" style="stroke: #A80036; stroke-width: 1.5;" width="79" x="6" y="8"/><ellipse cx="21.9" cy="24" fill="#ADD1B2" rx="11" ry="11" style="stroke: #A80036; stroke-width: 1.0;"/><path d="M24.8688,29.6406 Q24.2906,29.9375 23.65,30.0781 Q23.0094,30.2344 22.3063,30.2344 Q19.8063,30.2344 18.4781,28.5938 Q17.1656,26.9375 17.1656,23.8125 Q17.1656,20.6875 18.4781,19.0313 Q19.8063,17.375 22.3063,17.375 Q23.0094,17.375 23.65,17.5313 Q24.3063,17.6875 24.8688,17.9844 L24.8688,20.7031 Q24.2438,20.125 23.65,19.8594 Q23.0563,19.5781 22.4313,19.5781 Q21.0875,19.5781 20.4,20.6563 Q19.7125,21.7188 19.7125,23.8125 Q19.7125,25.9063 20.4,26.9844 Q21.0875,28.0469 22.4313,28.0469 Q23.0563,28.0469 23.65,27.7813 Q24.2438,27.5 24.8688,26.9219 L24.8688,29.6406 Z "/><text fill="#000000" font-family="sans-serif" font-size="12" lengthAdjust="spacingAndGlyphs" textLength="45" x="36.1" y="28.1543">Dummy</text><line style="stroke: #A80036; stroke-width: 1.5;" x1="7" x2="84" y1="40" y2="40"/><text fill="#000000" font-family="sans-serif" font-size="11" lengthAdjust="spacingAndGlyphs" textLength="35" x="12" y="54.2104">-field1</text><text fill="#000000" font-family="sans-serif" font-size="11" lengthAdjust="spacingAndGlyphs" textLength="40" x="12" y="67.0151">#field2</text><line style="stroke: #A80036; stroke-width: 1.5;" x1="7" x2="84" y1="73.6094" y2="73.6094"/><text fill="#000000" font-family="sans-serif" font-size="11" lengthAdjust="spacingAndGlyphs" textLength="67" x="12" y="87.8198">~method1()</text><text fill="#000000" font-family="sans-serif" font-size="11" lengthAdjust="spacingAndGlyphs" textLength="67" x="12" y="100.6245">+method2()</text><!--
@startuml
skinparam classAttributeIconSize 0
class Dummy {
 -field1
 #field2
 ~method1()
 +method2()
}
@enduml

PlantUML version 1.2019.05(Sat Apr 20 16:45:36 UTC 2019)
(GPL source distribution)
Java Runtime: OpenJDK Runtime Environment
JVM: OpenJDK 64-Bit Server VM
Java Version: 11.0.9+11-post-Debian-1deb10u1
Operating System: Linux
OS Version: 5.4.0-1047-azure
Default Encoding: UTF-8
Language: en
Country: null
--></g></svg>