<?xml version="1.0" encoding="UTF-8" standalone="no"?><svg xmlns="http://www.w3.org/2000/svg" xmlns:xlink="http://www.w3.org/1999/xlink" contentScriptType="application/ecmascript" contentStyleType="text/css" height="194px" preserveAspectRatio="none" style="width:323px;height:194px;" version="1.1" viewBox="0 0 323 194" width="323px" zoomAndPan="magnify"><defs><filter height="300%" id="fwzvmr8bfjsld" width="300%" x="-1" y="-1"><feGaussianBlur result="blurOut" stdDeviation="2.0"/><feColorMatrix in="blurOut" result="blurOut2" type="matrix" values="0 0 0 0 0 0 0 0 0 0 0 0 0 0 0 0 0 0 .4 0"/><feOffset dx="4.0" dy="4.0" in="blurOut2" result="blurOut3"/><feBlend in="SourceGraphic" in2="blurOut3" mode="normal"/></filter></defs><g><!--class Foo1--><rect fill="#FEFECE" filter="url(#fwzvmr8bfjsld)" height="175.6406" id="Foo1" style="stroke: #A80036; stroke-width: 1.5;" width="172" x="6" y="8"/><ellipse cx="73.75" cy="24" fill="#ADD1B2" rx="11" ry="11" style="stroke: #A80036; stroke-width: 1.0;"/><path d="M76.2231,30.1431 Q75.6421,30.4419 75.0029,30.5913 Q74.3638,30.7407 73.6582,30.7407 Q71.1514,30.7407 69.8315,29.0889 Q68.5117,27.437 68.5117,24.3159 Q68.5117,21.1865 69.8315,19.5347 Q71.1514,17.8828 73.6582,17.8828 Q74.3638,17.8828 75.0112,18.0322 Q75.6587,18.1816 76.2231,18.4805 L76.2231,21.2031 Q75.5923,20.6221 74.9988,20.3523 Q74.4053,20.0825 73.7744,20.0825 Q72.4297,20.0825 71.7449,21.1492 Q71.0601,22.2158 71.0601,24.3159 Q71.0601,26.4077 71.7449,27.4744 Q72.4297,28.541 73.7744,28.541 Q74.4053,28.541 74.9988,28.2712 Q75.5923,28.0015 76.2231,27.4204 Z "/><text fill="#000000" font-family="sans-serif" font-size="12" lengthAdjust="spacingAndGlyphs" textLength="28" x="94.25" y="28.5352">Foo1</text><line style="stroke: #A80036; stroke-width: 1.5;" x1="7" x2="177" y1="40" y2="40"/><text fill="#000000" font-family="sans-serif" font-size="11" lengthAdjust="spacingAndGlyphs" textLength="65" x="12" y="54.6348">You can use</text><text fill="#000000" font-family="sans-serif" font-size="11" lengthAdjust="spacingAndGlyphs" textLength="66" x="12" y="67.5898">several lines</text><line style="stroke: #A80036; stroke-width: 1.0; stroke-dasharray: 1.0,2.0;" x1="7" x2="177" y1="73.9102" y2="73.9102"/><text fill="#000000" font-family="sans-serif" font-size="11" lengthAdjust="spacingAndGlyphs" textLength="63" x="12" y="88.5449">as you want</text><text fill="#000000" font-family="sans-serif" font-size="11" lengthAdjust="spacingAndGlyphs" textLength="56" x="12" y="101.5">and group</text><line style="stroke: #A80036; stroke-width: 1.0;" x1="7" x2="177" y1="107.8203" y2="107.8203"/><line style="stroke: #A80036; stroke-width: 1.0;" x1="7" x2="177" y1="109.8203" y2="109.8203"/><text fill="#000000" font-family="sans-serif" font-size="11" lengthAdjust="spacingAndGlyphs" textLength="86" x="12" y="122.4551">things together.</text><line style="stroke: #A80036; stroke-width: 1.5;" x1="7" x2="177" y1="128.7754" y2="128.7754"/><text fill="#000000" font-family="sans-serif" font-size="11" lengthAdjust="spacingAndGlyphs" textLength="160" x="12" y="143.4102">You can have as many groups</text><text fill="#000000" font-family="sans-serif" font-size="11" lengthAdjust="spacingAndGlyphs" textLength="63" x="12" y="156.3652">as you want</text><line style="stroke: #A80036; stroke-width: 1.0;" x1="7" x2="177" y1="162.6855" y2="162.6855"/><text fill="#000000" font-family="sans-serif" font-size="11" lengthAdjust="spacingAndGlyphs" textLength="64" x="12" y="177.3203">End of class</text><!--class User--><rect fill="#FEFECE" filter="url(#fwzvmr8bfjsld)" height="172.5957" id="User" style="stroke: #A80036; stroke-width: 1.5;" width="99" x="213.5" y="9.5"/><ellipse cx="246.95" cy="25.5" fill="#ADD1B2" rx="11" ry="11" style="stroke: #A80036; stroke-width: 1.0;"/><path d="M249.4231,31.6431 Q248.8421,31.9419 248.2029,32.0913 Q247.5638,32.2407 246.8582,32.2407 Q244.3514,32.2407 243.0315,30.5889 Q241.7117,28.937 241.7117,25.8159 Q241.7117,22.6865 243.0315,21.0347 Q244.3514,19.3828 246.8582,19.3828 Q247.5638,19.3828 248.2112,19.5322 Q248.8587,19.6816 249.4231,19.9805 L249.4231,22.7031 Q248.7923,22.1221 248.1988,21.8523 Q247.6053,21.5825 246.9744,21.5825 Q245.6297,21.5825 244.9449,22.6492 Q244.2601,23.7158 244.2601,25.8159 Q244.2601,27.9077 244.9449,28.9744 Q245.6297,30.041 246.9744,30.041 Q247.6053,30.041 248.1988,29.7712 Q248.7923,29.5015 249.4231,28.9204 Z "/><text fill="#000000" font-family="sans-serif" font-size="12" lengthAdjust="spacingAndGlyphs" textLength="26" x="265.05" y="30.0352">User</text><line style="stroke: #A80036; stroke-width: 1.5;" x1="214.5" x2="311.5" y1="41.5" y2="41.5"/><ellipse cx="224.5" cy="70.4326" fill="#84BE84" rx="3" ry="3" style="stroke: #038048; stroke-width: 1.0;"/><text fill="#000000" font-family="sans-serif" font-size="11" lengthAdjust="spacingAndGlyphs" textLength="55" x="233.5" y="73.0898">getName()</text><ellipse cx="224.5" cy="83.3877" fill="#84BE84" rx="3" ry="3" style="stroke: #038048; stroke-width: 1.0;"/><text fill="#000000" font-family="sans-serif" font-size="11" lengthAdjust="spacingAndGlyphs" textLength="70" x="233.5" y="86.0449">getAddress()</text><line style="stroke: #A80036; stroke-width: 1.0; stroke-dasharray: 1.0,2.0;" x1="214.5" x2="227.5" y1="55.9775" y2="55.9775"/><text fill="#000000" font-family="sans-serif" font-size="11" lengthAdjust="spacingAndGlyphs" textLength="71" x="227.5" y="59.6348">Simple Getter</text><line style="stroke: #A80036; stroke-width: 1.0; stroke-dasharray: 1.0,2.0;" x1="298.5" x2="311.5" y1="55.9775" y2="55.9775"/><ellipse cx="224.5" cy="113.2979" fill="#84BE84" rx="3" ry="3" style="stroke: #038048; stroke-width: 1.0;"/><text fill="#000000" font-family="sans-serif" font-size="11" lengthAdjust="spacingAndGlyphs" textLength="54" x="233.5" y="115.9551">setName()</text><line style="stroke: #A80036; stroke-width: 1.0; stroke-dasharray: 1.0,2.0;" x1="214.5" x2="231.5" y1="98.8428" y2="98.8428"/><text fill="#000000" font-family="sans-serif" font-size="11" lengthAdjust="spacingAndGlyphs" textLength="63" x="231.5" y="102.5">Some setter</text><line style="stroke: #A80036; stroke-width: 1.0; stroke-dasharray: 1.0,2.0;" x1="294.5" x2="311.5" y1="98.8428" y2="98.8428"/><text fill="#000000" font-family="sans-serif" font-size="11" lengthAdjust="spacingAndGlyphs" textLength="36" x="219.5" y="145.8652">int age</text><line style="stroke: #A80036; stroke-width: 1.5;" x1="214.5" x2="231.5" y1="128.7529" y2="128.7529"/><text fill="#000000" font-family="sans-serif" font-size="11" lengthAdjust="spacingAndGlyphs" textLength="63" x="231.5" y="132.4102">private data</text><line style="stroke: #A80036; stroke-width: 1.5;" x1="294.5" x2="311.5" y1="128.7529" y2="128.7529"/><text fill="#000000" font-family="sans-serif" font-size="11" lengthAdjust="spacingAndGlyphs" textLength="87" x="219.5" y="175.7754">String password</text><line style="stroke: #A80036; stroke-width: 1.0;" x1="214.5" x2="236" y1="158.6631" y2="158.6631"/><text fill="#000000" font-family="sans-serif" font-size="11" lengthAdjust="spacingAndGlyphs" textLength="54" x="236" y="162.3203">encrypted</text><line style="stroke: #A80036; stroke-width: 1.0;" x1="290" x2="311.5" y1="158.6631" y2="158.6631"/><!--
@startuml
class Foo1 {
  You can use
  several lines
  ..
  as you want
  and group
  ==
  things together.
  __
  You can have as many groups
  as you want
  - -
  End of class
}

class User {
  .. Simple Getter ..
  + getName()
  + getAddress()
  .. Some setter ..
  + setName()
  __ private data __
  int age
  - - encrypted - -
  String password
}
@enduml

PlantUML version 1.2019.05(Sun Apr 21 00:45:36 CST 2019)
(GPL source distribution)
Java Runtime: Java(TM) SE Runtime Environment
JVM: Java HotSpot(TM) 64-Bit Server VM
Java Version: 1.8.0_191-b12
Operating System: Mac OS X
OS Version: 10.16
Default Encoding: UTF-8
Language: en
Country: CN
--></g></svg>