<?xml version="1.0" encoding="UTF-8" standalone="no"?><svg xmlns="http://www.w3.org/2000/svg" xmlns:xlink="http://www.w3.org/1999/xlink" contentScriptType="application/ecmascript" contentStyleType="text/css" height="219px" preserveAspectRatio="none" style="width:364px;height:219px;" version="1.1" viewBox="0 0 364 219" width="364px" zoomAndPan="magnify"><defs><filter height="300%" id="f1qbljl01lul1a" width="300%" x="-1" y="-1"><feGaussianBlur result="blurOut" stdDeviation="2.0"/><feColorMatrix in="blurOut" result="blurOut2" type="matrix" values="0 0 0 0 0 0 0 0 0 0 0 0 0 0 0 0 0 0 .4 0"/><feOffset dx="4.0" dy="4.0" in="blurOut2" result="blurOut3"/><feBlend in="SourceGraphic" in2="blurOut3" mode="normal"/></filter></defs><g><!--cluster net.dummy--><polygon fill="#DDDDDD" filter="url(#f1qbljl01lul1a)" points="14,16,108,16,115,38.2969,118,38.2969,118,207,14,207,14,16" style="stroke: #000000; stroke-width: 1.5;"/><line style="stroke: #000000; stroke-width: 1.5;" x1="14" x2="115" y1="38.2969" y2="38.2969"/><text fill="#000000" font-family="sans-serif" font-size="14" font-weight="bold" lengthAdjust="spacingAndGlyphs" textLength="88" x="18" y="30.9951">net.dummy</text><!--cluster net.foo--><polygon fill="#FFFFFF" filter="url(#f1qbljl01lul1a)" points="131,124,194,124,201,146.2969,223,146.2969,223,207,131,207,131,124" style="stroke: #000000; stroke-width: 1.5;"/><line style="stroke: #000000; stroke-width: 1.5;" x1="131" x2="201" y1="146.2969" y2="146.2969"/><text fill="#000000" font-family="sans-serif" font-size="14" font-weight="bold" lengthAdjust="spacingAndGlyphs" textLength="57" x="135" y="138.9951">net.foo</text><!--cluster net.unused--><polygon fill="#FFFFFF" filter="url(#f1qbljl01lul1a)" points="236,124,332,124,339,146.2969,342,146.2969,342,207,236,207,236,124" style="stroke: #000000; stroke-width: 1.5;"/><line style="stroke: #000000; stroke-width: 1.5;" x1="236" x2="339" y1="146.2969" y2="146.2969"/><text fill="#000000" font-family="sans-serif" font-size="14" font-weight="bold" lengthAdjust="spacingAndGlyphs" textLength="90" x="240" y="138.9951">net.unused</text><!--class net.dummy.Person--><rect fill="#FEFECE" filter="url(#f1qbljl01lul1a)" height="48" id="net.dummy.Person" style="stroke: #A80036; stroke-width: 1.5;" width="76" x="28" y="151"/><ellipse cx="43" cy="167" fill="#ADD1B2" rx="11" ry="11" style="stroke: #A80036; stroke-width: 1.0;"/><path d="M45.9688,172.6406 Q45.3906,172.9375 44.75,173.0781 Q44.1094,173.2344 43.4063,173.2344 Q40.9063,173.2344 39.5781,171.5938 Q38.2656,169.9375 38.2656,166.8125 Q38.2656,163.6875 39.5781,162.0313 Q40.9063,160.375 43.4063,160.375 Q44.1094,160.375 44.75,160.5313 Q45.4063,160.6875 45.9688,160.9844 L45.9688,163.7031 Q45.3438,163.125 44.75,162.8594 Q44.1563,162.5781 43.5313,162.5781 Q42.1875,162.5781 41.5,163.6563 Q40.8125,164.7188 40.8125,166.8125 Q40.8125,168.9063 41.5,169.9844 Q42.1875,171.0469 43.5313,171.0469 Q44.1563,171.0469 44.75,170.7813 Q45.3438,170.5 45.9688,169.9219 L45.9688,172.6406 Z "/><text fill="#000000" font-family="sans-serif" font-size="12" lengthAdjust="spacingAndGlyphs" textLength="44" x="57" y="171.1543">Person</text><line style="stroke: #A80036; stroke-width: 1.5;" x1="29" x2="103" y1="183" y2="183"/><line style="stroke: #A80036; stroke-width: 1.5;" x1="29" x2="103" y1="191" y2="191"/><!--class net.dummy.Meeting--><rect fill="#FEFECE" filter="url(#f1qbljl01lul1a)" height="48" id="net.dummy.Meeting" style="stroke: #A80036; stroke-width: 1.5;" width="82" x="25" y="43"/><ellipse cx="40" cy="59" fill="#ADD1B2" rx="11" ry="11" style="stroke: #A80036; stroke-width: 1.0;"/><path d="M42.9688,64.6406 Q42.3906,64.9375 41.75,65.0781 Q41.1094,65.2344 40.4063,65.2344 Q37.9063,65.2344 36.5781,63.5938 Q35.2656,61.9375 35.2656,58.8125 Q35.2656,55.6875 36.5781,54.0313 Q37.9063,52.375 40.4063,52.375 Q41.1094,52.375 41.75,52.5313 Q42.4063,52.6875 42.9688,52.9844 L42.9688,55.7031 Q42.3438,55.125 41.75,54.8594 Q41.1563,54.5781 40.5313,54.5781 Q39.1875,54.5781 38.5,55.6563 Q37.8125,56.7188 37.8125,58.8125 Q37.8125,60.9063 38.5,61.9844 Q39.1875,63.0469 40.5313,63.0469 Q41.1563,63.0469 41.75,62.7813 Q42.3438,62.5 42.9688,61.9219 L42.9688,64.6406 Z "/><text fill="#000000" font-family="sans-serif" font-size="12" lengthAdjust="spacingAndGlyphs" textLength="50" x="54" y="63.1543">Meeting</text><line style="stroke: #A80036; stroke-width: 1.5;" x1="26" x2="106" y1="75" y2="75"/><line style="stroke: #A80036; stroke-width: 1.5;" x1="26" x2="106" y1="83" y2="83"/><!--class net.foo.Person--><rect fill="#FEFECE" filter="url(#f1qbljl01lul1a)" height="48" id="net.foo.Person" style="stroke: #A80036; stroke-width: 1.5;" width="76" x="139" y="151"/><ellipse cx="154" cy="167" fill="#ADD1B2" rx="11" ry="11" style="stroke: #A80036; stroke-width: 1.0;"/><path d="M156.9688,172.6406 Q156.3906,172.9375 155.75,173.0781 Q155.1094,173.2344 154.4063,173.2344 Q151.9063,173.2344 150.5781,171.5938 Q149.2656,169.9375 149.2656,166.8125 Q149.2656,163.6875 150.5781,162.0313 Q151.9063,160.375 154.4063,160.375 Q155.1094,160.375 155.75,160.5313 Q156.4063,160.6875 156.9688,160.9844 L156.9688,163.7031 Q156.3438,163.125 155.75,162.8594 Q155.1563,162.5781 154.5313,162.5781 Q153.1875,162.5781 152.5,163.6563 Q151.8125,164.7188 151.8125,166.8125 Q151.8125,168.9063 152.5,169.9844 Q153.1875,171.0469 154.5313,171.0469 Q155.1563,171.0469 155.75,170.7813 Q156.3438,170.5 156.9688,169.9219 L156.9688,172.6406 Z "/><text fill="#000000" font-family="sans-serif" font-size="12" lengthAdjust="spacingAndGlyphs" textLength="44" x="168" y="171.1543">Person</text><line style="stroke: #A80036; stroke-width: 1.5;" x1="140" x2="214" y1="183" y2="183"/><line style="stroke: #A80036; stroke-width: 1.5;" x1="140" x2="214" y1="191" y2="191"/><!--class net.unused.Person--><rect fill="#FEFECE" filter="url(#f1qbljl01lul1a)" height="48" id="net.unused.Person" style="stroke: #A80036; stroke-width: 1.5;" width="76" x="250" y="151"/><ellipse cx="265" cy="167" fill="#ADD1B2" rx="11" ry="11" style="stroke: #A80036; stroke-width: 1.0;"/><path d="M267.9688,172.6406 Q267.3906,172.9375 266.75,173.0781 Q266.1094,173.2344 265.4063,173.2344 Q262.9063,173.2344 261.5781,171.5938 Q260.2656,169.9375 260.2656,166.8125 Q260.2656,163.6875 261.5781,162.0313 Q262.9063,160.375 265.4063,160.375 Q266.1094,160.375 266.75,160.5313 Q267.4063,160.6875 267.9688,160.9844 L267.9688,163.7031 Q267.3438,163.125 266.75,162.8594 Q266.1563,162.5781 265.5313,162.5781 Q264.1875,162.5781 263.5,163.6563 Q262.8125,164.7188 262.8125,166.8125 Q262.8125,168.9063 263.5,169.9844 Q264.1875,171.0469 265.5313,171.0469 Q266.1563,171.0469 266.75,170.7813 Q267.3438,170.5 267.9688,169.9219 L267.9688,172.6406 Z "/><text fill="#000000" font-family="sans-serif" font-size="12" lengthAdjust="spacingAndGlyphs" textLength="44" x="279" y="171.1543">Person</text><line style="stroke: #A80036; stroke-width: 1.5;" x1="251" x2="325" y1="183" y2="183"/><line style="stroke: #A80036; stroke-width: 1.5;" x1="251" x2="325" y1="191" y2="191"/><!--class BaseClass--><rect fill="#FEFECE" filter="url(#f1qbljl01lul1a)" height="48" id="BaseClass" style="stroke: #A80036; stroke-width: 1.5;" width="96" x="142" y="43"/><ellipse cx="157" cy="59" fill="#ADD1B2" rx="11" ry="11" style="stroke: #A80036; stroke-width: 1.0;"/><path d="M159.9688,64.6406 Q159.3906,64.9375 158.75,65.0781 Q158.1094,65.2344 157.4063,65.2344 Q154.9063,65.2344 153.5781,63.5938 Q152.2656,61.9375 152.2656,58.8125 Q152.2656,55.6875 153.5781,54.0313 Q154.9063,52.375 157.4063,52.375 Q158.1094,52.375 158.75,52.5313 Q159.4063,52.6875 159.9688,52.9844 L159.9688,55.7031 Q159.3438,55.125 158.75,54.8594 Q158.1563,54.5781 157.5313,54.5781 Q156.1875,54.5781 155.5,55.6563 Q154.8125,56.7188 154.8125,58.8125 Q154.8125,60.9063 155.5,61.9844 Q156.1875,63.0469 157.5313,63.0469 Q158.1563,63.0469 158.75,62.7813 Q159.3438,62.5 159.9688,61.9219 L159.9688,64.6406 Z "/><text fill="#000000" font-family="sans-serif" font-size="12" lengthAdjust="spacingAndGlyphs" textLength="64" x="171" y="63.1543">BaseClass</text><line style="stroke: #A80036; stroke-width: 1.5;" x1="143" x2="237" y1="75" y2="75"/><line style="stroke: #A80036; stroke-width: 1.5;" x1="143" x2="237" y1="83" y2="83"/><!--link BaseClass to net.dummy.Person--><path d="M145.6386,104.4709 C138.058,110.951 130.2821,117.6464 123,124 C112.9944,132.7299 102.1081,142.4216 92.556,150.9915 " fill="none" id="BaseClass-net.dummy.Person" style="stroke: #A80036; stroke-width: 1.0;"/><polygon fill="none" points="141.4052,98.882,161.1738,91.2527,150.4776,109.5446,141.4052,98.882" style="stroke: #A80036; stroke-width: 1.0;"/><!--link net.dummy.Meeting to net.dummy.Person--><path d="M66,104.6145 C66,119.9531 66,137.2402 66,150.8436 " fill="none" id="net.dummy.Meeting-net.dummy.Person" style="stroke: #A80036; stroke-width: 1.0;"/><polygon fill="#FFFFFF" points="66,91.2373,62,97.2373,66,103.2373,70,97.2373,66,91.2373" style="stroke: #A80036; stroke-width: 1.0;"/><!--link BaseClass to net.dummy.Meeting--><path d="M121.777,67 C116.9086,67 112.0403,67 107.1719,67 " fill="none" id="BaseClass-net.dummy.Meeting" style="stroke: #A80036; stroke-width: 1.0;"/><polygon fill="none" points="121.7915,59.9999,141.7914,67,121.7914,73.9999,121.7915,59.9999" style="stroke: #A80036; stroke-width: 1.0;"/><!--link net.dummy.Person to net.foo.Person--><path d="M124.2256,175 C129.1074,175 133.9891,175 138.8708,175 " fill="none" id="net.dummy.Person-net.foo.Person" style="stroke: #A80036; stroke-width: 1.0;"/><polygon fill="none" points="124.1563,181.9999,104.1563,175,124.1562,167.9999,124.1563,181.9999" style="stroke: #A80036; stroke-width: 1.0;"/><!--link BaseClass to net.foo.Person--><path d="M184.6687,111.2911 C183.0405,124.8171 181.3112,139.1835 179.9077,150.8436 " fill="none" id="BaseClass-net.foo.Person" style="stroke: #A80036; stroke-width: 1.0;"/><polygon fill="none" points="177.7425,110.2574,187.0825,91.2373,191.6421,111.9306,177.7425,110.2574" style="stroke: #A80036; stroke-width: 1.0;"/><!--link net.dummy.Meeting to net.foo.Person--><path d="M101.4301,100.3718 C109.5415,108.0913 118.1,116.3 126,124 C134.8773,132.6526 144.5156,142.24 152.9988,150.7453 " fill="none" id="net.dummy.Meeting-net.foo.Person" style="stroke: #A80036; stroke-width: 1.0;"/><polygon fill="#FFFFFF" points="91.8321,91.2654,93.4315,98.2969,100.5373,99.5249,98.9379,92.4934,91.8321,91.2654" style="stroke: #A80036; stroke-width: 1.0;"/><!--link BaseClass to net.unused.Person--><path d="M225.8445,106.5021 C239.325,121.3582 254.2403,137.7954 266.0803,150.8436 " fill="none" id="BaseClass-net.unused.Person" style="stroke: #A80036; stroke-width: 1.0;"/><polygon fill="none" points="220.249,110.7525,211.9931,91.2373,230.6169,101.3446,220.249,110.7525" style="stroke: #A80036; stroke-width: 1.0;"/><!--
@startuml

class BaseClass

namespace net.dummy #DDDDDD {
    .BaseClass <|- - Person
    Meeting o- - Person

    .BaseClass <|- Meeting
}

namespace net.foo {
  net.dummy.Person  <|- Person
  .BaseClass <|- - Person

  net.dummy.Meeting o- - Person
}

BaseClass <|- - net.unused.Person

@enduml

PlantUML version 1.2019.05(Sat Apr 20 16:45:36 UTC 2019)
(GPL source distribution)
Java Runtime: OpenJDK Runtime Environment
JVM: OpenJDK 64-Bit Server VM
Java Version: 11.0.9+11-post-Debian-1deb10u1
Operating System: Linux
OS Version: 5.4.0-1047-azure
Default Encoding: UTF-8
Language: en
Country: null
--></g></svg>