<?xml version="1.0" encoding="UTF-8" standalone="no"?><svg xmlns="http://www.w3.org/2000/svg" xmlns:xlink="http://www.w3.org/1999/xlink" contentScriptType="application/ecmascript" contentStyleType="text/css" height="238px" preserveAspectRatio="none" style="width:120px;height:238px;" version="1.1" viewBox="0 0 120 238" width="120px" zoomAndPan="magnify"><defs><filter height="300%" id="f1tjs5mj38vscv" width="300%" x="-1" y="-1"><feGaussianBlur result="blurOut" stdDeviation="2.0"/><feColorMatrix in="blurOut" result="blurOut2" type="matrix" values="0 0 0 0 0 0 0 0 0 0 0 0 0 0 0 0 0 0 .4 0"/><feOffset dx="4.0" dy="4.0" in="blurOut2" result="blurOut3"/><feBlend in="SourceGraphic" in2="blurOut3" mode="normal"/></filter></defs><g><line style="stroke: #A80036; stroke-width: 1.0; stroke-dasharray: 5.0,5.0;" x1="30" x2="30" y1="38.4883" y2="198.4883"/><line style="stroke: #A80036; stroke-width: 1.0; stroke-dasharray: 5.0,5.0;" x1="87" x2="87" y1="38.4883" y2="198.4883"/><rect fill="#FEFECE" filter="url(#f1tjs5mj38vscv)" height="30.4883" style="stroke: #A80036; stroke-width: 1.5;" width="40" x="8" y="3"/><text fill="#000000" font-family="sans-serif" font-size="14" lengthAdjust="spacingAndGlyphs" textLength="26" x="15" y="23.5352">Bob</text><rect fill="#FEFECE" filter="url(#f1tjs5mj38vscv)" height="30.4883" style="stroke: #A80036; stroke-width: 1.5;" width="40" x="8" y="197.4883"/><text fill="#000000" font-family="sans-serif" font-size="14" lengthAdjust="spacingAndGlyphs" textLength="26" x="15" y="218.0234">Bob</text><rect fill="#FEFECE" filter="url(#f1tjs5mj38vscv)" height="30.4883" style="stroke: #A80036; stroke-width: 1.5;" width="47" x="62" y="3"/><text fill="#000000" font-family="sans-serif" font-size="14" lengthAdjust="spacingAndGlyphs" textLength="33" x="69" y="23.5352">Alice</text><rect fill="#FEFECE" filter="url(#f1tjs5mj38vscv)" height="30.4883" style="stroke: #A80036; stroke-width: 1.5;" width="47" x="62" y="197.4883"/><text fill="#000000" font-family="sans-serif" font-size="14" lengthAdjust="spacingAndGlyphs" textLength="33" x="69" y="218.0234">Alice</text><line style="stroke: #A80036; stroke-width: 2.0;" x1="69.5" x2="79.5" y1="49.4883" y2="59.4883"/><line style="stroke: #A80036; stroke-width: 2.0;" x1="69.5" x2="79.5" y1="59.4883" y2="49.4883"/><line style="stroke: #A80036; stroke-width: 1.0;" x1="30" x2="74.5" y1="54.4883" y2="54.4883"/><polygon fill="#A80036" points="75.5,64.4883,85.5,68.4883,75.5,72.4883,79.5,68.4883" style="stroke: #A80036; stroke-width: 1.0;"/><line style="stroke: #A80036; stroke-width: 1.0;" x1="30" x2="81.5" y1="68.4883" y2="68.4883"/><line style="stroke: #A80036; stroke-width: 1.0;" x1="85.5" x2="75.5" y1="82.4883" y2="78.4883"/><line style="stroke: #A80036; stroke-width: 1.0;" x1="85.5" x2="75.5" y1="82.4883" y2="86.4883"/><line style="stroke: #A80036; stroke-width: 1.0;" x1="30" x2="86.5" y1="82.4883" y2="82.4883"/><polygon fill="#A80036" points="75.5,92.4883,85.5,96.4883,75.5,96.4883" style="stroke: #A80036; stroke-width: 1.0;"/><line style="stroke: #A80036; stroke-width: 1.0;" x1="30" x2="86.5" y1="96.4883" y2="96.4883"/><line style="stroke: #A80036; stroke-width: 1.0;" x1="30" x2="40" y1="110.4883" y2="114.4883"/><line style="stroke: #A80036; stroke-width: 1.0;" x1="30" x2="86.5" y1="110.4883" y2="110.4883"/><line style="stroke: #A80036; stroke-width: 1.0;" x1="30" x2="40" y1="124.4883" y2="120.4883"/><line style="stroke: #A80036; stroke-width: 1.0; stroke-dasharray: 2.0,2.0;" x1="30" x2="86.5" y1="124.4883" y2="124.4883"/><ellipse cx="87" cy="137.7383" fill="none" rx="4" ry="4" style="stroke: #A80036; stroke-width: 1.5;"/><polygon fill="#A80036" points="70,134.4883,80,138.4883,70,142.4883,74,138.4883" style="stroke: #A80036; stroke-width: 1.0;"/><line style="stroke: #A80036; stroke-width: 1.0;" x1="30" x2="76" y1="138.4883" y2="138.4883"/><ellipse cx="29.5" cy="151.7383" fill="none" rx="4" ry="4" style="stroke: #A80036; stroke-width: 1.5;"/><line style="stroke: #A80036; stroke-width: 1.0;" x1="35.5" x2="45.5" y1="152.4883" y2="156.4883"/><line style="stroke: #A80036; stroke-width: 1.0; stroke-dasharray: 2.0,2.0;" x1="30" x2="86.5" y1="152.4883" y2="152.4883"/><polygon fill="#A80036" points="41,162.4883,31,166.4883,41,170.4883,37,166.4883" style="stroke: #A80036; stroke-width: 1.0;"/><polygon fill="#A80036" points="75.5,162.4883,85.5,166.4883,75.5,170.4883,79.5,166.4883" style="stroke: #A80036; stroke-width: 1.0;"/><line style="stroke: #A80036; stroke-width: 1.0;" x1="35" x2="81.5" y1="166.4883" y2="166.4883"/><polygon fill="#A80036" points="41,176.4883,31,180.4883,41,184.4883,37,180.4883" style="stroke: #A80036; stroke-width: 1.0;"/><ellipse cx="87" cy="179.7383" fill="none" rx="4" ry="4" style="stroke: #A80036; stroke-width: 1.5;"/><polygon fill="#A80036" points="70,176.4883,80,180.4883,70,184.4883,74,180.4883" style="stroke: #A80036; stroke-width: 1.0;"/><line style="stroke: #A80036; stroke-width: 1.0;" x1="35" x2="76" y1="180.4883" y2="180.4883"/><!--
@startuml
Bob ->x Alice
Bob -> Alice
Bob ->> Alice
Bob -\ Alice
Bob \\- Alice
Bob //- - Alice

Bob ->o Alice
Bob o\\- - Alice

Bob <-> Alice
Bob <->o Alice
@enduml

PlantUML version 1.2019.05(Sun Apr 21 00:45:36 CST 2019)
(GPL source distribution)
Java Runtime: Java(TM) SE Runtime Environment
JVM: Java HotSpot(TM) 64-Bit Server VM
Java Version: 1.8.0_191-b12
Operating System: Mac OS X
OS Version: 10.16
Default Encoding: UTF-8
Language: en
Country: CN
--></g></svg>