<?xml version="1.0" encoding="UTF-8" standalone="no"?><svg xmlns="http://www.w3.org/2000/svg" xmlns:xlink="http://www.w3.org/1999/xlink" contentScriptType="application/ecmascript" contentStyleType="text/css" height="118px" preserveAspectRatio="none" style="width:99px;height:118px;" version="1.1" viewBox="0 0 99 118" width="99px" zoomAndPan="magnify"><defs><filter height="300%" id="f1dt5besu8e2qu" width="300%" x="-1" y="-1"><feGaussianBlur result="blurOut" stdDeviation="2.0"/><feColorMatrix in="blurOut" result="blurOut2" type="matrix" values="0 0 0 0 0 0 0 0 0 0 0 0 0 0 0 0 0 0 .4 0"/><feOffset dx="4.0" dy="4.0" in="blurOut2" result="blurOut3"/><feBlend in="SourceGraphic" in2="blurOut3" mode="normal"/></filter></defs><g><!--class Dummy--><rect fill="#FEFECE" filter="url(#f1dt5besu8e2qu)" height="99.8203" id="Dummy" style="stroke: #A80036; stroke-width: 1.5;" width="82" x="6" y="8"/><ellipse cx="23.7" cy="24" fill="#ADD1B2" rx="11" ry="11" style="stroke: #A80036; stroke-width: 1.0;"/><path d="M26.1731,30.1431 Q25.5921,30.4419 24.9529,30.5913 Q24.3138,30.7407 23.6082,30.7407 Q21.1014,30.7407 19.7815,29.0889 Q18.4617,27.437 18.4617,24.3159 Q18.4617,21.1865 19.7815,19.5347 Q21.1014,17.8828 23.6082,17.8828 Q24.3138,17.8828 24.9612,18.0322 Q25.6087,18.1816 26.1731,18.4805 L26.1731,21.2031 Q25.5423,20.6221 24.9488,20.3523 Q24.3553,20.0825 23.7244,20.0825 Q22.3797,20.0825 21.6949,21.1492 Q21.0101,22.2158 21.0101,24.3159 Q21.0101,26.4077 21.6949,27.4744 Q22.3797,28.541 23.7244,28.541 Q24.3553,28.541 24.9488,28.2712 Q25.5423,28.0015 26.1731,27.4204 Z "/><text fill="#000000" font-family="sans-serif" font-size="12" lengthAdjust="spacingAndGlyphs" textLength="44" x="38.3" y="28.5352">Dummy</text><line style="stroke: #A80036; stroke-width: 1.5;" x1="7" x2="87" y1="40" y2="40"/><rect fill="none" height="6" style="stroke: #C82930; stroke-width: 1.0;" width="6" x="14" y="48.9775"/><text fill="#000000" font-family="sans-serif" font-size="11" lengthAdjust="spacingAndGlyphs" textLength="30" x="26" y="54.6348">field1</text><polygon fill="none" points="17,59.9326,21,63.9326,17,67.9326,13,63.9326" style="stroke: #B38D22; stroke-width: 1.0;"/><text fill="#000000" font-family="sans-serif" font-size="11" lengthAdjust="spacingAndGlyphs" textLength="30" x="26" y="67.5898">field2</text><line style="stroke: #A80036; stroke-width: 1.5;" x1="7" x2="87" y1="73.9102" y2="73.9102"/><polygon fill="#4177AF" points="17,81.8877,13,87.8877,21,87.8877" style="stroke: #1963A0; stroke-width: 1.0;"/><text fill="#000000" font-family="sans-serif" font-size="11" lengthAdjust="spacingAndGlyphs" textLength="56" x="26" y="88.5449">method1()</text><ellipse cx="17" cy="98.8428" fill="#84BE84" rx="3" ry="3" style="stroke: #038048; stroke-width: 1.0;"/><text fill="#000000" font-family="sans-serif" font-size="11" lengthAdjust="spacingAndGlyphs" textLength="56" x="26" y="101.5">method2()</text><!--
@startuml

class Dummy {
 -field1
 #field2
 ~method1()
 +method2()
}
@enduml

PlantUML version 1.2019.05(Sun Apr 21 00:45:36 CST 2019)
(GPL source distribution)
Java Runtime: Java(TM) SE Runtime Environment
JVM: Java HotSpot(TM) 64-Bit Server VM
Java Version: 1.8.0_191-b12
Operating System: Mac OS X
OS Version: 10.16
Default Encoding: UTF-8
Language: en
Country: CN
--></g></svg>