<?xml version="1.0" encoding="UTF-8" standalone="no"?><svg xmlns="http://www.w3.org/2000/svg" xmlns:xlink="http://www.w3.org/1999/xlink" contentScriptType="application/ecmascript" contentStyleType="text/css" height="286px" preserveAspectRatio="none" style="width:177px;height:286px;" version="1.1" viewBox="0 0 177 286" width="177px" zoomAndPan="magnify"><defs><filter height="300%" id="f13r8ndtyzbiid" width="300%" x="-1" y="-1"><feGaussianBlur result="blurOut" stdDeviation="2.0"/><feColorMatrix in="blurOut" result="blurOut2" type="matrix" values="0 0 0 0 0 0 0 0 0 0 0 0 0 0 0 0 0 0 .4 0"/><feOffset dx="4.0" dy="4.0" in="blurOut2" result="blurOut3"/><feBlend in="SourceGraphic" in2="blurOut3" mode="normal"/></filter></defs><g><ellipse cx="74.5" cy="20" fill="#000000" filter="url(#f13r8ndtyzbiid)" rx="10" ry="10" style="stroke: none; stroke-width: 1.0;"/><rect fill="#FEFECE" filter="url(#f13r8ndtyzbiid)" height="34.1328" rx="12.5" ry="12.5" style="stroke: #A80036; stroke-width: 1.5;" width="77" x="36" y="94"/><text fill="#000000" font-family="sans-serif" font-size="12" lengthAdjust="spacingAndGlyphs" textLength="57" x="46" y="115.6016">read data</text><rect fill="#FEFECE" filter="url(#f13r8ndtyzbiid)" height="34.1328" rx="12.5" ry="12.5" style="stroke: #A80036; stroke-width: 1.5;" width="129" x="10" y="155.6328"/><text fill="#000000" font-family="sans-serif" font-size="12" lengthAdjust="spacingAndGlyphs" textLength="109" x="20" y="177.2344">generate diagrams</text><polygon fill="#FEFECE" filter="url(#f13r8ndtyzbiid)" points="74.5,50,86.5,62,74.5,74,62.5,62,74.5,50" style="stroke: #A80036; stroke-width: 1.5;"/><polygon fill="#FEFECE" filter="url(#f13r8ndtyzbiid)" points="45,209.7656,104,209.7656,116,221.7656,104,233.7656,45,233.7656,33,221.7656,45,209.7656" style="stroke: #A80036; stroke-width: 1.5;"/><text fill="#000000" font-family="sans-serif" font-size="11" lengthAdjust="spacingAndGlyphs" textLength="59" x="45" y="225.9229">more data?</text><ellipse cx="74.5" cy="264.7656" fill="#FFFFFF" filter="url(#f13r8ndtyzbiid)" rx="11" ry="11" style="stroke: #000000; stroke-width: 1.0;"/><ellipse cx="74.5" cy="264.7656" fill="#000000" rx="6" ry="6" style="stroke: #7F7F7F; stroke-width: 1.0;"/><line style="stroke: #A80036; stroke-width: 1.5;" x1="74.5" x2="74.5" y1="128.1328" y2="155.6328"/><polygon fill="#A80036" points="70.5,145.6328,74.5,155.6328,78.5,145.6328,74.5,149.6328" style="stroke: #A80036; stroke-width: 1.0;"/><line style="stroke: #A80036; stroke-width: 1.5;" x1="74.5" x2="74.5" y1="74" y2="94"/><polygon fill="#A80036" points="70.5,84,74.5,94,78.5,84,74.5,88" style="stroke: #A80036; stroke-width: 1.0;"/><line style="stroke: #A80036; stroke-width: 1.5;" x1="116" x2="151" y1="221.7656" y2="221.7656"/><polygon fill="#A80036" points="147,148.1328,151,138.1328,155,148.1328,151,144.1328" style="stroke: #A80036; stroke-width: 1.5;"/><line style="stroke: #A80036; stroke-width: 1.5;" x1="151" x2="151" y1="62" y2="221.7656"/><line style="stroke: #A80036; stroke-width: 1.5;" x1="151" x2="86.5" y1="62" y2="62"/><polygon fill="#A80036" points="96.5,58,86.5,62,96.5,66,92.5,62" style="stroke: #A80036; stroke-width: 1.0;"/><line style="stroke: #A80036; stroke-width: 1.5;" x1="74.5" x2="74.5" y1="189.7656" y2="209.7656"/><polygon fill="#A80036" points="70.5,199.7656,74.5,209.7656,78.5,199.7656,74.5,203.7656" style="stroke: #A80036; stroke-width: 1.0;"/><line style="stroke: #A80036; stroke-width: 1.5;" x1="74.5" x2="74.5" y1="30" y2="50"/><polygon fill="#A80036" points="70.5,40,74.5,50,78.5,40,74.5,44" style="stroke: #A80036; stroke-width: 1.0;"/><line style="stroke: #A80036; stroke-width: 1.5;" x1="74.5" x2="74.5" y1="233.7656" y2="253.7656"/><polygon fill="#A80036" points="70.5,243.7656,74.5,253.7656,78.5,243.7656,74.5,247.7656" style="stroke: #A80036; stroke-width: 1.0;"/><!--
@startuml

start

repeat
  :read data;
  :generate diagrams;
repeat while (more data?)

stop

@enduml

PlantUML version 1.2019.05(Sun Apr 21 00:45:36 CST 2019)
(GPL source distribution)
Java Runtime: Java(TM) SE Runtime Environment
JVM: Java HotSpot(TM) 64-Bit Server VM
Java Version: 1.8.0_191-b12
Operating System: Mac OS X
OS Version: 10.16
Default Encoding: UTF-8
Language: en
Country: CN
--></g></svg>