<?xml version="1.0" encoding="UTF-8" standalone="no"?><svg xmlns="http://www.w3.org/2000/svg" xmlns:xlink="http://www.w3.org/1999/xlink" contentScriptType="application/ecmascript" contentStyleType="text/css" height="551px" preserveAspectRatio="none" style="width:299px;height:551px;" version="1.1" viewBox="0 0 299 551" width="299px" zoomAndPan="magnify"><defs><filter height="300%" id="f1wca5zgvb7ntg" width="300%" x="-1" y="-1"><feGaussianBlur result="blurOut" stdDeviation="2.0"/><feColorMatrix in="blurOut" result="blurOut2" type="matrix" values="0 0 0 0 0 0 0 0 0 0 0 0 0 0 0 0 0 0 .4 0"/><feOffset dx="4.0" dy="4.0" in="blurOut2" result="blurOut3"/><feBlend in="SourceGraphic" in2="blurOut3" mode="normal"/></filter></defs><g><ellipse cx="140.5" cy="20" fill="#000000" filter="url(#f1wca5zgvb7ntg)" rx="10" ry="10" style="stroke: none; stroke-width: 1.0;"/><rect fill="#FEFECE" filter="url(#f1wca5zgvb7ntg)" height="33.9688" rx="12.5" ry="12.5" style="stroke: #A80036; stroke-width: 1.5;" width="117" x="82" y="94"/><text fill="#000000" font-family="sans-serif" font-size="12" lengthAdjust="spacingAndGlyphs" textLength="97" x="92" y="115.1387">Test something</text><rect fill="#98FB98" filter="url(#f1wca5zgvb7ntg)" height="33.9688" rx="12.5" ry="12.5" style="stroke: #A80036; stroke-width: 1.5;" width="36" x="122.5" y="196.3711"/><text fill="#000000" font-family="sans-serif" font-size="12" lengthAdjust="spacingAndGlyphs" textLength="16" x="132.5" y="217.5098">OK</text><polygon fill="#FEFECE" filter="url(#f1wca5zgvb7ntg)" points="72,147.9688,209,147.9688,221,159.9688,209,171.9688,72,171.9688,60,159.9688,72,147.9688" style="stroke: #A80036; stroke-width: 1.5;"/><text fill="#000000" font-family="sans-serif" font-size="11" lengthAdjust="spacingAndGlyphs" textLength="14" x="144.5" y="182.1792">no</text><text fill="#000000" font-family="sans-serif" font-size="11" lengthAdjust="spacingAndGlyphs" textLength="137" x="72" y="163.7769">Something went wrong?</text><rect fill="#FEFECE" filter="url(#f1wca5zgvb7ntg)" height="33.9688" rx="12.5" ry="12.5" style="stroke: #A80036; stroke-width: 1.5;" width="182" x="49.5" y="301.6567"/><text fill="#000000" font-family="sans-serif" font-size="12" lengthAdjust="spacingAndGlyphs" textLength="162" x="59.5" y="322.7954">Alert "Error with long text"</text><polygon fill="#FEFECE" filter="url(#f1wca5zgvb7ntg)" points="140.5,50,152.5,62,140.5,74,128.5,62,140.5,50" style="stroke: #A80036; stroke-width: 1.5;"/><polygon fill="#FEFECE" filter="url(#f1wca5zgvb7ntg)" points="32,355.6255,249,355.6255,261,367.6255,249,379.6255,32,379.6255,20,367.6255,32,355.6255" style="stroke: #A80036; stroke-width: 1.5;"/><text fill="#000000" font-family="sans-serif" font-size="11" lengthAdjust="spacingAndGlyphs" textLength="217" x="32" y="371.4336">Something went wrong with long text?</text><text fill="#000000" font-family="sans-serif" font-size="11" lengthAdjust="spacingAndGlyphs" textLength="20" x="261" y="365.0313">yes</text><polygon fill="#FEFECE" filter="url(#f1wca5zgvb7ntg)" points="140.5,399.6255,152.5,411.6255,140.5,423.6255,128.5,411.6255,140.5,399.6255" style="stroke: #A80036; stroke-width: 1.5;"/><rect fill="#FEFECE" filter="url(#f1wca5zgvb7ntg)" height="33.9688" rx="12.5" ry="12.5" style="stroke: #A80036; stroke-width: 1.5;" width="108" x="86.5" y="465.0244"/><text fill="#000000" font-family="sans-serif" font-size="12" lengthAdjust="spacingAndGlyphs" textLength="88" x="96.5" y="486.1631">Alert "Sucess"</text><ellipse cx="140.5" cy="529.9932" fill="#FFFFFF" filter="url(#f1wca5zgvb7ntg)" rx="11" ry="11" style="stroke: #000000; stroke-width: 1.0;"/><ellipse cx="140.5" cy="529.9932" fill="#000000" rx="6" ry="6" style="stroke: #7F7F7F; stroke-width: 1.0;"/><line style="stroke: #A80036; stroke-width: 1.5;" x1="140.5" x2="140.5" y1="230.3398" y2="243.2578"/><line style="stroke: #A80036; stroke-width: 1.5;" x1="140.5" x2="10" y1="243.2578" y2="243.2578"/><line style="stroke: #A80036; stroke-width: 1.5;" x1="10" x2="10" y1="243.2578" y2="411.6255"/><line style="stroke: #A80036; stroke-width: 1.5;" x1="10" x2="128.5" y1="411.6255" y2="411.6255"/><polygon fill="#A80036" points="118.5,407.6255,128.5,411.6255,118.5,415.6255,122.5,411.6255" style="stroke: #A80036; stroke-width: 1.0;"/><line style="stroke: #A80036; stroke-width: 1.5;" x1="140.5" x2="140.5" y1="171.9688" y2="196.3711"/><polygon fill="#A80036" points="136.5,186.3711,140.5,196.3711,144.5,186.3711,140.5,190.3711" style="stroke: #A80036; stroke-width: 1.0;"/><line style="stroke: #A80036; stroke-width: 1.5;" x1="221" x2="233" y1="159.9688" y2="159.9688"/><polygon fill="#A80036" points="229,217.8555,233,227.8555,237,217.8555,233,221.8555" style="stroke: #A80036; stroke-width: 1.5;"/><line style="stroke: #A80036; stroke-width: 1.5;" x1="233" x2="233" y1="159.9688" y2="260.2578"/><line style="stroke: #A80036; stroke-width: 1.5;" x1="233" x2="140.5" y1="260.2578" y2="260.2578"/><line style="stroke: #A80036; stroke-width: 1.5;" x1="140.5" x2="140.5" y1="127.9688" y2="147.9688"/><polygon fill="#A80036" points="136.5,137.9688,140.5,147.9688,144.5,137.9688,140.5,141.9688" style="stroke: #A80036; stroke-width: 1.0;"/><line style="stroke: #A80036; stroke-width: 1.5;" x1="140.5" x2="140.5" y1="260.2578" y2="301.6567"/><polygon fill="#A80036" points="136.5,291.6567,140.5,301.6567,144.5,291.6567,140.5,295.6567" style="stroke: #A80036; stroke-width: 1.0;"/><text fill="#000000" font-family="sans-serif" font-size="11" lengthAdjust="spacingAndGlyphs" textLength="24" x="144.5" y="281.5625">NOK</text><line style="stroke: #A80036; stroke-width: 1.5;" x1="140.5" x2="140.5" y1="74" y2="94"/><polygon fill="#A80036" points="136.5,84,140.5,94,144.5,84,140.5,88" style="stroke: #A80036; stroke-width: 1.0;"/><line style="stroke: #A80036; stroke-width: 1.5;" x1="261" x2="273" y1="367.6255" y2="367.6255"/><polygon fill="#A80036" points="269,238.2578,273,228.2578,277,238.2578,273,234.2578" style="stroke: #A80036; stroke-width: 1.5;"/><line style="stroke: #A80036; stroke-width: 1.5;" x1="273" x2="273" y1="62" y2="367.6255"/><line style="stroke: #A80036; stroke-width: 1.5;" x1="273" x2="152.5" y1="62" y2="62"/><polygon fill="#A80036" points="162.5,58,152.5,62,162.5,66,158.5,62" style="stroke: #A80036; stroke-width: 1.0;"/><line style="stroke: #A80036; stroke-width: 1.5;" x1="140.5" x2="140.5" y1="335.6255" y2="355.6255"/><polygon fill="#A80036" points="136.5,345.6255,140.5,355.6255,144.5,345.6255,140.5,349.6255" style="stroke: #A80036; stroke-width: 1.0;"/><line style="stroke: #A80036; stroke-width: 1.5;" x1="140.5" x2="140.5" y1="379.6255" y2="399.6255"/><polygon fill="#A80036" points="136.5,389.6255,140.5,399.6255,144.5,389.6255,140.5,393.6255" style="stroke: #A80036; stroke-width: 1.0;"/><line style="stroke: #A80036; stroke-width: 1.5;" x1="140.5" x2="140.5" y1="30" y2="50"/><polygon fill="#A80036" points="136.5,40,140.5,50,144.5,40,140.5,44" style="stroke: #A80036; stroke-width: 1.0;"/><line style="stroke: #A80036; stroke-width: 1.5;" x1="140.5" x2="140.5" y1="423.6255" y2="465.0244"/><polygon fill="#A80036" points="136.5,455.0244,140.5,465.0244,144.5,455.0244,140.5,459.0244" style="stroke: #A80036; stroke-width: 1.0;"/><text fill="#000000" font-family="sans-serif" font-size="11" lengthAdjust="spacingAndGlyphs" textLength="14" x="144.5" y="444.9302">no</text><line style="stroke: #A80036; stroke-width: 1.5;" x1="140.5" x2="140.5" y1="498.9932" y2="518.9932"/><polygon fill="#A80036" points="136.5,508.9932,140.5,518.9932,144.5,508.9932,140.5,512.9932" style="stroke: #A80036; stroke-width: 1.0;"/><!--
@startuml
start
repeat
  :Test something;
    if (Something went wrong?) then (no)
      #palegreen:OK;
      break
    endif
    ->NOK;
    :Alert "Error with long text";
repeat while (Something went wrong with long text?) is (yes)
->no;
:Alert "Sucess";
stop
@enduml

PlantUML version 1.2019.05(Sat Apr 20 16:45:36 UTC 2019)
(GPL source distribution)
Java Runtime: OpenJDK Runtime Environment
JVM: OpenJDK 64-Bit Server VM
Java Version: 11.0.9+11-post-Debian-1deb10u1
Operating System: Linux
OS Version: 5.4.0-1047-azure
Default Encoding: UTF-8
Language: en
Country: null
--></g></svg>