<?xml version="1.0" encoding="UTF-8" standalone="no"?><svg xmlns="http://www.w3.org/2000/svg" xmlns:xlink="http://www.w3.org/1999/xlink" contentScriptType="application/ecmascript" contentStyleType="text/css" height="192px" preserveAspectRatio="none" style="width:263px;height:192px;" version="1.1" viewBox="0 0 263 192" width="263px" zoomAndPan="magnify"><defs><filter height="300%" id="f1lmputfhfmqgy" width="300%" x="-1" y="-1"><feGaussianBlur result="blurOut" stdDeviation="2.0"/><feColorMatrix in="blurOut" result="blurOut2" type="matrix" values="0 0 0 0 0 0 0 0 0 0 0 0 0 0 0 0 0 0 .4 0"/><feOffset dx="4.0" dy="4.0" in="blurOut2" result="blurOut3"/><feBlend in="SourceGraphic" in2="blurOut3" mode="normal"/></filter></defs><g><!--class Class01--><rect fill="#98FB98" filter="url(#f1lmputfhfmqgy)" height="48" id="Class01" style="stroke: #00FF7F; stroke-width: 1.5;" width="81" x="16.5" y="8"/><ellipse cx="31.5" cy="24" fill="#9ACD32" rx="11" ry="11" style="stroke: #00FF7F; stroke-width: 1.0;"/><path d="M34.4688,29.6406 Q33.8906,29.9375 33.25,30.0781 Q32.6094,30.2344 31.9063,30.2344 Q29.4063,30.2344 28.0781,28.5938 Q26.7656,26.9375 26.7656,23.8125 Q26.7656,20.6875 28.0781,19.0313 Q29.4063,17.375 31.9063,17.375 Q32.6094,17.375 33.25,17.5313 Q33.9063,17.6875 34.4688,17.9844 L34.4688,20.7031 Q33.8438,20.125 33.25,19.8594 Q32.6563,19.5781 32.0313,19.5781 Q30.6875,19.5781 30,20.6563 Q29.3125,21.7188 29.3125,23.8125 Q29.3125,25.9063 30,26.9844 Q30.6875,28.0469 32.0313,28.0469 Q32.6563,28.0469 33.25,27.7813 Q33.8438,27.5 34.4688,26.9219 L34.4688,29.6406 Z "/><text fill="#000000" font-family="sans-serif" font-size="12" lengthAdjust="spacingAndGlyphs" textLength="49" x="45.5" y="28.1543">Class01</text><line style="stroke: #00FF7F; stroke-width: 1.5;" x1="17.5" x2="96.5" y1="40" y2="40"/><line style="stroke: #00FF7F; stroke-width: 1.5;" x1="17.5" x2="96.5" y1="48" y2="48"/><!--class Class02--><rect fill="#98FB98" filter="url(#f1lmputfhfmqgy)" height="48" id="Class02" style="stroke: #00FF7F; stroke-width: 1.5;" width="81" x="16.5" y="133"/><ellipse cx="31.5" cy="149" fill="#9ACD32" rx="11" ry="11" style="stroke: #00FF7F; stroke-width: 1.0;"/><path d="M34.4688,154.6406 Q33.8906,154.9375 33.25,155.0781 Q32.6094,155.2344 31.9063,155.2344 Q29.4063,155.2344 28.0781,153.5938 Q26.7656,151.9375 26.7656,148.8125 Q26.7656,145.6875 28.0781,144.0313 Q29.4063,142.375 31.9063,142.375 Q32.6094,142.375 33.25,142.5313 Q33.9063,142.6875 34.4688,142.9844 L34.4688,145.7031 Q33.8438,145.125 33.25,144.8594 Q32.6563,144.5781 32.0313,144.5781 Q30.6875,144.5781 30,145.6563 Q29.3125,146.7188 29.3125,148.8125 Q29.3125,150.9063 30,151.9844 Q30.6875,153.0469 32.0313,153.0469 Q32.6563,153.0469 33.25,152.7813 Q33.8438,152.5 34.4688,151.9219 L34.4688,154.6406 Z "/><text fill="#000000" font-family="sans-serif" font-size="12" lengthAdjust="spacingAndGlyphs" textLength="49" x="45.5" y="153.1543">Class02</text><line style="stroke: #00FF7F; stroke-width: 1.5;" x1="17.5" x2="96.5" y1="165" y2="165"/><line style="stroke: #00FF7F; stroke-width: 1.5;" x1="17.5" x2="96.5" y1="173" y2="173"/><!--class Class03--><rect fill="#98FB98" filter="url(#f1lmputfhfmqgy)" height="48" id="Class03" style="stroke: #00FF7F; stroke-width: 1.5;" width="81" x="132.5" y="8"/><ellipse cx="147.5" cy="24" fill="#9ACD32" rx="11" ry="11" style="stroke: #00FF7F; stroke-width: 1.0;"/><path d="M150.4688,29.6406 Q149.8906,29.9375 149.25,30.0781 Q148.6094,30.2344 147.9063,30.2344 Q145.4063,30.2344 144.0781,28.5938 Q142.7656,26.9375 142.7656,23.8125 Q142.7656,20.6875 144.0781,19.0313 Q145.4063,17.375 147.9063,17.375 Q148.6094,17.375 149.25,17.5313 Q149.9063,17.6875 150.4688,17.9844 L150.4688,20.7031 Q149.8438,20.125 149.25,19.8594 Q148.6563,19.5781 148.0313,19.5781 Q146.6875,19.5781 146,20.6563 Q145.3125,21.7188 145.3125,23.8125 Q145.3125,25.9063 146,26.9844 Q146.6875,28.0469 148.0313,28.0469 Q148.6563,28.0469 149.25,27.7813 Q149.8438,27.5 150.4688,26.9219 L150.4688,29.6406 Z "/><text fill="#000000" font-family="sans-serif" font-size="12" lengthAdjust="spacingAndGlyphs" textLength="49" x="161.5" y="28.1543">Class03</text><line style="stroke: #00FF7F; stroke-width: 1.5;" x1="133.5" x2="212.5" y1="40" y2="40"/><line style="stroke: #00FF7F; stroke-width: 1.5;" x1="133.5" x2="212.5" y1="48" y2="48"/><!--class Class04--><rect fill="#98FB98" filter="url(#f1lmputfhfmqgy)" height="48" id="Class04" style="stroke: #00FF7F; stroke-width: 1.5;" width="81" x="132.5" y="133"/><ellipse cx="147.5" cy="149" fill="#9ACD32" rx="11" ry="11" style="stroke: #00FF7F; stroke-width: 1.0;"/><path d="M150.4688,154.6406 Q149.8906,154.9375 149.25,155.0781 Q148.6094,155.2344 147.9063,155.2344 Q145.4063,155.2344 144.0781,153.5938 Q142.7656,151.9375 142.7656,148.8125 Q142.7656,145.6875 144.0781,144.0313 Q145.4063,142.375 147.9063,142.375 Q148.6094,142.375 149.25,142.5313 Q149.9063,142.6875 150.4688,142.9844 L150.4688,145.7031 Q149.8438,145.125 149.25,144.8594 Q148.6563,144.5781 148.0313,144.5781 Q146.6875,144.5781 146,145.6563 Q145.3125,146.7188 145.3125,148.8125 Q145.3125,150.9063 146,151.9844 Q146.6875,153.0469 148.0313,153.0469 Q148.6563,153.0469 149.25,152.7813 Q149.8438,152.5 150.4688,151.9219 L150.4688,154.6406 Z "/><text fill="#000000" font-family="sans-serif" font-size="12" lengthAdjust="spacingAndGlyphs" textLength="49" x="161.5" y="153.1543">Class04</text><line style="stroke: #00FF7F; stroke-width: 1.5;" x1="133.5" x2="212.5" y1="165" y2="165"/><line style="stroke: #00FF7F; stroke-width: 1.5;" x1="133.5" x2="212.5" y1="173" y2="173"/><!--link Class01 to Class02--><path d="M57,69.2235 C57,89.8612 57,114.921 57,132.9727 " fill="none" id="Class01-Class02" style="stroke: #2E8B57; stroke-width: 1.0;"/><polygon fill="#2E8B57" points="57,56.1013,53,62.1013,57,68.1013,61,62.1013,57,56.1013" style="stroke: #2E8B57; stroke-width: 1.0;"/><text fill="#000000" font-family="sans-serif" font-size="13" lengthAdjust="spacingAndGlyphs" textLength="54" x="58" y="99.0669">contains</text><text fill="#000000" font-family="sans-serif" font-size="13" lengthAdjust="spacingAndGlyphs" textLength="8" x="48.025" y="75.8872">1</text><text fill="#000000" font-family="sans-serif" font-size="13" lengthAdjust="spacingAndGlyphs" textLength="36" x="16.3875" y="121.9777">many</text><!--link Class03 to Class04--><path d="M173,69.2235 C173,89.8612 173,114.921 173,132.9727 " fill="none" id="Class03-Class04" style="stroke: #2E8B57; stroke-width: 1.0;"/><polygon fill="#FFFFFF" points="173,56.1013,169,62.1013,173,68.1013,177,62.1013,173,56.1013" style="stroke: #2E8B57; stroke-width: 1.0;"/><text fill="#000000" font-family="sans-serif" font-size="13" lengthAdjust="spacingAndGlyphs" textLength="77" x="174" y="99.0669">aggregation</text><!--
@startuml

skinparam class {
  BackgroundColor PaleGreen
  ArrowColor SeaGreen
  BorderColor SpringGreen
}
skinparam stereotypeCBackgroundColor YellowGreen

Class01 "1" *- - "many" Class02 : contains

Class03 o- - Class04 : aggregation

@enduml

PlantUML version 1.2019.05(Sat Apr 20 16:45:36 UTC 2019)
(GPL source distribution)
Java Runtime: OpenJDK Runtime Environment
JVM: OpenJDK 64-Bit Server VM
Java Version: 11.0.9+11-post-Debian-1deb10u1
Operating System: Linux
OS Version: 5.4.0-1047-azure
Default Encoding: UTF-8
Language: en
Country: null
--></g></svg>