<?xml version="1.0" encoding="UTF-8" standalone="no"?><svg xmlns="http://www.w3.org/2000/svg" xmlns:xlink="http://www.w3.org/1999/xlink" contentScriptType="application/ecmascript" contentStyleType="text/css" height="340px" preserveAspectRatio="none" style="width:383px;height:340px;" version="1.1" viewBox="0 0 383 340" width="383px" zoomAndPan="magnify"><defs><filter height="300%" id="f12w6r7cq439e9" width="300%" x="-1" y="-1"><feGaussianBlur result="blurOut" stdDeviation="2.0"/><feColorMatrix in="blurOut" result="blurOut2" type="matrix" values="0 0 0 0 0 0 0 0 0 0 0 0 0 0 0 0 0 0 .4 0"/><feOffset dx="4.0" dy="4.0" in="blurOut2" result="blurOut3"/><feBlend in="SourceGraphic" in2="blurOut3" mode="normal"/></filter></defs><g><line style="stroke: #A80036; stroke-width: 1.0; stroke-dasharray: 5.0,5.0;" x1="28" x2="28" y1="86.4883" y2="253.041"/><line style="stroke: #A80036; stroke-width: 1.0; stroke-dasharray: 5.0,5.0;" x1="131" x2="131" y1="86.4883" y2="253.041"/><line style="stroke: #A80036; stroke-width: 1.0; stroke-dasharray: 5.0,5.0;" x1="186" x2="186" y1="86.4883" y2="253.041"/><line style="stroke: #A80036; stroke-width: 1.0; stroke-dasharray: 5.0,5.0;" x1="237" x2="237" y1="86.4883" y2="253.041"/><line style="stroke: #A80036; stroke-width: 1.0; stroke-dasharray: 5.0,5.0;" x1="288" x2="288" y1="86.4883" y2="253.041"/><line style="stroke: #A80036; stroke-width: 1.0; stroke-dasharray: 5.0,5.0;" x1="347" x2="347" y1="86.4883" y2="253.041"/><text fill="#000000" font-family="sans-serif" font-size="14" lengthAdjust="spacingAndGlyphs" textLength="35" x="8" y="83.5352">Foo1</text><ellipse cx="28.5" cy="13" fill="#FEFECE" filter="url(#f12w6r7cq439e9)" rx="8" ry="8" style="stroke: #A80036; stroke-width: 2.0;"/><path d="M28.5,21 L28.5,48 M15.5,29 L41.5,29 M28.5,48 L15.5,63 M28.5,48 L41.5,63 " fill="none" filter="url(#f12w6r7cq439e9)" style="stroke: #A80036; stroke-width: 2.0;"/><text fill="#000000" font-family="sans-serif" font-size="14" lengthAdjust="spacingAndGlyphs" textLength="35" x="8" y="265.5762">Foo1</text><ellipse cx="28.5" cy="278.5293" fill="#FEFECE" filter="url(#f12w6r7cq439e9)" rx="8" ry="8" style="stroke: #A80036; stroke-width: 2.0;"/><path d="M28.5,286.5293 L28.5,313.5293 M15.5,294.5293 L41.5,294.5293 M28.5,313.5293 L15.5,328.5293 M28.5,313.5293 L41.5,328.5293 " fill="none" filter="url(#f12w6r7cq439e9)" style="stroke: #A80036; stroke-width: 2.0;"/><text fill="#000000" font-family="sans-serif" font-size="14" lengthAdjust="spacingAndGlyphs" textLength="35" x="111" y="83.5352">Foo2</text><path d="M111,42 L111,66 M111,54 L128,54 " fill="none" filter="url(#f12w6r7cq439e9)" style="stroke: #A80036; stroke-width: 2.0;"/><ellipse cx="140" cy="54" fill="#FEFECE" filter="url(#f12w6r7cq439e9)" rx="12" ry="12" style="stroke: #A80036; stroke-width: 2.0;"/><text fill="#000000" font-family="sans-serif" font-size="14" lengthAdjust="spacingAndGlyphs" textLength="35" x="111" y="265.5762">Foo2</text><path d="M111,272.5293 L111,296.5293 M111,284.5293 L128,284.5293 " fill="none" filter="url(#f12w6r7cq439e9)" style="stroke: #A80036; stroke-width: 2.0;"/><ellipse cx="140" cy="284.5293" fill="#FEFECE" filter="url(#f12w6r7cq439e9)" rx="12" ry="12" style="stroke: #A80036; stroke-width: 2.0;"/><text fill="#000000" font-family="sans-serif" font-size="14" lengthAdjust="spacingAndGlyphs" textLength="35" x="166" y="83.5352">Foo3</text><ellipse cx="186.5" cy="54" fill="#FEFECE" filter="url(#f12w6r7cq439e9)" rx="12" ry="12" style="stroke: #A80036; stroke-width: 2.0;"/><polygon fill="#A80036" points="182.5,42,188.5,37,186.5,42,188.5,47,182.5,42" style="stroke: #A80036; stroke-width: 1.0;"/><text fill="#000000" font-family="sans-serif" font-size="14" lengthAdjust="spacingAndGlyphs" textLength="35" x="166" y="265.5762">Foo3</text><ellipse cx="186.5" cy="284.5293" fill="#FEFECE" filter="url(#f12w6r7cq439e9)" rx="12" ry="12" style="stroke: #A80036; stroke-width: 2.0;"/><polygon fill="#A80036" points="182.5,272.5293,188.5,267.5293,186.5,272.5293,188.5,277.5293,182.5,272.5293" style="stroke: #A80036; stroke-width: 1.0;"/><text fill="#000000" font-family="sans-serif" font-size="14" lengthAdjust="spacingAndGlyphs" textLength="35" x="217" y="83.5352">Foo4</text><ellipse cx="237.5" cy="54" fill="#FEFECE" filter="url(#f12w6r7cq439e9)" rx="12" ry="12" style="stroke: #A80036; stroke-width: 2.0;"/><line style="stroke: #A80036; stroke-width: 2.0;" x1="225.5" x2="249.5" y1="68" y2="68"/><text fill="#000000" font-family="sans-serif" font-size="14" lengthAdjust="spacingAndGlyphs" textLength="35" x="217" y="265.5762">Foo4</text><ellipse cx="237.5" cy="284.5293" fill="#FEFECE" filter="url(#f12w6r7cq439e9)" rx="12" ry="12" style="stroke: #A80036; stroke-width: 2.0;"/><line style="stroke: #A80036; stroke-width: 2.0;" x1="225.5" x2="249.5" y1="298.5293" y2="298.5293"/><text fill="#000000" font-family="sans-serif" font-size="14" lengthAdjust="spacingAndGlyphs" textLength="35" x="268" y="83.5352">Foo5</text><path d="M270.5,34 C270.5,24 288.5,24 288.5,24 C288.5,24 306.5,24 306.5,34 L306.5,60 C306.5,70 288.5,70 288.5,70 C288.5,70 270.5,70 270.5,60 L270.5,34 " fill="#FEFECE" filter="url(#f12w6r7cq439e9)" style="stroke: #000000; stroke-width: 1.5;"/><path d="M270.5,34 C270.5,44 288.5,44 288.5,44 C288.5,44 306.5,44 306.5,34 " fill="none" style="stroke: #000000; stroke-width: 1.5;"/><text fill="#000000" font-family="sans-serif" font-size="14" lengthAdjust="spacingAndGlyphs" textLength="35" x="268" y="265.5762">Foo5</text><path d="M270.5,278.5293 C270.5,268.5293 288.5,268.5293 288.5,268.5293 C288.5,268.5293 306.5,268.5293 306.5,278.5293 L306.5,304.5293 C306.5,314.5293 288.5,314.5293 288.5,314.5293 C288.5,314.5293 270.5,314.5293 270.5,304.5293 L270.5,278.5293 " fill="#FEFECE" filter="url(#f12w6r7cq439e9)" style="stroke: #000000; stroke-width: 1.5;"/><path d="M270.5,278.5293 C270.5,288.5293 288.5,288.5293 288.5,288.5293 C288.5,288.5293 306.5,288.5293 306.5,278.5293 " fill="none" style="stroke: #000000; stroke-width: 1.5;"/><rect fill="#FEFECE" filter="url(#f12w6r7cq439e9)" height="30.4883" style="stroke: #A80036; stroke-width: 1.5;" width="49" x="323" y="47"/><rect fill="#FEFECE" filter="url(#f12w6r7cq439e9)" height="30.4883" style="stroke: #A80036; stroke-width: 1.5;" width="49" x="319" y="51"/><text fill="#000000" font-family="sans-serif" font-size="14" lengthAdjust="spacingAndGlyphs" textLength="35" x="326" y="71.5352">Foo6</text><rect fill="#FEFECE" filter="url(#f12w6r7cq439e9)" height="30.4883" style="stroke: #A80036; stroke-width: 1.5;" width="49" x="323" y="252.041"/><rect fill="#FEFECE" filter="url(#f12w6r7cq439e9)" height="30.4883" style="stroke: #A80036; stroke-width: 1.5;" width="49" x="319" y="256.041"/><text fill="#000000" font-family="sans-serif" font-size="14" lengthAdjust="spacingAndGlyphs" textLength="35" x="326" y="276.5762">Foo6</text><polygon fill="#A80036" points="119.5,113.7988,129.5,117.7988,119.5,121.7988,123.5,117.7988" style="stroke: #A80036; stroke-width: 1.0;"/><line style="stroke: #A80036; stroke-width: 1.0;" x1="28.5" x2="125.5" y1="117.7988" y2="117.7988"/><text fill="#000000" font-family="sans-serif" font-size="13" lengthAdjust="spacingAndGlyphs" textLength="79" x="35.5" y="113.0566">To boundary</text><polygon fill="#A80036" points="174.5,143.1094,184.5,147.1094,174.5,151.1094,178.5,147.1094" style="stroke: #A80036; stroke-width: 1.0;"/><line style="stroke: #A80036; stroke-width: 1.0;" x1="28.5" x2="180.5" y1="147.1094" y2="147.1094"/><text fill="#000000" font-family="sans-serif" font-size="13" lengthAdjust="spacingAndGlyphs" textLength="65" x="35.5" y="142.3672">To control</text><polygon fill="#A80036" points="225.5,172.4199,235.5,176.4199,225.5,180.4199,229.5,176.4199" style="stroke: #A80036; stroke-width: 1.0;"/><line style="stroke: #A80036; stroke-width: 1.0;" x1="28.5" x2="231.5" y1="176.4199" y2="176.4199"/><text fill="#000000" font-family="sans-serif" font-size="13" lengthAdjust="spacingAndGlyphs" textLength="56" x="35.5" y="171.6777">To entity</text><polygon fill="#A80036" points="276.5,201.7305,286.5,205.7305,276.5,209.7305,280.5,205.7305" style="stroke: #A80036; stroke-width: 1.0;"/><line style="stroke: #A80036; stroke-width: 1.0;" x1="28.5" x2="282.5" y1="205.7305" y2="205.7305"/><text fill="#000000" font-family="sans-serif" font-size="13" lengthAdjust="spacingAndGlyphs" textLength="76" x="35.5" y="200.9883">To database</text><polygon fill="#A80036" points="335.5,231.041,345.5,235.041,335.5,239.041,339.5,235.041" style="stroke: #A80036; stroke-width: 1.0;"/><line style="stroke: #A80036; stroke-width: 1.0;" x1="28.5" x2="341.5" y1="235.041" y2="235.041"/><text fill="#000000" font-family="sans-serif" font-size="13" lengthAdjust="spacingAndGlyphs" textLength="89" x="35.5" y="230.2988">To collections</text><!--
@startuml
actor Foo1
boundary Foo2
control Foo3
entity Foo4
database Foo5
collections Foo6
Foo1 -> Foo2 : To boundary
Foo1 -> Foo3 : To control
Foo1 -> Foo4 : To entity
Foo1 -> Foo5 : To database
Foo1 -> Foo6 : To collections

@enduml

PlantUML version 1.2019.05(Sun Apr 21 00:45:36 CST 2019)
(GPL source distribution)
Java Runtime: Java(TM) SE Runtime Environment
JVM: Java HotSpot(TM) 64-Bit Server VM
Java Version: 1.8.0_191-b12
Operating System: Mac OS X
OS Version: 10.16
Default Encoding: UTF-8
Language: en
Country: CN
--></g></svg>