<?xml version="1.0" encoding="UTF-8" standalone="no"?><svg xmlns="http://www.w3.org/2000/svg" xmlns:xlink="http://www.w3.org/1999/xlink" contentScriptType="application/ecmascript" contentStyleType="text/css" height="198px" preserveAspectRatio="none" style="width:263px;height:198px;" version="1.1" viewBox="0 0 263 198" width="263px" zoomAndPan="magnify"><defs><filter height="300%" id="fnriax6buya65" width="300%" x="-1" y="-1"><feGaussianBlur result="blurOut" stdDeviation="2.0"/><feColorMatrix in="blurOut" result="blurOut2" type="matrix" values="0 0 0 0 0 0 0 0 0 0 0 0 0 0 0 0 0 0 .4 0"/><feOffset dx="4.0" dy="4.0" in="blurOut2" result="blurOut3"/><feBlend in="SourceGraphic" in2="blurOut3" mode="normal"/></filter></defs><g><!--class Class01--><rect fill="#F5DEB3" filter="url(#fnriax6buya65)" height="53.9375" id="Class01" style="stroke: #FF6347; stroke-width: 1.5;" width="81" x="16.5" y="8"/><ellipse cx="31.5" cy="26.9688" fill="#696969" rx="11" ry="11" style="stroke: #FF6347; stroke-width: 1.0;"/><path d="M34.4688,32.6094 Q33.8906,32.9063 33.25,33.0469 Q32.6094,33.2031 31.9063,33.2031 Q29.4063,33.2031 28.0781,31.5625 Q26.7656,29.9063 26.7656,26.7813 Q26.7656,23.6563 28.0781,22 Q29.4063,20.3438 31.9063,20.3438 Q32.6094,20.3438 33.25,20.5 Q33.9063,20.6563 34.4688,20.9531 L34.4688,23.6719 Q33.8438,23.0938 33.25,22.8281 Q32.6563,22.5469 32.0313,22.5469 Q30.6875,22.5469 30,23.625 Q29.3125,24.6875 29.3125,26.7813 Q29.3125,28.875 30,29.9531 Q30.6875,31.0156 32.0313,31.0156 Q32.6563,31.0156 33.25,30.75 Q33.8438,30.4688 34.4688,29.8906 L34.4688,32.6094 Z "/><text fill="#000000" font-family="sans-serif" font-size="12" font-style="italic" lengthAdjust="spacingAndGlyphs" textLength="37" x="51.5" y="24.1387">«Foo»</text><text fill="#000000" font-family="sans-serif" font-size="12" lengthAdjust="spacingAndGlyphs" textLength="49" x="45.5" y="38.1074">Class01</text><line style="stroke: #FF6347; stroke-width: 1.5;" x1="17.5" x2="96.5" y1="45.9375" y2="45.9375"/><line style="stroke: #FF6347; stroke-width: 1.5;" x1="17.5" x2="96.5" y1="53.9375" y2="53.9375"/><!--class Class03--><rect fill="#F5DEB3" filter="url(#fnriax6buya65)" height="53.9375" id="Class03" style="stroke: #FF6347; stroke-width: 1.5;" width="81" x="132.5" y="8"/><ellipse cx="147.5" cy="26.9688" fill="#696969" rx="11" ry="11" style="stroke: #FF6347; stroke-width: 1.0;"/><path d="M150.4688,32.6094 Q149.8906,32.9063 149.25,33.0469 Q148.6094,33.2031 147.9063,33.2031 Q145.4063,33.2031 144.0781,31.5625 Q142.7656,29.9063 142.7656,26.7813 Q142.7656,23.6563 144.0781,22 Q145.4063,20.3438 147.9063,20.3438 Q148.6094,20.3438 149.25,20.5 Q149.9063,20.6563 150.4688,20.9531 L150.4688,23.6719 Q149.8438,23.0938 149.25,22.8281 Q148.6563,22.5469 148.0313,22.5469 Q146.6875,22.5469 146,23.625 Q145.3125,24.6875 145.3125,26.7813 Q145.3125,28.875 146,29.9531 Q146.6875,31.0156 148.0313,31.0156 Q148.6563,31.0156 149.25,30.75 Q149.8438,30.4688 150.4688,29.8906 L150.4688,32.6094 Z "/><text fill="#000000" font-family="sans-serif" font-size="12" font-style="italic" lengthAdjust="spacingAndGlyphs" textLength="37" x="167.5" y="24.1387">«Foo»</text><text fill="#000000" font-family="sans-serif" font-size="12" lengthAdjust="spacingAndGlyphs" textLength="49" x="161.5" y="38.1074">Class03</text><line style="stroke: #FF6347; stroke-width: 1.5;" x1="133.5" x2="212.5" y1="45.9375" y2="45.9375"/><line style="stroke: #FF6347; stroke-width: 1.5;" x1="133.5" x2="212.5" y1="53.9375" y2="53.9375"/><!--class Class02--><rect fill="#98FB98" filter="url(#fnriax6buya65)" height="48" id="Class02" style="stroke: #00FF7F; stroke-width: 1.5;" width="81" x="16.5" y="139"/><ellipse cx="31.5" cy="155" fill="#9ACD32" rx="11" ry="11" style="stroke: #00FF7F; stroke-width: 1.0;"/><path d="M34.4688,160.6406 Q33.8906,160.9375 33.25,161.0781 Q32.6094,161.2344 31.9063,161.2344 Q29.4063,161.2344 28.0781,159.5938 Q26.7656,157.9375 26.7656,154.8125 Q26.7656,151.6875 28.0781,150.0313 Q29.4063,148.375 31.9063,148.375 Q32.6094,148.375 33.25,148.5313 Q33.9063,148.6875 34.4688,148.9844 L34.4688,151.7031 Q33.8438,151.125 33.25,150.8594 Q32.6563,150.5781 32.0313,150.5781 Q30.6875,150.5781 30,151.6563 Q29.3125,152.7188 29.3125,154.8125 Q29.3125,156.9063 30,157.9844 Q30.6875,159.0469 32.0313,159.0469 Q32.6563,159.0469 33.25,158.7813 Q33.8438,158.5 34.4688,157.9219 L34.4688,160.6406 Z "/><text fill="#000000" font-family="sans-serif" font-size="12" lengthAdjust="spacingAndGlyphs" textLength="49" x="45.5" y="159.1543">Class02</text><line style="stroke: #00FF7F; stroke-width: 1.5;" x1="17.5" x2="96.5" y1="171" y2="171"/><line style="stroke: #00FF7F; stroke-width: 1.5;" x1="17.5" x2="96.5" y1="179" y2="179"/><!--class Class04--><rect fill="#98FB98" filter="url(#fnriax6buya65)" height="48" id="Class04" style="stroke: #00FF7F; stroke-width: 1.5;" width="81" x="132.5" y="139"/><ellipse cx="147.5" cy="155" fill="#9ACD32" rx="11" ry="11" style="stroke: #00FF7F; stroke-width: 1.0;"/><path d="M150.4688,160.6406 Q149.8906,160.9375 149.25,161.0781 Q148.6094,161.2344 147.9063,161.2344 Q145.4063,161.2344 144.0781,159.5938 Q142.7656,157.9375 142.7656,154.8125 Q142.7656,151.6875 144.0781,150.0313 Q145.4063,148.375 147.9063,148.375 Q148.6094,148.375 149.25,148.5313 Q149.9063,148.6875 150.4688,148.9844 L150.4688,151.7031 Q149.8438,151.125 149.25,150.8594 Q148.6563,150.5781 148.0313,150.5781 Q146.6875,150.5781 146,151.6563 Q145.3125,152.7188 145.3125,154.8125 Q145.3125,156.9063 146,157.9844 Q146.6875,159.0469 148.0313,159.0469 Q148.6563,159.0469 149.25,158.7813 Q149.8438,158.5 150.4688,157.9219 L150.4688,160.6406 Z "/><text fill="#000000" font-family="sans-serif" font-size="12" lengthAdjust="spacingAndGlyphs" textLength="49" x="161.5" y="159.1543">Class04</text><line style="stroke: #00FF7F; stroke-width: 1.5;" x1="133.5" x2="212.5" y1="171" y2="171"/><line style="stroke: #00FF7F; stroke-width: 1.5;" x1="133.5" x2="212.5" y1="179" y2="179"/><!--link Class01 to Class02--><path d="M57,75.2071 C57,96.1239 57,120.9942 57,138.9148 " fill="none" id="Class01-Class02" style="stroke: #2E8B57; stroke-width: 1.0;"/><polygon fill="#2E8B57" points="57,62.1455,53,68.1455,57,74.1455,61,68.1455,57,62.1455" style="stroke: #2E8B57; stroke-width: 1.0;"/><text fill="#000000" font-family="sans-serif" font-size="13" lengthAdjust="spacingAndGlyphs" textLength="54" x="58" y="105.0669">contains</text><text fill="#000000" font-family="sans-serif" font-size="13" lengthAdjust="spacingAndGlyphs" textLength="8" x="48.125" y="81.8125">1</text><text fill="#000000" font-family="sans-serif" font-size="13" lengthAdjust="spacingAndGlyphs" textLength="36" x="16.3875" y="127.905">many</text><!--link Class03 to Class04--><path d="M173,75.2071 C173,96.1239 173,120.9942 173,138.9148 " fill="none" id="Class03-Class04" style="stroke: #2E8B57; stroke-width: 1.0;"/><polygon fill="#FFFFFF" points="173,62.1455,169,68.1455,173,74.1455,177,68.1455,173,62.1455" style="stroke: #2E8B57; stroke-width: 1.0;"/><text fill="#000000" font-family="sans-serif" font-size="13" lengthAdjust="spacingAndGlyphs" textLength="77" x="174" y="105.0669">aggregation</text><!--
@startuml

skinparam class {
BackgroundColor PaleGreen
ArrowColor SeaGreen
BorderColor SpringGreen
BackgroundColor<<Foo>> Wheat
BorderColor<<Foo>> Tomato
}
skinparam stereotypeCBackgroundColor YellowGreen
skinparam stereotypeCBackgroundColor<< Foo >> DimGray

Class01 <<Foo>>
Class03 <<Foo>>
Class01 "1" *- - "many" Class02 : contains

Class03 o- - Class04 : aggregation

@enduml

PlantUML version 1.2019.05(Sat Apr 20 16:45:36 UTC 2019)
(GPL source distribution)
Java Runtime: OpenJDK Runtime Environment
JVM: OpenJDK 64-Bit Server VM
Java Version: 11.0.9+11-post-Debian-1deb10u1
Operating System: Linux
OS Version: 5.4.0-1047-azure
Default Encoding: UTF-8
Language: en
Country: null
--></g></svg>