<?xml version="1.0" encoding="UTF-8" standalone="no"?><svg xmlns="http://www.w3.org/2000/svg" xmlns:xlink="http://www.w3.org/1999/xlink" contentScriptType="application/ecmascript" contentStyleType="text/css" height="198px" preserveAspectRatio="none" style="width:256px;height:198px;" version="1.1" viewBox="0 0 256 198" width="256px" zoomAndPan="magnify"><defs><filter height="300%" id="fnriax6buya65" width="300%" x="-1" y="-1"><feGaussianBlur result="blurOut" stdDeviation="2.0"/><feColorMatrix in="blurOut" result="blurOut2" type="matrix" values="0 0 0 0 0 0 0 0 0 0 0 0 0 0 0 0 0 0 .4 0"/><feOffset dx="4.0" dy="4.0" in="blurOut2" result="blurOut3"/><feBlend in="SourceGraphic" in2="blurOut3" mode="normal"/></filter></defs><g><!--class Class01--><rect fill="#F5DEB3" filter="url(#fnriax6buya65)" height="54.2656" id="Class01" style="stroke: #FF6347; stroke-width: 1.5;" width="78" x="16" y="8"/><ellipse cx="31" cy="27.1328" fill="#696969" rx="11" ry="11" style="stroke: #FF6347; stroke-width: 1.0;"/><path d="M33.4731,33.2759 Q32.8921,33.5747 32.2529,33.7241 Q31.6138,33.8735 30.9082,33.8735 Q28.4014,33.8735 27.0815,32.2217 Q25.7617,30.5698 25.7617,27.4487 Q25.7617,24.3193 27.0815,22.6675 Q28.4014,21.0156 30.9082,21.0156 Q31.6138,21.0156 32.2612,21.165 Q32.9087,21.3145 33.4731,21.6133 L33.4731,24.3359 Q32.8423,23.7549 32.2488,23.4851 Q31.6553,23.2153 31.0244,23.2153 Q29.6797,23.2153 28.9949,24.282 Q28.3101,25.3486 28.3101,27.4487 Q28.3101,29.5405 28.9949,30.6072 Q29.6797,31.6738 31.0244,31.6738 Q31.6553,31.6738 32.2488,31.4041 Q32.8423,31.1343 33.4731,30.5532 Z "/><text fill="#000000" font-family="sans-serif" font-size="12" font-style="italic" lengthAdjust="spacingAndGlyphs" textLength="32" x="52" y="24.6016">«Foo»</text><text fill="#000000" font-family="sans-serif" font-size="12" lengthAdjust="spacingAndGlyphs" textLength="46" x="45" y="38.7344">Class01</text><line style="stroke: #FF6347; stroke-width: 1.5;" x1="17" x2="93" y1="46.2656" y2="46.2656"/><line style="stroke: #FF6347; stroke-width: 1.5;" x1="17" x2="93" y1="54.2656" y2="54.2656"/><!--class Class03--><rect fill="#F5DEB3" filter="url(#fnriax6buya65)" height="54.2656" id="Class03" style="stroke: #FF6347; stroke-width: 1.5;" width="78" x="129" y="8"/><ellipse cx="144" cy="27.1328" fill="#696969" rx="11" ry="11" style="stroke: #FF6347; stroke-width: 1.0;"/><path d="M146.4731,33.2759 Q145.8921,33.5747 145.2529,33.7241 Q144.6138,33.8735 143.9082,33.8735 Q141.4014,33.8735 140.0815,32.2217 Q138.7617,30.5698 138.7617,27.4487 Q138.7617,24.3193 140.0815,22.6675 Q141.4014,21.0156 143.9082,21.0156 Q144.6138,21.0156 145.2612,21.165 Q145.9087,21.3145 146.4731,21.6133 L146.4731,24.3359 Q145.8423,23.7549 145.2488,23.4851 Q144.6553,23.2153 144.0244,23.2153 Q142.6797,23.2153 141.9949,24.282 Q141.3101,25.3486 141.3101,27.4487 Q141.3101,29.5405 141.9949,30.6072 Q142.6797,31.6738 144.0244,31.6738 Q144.6553,31.6738 145.2488,31.4041 Q145.8423,31.1343 146.4731,30.5532 Z "/><text fill="#000000" font-family="sans-serif" font-size="12" font-style="italic" lengthAdjust="spacingAndGlyphs" textLength="32" x="165" y="24.6016">«Foo»</text><text fill="#000000" font-family="sans-serif" font-size="12" lengthAdjust="spacingAndGlyphs" textLength="46" x="158" y="38.7344">Class03</text><line style="stroke: #FF6347; stroke-width: 1.5;" x1="130" x2="206" y1="46.2656" y2="46.2656"/><line style="stroke: #FF6347; stroke-width: 1.5;" x1="130" x2="206" y1="54.2656" y2="54.2656"/><!--class Class02--><rect fill="#98FB98" filter="url(#fnriax6buya65)" height="48" id="Class02" style="stroke: #00FF7F; stroke-width: 1.5;" width="78" x="16" y="139"/><ellipse cx="31" cy="155" fill="#9ACD32" rx="11" ry="11" style="stroke: #00FF7F; stroke-width: 1.0;"/><path d="M33.4731,161.1431 Q32.8921,161.4419 32.2529,161.5913 Q31.6138,161.7407 30.9082,161.7407 Q28.4014,161.7407 27.0815,160.0889 Q25.7617,158.437 25.7617,155.3159 Q25.7617,152.1865 27.0815,150.5347 Q28.4014,148.8828 30.9082,148.8828 Q31.6138,148.8828 32.2612,149.0322 Q32.9087,149.1816 33.4731,149.4805 L33.4731,152.2031 Q32.8423,151.6221 32.2488,151.3523 Q31.6553,151.0825 31.0244,151.0825 Q29.6797,151.0825 28.9949,152.1492 Q28.3101,153.2158 28.3101,155.3159 Q28.3101,157.4077 28.9949,158.4744 Q29.6797,159.541 31.0244,159.541 Q31.6553,159.541 32.2488,159.2712 Q32.8423,159.0015 33.4731,158.4204 Z "/><text fill="#000000" font-family="sans-serif" font-size="12" lengthAdjust="spacingAndGlyphs" textLength="46" x="45" y="159.5352">Class02</text><line style="stroke: #00FF7F; stroke-width: 1.5;" x1="17" x2="93" y1="171" y2="171"/><line style="stroke: #00FF7F; stroke-width: 1.5;" x1="17" x2="93" y1="179" y2="179"/><!--class Class04--><rect fill="#98FB98" filter="url(#fnriax6buya65)" height="48" id="Class04" style="stroke: #00FF7F; stroke-width: 1.5;" width="78" x="129" y="139"/><ellipse cx="144" cy="155" fill="#9ACD32" rx="11" ry="11" style="stroke: #00FF7F; stroke-width: 1.0;"/><path d="M146.4731,161.1431 Q145.8921,161.4419 145.2529,161.5913 Q144.6138,161.7407 143.9082,161.7407 Q141.4014,161.7407 140.0815,160.0889 Q138.7617,158.437 138.7617,155.3159 Q138.7617,152.1865 140.0815,150.5347 Q141.4014,148.8828 143.9082,148.8828 Q144.6138,148.8828 145.2612,149.0322 Q145.9087,149.1816 146.4731,149.4805 L146.4731,152.2031 Q145.8423,151.6221 145.2488,151.3523 Q144.6553,151.0825 144.0244,151.0825 Q142.6797,151.0825 141.9949,152.1492 Q141.3101,153.2158 141.3101,155.3159 Q141.3101,157.4077 141.9949,158.4744 Q142.6797,159.541 144.0244,159.541 Q144.6553,159.541 145.2488,159.2712 Q145.8423,159.0015 146.4731,158.4204 Z "/><text fill="#000000" font-family="sans-serif" font-size="12" lengthAdjust="spacingAndGlyphs" textLength="46" x="158" y="159.5352">Class04</text><line style="stroke: #00FF7F; stroke-width: 1.5;" x1="130" x2="206" y1="171" y2="171"/><line style="stroke: #00FF7F; stroke-width: 1.5;" x1="130" x2="206" y1="179" y2="179"/><!--link Class01 to Class02--><path d="M55,75.2071 C55,96.1239 55,120.9942 55,138.9148 " fill="none" id="Class01-Class02" style="stroke: #2E8B57; stroke-width: 1.0;"/><polygon fill="#2E8B57" points="55,62.1455,51,68.1455,55,74.1455,59,68.1455,55,62.1455" style="stroke: #2E8B57; stroke-width: 1.0;"/><text fill="#000000" font-family="sans-serif" font-size="13" lengthAdjust="spacingAndGlyphs" textLength="54" x="56" y="105.5684">contains</text><text fill="#000000" font-family="sans-serif" font-size="13" lengthAdjust="spacingAndGlyphs" textLength="8" x="46.075" y="82.7308">1</text><text fill="#000000" font-family="sans-serif" font-size="13" lengthAdjust="spacingAndGlyphs" textLength="34" x="16.6438" y="128.4292">many</text><!--link Class03 to Class04--><path d="M168,75.2071 C168,96.1239 168,120.9942 168,138.9148 " fill="none" id="Class03-Class04" style="stroke: #2E8B57; stroke-width: 1.0;"/><polygon fill="#FFFFFF" points="168,62.1455,164,68.1455,168,74.1455,172,68.1455,168,62.1455" style="stroke: #2E8B57; stroke-width: 1.0;"/><text fill="#000000" font-family="sans-serif" font-size="13" lengthAdjust="spacingAndGlyphs" textLength="75" x="169" y="105.5684">aggregation</text><!--
@startuml

skinparam class {
BackgroundColor PaleGreen
ArrowColor SeaGreen
BorderColor SpringGreen
BackgroundColor<<Foo>> Wheat
BorderColor<<Foo>> Tomato
}
skinparam stereotypeCBackgroundColor YellowGreen
skinparam stereotypeCBackgroundColor<< Foo >> DimGray

Class01 <<Foo>>
Class03 <<Foo>>
Class01 "1" *- - "many" Class02 : contains

Class03 o- - Class04 : aggregation

@enduml

PlantUML version 1.2019.05(Sun Apr 21 00:45:36 CST 2019)
(GPL source distribution)
Java Runtime: Java(TM) SE Runtime Environment
JVM: Java HotSpot(TM) 64-Bit Server VM
Java Version: 1.8.0_191-b12
Operating System: Mac OS X
OS Version: 10.16
Default Encoding: UTF-8
Language: en
Country: CN
--></g></svg>