<?xml version="1.0" encoding="UTF-8" standalone="no"?><svg xmlns="http://www.w3.org/2000/svg" xmlns:xlink="http://www.w3.org/1999/xlink" contentScriptType="application/ecmascript" contentStyleType="text/css" height="214px" preserveAspectRatio="none" style="width:348px;height:214px;" version="1.1" viewBox="0 0 348 214" width="348px" zoomAndPan="magnify"><defs><filter height="300%" id="f1rk2prmxtw8gs" width="300%" x="-1" y="-1"><feGaussianBlur result="blurOut" stdDeviation="2.0"/><feColorMatrix in="blurOut" result="blurOut2" type="matrix" values="0 0 0 0 0 0 0 0 0 0 0 0 0 0 0 0 0 0 .4 0"/><feOffset dx="4.0" dy="4.0" in="blurOut2" result="blurOut3"/><feBlend in="SourceGraphic" in2="blurOut3" mode="normal"/></filter></defs><g><ellipse cx="140.75" cy="20" fill="#000000" filter="url(#f1rk2prmxtw8gs)" rx="10" ry="10" style="stroke: none; stroke-width: 1.0;"/><polygon fill="#FEFECE" filter="url(#f1rk2prmxtw8gs)" points="87.25,50,194.25,50,206.25,62,194.25,74,87.25,74,75.25,62,87.25,50" style="stroke: #A80036; stroke-width: 1.5;"/><text fill="#000000" font-family="sans-serif" font-size="11" lengthAdjust="spacingAndGlyphs" textLength="107" x="87.25" y="65.8081">Graphviz installed?</text><text fill="#000000" font-family="sans-serif" font-size="11" lengthAdjust="spacingAndGlyphs" textLength="20" x="55.25" y="59.4058">yes</text><text fill="#000000" font-family="sans-serif" font-size="11" lengthAdjust="spacingAndGlyphs" textLength="14" x="206.25" y="59.4058">no</text><rect fill="#FEFECE" filter="url(#f1rk2prmxtw8gs)" height="47.9375" rx="12.5" ry="12.5" style="stroke: #A80036; stroke-width: 1.5;" width="88" x="10" y="84"/><text fill="#000000" font-family="sans-serif" font-size="12" lengthAdjust="spacingAndGlyphs" textLength="68" x="20" y="105.1387">process all</text><text fill="#000000" font-family="sans-serif" font-size="12" lengthAdjust="spacingAndGlyphs" textLength="58" x="20" y="119.1074">diagrams</text><rect fill="#FEFECE" filter="url(#f1rk2prmxtw8gs)" height="47.9375" rx="12.5" ry="12.5" style="stroke: #A80036; stroke-width: 1.5;" width="219" x="118" y="84"/><text fill="#000000" font-family="sans-serif" font-size="12" lengthAdjust="spacingAndGlyphs" textLength="79" x="128" y="105.1387">process only</text><text fill="#000000" font-family="sans-serif" font-size="12" lengthAdjust="spacingAndGlyphs" text-decoration="underline" textLength="62" x="128" y="119.1074">sequence</text><text fill="#000000" font-family="sans-serif" font-size="12" lengthAdjust="spacingAndGlyphs" textLength="24" x="194" y="119.1074">and</text><text fill="#000000" font-family="sans-serif" font-size="12" lengthAdjust="spacingAndGlyphs" text-decoration="underline" textLength="43" x="222" y="119.1074">activity</text><text fill="#000000" font-family="sans-serif" font-size="12" lengthAdjust="spacingAndGlyphs" textLength="58" x="269" y="119.1074">diagrams</text><polygon fill="#FEFECE" filter="url(#f1rk2prmxtw8gs)" points="140.75,137.9375,152.75,149.9375,140.75,161.9375,128.75,149.9375,140.75,137.9375" style="stroke: #A80036; stroke-width: 1.5;"/><ellipse cx="140.75" cy="192.9375" fill="#FFFFFF" filter="url(#f1rk2prmxtw8gs)" rx="11" ry="11" style="stroke: #000000; stroke-width: 1.0;"/><ellipse cx="140.75" cy="192.9375" fill="#000000" rx="6" ry="6" style="stroke: #7F7F7F; stroke-width: 1.0;"/><line style="stroke: #A80036; stroke-width: 1.5;" x1="75.25" x2="54" y1="62" y2="62"/><line style="stroke: #A80036; stroke-width: 1.5;" x1="54" x2="54" y1="62" y2="84"/><polygon fill="#A80036" points="50,74,54,84,58,74,54,78" style="stroke: #A80036; stroke-width: 1.0;"/><line style="stroke: #A80036; stroke-width: 1.5;" x1="206.25" x2="227.5" y1="62" y2="62"/><line style="stroke: #A80036; stroke-width: 1.5;" x1="227.5" x2="227.5" y1="62" y2="84"/><polygon fill="#A80036" points="223.5,74,227.5,84,231.5,74,227.5,78" style="stroke: #A80036; stroke-width: 1.0;"/><line style="stroke: #A80036; stroke-width: 1.5;" x1="54" x2="54" y1="131.9375" y2="149.9375"/><line style="stroke: #A80036; stroke-width: 1.5;" x1="54" x2="128.75" y1="149.9375" y2="149.9375"/><polygon fill="#A80036" points="118.75,145.9375,128.75,149.9375,118.75,153.9375,122.75,149.9375" style="stroke: #A80036; stroke-width: 1.0;"/><line style="stroke: #A80036; stroke-width: 1.5;" x1="227.5" x2="227.5" y1="131.9375" y2="149.9375"/><line style="stroke: #A80036; stroke-width: 1.5;" x1="227.5" x2="152.75" y1="149.9375" y2="149.9375"/><polygon fill="#A80036" points="162.75,145.9375,152.75,149.9375,162.75,153.9375,158.75,149.9375" style="stroke: #A80036; stroke-width: 1.0;"/><line style="stroke: #A80036; stroke-width: 1.5;" x1="140.75" x2="140.75" y1="30" y2="50"/><polygon fill="#A80036" points="136.75,40,140.75,50,144.75,40,140.75,44" style="stroke: #A80036; stroke-width: 1.0;"/><line style="stroke: #A80036; stroke-width: 1.5;" x1="140.75" x2="140.75" y1="161.9375" y2="181.9375"/><polygon fill="#A80036" points="136.75,171.9375,140.75,181.9375,144.75,171.9375,140.75,175.9375" style="stroke: #A80036; stroke-width: 1.0;"/><!--
@startuml

start

if (Graphviz installed?) then (yes)
  :process all\ndiagrams;
else (no)
  :process only
  __sequence__ and __activity__ diagrams;
endif

stop

@enduml

PlantUML version 1.2019.05(Sat Apr 20 16:45:36 UTC 2019)
(GPL source distribution)
Java Runtime: OpenJDK Runtime Environment
JVM: OpenJDK 64-Bit Server VM
Java Version: 11.0.9+11-post-Debian-1deb10u1
Operating System: Linux
OS Version: 5.4.0-1047-azure
Default Encoding: UTF-8
Language: en
Country: null
--></g></svg>