<?xml version="1.0" encoding="UTF-8" standalone="no"?><svg xmlns="http://www.w3.org/2000/svg" xmlns:xlink="http://www.w3.org/1999/xlink" contentScriptType="application/ecmascript" contentStyleType="text/css" height="114px" preserveAspectRatio="none" style="width:126px;height:114px;" version="1.1" viewBox="0 0 126 114" width="126px" zoomAndPan="magnify"><defs><filter height="300%" id="fmmzwq5oiczje" width="300%" x="-1" y="-1"><feGaussianBlur result="blurOut" stdDeviation="2.0"/><feColorMatrix in="blurOut" result="blurOut2" type="matrix" values="0 0 0 0 0 0 0 0 0 0 0 0 0 0 0 0 0 0 .4 0"/><feOffset dx="4.0" dy="4.0" in="blurOut2" result="blurOut3"/><feBlend in="SourceGraphic" in2="blurOut3" mode="normal"/></filter></defs><g><ellipse cx="62" cy="20" fill="#000000" filter="url(#fmmzwq5oiczje)" rx="10" ry="10" style="stroke: none; stroke-width: 1.0;"/><line style="stroke: #A80036; stroke-width: 1.5;" x1="24" x2="100" y1="50" y2="50"/><rect fill="#FEFECE" filter="url(#fmmzwq5oiczje)" height="33.9688" rx="12.5" ry="12.5" style="stroke: #A80036; stroke-width: 1.5;" width="28" x="10" y="70"/><text fill="#000000" font-family="sans-serif" font-size="12" lengthAdjust="spacingAndGlyphs" textLength="8" x="20" y="91.1387">A</text><rect fill="#FEFECE" filter="url(#fmmzwq5oiczje)" height="33.9688" rx="12.5" ry="12.5" style="stroke: #A80036; stroke-width: 1.5;" width="28" x="48" y="70"/><text fill="#000000" font-family="sans-serif" font-size="12" lengthAdjust="spacingAndGlyphs" textLength="8" x="58" y="91.1387">B</text><rect fill="#FEFECE" filter="url(#fmmzwq5oiczje)" height="33.9688" rx="12.5" ry="12.5" style="stroke: #A80036; stroke-width: 1.5;" width="28" x="86" y="70"/><text fill="#000000" font-family="sans-serif" font-size="12" lengthAdjust="spacingAndGlyphs" textLength="8" x="96" y="91.1387">C</text><line style="stroke: #A80036; stroke-width: 1.5;" x1="24" x2="24" y1="51.5" y2="70"/><polygon fill="#A80036" points="20,60,24,70,28,60,24,64" style="stroke: #A80036; stroke-width: 1.0;"/><line style="stroke: #A80036; stroke-width: 1.5;" x1="62" x2="62" y1="51.5" y2="70"/><polygon fill="#A80036" points="58,60,62,70,66,60,62,64" style="stroke: #A80036; stroke-width: 1.0;"/><line style="stroke: #A80036; stroke-width: 1.5;" x1="100" x2="100" y1="51.5" y2="70"/><polygon fill="#A80036" points="96,60,100,70,104,60,100,64" style="stroke: #A80036; stroke-width: 1.0;"/><line style="stroke: #A80036; stroke-width: 1.5;" x1="62" x2="62" y1="30" y2="50"/><polygon fill="#A80036" points="58,40,62,50,66,40,62,44" style="stroke: #A80036; stroke-width: 1.0;"/><!--
@startuml
start
split
   :A;
   kill
split again
   :B;
   detach
split again
   :C;
   kill
end split
@enduml

PlantUML version 1.2019.05(Sat Apr 20 16:45:36 UTC 2019)
(GPL source distribution)
Java Runtime: OpenJDK Runtime Environment
JVM: OpenJDK 64-Bit Server VM
Java Version: 11.0.9+11-post-Debian-1deb10u1
Operating System: Linux
OS Version: 5.4.0-1047-azure
Default Encoding: UTF-8
Language: en
Country: null
--></g></svg>