<?xml version="1.0" encoding="UTF-8" standalone="no"?><svg xmlns="http://www.w3.org/2000/svg" xmlns:xlink="http://www.w3.org/1999/xlink" contentScriptType="application/ecmascript" contentStyleType="text/css" height="390px" preserveAspectRatio="none" style="width:627px;height:390px;" version="1.1" viewBox="0 0 627 390" width="627px" zoomAndPan="magnify"><defs><filter height="300%" id="fln0d5r918i02" width="300%" x="-1" y="-1"><feGaussianBlur result="blurOut" stdDeviation="2.0"/><feColorMatrix in="blurOut" result="blurOut2" type="matrix" values="0 0 0 0 0 0 0 0 0 0 0 0 0 0 0 0 0 0 .4 0"/><feOffset dx="4.0" dy="4.0" in="blurOut2" result="blurOut3"/><feBlend in="SourceGraphic" in2="blurOut3" mode="normal"/></filter></defs><g><!--class Object--><rect fill="#FEFECE" filter="url(#fln0d5r918i02)" height="54.2656" id="Object" style="stroke: #A80036; stroke-width: 1.5;" width="83" x="310" y="116"/><ellipse cx="325" cy="135.1328" fill="#ADD1B2" rx="11" ry="11" style="stroke: #A80036; stroke-width: 1.0;"/><path d="M327.4731,141.2759 Q326.8921,141.5747 326.2529,141.7241 Q325.6138,141.8735 324.9082,141.8735 Q322.4014,141.8735 321.0815,140.2217 Q319.7617,138.5698 319.7617,135.4487 Q319.7617,132.3193 321.0815,130.6675 Q322.4014,129.0156 324.9082,129.0156 Q325.6138,129.0156 326.2612,129.165 Q326.9087,129.3145 327.4731,129.6133 L327.4731,132.3359 Q326.8423,131.7549 326.2488,131.4851 Q325.6553,131.2153 325.0244,131.2153 Q323.6797,131.2153 322.9949,132.282 Q322.3101,133.3486 322.3101,135.4487 Q322.3101,137.5405 322.9949,138.6072 Q323.6797,139.6738 325.0244,139.6738 Q325.6553,139.6738 326.2488,139.4041 Q326.8423,139.1343 327.4731,138.5532 Z "/><text fill="#000000" font-family="sans-serif" font-size="12" font-style="italic" lengthAdjust="spacingAndGlyphs" textLength="55" x="337" y="132.6016">«general»</text><text fill="#000000" font-family="sans-serif" font-size="12" lengthAdjust="spacingAndGlyphs" textLength="38" x="345.5" y="146.7344">Object</text><line style="stroke: #A80036; stroke-width: 1.5;" x1="311" x2="392" y1="154.2656" y2="154.2656"/><line style="stroke: #A80036; stroke-width: 1.5;" x1="311" x2="392" y1="162.2656" y2="162.2656"/><!--class ArrayList--><rect fill="#FEFECE" filter="url(#fln0d5r918i02)" height="48" id="ArrayList" style="stroke: #A80036; stroke-width: 1.5;" width="82" x="310.5" y="331"/><ellipse cx="325.5" cy="347" fill="#ADD1B2" rx="11" ry="11" style="stroke: #A80036; stroke-width: 1.0;"/><path d="M327.9731,353.1431 Q327.3921,353.4419 326.7529,353.5913 Q326.1138,353.7407 325.4082,353.7407 Q322.9014,353.7407 321.5815,352.0889 Q320.2617,350.437 320.2617,347.3159 Q320.2617,344.1865 321.5815,342.5347 Q322.9014,340.8828 325.4082,340.8828 Q326.1138,340.8828 326.7612,341.0322 Q327.4087,341.1816 327.9731,341.4805 L327.9731,344.2031 Q327.3423,343.6221 326.7488,343.3523 Q326.1553,343.0825 325.5244,343.0825 Q324.1797,343.0825 323.4949,344.1492 Q322.8101,345.2158 322.8101,347.3159 Q322.8101,349.4077 323.4949,350.4744 Q324.1797,351.541 325.5244,351.541 Q326.1553,351.541 326.7488,351.2712 Q327.3423,351.0015 327.9731,350.4204 Z "/><text fill="#000000" font-family="sans-serif" font-size="12" lengthAdjust="spacingAndGlyphs" textLength="50" x="339.5" y="351.5352">ArrayList</text><line style="stroke: #A80036; stroke-width: 1.5;" x1="311.5" x2="391.5" y1="363" y2="363"/><line style="stroke: #A80036; stroke-width: 1.5;" x1="311.5" x2="391.5" y1="371" y2="371"/><path d="M282,11.5 L282,52.1211 A0,0 0 0 0 282,52.1211 L347.5,52.1211 L351.5,115.7864 L355.5,52.1211 L421,52.1211 A0,0 0 0 0 421,52.1211 L421,21.5 L411,11.5 L282,11.5 A0,0 0 0 0 282,11.5 " fill="#FBFB77" filter="url(#fln0d5r918i02)" style="stroke: #A80036; stroke-width: 1.0;"/><path d="M411,11.5 L411,21.5 L421,21.5 L411,11.5 " fill="#FBFB77" style="stroke: #A80036; stroke-width: 1.0;"/><text fill="#000000" font-family="sans-serif" font-size="13" lengthAdjust="spacingAndGlyphs" textLength="118" x="288" y="29.0684">In java, every class</text><text fill="#000000" font-family="sans-serif" font-size="13" lengthAdjust="spacingAndGlyphs" textLength="109" x="288" y="44.3789">extends this one.</text><path d="M456,19.5 L456,44.8105 L615,44.8105 L615,29.5 L605,19.5 L456,19.5 " fill="#FBFB77" filter="url(#fln0d5r918i02)" style="stroke: #A80036; stroke-width: 1.0;"/><path d="M605,19.5 L605,29.5 L615,29.5 L605,19.5 " fill="#FBFB77" style="stroke: #A80036; stroke-width: 1.0;"/><text fill="#000000" font-family="sans-serif" font-size="13" lengthAdjust="spacingAndGlyphs" textLength="138" x="462" y="37.0684">This is a floating note</text><path d="M337.5,230 L337.5,270.6211 L501.5,270.6211 L501.5,240 L491.5,230 L337.5,230 " fill="#FBFB77" filter="url(#fln0d5r918i02)" style="stroke: #A80036; stroke-width: 1.0;"/><path d="M491.5,230 L491.5,240 L501.5,240 L491.5,230 " fill="#FBFB77" style="stroke: #A80036; stroke-width: 1.0;"/><text fill="#000000" font-family="sans-serif" font-size="13" lengthAdjust="spacingAndGlyphs" textLength="143" x="343.5" y="247.5684">This note is connected</text><text fill="#000000" font-family="sans-serif" font-size="13" lengthAdjust="spacingAndGlyphs" textLength="115" x="343.5" y="262.8789">to several objects.</text><!--class Foo--><rect fill="#FEFECE" filter="url(#fln0d5r918i02)" height="48" id="Foo" style="stroke: #A80036; stroke-width: 1.5;" width="52" x="194.5" y="8"/><ellipse cx="209.5" cy="24" fill="#ADD1B2" rx="11" ry="11" style="stroke: #A80036; stroke-width: 1.0;"/><path d="M211.9731,30.1431 Q211.3921,30.4419 210.7529,30.5913 Q210.1138,30.7407 209.4082,30.7407 Q206.9014,30.7407 205.5815,29.0889 Q204.2617,27.437 204.2617,24.3159 Q204.2617,21.1865 205.5815,19.5347 Q206.9014,17.8828 209.4082,17.8828 Q210.1138,17.8828 210.7612,18.0322 Q211.4087,18.1816 211.9731,18.4805 L211.9731,21.2031 Q211.3423,20.6221 210.7488,20.3523 Q210.1553,20.0825 209.5244,20.0825 Q208.1797,20.0825 207.4949,21.1492 Q206.8101,22.2158 206.8101,24.3159 Q206.8101,26.4077 207.4949,27.4744 Q208.1797,28.541 209.5244,28.541 Q210.1553,28.541 210.7488,28.2712 Q211.3423,28.0015 211.9731,27.4204 Z "/><text fill="#000000" font-family="sans-serif" font-size="12" lengthAdjust="spacingAndGlyphs" textLength="20" x="223.5" y="28.5352">Foo</text><line style="stroke: #A80036; stroke-width: 1.5;" x1="195.5" x2="245.5" y1="40" y2="40"/><line style="stroke: #A80036; stroke-width: 1.5;" x1="195.5" x2="245.5" y1="48" y2="48"/><path d="M6,19.5 L6,44.8105 A0,0 0 0 0 6,44.8105 L159,44.8105 A0,0 0 0 0 159,44.8105 L159,37.5 L194.0944,32 L159,29.5 L159,29.5 L149,19.5 L6,19.5 A0,0 0 0 0 6,19.5 " fill="#FBFB77" filter="url(#fln0d5r918i02)" style="stroke: #A80036; stroke-width: 1.0;"/><path d="M149,19.5 L149,29.5 L159,29.5 L149,19.5 " fill="#FBFB77" style="stroke: #A80036; stroke-width: 1.0;"/><text fill="#000000" font-family="sans-serif" font-size="13" lengthAdjust="spacingAndGlyphs" textLength="132" x="12" y="37.0684">On last defined class</text><!--link Object to ArrayList--><path d="M330.8529,189.0001 C322.3912,213.2445 315.5997,243.568 320.5,271 C324.2177,291.8114 332.7343,314.2177 339.9018,330.6508 " fill="none" id="Object-ArrayList" style="stroke: #A80036; stroke-width: 1.0;"/><polygon fill="none" points="324.3654,186.3687,338.1335,170.2615,337.4151,191.439,324.3654,186.3687" style="stroke: #A80036; stroke-width: 1.0;"/><!--link Object to N2--><path d="M368.6593,170.1268 C380.384,188.6622 395.6832,212.8485 406.4241,229.8286 " fill="none" id="Object-N2" style="stroke: #A80036; stroke-width: 1.0; stroke-dasharray: 7.0,7.0;"/><!--link N2 to ArrayList--><path d="M406.0654,271.1458 C394.9182,288.2765 379.0467,312.6671 367.2929,330.73 " fill="none" id="N2-ArrayList" style="stroke: #A80036; stroke-width: 1.0; stroke-dasharray: 7.0,7.0;"/><!--
@startuml
class Object << general >>
Object <|- - - ArrayList

note top of Object : In java, every class\nextends this one.

note "This is a floating note" as N1
note "This note is connected\nto several objects." as N2
Object .. N2
N2 .. ArrayList

class Foo
note left: On last defined class

@enduml

PlantUML version 1.2019.05(Sun Apr 21 00:45:36 CST 2019)
(GPL source distribution)
Java Runtime: Java(TM) SE Runtime Environment
JVM: Java HotSpot(TM) 64-Bit Server VM
Java Version: 1.8.0_191-b12
Operating System: Mac OS X
OS Version: 10.16
Default Encoding: UTF-8
Language: en
Country: CN
--></g></svg>